<svg version="1.1" xmlns="http://www.w3.org/2000/svg" viewBox="0 0 121.62793554590053 118.72428024458895" width="121.62793554590053" height="118.72428024458895">
  <!-- svg-source:excalidraw -->
  
  <defs>
    <style class="style-fonts">
      @font-face {
        font-family: "Virgil";
        src: url("https://excalidraw.com/Virgil.woff2");
      }
      @font-face {
        font-family: "Cascadia";
        src: url("https://excalidraw.com/Cascadia.woff2");
      }
      @font-face {
        font-family: "Assistant";
        src: url("https://excalidraw.com/Assistant-Regular.woff2");
      }
    </style>
    
  </defs>
  <g stroke-linecap="round" transform="translate(10 10) rotate(0 50.813967772950264 49.36214012229448)"><path d="M0 0 C35.57 0.87, 69.61 -0.34, 101.63 0 M0 0 C21.99 -0.78, 42.96 -1.29, 101.63 0 M101.63 0 C102.99 25.14, 102.56 50.74, 101.63 98.72 M101.63 0 C101.15 34.14, 101.28 68.03, 101.63 98.72 M101.63 98.72 C68.44 98.25, 31.93 99.69, 0 98.72 M101.63 98.72 C73.07 98.28, 42.87 98.4, 0 98.72 M0 98.72 C1.32 74.93, 0.5 51.59, 0 0 M0 98.72 C-0.07 69.61, -0.14 39.65, 0 0" stroke="transparent" stroke-width="1" fill="none"></path></g><g stroke-linecap="round"><g transform="translate(91.30234843672179 59.362140122296296) rotate(0 -33.392035965081504 -0.7259138253280071)"><path d="M0.28 0.11 C-10.85 -0.4, -56.07 -2.38, -67.24 -2.54 M-1.04 -0.88 C-12.32 -1.33, -57.36 -1.25, -68.42 -1.58" stroke="#000" stroke-width="4" fill="none"></path></g><g transform="translate(91.30234843672179 59.362140122296296) rotate(0 -33.392035965081504 -0.7259138253280071)"><path d="M-44.82 -9.84 C-50.73 -8.4, -58.85 -5.34, -68.42 -1.58 M-44.82 -9.84 C-52.54 -7.8, -61.63 -4.08, -68.42 -1.58" stroke="#000" stroke-width="4" fill="none"></path></g><g transform="translate(91.30234843672179 59.362140122296296) rotate(0 -33.392035965081504 -0.7259138253280071)"><path d="M-45.04 7.26 C-50.96 4.27, -59.02 2.89, -68.42 -1.58 M-45.04 7.26 C-52.81 3.32, -61.82 1.06, -68.42 -1.58" stroke="#000" stroke-width="4" fill="none"></path></g></g><mask></mask></svg>