<svg version="1.1" xmlns="http://www.w3.org/2000/svg" viewBox="0 0 120.16874925216234 118.24242715115906" width="120.16874925216234" height="118.24242715115906">
  <!-- svg-source:excalidraw -->
  
  <defs>
    <style class="style-fonts">
      @font-face {
        font-family: "Virgil";
        src: url("https://excalidraw.com/Virgil.woff2");
      }
      @font-face {
        font-family: "Cascadia";
        src: url("https://excalidraw.com/Cascadia.woff2");
      }
      @font-face {
        font-family: "Assistant";
        src: url("https://excalidraw.com/Assistant-Regular.woff2");
      }
    </style>
    
  </defs>
  <g stroke-linecap="round" transform="translate(10 10) rotate(0 50.08437462608117 49.12121357557953)"><path d="M0 0 C33.68 -1.77, 68.88 2.15, 100.17 0 M0 0 C23.58 0.16, 44.33 -0.82, 100.17 0 M100.17 0 C101.71 33.8, 100.03 65.64, 100.17 98.24 M100.17 0 C101.27 36.79, 100.32 75.03, 100.17 98.24 M100.17 98.24 C60.43 99.63, 19.97 99.4, 0 98.24 M100.17 98.24 C60.35 98.51, 20.98 99.18, 0 98.24 M0 98.24 C1.24 70.32, 0.71 37.2, 0 0 M0 98.24 C0.54 66.18, 0.29 33.03, 0 0" stroke="transparent" stroke-width="1" fill="none"></path></g><g stroke-linecap="round"><g transform="translate(36.96850941404364 63.937018828087275) rotate(0 10.594771555517127 6.742127353511023)"><path d="M0 0 C5.9 4.82, 11.01 7.07, 21.19 13.48 M0 0 C7.18 4.64, 15.45 9.49, 21.19 13.48" stroke="#000" stroke-width="2" fill="none"></path></g></g><mask></mask><g stroke-linecap="round"><g transform="translate(90.90552824213091 33.115865212037534) rotate(0 -16.37373785852651 22.152704161535894)"><path d="M0 0 C-7.28 8.5, -12.51 18.83, -32.75 44.31 M0 0 C-12.34 16.48, -25.29 33.67, -32.75 44.31" stroke="#000" stroke-width="2" fill="none"></path></g></g><mask></mask></svg>