<svg version="1.1" xmlns="http://www.w3.org/2000/svg" viewBox="0 0 121.31199645600827 119.36368883185423" width="121.31199645600827" height="119.36368883185423">
  <!-- svg-source:excalidraw -->
  
  <defs>
    <style class="style-fonts">
      @font-face {
        font-family: "Virgil";
        src: url("https://excalidraw.com/Virgil.woff2");
      }
      @font-face {
        font-family: "Cascadia";
        src: url("https://excalidraw.com/Cascadia.woff2");
      }
      @font-face {
        font-family: "Assistant";
        src: url("https://excalidraw.com/Assistant-Regular.woff2");
      }
    </style>
    
  </defs>
  <g stroke-linecap="round" transform="translate(10 10) rotate(0 50.65599822800414 49.68184441592712)"><path d="M0 0 C31.87 -2.22, 62.35 -1.91, 101.31 0 M0 0 C29.08 0.91, 56.26 0.63, 101.31 0 M101.31 0 C100.08 20.94, 101.65 43.94, 101.31 99.36 M101.31 0 C100.53 36.45, 100.57 73.06, 101.31 99.36 M101.31 99.36 C69.93 101.89, 37.33 99.06, 0 99.36 M101.31 99.36 C77.01 97.82, 51.33 98.23, 0 99.36 M0 99.36 C-0.22 77.41, 0.02 55.97, 0 0 M0 99.36 C0.17 72.23, 0.37 46.53, 0 0" stroke="transparent" stroke-width="1" fill="none"></path></g><g stroke-linecap="round"><g transform="translate(33.37969148984803 40.198768174386714) rotate(0 24.35384530192505 23.379691489848028)"><path d="M0 0 C11.68 9.38, 24.66 19.39, 32.15 25.33 M0 0 C7.99 6.62, 16.4 12.64, 32.15 25.33 M32.15 25.33 C36.92 30.84, 41.17 35.23, 48.71 46.76 M32.15 25.33 C36.12 30.11, 40 34.96, 48.71 46.76" stroke="#000" stroke-width="2" fill="none"></path></g></g><mask></mask><g stroke-linecap="round"><g transform="translate(80.13907446954408 36.302152926078634) rotate(0 -23.379691489848028 25.32799911400207)"><path d="M0 0 C-11.62 10.99, -22.96 24.37, -46.76 50.66 M0 0 C-17.66 16.97, -33.76 35.52, -46.76 50.66" stroke="#000" stroke-width="2" fill="none"></path></g></g><mask></mask></svg>