<svg version="1.1" xmlns="http://www.w3.org/2000/svg" viewBox="0 0 121.03628645753543 121.03628645753543" width="121.03628645753543" height="121.03628645753543">
  <!-- svg-source:excalidraw -->
  
  <defs>
    <style class="style-fonts">
      @font-face {
        font-family: "Virgil";
        src: url("https://excalidraw.com/Virgil.woff2");
      }
      @font-face {
        font-family: "Cascadia";
        src: url("https://excalidraw.com/Cascadia.woff2");
      }
      @font-face {
        font-family: "Assistant";
        src: url("https://excalidraw.com/Assistant-Regular.woff2");
      }
    </style>
    
  </defs>
  <g stroke-linecap="round" transform="translate(10 10) rotate(0 50.51814322876771 50.51814322876771)"><path d="M0 0 C25.88 0, 51.76 0, 101.04 0 M0 0 C36.27 0, 72.53 0, 101.04 0 M101.04 0 C101.04 28.5, 101.04 57, 101.04 101.04 M101.04 0 C101.04 24.41, 101.04 48.82, 101.04 101.04 M101.04 101.04 C62.34 101.04, 23.64 101.04, 0 101.04 M101.04 101.04 C67.13 101.04, 33.23 101.04, 0 101.04 M0 101.04 C0 67.06, 0 33.09, 0 0 M0 101.04 C0 63.46, 0 25.87, 0 0" stroke="transparent" stroke-width="1" fill="none"></path></g><g stroke-linecap="round" transform="translate(12.697626584741556 16.733752622087195) rotate(0 12.261670934365384 11.750767978766817)"><path d="M0 0 C6.5 0.87, 12.8 0.26, 24.52 0 M0 0 C9.28 -0.26, 17.69 -0.1, 24.52 0 M24.52 0 C24.38 7.09, 23.92 15.53, 24.52 23.5 M24.52 0 C24.47 9.34, 24.83 18.59, 24.52 23.5 M24.52 23.5 C14.41 23.69, 5.37 23.81, 0 23.5 M24.52 23.5 C15.84 23.73, 7.08 22.98, 0 23.5 M0 23.5 C0.54 18.95, 0.8 14.11, 0 0 M0 23.5 C-0.38 17.36, -0.34 10.22, 0 0" stroke="#000000" stroke-width="1" fill="none"></path></g><g stroke-linecap="round" transform="translate(85.04148509749848 18.675183853361887) rotate(0 12.261670934365384 11.750767978766817)"><path d="M0 0 C9.39 0.21, 18.22 -0.22, 24.52 0 M0 0 C5.14 -0.12, 10.53 0.01, 24.52 0 M24.52 0 C23.92 9.84, 25.49 17.15, 24.52 23.5 M24.52 0 C24.95 6.13, 25.03 11.98, 24.52 23.5 M24.52 23.5 C17.75 23.84, 10.86 23.8, 0 23.5 M24.52 23.5 C19.15 23.15, 12.98 23.23, 0 23.5 M0 23.5 C0.67 18.69, -0.31 13.62, 0 0 M0 23.5 C-0.17 14.65, -0.08 6.96, 0 0" stroke="#000000" stroke-width="1" fill="none"></path></g><g stroke-linecap="round" transform="translate(11.471459491306632 79.9835385251863) rotate(0 12.261670934365384 11.750767978766817)"><path d="M0 0 C10.28 -0.15, 18.45 0.75, 24.52 0 M0 0 C5.64 -0.03, 11.57 -0.01, 24.52 0 M24.52 0 C25.43 5.44, 24.11 12.89, 24.52 23.5 M24.52 0 C25.11 6.52, 24.57 13.82, 24.52 23.5 M24.52 23.5 C17.27 23.81, 8.1 23.81, 0 23.5 M24.52 23.5 C15.18 23.05, 6.37 23.63, 0 23.5 M0 23.5 C-0.34 16.34, 0.52 6.73, 0 0 M0 23.5 C-0.09 15.38, 0.19 6.69, 0 0" stroke="#000000" stroke-width="1" fill="none"></path></g><g stroke-linecap="round" transform="translate(19.23718441640449 22.25150454254981) rotate(0 5.109029555985671 6.130835467182806)"><path d="M-0.64 0.76 L9.39 0.21 L10.45 12.38 L0.45 12.49" stroke="none" stroke-width="0" fill="#000"></path><path d="M0 0 C2.96 0.41, 6.43 -0.09, 10.22 0 M0 0 C2.86 -0.02, 5.22 -0.14, 10.22 0 M10.22 0 C10.06 4.72, 10.27 9.8, 10.22 12.26 M10.22 0 C10.25 3.31, 10.34 6.94, 10.22 12.26 M10.22 12.26 C6.45 12.41, 3.76 12.46, 0 12.26 M10.22 12.26 C7.85 12.34, 5.95 12.41, 0 12.26 M0 12.26 C0.39 7.5, 0.4 3.12, 0 0 M0 12.26 C0.1 9.67, 0.29 6.49, 0 0" stroke="#000000" stroke-width="1" fill="none"></path></g><g stroke-linecap="round" transform="translate(91.5810429291596 22.660226907028118) rotate(0 5.109029555985671 6.130835467182806)"><path d="M-0.82 0.21 L10.45 0.12 L10.67 12.49 L0.47 11.4" stroke="none" stroke-width="0" fill="#000"></path><path d="M0 0 C2.59 -0.13, 5.71 0.03, 10.22 0 M0 0 C2.83 -0.14, 6.01 0.26, 10.22 0 M10.22 0 C10.18 3.03, 10.07 5.64, 10.22 12.26 M10.22 0 C10.27 2.6, 10.31 5.16, 10.22 12.26 M10.22 12.26 C7.2 12.46, 3.09 11.83, 0 12.26 M10.22 12.26 C7.99 12.47, 5.68 12.22, 0 12.26 M0 12.26 C0.35 7.12, -0.51 2.37, 0 0 M0 12.26 C0.26 7.31, -0.21 3.17, 0 0" stroke="#000000" stroke-width="1" fill="none"></path></g><g stroke-linecap="round" transform="translate(18.419739687446054 85.39910985453389) rotate(0 5.109029555985671 6.130835467182806)"><path d="M0.23 0.12 L10.67 0.23 L10.68 11.4 L-0.75 11.38" stroke="none" stroke-width="0" fill="#000"></path><path d="M0 0 C3.66 0.08, 7.66 0.44, 10.22 0 M0 0 C3.13 0.28, 5.63 -0.06, 10.22 0 M10.22 0 C10.09 4.42, 9.62 7.58, 10.22 12.26 M10.22 0 C10.33 3.41, 10.31 6.24, 10.22 12.26 M10.22 12.26 C6.44 11.84, 3.18 11.93, 0 12.26 M10.22 12.26 C6.84 12.23, 3.4 12.45, 0 12.26 M0 12.26 C-0.51 9.06, 0.45 6.37, 0 0 M0 12.26 C-0.25 8.23, -0.31 3.8, 0 0" stroke="#000000" stroke-width="1" fill="none"></path></g><g stroke-linecap="round" transform="translate(43.55616510289656 19.390447991198016) rotate(0 2.5545147779926083 3.5763206891897426)"><path d="M0.3 0.15 L5.42 -0.57 L4.61 6.57 L0.54 7.15" stroke="none" stroke-width="0" fill="#000"></path><path d="M0 0 C1.41 0.14, 2.86 -0.05, 5.11 0 M0 0 C1.15 -0.05, 2.48 -0.02, 5.11 0 M5.11 0 C4.87 2.72, 5.02 5.53, 5.11 7.15 M5.11 0 C5.15 2.31, 5.15 4.88, 5.11 7.15 M5.11 7.15 C3.27 7.02, 1.75 7.22, 0 7.15 M5.11 7.15 C3.29 7.2, 1.26 7.2, 0 7.15 M0 7.15 C0.21 5.4, 0.13 3.72, 0 0 M0 7.15 C-0.08 5.72, 0.04 4.24, 0 0" stroke="#000000" stroke-width="1" fill="none"></path></g><g stroke-linecap="round" transform="translate(49.99355696720886 18.928888220601948) rotate(0 2.5545147779926083 3.5763206891897426)"><path d="M0.31 -0.57 L4.61 -0.59 L5.65 7.15 L-0.14 7.13" stroke="none" stroke-width="0" fill="#000"></path><path d="M0 0 C1.58 -0.06, 3.1 0.12, 5.11 0 M0 0 C2.04 0, 4.13 -0.01, 5.11 0 M5.11 0 C5 2.89, 5.17 5.77, 5.11 7.15 M5.11 0 C5.15 2.65, 5.16 5.04, 5.11 7.15 M5.11 7.15 C4.1 7.22, 3.06 7.25, 0 7.15 M5.11 7.15 C3.66 7.22, 2.27 7.1, 0 7.15 M0 7.15 C0.09 5.42, -0.25 3.11, 0 0 M0 7.15 C0.05 4.47, 0.07 1.8, 0 0" stroke="#000000" stroke-width="1" fill="none"></path></g><g stroke-linecap="round" transform="translate(63.481394995011215 18.928888220601948) rotate(0 2.5545147779926083 3.5763206891897426)"><path d="M-0.5 -0.59 L5.65 0 L4.97 7.13 L0.13 6.78" stroke="none" stroke-width="0" fill="#000"></path><path d="M0 0 C1.87 0.14, 4.1 -0.16, 5.11 0 M0 0 C1.43 -0.02, 2.79 -0.08, 5.11 0 M5.11 0 C5.19 2.16, 5.24 4.22, 5.11 7.15 M5.11 0 C5.16 1.52, 5.01 3.16, 5.11 7.15 M5.11 7.15 C4.05 7.27, 2.71 7.32, 0 7.15 M5.11 7.15 C3.23 7.1, 1.4 7.23, 0 7.15 M0 7.15 C-0.24 4.66, 0.17 2.29, 0 0 M0 7.15 C0.05 4.88, 0.05 2.46, 0 0" stroke="#000000" stroke-width="1" fill="none"></path></g><g stroke-linecap="round" transform="translate(43.862721500025145 27.51205787465733) rotate(0 2.5545147779926083 3.5763206891897426)"><path d="M0.54 0 L4.97 -0.03 L5.24 6.78 L0.64 7.1" stroke="none" stroke-width="0" fill="#000"></path><path d="M0 0 C1.56 -0.17, 2.72 0.01, 5.11 0 M0 0 C1.61 -0.08, 3.04 -0.03, 5.11 0 M5.11 0 C5.26 2.35, 4.94 4.64, 5.11 7.15 M5.11 0 C5.01 2.51, 5.04 5.25, 5.11 7.15 M5.11 7.15 C3.3 7.33, 1.68 7.07, 0 7.15 M5.11 7.15 C3.23 7.21, 1.43 7.18, 0 7.15 M0 7.15 C0.2 4.18, 0.07 1.65, 0 0 M0 7.15 C0.04 4.82, -0.1 2.59, 0 0" stroke="#000000" stroke-width="1" fill="none"></path></g><g stroke-linecap="round" transform="translate(58.57672662126515 27.08924163554184) rotate(0 2.5545147779926083 3.5763206891897426)"><path d="M-0.14 -0.03 L5.24 -0.37 L5.75 7.1 L0.47 7.03" stroke="none" stroke-width="0" fill="#000"></path><path d="M0 0 C1.88 0.04, 3.87 0.16, 5.11 0 M0 0 C1.42 -0.01, 2.86 0.05, 5.11 0 M5.11 0 C4.95 2.44, 5.27 4.83, 5.11 7.15 M5.11 0 C5.01 1.59, 5.14 3.15, 5.11 7.15 M5.11 7.15 C3.37 7.08, 1.52 7.09, 0 7.15 M5.11 7.15 C3.99 7.21, 2.9 7.08, 0 7.15 M0 7.15 C0.03 5.52, 0.01 3.89, 0 0 M0 7.15 C-0.1 4.74, 0.09 2.53, 0 0" stroke="#000000" stroke-width="1" fill="none"></path></g><g stroke-linecap="round" transform="translate(51.219724060644694 35.67241128959722) rotate(0 2.5545147779926083 3.5763206891897426)"><path d="M0.13 -0.37 L5.75 -0.05 L5.58 7.03 L-0.46 6.65" stroke="none" stroke-width="0" fill="#000"></path><path d="M0 0 C1.05 0.14, 2.06 0.16, 5.11 0 M0 0 C1.05 0.04, 2.1 0.06, 5.11 0 M5.11 0 C5.24 2.43, 4.89 4.47, 5.11 7.15 M5.11 0 C5.15 1.73, 5.17 3.26, 5.11 7.15 M5.11 7.15 C3.19 7.07, 0.93 7.1, 0 7.15 M5.11 7.15 C3.24 7.08, 1.17 7.23, 0 7.15 M0 7.15 C0.02 5.7, 0.05 4.15, 0 0 M0 7.15 C0.11 5.62, -0.01 4.09, 0 0" stroke="#000000" stroke-width="1" fill="none"></path></g><g stroke-linecap="round" transform="translate(58.57672662126515 43.02941385021768) rotate(0 2.5545147779926083 3.5763206891897426)"><path d="M0.64 -0.05 L5.58 -0.13 L4.65 6.65 L0.41 7.16" stroke="none" stroke-width="0" fill="#000"></path><path d="M0 0 C1.55 0.15, 3.02 -0.03, 5.11 0 M0 0 C1.37 0.04, 2.72 -0.07, 5.11 0 M5.11 0 C4.92 2.13, 4.96 4.51, 5.11 7.15 M5.11 0 C5.19 2.44, 5.23 5.02, 5.11 7.15 M5.11 7.15 C3.72 7.1, 2.72 7.19, 0 7.15 M5.11 7.15 C3.28 7.2, 1.49 7.15, 0 7.15 M0 7.15 C0.05 4.95, -0.21 2.35, 0 0 M0 7.15 C-0.04 5.63, 0 4.05, 0 0" stroke="#000000" stroke-width="1" fill="none"></path></g><g stroke-linecap="round" transform="translate(51.219724060644694 43.02941385021768) rotate(0 2.5545147779926083 3.5763206891897426)"><path d="M0.47 -0.13 L4.65 -0.5 L5.51 7.16 L0.04 7.33" stroke="none" stroke-width="0" fill="#000"></path><path d="M0 0 C1.79 -0.03, 3.85 0.02, 5.11 0 M0 0 C1.74 -0.07, 3.45 0.04, 5.11 0 M5.11 0 C4.92 2.24, 5.2 4.92, 5.11 7.15 M5.11 0 C5.24 2.73, 5.06 5.4, 5.11 7.15 M5.11 7.15 C3.95 7.19, 2.59 7.3, 0 7.15 M5.11 7.15 C3.99 7.18, 3.04 7.18, 0 7.15 M0 7.15 C-0.21 4.51, -0.22 2.41, 0 0 M0 7.15 C0.03 4.94, 0.12 2.86, 0 0" stroke="#000000" stroke-width="1" fill="none"></path></g><g stroke-linecap="round" transform="translate(31.601050565660444 43.02941385021768) rotate(0 2.5545147779926083 3.5763206891897426)"><path d="M-0.46 -0.5 L5.51 0.01 L5.15 7.33 L-0.43 7.5" stroke="none" stroke-width="0" fill="#000"></path><path d="M0 0 C1.97 0.04, 4.12 0.06, 5.11 0 M0 0 C1.86 0.07, 3.7 -0.06, 5.11 0 M5.11 0 C5.2 1.63, 5.26 3.19, 5.11 7.15 M5.11 0 C5.07 2.04, 5.08 3.84, 5.11 7.15 M5.11 7.15 C3.8 7.31, 2.17 7.05, 0 7.15 M5.11 7.15 C3.21 7.17, 1.3 7.18, 0 7.15 M0 7.15 C-0.19 4.87, 0.02 2.15, 0 0 M0 7.15 C0.11 5.03, 0.08 2.89, 0 0" stroke="#000000" stroke-width="1" fill="none"></path></g><g stroke-linecap="round" transform="translate(20.565546724732485 43.02941385021768) rotate(0 2.5545147779926083 3.5763206891897426)"><path d="M0.41 0.01 L5.15 0.18 L4.68 7.5 L0.07 7.41" stroke="none" stroke-width="0" fill="#000"></path><path d="M0 0 C1.55 0.05, 3.07 0.04, 5.11 0 M0 0 C1.19 -0.08, 2.24 -0.07, 5.11 0 M5.11 0 C5.29 1.8, 5.06 3.53, 5.11 7.15 M5.11 0 C5.04 2.49, 5.06 5.25, 5.11 7.15 M5.11 7.15 C3.28 7.06, 1.9 7.03, 0 7.15 M5.11 7.15 C3.51 7.17, 1.87 7.08, 0 7.15 M0 7.15 C0.02 5.49, 0.01 3.97, 0 0 M0 7.15 C0.06 5.38, -0.11 3.57, 0 0" stroke="#000000" stroke-width="1" fill="none"></path></g><g stroke-linecap="round" transform="translate(15.660878350985513 43.02941385021768) rotate(0 2.5545147779926083 3.5763206891897426)"><path d="M0.04 0.18 L4.68 0.35 L5.18 7.41 L0.36 7.44" stroke="none" stroke-width="0" fill="#000"></path><path d="M0 0 C1.74 0.04, 3.14 0.04, 5.11 0 M0 0 C1.78 -0.05, 3.65 0.05, 5.11 0 M5.11 0 C5.07 2.7, 5.27 4.82, 5.11 7.15 M5.11 0 C5.06 2.69, 5.13 5.24, 5.11 7.15 M5.11 7.15 C3.25 7, 1.17 7.18, 0 7.15 M5.11 7.15 C3.56 7.08, 1.86 7.08, 0 7.15 M0 7.15 C-0.01 4.47, -0.13 1.93, 0 0 M0 7.15 C-0.1 4.97, 0.06 2.97, 0 0" stroke="#000000" stroke-width="1" fill="none"></path></g><g stroke-linecap="round" transform="translate(26.69638219191438 51.61258350427306) rotate(0 2.5545147779926083 3.5763206891897426)"><path d="M-0.43 0.35 L5.18 0.25 L5.47 7.44 L-0.64 6.52" stroke="none" stroke-width="0" fill="#000"></path><path d="M0 0 C1.57 0.04, 3.5 0.06, 5.11 0 M0 0 C1.04 0.05, 2.23 0.07, 5.11 0 M5.11 0 C5.25 2.46, 5.25 5.06, 5.11 7.15 M5.11 0 C5.13 1.66, 5.21 3.08, 5.11 7.15 M5.11 7.15 C3.94 7.18, 2.72 7.22, 0 7.15 M5.11 7.15 C3.39 7.06, 1.88 7.14, 0 7.15 M0 7.15 C-0.13 5.38, -0.02 3.32, 0 0 M0 7.15 C0.09 5.14, 0.02 3.17, 0 0" stroke="#000000" stroke-width="1" fill="none"></path></g><g stroke-linecap="round" transform="translate(51.219724060644694 51.61258350427306) rotate(0 2.5545147779926083 3.5763206891897426)"><path d="M0.07 0.25 L5.47 0.28 L4.47 6.52 L0.63 7.38" stroke="none" stroke-width="0" fill="#000"></path><path d="M0 0 C1.78 0.06, 3.2 -0.15, 5.11 0 M0 0 C1.21 0.05, 2.4 -0.03, 5.11 0 M5.11 0 C5.27 2.73, 4.94 5.6, 5.11 7.15 M5.11 0 C5.22 2.6, 5.04 5.53, 5.11 7.15 M5.11 7.15 C4.02 7.23, 2.92 7.24, 0 7.15 M5.11 7.15 C4.09 7.14, 2.91 7.13, 0 7.15 M0 7.15 C0 5.04, -0.03 2.42, 0 0 M0 7.15 C-0.01 5.57, -0.09 3.99, 0 0" stroke="#000000" stroke-width="1" fill="none"></path></g><g stroke-linecap="round" transform="translate(43.862721500025145 51.61258350427306) rotate(0 2.5545147779926083 3.5763206891897426)"><path d="M0.36 0.28 L4.47 -0.63 L5.74 7.38 L0.07 7.73" stroke="none" stroke-width="0" fill="#000"></path><path d="M0 0 C1.52 -0.15, 3.22 -0.12, 5.11 0 M0 0 C1.82 -0.03, 3.61 0.04, 5.11 0 M5.11 0 C4.94 1.7, 5.31 3.59, 5.11 7.15 M5.11 0 C5.05 2.58, 5.03 5, 5.11 7.15 M5.11 7.15 C3.5 7.24, 1.66 7.03, 0 7.15 M5.11 7.15 C4.01 7.15, 2.96 7.1, 0 7.15 M0 7.15 C-0.04 4.15, -0.18 1.63, 0 0 M0 7.15 C-0.08 5.06, 0.01 2.89, 0 0" stroke="#000000" stroke-width="1" fill="none"></path></g><g stroke-linecap="round" transform="translate(38.19698389587029 45.14349504579695) rotate(0 2.5545147779926083 3.5763206891897426)"><path d="M-0.64 -0.63 L5.74 0.23 L5.18 7.73 L-0.3 6.83" stroke="none" stroke-width="0" fill="#000"></path><path d="M0 0 C1.6 -0.1, 3.51 0.09, 5.11 0 M0 0 C1.98 0.06, 3.76 0.06, 5.11 0 M5.11 0 C5.28 1.88, 5.2 3.85, 5.11 7.15 M5.11 0 C5 1.49, 5.12 2.94, 5.11 7.15 M5.11 7.15 C3.2 7.03, 1.43 7.3, 0 7.15 M5.11 7.15 C3.6 7.1, 2.13 7.15, 0 7.15 M0 7.15 C-0.17 4.65, 0.01 1.87, 0 0 M0 7.15 C0.03 4.86, 0.08 2.52, 0 0" stroke="#000000" stroke-width="1" fill="none"></path></g><g stroke-linecap="round" transform="translate(65.48447961593683 37.25443409385298) rotate(0 2.5545147779926083 3.5763206891897426)"><path d="M0.63 0.23 L5.18 0.58 L4.81 6.83 L-0.54 7.44" stroke="none" stroke-width="0" fill="#000"></path><path d="M0 0 C1.17 0.09, 2.3 0.12, 5.11 0 M0 0 C1.36 0.04, 2.77 -0.08, 5.11 0 M5.11 0 C5.24 2.15, 4.9 3.73, 5.11 7.15 M5.11 0 C5.12 2.71, 5.14 5.41, 5.11 7.15 M5.11 7.15 C3.19 7.28, 1.57 7.11, 0 7.15 M5.11 7.15 C3.68 7.14, 2.14 7.13, 0 7.15 M0 7.15 C0.02 5.52, 0.08 3.7, 0 0 M0 7.15 C0.06 4.68, -0.12 2, 0 0" stroke="#000000" stroke-width="1" fill="none"></path></g><g stroke-linecap="round" transform="translate(71.92187148025005 36.79287432325509) rotate(0 2.5545147779926083 3.5763206891897426)"><path d="M0.07 0.58 L4.81 -0.32 L4.57 7.44 L0.3 7.65" stroke="none" stroke-width="0" fill="#000"></path><path d="M0 0 C1.3 0.1, 2.31 0.16, 5.11 0 M0 0 C1.8 -0.08, 3.66 0.06, 5.11 0 M5.11 0 C4.89 2.18, 5.3 4.47, 5.11 7.15 M5.11 0 C5.17 2.32, 5.17 4.49, 5.11 7.15 M5.11 7.15 C3.96 7.13, 2.8 7.2, 0 7.15 M5.11 7.15 C3.92 7.14, 2.56 7.09, 0 7.15 M0 7.15 C0.06 4.42, 0.12 2.02, 0 0 M0 7.15 C-0.13 4.62, 0.1 2.36, 0 0" stroke="#000000" stroke-width="1" fill="none"></path></g><g stroke-linecap="round" transform="translate(65.79103601306724 45.376043977310474) rotate(0 2.5545147779926083 3.5763206891897426)"><path d="M-0.3 -0.32 L4.57 0.29 L5.41 7.65 L-0.06 6.8" stroke="none" stroke-width="0" fill="#000"></path><path d="M0 0 C1.72 0.15, 3.63 -0.1, 5.11 0 M0 0 C1.83 0.08, 3.73 0.05, 5.11 0 M5.11 0 C5.27 2.58, 5.14 5.62, 5.11 7.15 M5.11 0 C5.18 2.13, 5.03 4.36, 5.11 7.15 M5.11 7.15 C3.16 7.18, 1.12 7.31, 0 7.15 M5.11 7.15 C3.56 7.09, 2.17 7.15, 0 7.15 M0 7.15 C0.12 4.99, 0.08 2.91, 0 0 M0 7.15 C0.14 4.75, 0.04 2.36, 0 0" stroke="#000000" stroke-width="1" fill="none"></path></g><g stroke-linecap="round" transform="translate(80.50504113430543 44.95322773819498) rotate(0 2.5545147779926083 3.5763206891897426)"><path d="M-0.54 0.29 L5.41 0.49 L5.05 6.8 L-0.02 6.74" stroke="none" stroke-width="0" fill="#000"></path><path d="M0 0 C1.95 -0.11, 3.8 -0.09, 5.11 0 M0 0 C1.16 0.03, 2.36 -0.1, 5.11 0 M5.11 0 C5.18 1.74, 5.16 3.48, 5.11 7.15 M5.11 0 C5.03 2.21, 5.22 4.62, 5.11 7.15 M5.11 7.15 C3.59 7.32, 2.24 7.28, 0 7.15 M5.11 7.15 C3.73 7.14, 2.24 7.16, 0 7.15 M0 7.15 C0.08 5.6, 0.09 3.56, 0 0 M0 7.15 C-0.01 5.78, -0.08 4.15, 0 0" stroke="#000000" stroke-width="1" fill="none"></path></g><g stroke-linecap="round" transform="translate(73.14803857368679 53.536397392250365) rotate(0 2.5545147779926083 3.5763206891897426)"><path d="M0.3 0.49 L5.05 -0.35 L5.09 6.74 L0.34 7.01" stroke="none" stroke-width="0" fill="#000"></path><path d="M0 0 C2.13 -0.07, 3.92 -0.04, 5.11 0 M0 0 C2.02 -0.09, 3.83 0.06, 5.11 0 M5.11 0 C5.14 1.66, 5.17 3.22, 5.11 7.15 M5.11 0 C5.19 1.53, 5.07 3.05, 5.11 7.15 M5.11 7.15 C3.47 7.29, 1.82 7.05, 0 7.15 M5.11 7.15 C3.96 7.18, 2.75 7.2, 0 7.15 M0 7.15 C0.09 4.7, -0.23 2.93, 0 0 M0 7.15 C-0.06 4.7, -0.1 2.41, 0 0" stroke="#000000" stroke-width="1" fill="none"></path></g><g stroke-linecap="round" transform="translate(80.50504113430543 60.89339995287082) rotate(0 2.5545147779926083 3.5763206891897426)"><path d="M-0.06 -0.35 L5.09 -0.41 L5.45 7.01 L-0.29 7.42" stroke="none" stroke-width="0" fill="#000"></path><path d="M0 0 C1.13 -0.04, 2.66 0.05, 5.11 0 M0 0 C1.72 0.08, 3.48 0.03, 5.11 0 M5.11 0 C5.17 2.42, 4.91 4.44, 5.11 7.15 M5.11 0 C5.1 1.51, 5.15 2.96, 5.11 7.15 M5.11 7.15 C3.05 7.05, 0.93 7.27, 0 7.15 M5.11 7.15 C3.52 7.2, 2.04 7.19, 0 7.15 M0 7.15 C-0.23 4.85, 0.07 2.12, 0 0 M0 7.15 C-0.09 4.44, 0.07 1.71, 0 0" stroke="#000000" stroke-width="1" fill="none"></path></g><g stroke-linecap="round" transform="translate(73.14803857368679 60.89339995287082) rotate(0 2.5545147779926083 3.5763206891897426)"><path d="M-0.02 -0.41 L5.45 -0.14 L4.82 7.42 L0.62 7.31" stroke="none" stroke-width="0" fill="#000"></path><path d="M0 0 C1.44 0.05, 2.68 0.16, 5.11 0 M0 0 C0.97 0, 2.11 0, 5.11 0 M5.11 0 C4.91 2.29, 4.9 5.13, 5.11 7.15 M5.11 0 C5.13 2.08, 5.22 4.27, 5.11 7.15 M5.11 7.15 C3.09 7.24, 1.33 7.15, 0 7.15 M5.11 7.15 C3.45 7.19, 1.81 7.2, 0 7.15 M0 7.15 C0.11 5.71, 0.23 4.12, 0 0 M0 7.15 C0.07 5.44, 0.01 3.48, 0 0" stroke="#000000" stroke-width="1" fill="none"></path></g><g stroke-linecap="round" transform="translate(73.14803857368679 69.4765696069262) rotate(0 2.5545147779926083 3.5763206891897426)"><path d="M0.34 -0.14 L4.82 0.27 L5.73 7.31 L0.58 6.72" stroke="none" stroke-width="0" fill="#000"></path><path d="M0 0 C1.47 0.15, 2.61 -0.11, 5.11 0 M0 0 C1.94 0.01, 3.88 0.02, 5.11 0 M5.11 0 C4.88 2.67, 5.09 4.91, 5.11 7.15 M5.11 0 C5.23 2.11, 5.2 4.21, 5.11 7.15 M5.11 7.15 C3.93 7.17, 2.8 7.05, 0 7.15 M5.11 7.15 C3.35 7.2, 1.43 7.08, 0 7.15 M0 7.15 C0.2 4.22, -0.12 1.31, 0 0 M0 7.15 C-0.02 4.64, -0.01 2.17, 0 0" stroke="#000000" stroke-width="1" fill="none"></path></g><g stroke-linecap="round" transform="translate(65.79103601306724 69.4765696069262) rotate(0 2.5545147779926083 3.5763206891897426)"><path d="M-0.29 0.27 L5.73 0.16 L5.69 6.72 L-0.16 7" stroke="none" stroke-width="0" fill="#000"></path><path d="M0 0 C1.5 -0.12, 3.47 -0.16, 5.11 0 M0 0 C1.68 0.02, 3.32 -0.08, 5.11 0 M5.11 0 C5.09 1.56, 5.08 3.27, 5.11 7.15 M5.11 0 C5.22 1.72, 5.05 3.4, 5.11 7.15 M5.11 7.15 C3.31 7.04, 1.51 7.17, 0 7.15 M5.11 7.15 C3.3 7.08, 1.74 7.19, 0 7.15 M0 7.15 C-0.13 4.74, 0.08 2.82, 0 0 M0 7.15 C0 4.4, 0.06 1.78, 0 0" stroke="#000000" stroke-width="1" fill="none"></path></g><g stroke-linecap="round" transform="translate(87.30179755432528 52.77179006941151) rotate(0 2.5545147779926083 3.5763206891897426)"><path d="M0.62 0.16 L5.69 -0.44 L4.95 7 L0.47 6.69" stroke="none" stroke-width="0" fill="#000"></path><path d="M0 0 C2.12 -0.13, 4.01 0.05, 5.11 0 M0 0 C1.63 -0.08, 3.12 -0.08, 5.11 0 M5.11 0 C5.1 2.77, 4.98 5.68, 5.11 7.15 M5.11 0 C5.04 2, 5.2 4.18, 5.11 7.15 M5.11 7.15 C3.64 7.16, 2.05 7.23, 0 7.15 M5.11 7.15 C3.44 7.17, 1.62 7.21, 0 7.15 M0 7.15 C0.11 5.44, 0.19 3.48, 0 0 M0 7.15 C0.06 5.36, -0.05 3.66, 0 0" stroke="#000000" stroke-width="1" fill="none"></path></g><g stroke-linecap="round" transform="translate(93.73918941863849 52.31023029881544) rotate(0 2.5545147779926083 3.5763206891897426)"><path d="M0.58 -0.44 L4.95 -0.16 L5.58 6.69 L-0.48 7.43" stroke="none" stroke-width="0" fill="#000"></path><path d="M0 0 C1.24 0.05, 2.43 0.09, 5.11 0 M0 0 C1.59 -0.06, 3.37 0.01, 5.11 0 M5.11 0 C4.97 2.23, 5.09 4.17, 5.11 7.15 M5.11 0 C5.16 2.01, 5.1 4.05, 5.11 7.15 M5.11 7.15 C3.97 7.25, 2.78 6.99, 0 7.15 M5.11 7.15 C4.07 7.23, 2.97 7.12, 0 7.15 M0 7.15 C0.17 5.56, -0.14 4, 0 0 M0 7.15 C-0.06 5.5, 0.1 3.77, 0 0" stroke="#000000" stroke-width="1" fill="none"></path></g><g stroke-linecap="round" transform="translate(87.60835395145477 60.89339995287082) rotate(0 2.5545147779926083 3.5763206891897426)"><path d="M-0.16 -0.16 L5.58 -0.46 L4.63 7.43 L0.05 7.15" stroke="none" stroke-width="0" fill="#000"></path><path d="M0 0 C1.13 0.07, 2.26 0.08, 5.11 0 M0 0 C1.16 0.01, 2.17 0.01, 5.11 0 M5.11 0 C5.08 2.45, 5.05 4.4, 5.11 7.15 M5.11 0 C5.13 1.64, 5.05 3.29, 5.11 7.15 M5.11 7.15 C3.59 7, 1.77 7.32, 0 7.15 M5.11 7.15 C3.36 7.13, 1.62 7.2, 0 7.15 M0 7.15 C-0.14 4.67, -0.16 2.33, 0 0 M0 7.15 C0.12 5.19, 0.11 3.09, 0 0" stroke="#000000" stroke-width="1" fill="none"></path></g><g stroke-linecap="round" transform="translate(103.54852616613061 59.24441662031677) rotate(0 2.5545147779926083 3.5763206891897426)"><path d="M0.47 -0.46 L4.63 0.28 L5.16 7.15 L0.29 7.34" stroke="none" stroke-width="0" fill="#000"></path><path d="M0 0 C1.69 0.07, 3.15 -0.13, 5.11 0 M0 0 C1.07 0, 2.18 -0.05, 5.11 0 M5.11 0 C5.06 2.67, 4.93 5.81, 5.11 7.15 M5.11 0 C5.03 2.21, 5.12 4.35, 5.11 7.15 M5.11 7.15 C3.14 7.3, 1.55 7.15, 0 7.15 M5.11 7.15 C3.07 7.18, 1.2 7.21, 0 7.15 M0 7.15 C-0.13 5.19, -0.04 2.88, 0 0 M0 7.15 C0.08 4.64, -0.05 2.25, 0 0" stroke="#000000" stroke-width="1" fill="none"></path></g><g stroke-linecap="round" transform="translate(96.19152360551197 67.82758627437215) rotate(0 2.5545147779926083 3.5763206891897426)"><path d="M-0.48 0.28 L5.16 -0.01 L5.4 7.34 L-0.6 7.59" stroke="none" stroke-width="0" fill="#000"></path><path d="M0 0 C1.62 -0.13, 3.38 0.13, 5.11 0 M0 0 C1.55 -0.05, 3.14 -0.01, 5.11 0 M5.11 0 C4.93 2.79, 5.11 5.31, 5.11 7.15 M5.11 0 C5.11 2.39, 5.16 4.73, 5.11 7.15 M5.11 7.15 C4.12 7.19, 3.16 7.09, 0 7.15 M5.11 7.15 C3.86 7.22, 2.53 7.12, 0 7.15 M0 7.15 C-0.04 4.92, 0.11 3.12, 0 0 M0 7.15 C-0.05 4.81, 0.06 2.45, 0 0" stroke="#000000" stroke-width="1" fill="none"></path></g><g stroke-linecap="round" transform="translate(103.54852616613061 75.18458883499261) rotate(0 2.5545147779926083 3.5763206891897426)"><path d="M0.05 -0.01 L5.4 0.18 L4.51 7.59 L-0.1 7.51" stroke="none" stroke-width="0" fill="#000"></path><path d="M0 0 C1.62 0.15, 3.54 -0.02, 5.11 0 M0 0 C1.59 0, 3.09 -0.01, 5.11 0 M5.11 0 C5.09 1.66, 5.16 3.14, 5.11 7.15 M5.11 0 C5.18 2.57, 5 4.93, 5.11 7.15 M5.11 7.15 C3.24 7.08, 0.99 7.02, 0 7.15 M5.11 7.15 C3.35 7.12, 1.6 7.11, 0 7.15 M0 7.15 C0.1 4.86, 0.06 2.34, 0 0 M0 7.15 C0.09 5.39, -0.08 3.85, 0 0" stroke="#000000" stroke-width="1" fill="none"></path></g><g stroke-linecap="round" transform="translate(96.19152360551197 75.18458883499261) rotate(0 2.5545147779926083 3.5763206891897426)"><path d="M0.29 0.18 L4.51 0.44 L5.01 7.51 L0.1 6.59" stroke="none" stroke-width="0" fill="#000"></path><path d="M0 0 C1.15 -0.05, 2.3 0.02, 5.11 0 M0 0 C1.31 -0.01, 2.44 -0.06, 5.11 0 M5.11 0 C5.17 2.43, 5.23 5.19, 5.11 7.15 M5.11 0 C5.01 2.31, 5.24 4.88, 5.11 7.15 M5.11 7.15 C3.44 7.01, 2.01 7.22, 0 7.15 M5.11 7.15 C3.2 7.09, 1.33 7.13, 0 7.15 M0 7.15 C0.05 5.53, -0.17 3.43, 0 0 M0 7.15 C-0.1 5.22, -0.01 3.19, 0 0" stroke="#000000" stroke-width="1" fill="none"></path></g><g stroke-linecap="round" transform="translate(96.19152360551197 83.76775848904799) rotate(0 2.5545147779926083 3.5763206891897426)"><path d="M-0.6 0.44 L5.01 0.36 L5.21 6.59 L0.54 7.46" stroke="none" stroke-width="0" fill="#000"></path><path d="M0 0 C1.94 0.04, 3.8 0.17, 5.11 0 M0 0 C1.43 -0.06, 3.04 0, 5.11 0 M5.11 0 C5.24 2.21, 5.21 4.5, 5.11 7.15 M5.11 0 C5.2 2.49, 5.1 5, 5.11 7.15 M5.11 7.15 C3.88 7.22, 2.63 7.12, 0 7.15 M5.11 7.15 C3.89 7.12, 2.54 7.18, 0 7.15 M0 7.15 C-0.16 4.29, -0.06 1.71, 0 0 M0 7.15 C0.03 5.5, 0.07 3.88, 0 0" stroke="#000000" stroke-width="1" fill="none"></path></g><g stroke-linecap="round" transform="translate(88.83452104489152 83.76775848904799) rotate(0 2.5545147779926083 3.5763206891897426)"><path d="M-0.1 0.36 L5.21 -0.56 L5.65 7.46 L0.46 7.76" stroke="none" stroke-width="0" fill="#000"></path><path d="M0 0 C1.33 0.16, 2.84 0.12, 5.11 0 M0 0 C1.49 0.01, 2.88 0.04, 5.11 0 M5.11 0 C5.21 1.81, 5.22 3.13, 5.11 7.15 M5.11 0 C5.14 1.58, 5.08 2.89, 5.11 7.15 M5.11 7.15 C4.11 7.15, 2.78 7.16, 0 7.15 M5.11 7.15 C3.85 7.18, 2.75 7.17, 0 7.15 M0 7.15 C-0.04 4.55, -0.15 1.45, 0 0 M0 7.15 C0.05 4.74, -0.11 2.35, 0 0" stroke="#000000" stroke-width="1" fill="none"></path></g><g stroke-linecap="round" transform="translate(102.59189711324507 44.76296043059301) rotate(0 2.5545147779926083 3.5763206891897426)"><path d="M0.1 -0.56 L5.65 0.3 L5.57 7.76 L0.19 7.4" stroke="none" stroke-width="0" fill="#000"></path><path d="M0 0 C1.62 0.1, 3.23 -0.13, 5.11 0 M0 0 C1.16 0.02, 2.25 0.04, 5.11 0 M5.11 0 C5.22 2, 4.89 4.68, 5.11 7.15 M5.11 0 C5.06 2.34, 5.02 4.84, 5.11 7.15 M5.11 7.15 C3.25 7.15, 1.47 7.24, 0 7.15 M5.11 7.15 C3.77 7.18, 2.34 7.1, 0 7.15 M0 7.15 C-0.16 5.01, 0.1 3.23, 0 0 M0 7.15 C-0.12 5.09, -0.03 2.94, 0 0" stroke="#000000" stroke-width="1" fill="none"></path></g><g stroke-linecap="round" transform="translate(80.90142404659127 83.55635036949025) rotate(0 2.5545147779926083 3.5763206891897426)"><path d="M0.54 0.3 L5.57 0.61 L5.3 7.4 L0.28 7.1" stroke="none" stroke-width="0" fill="#000"></path><path d="M0 0 C1.99 -0.13, 3.92 0.09, 5.11 0 M0 0 C1.48 0.04, 3.08 0.03, 5.11 0 M5.11 0 C4.89 2.76, 5.2 5.08, 5.11 7.15 M5.11 0 C5 2.81, 5.15 5.61, 5.11 7.15 M5.11 7.15 C3.52 7.24, 2.1 7.08, 0 7.15 M5.11 7.15 C3.44 7.1, 1.61 7.14, 0 7.15 M0 7.15 C0.11 4.52, 0.01 1.95, 0 0 M0 7.15 C0 4.87, 0.04 2.37, 0 0" stroke="#000000" stroke-width="1" fill="none"></path></g><g stroke-linecap="round" transform="translate(80.90142404659127 92.13952002354563) rotate(0 2.5545147779926083 3.5763206891897426)"><path d="M0.46 0.61 L5.3 0.25 L5.39 7.1 L-0.07 7.62" stroke="none" stroke-width="0" fill="#000"></path><path d="M0 0 C1.76 0.12, 3.78 0.02, 5.11 0 M0 0 C1.68 0.02, 3.39 0.03, 5.11 0 M5.11 0 C5.17 1.49, 5.29 2.82, 5.11 7.15 M5.11 0 C5.14 1.89, 5.08 3.54, 5.11 7.15 M5.11 7.15 C3.56 7.09, 2.14 7.32, 0 7.15 M5.11 7.15 C3.44 7.12, 1.87 7.08, 0 7.15 M0 7.15 C-0.01 5.63, 0.06 3.68, 0 0 M0 7.15 C0.02 4.44, 0.1 1.97, 0 0" stroke="#000000" stroke-width="1" fill="none"></path></g><g stroke-linecap="round" transform="translate(73.54442148597263 92.13952002354563) rotate(0 2.5545147779926083 3.5763206891897426)"><path d="M0.19 0.25 L5.39 -0.05 L5.04 7.62 L0.11 7" stroke="none" stroke-width="0" fill="#000"></path><path d="M0 0 C1.18 0, 2.4 -0.12, 5.11 0 M0 0 C1.85 0.03, 3.52 -0.09, 5.11 0 M5.11 0 C5.32 2.72, 5 5.46, 5.11 7.15 M5.11 0 C5.11 2.39, 5.12 4.83, 5.11 7.15 M5.11 7.15 C3.38 7.3, 1.56 7.29, 0 7.15 M5.11 7.15 C3.97 7.09, 2.65 7.18, 0 7.15 M0 7.15 C0.07 4.74, 0.16 2.73, 0 0 M0 7.15 C0.09 4.68, 0.08 2.2, 0 0" stroke="#000000" stroke-width="1" fill="none"></path></g><g stroke-linecap="round" transform="translate(65.21530968701518 83.680899910898) rotate(86.93351449887406 2.5545147779926083 3.5763206891897426)"><path d="M0.28 -0.05 L5.04 0.47 L5.22 7 L0.64 7.78" stroke="none" stroke-width="0" fill="#000"></path><path d="M0 0 C1.89 -0.11, 3.78 0.02, 5.11 0 M0 0 C1.65 -0.09, 3.54 0.02, 5.11 0 M5.11 0 C5.02 2.03, 5.23 4.55, 5.11 7.15 M5.11 0 C5.1 2.6, 5.17 5.32, 5.11 7.15 M5.11 7.15 C3.84 7.32, 2.38 7.13, 0 7.15 M5.11 7.15 C3.63 7.18, 2.29 7.14, 0 7.15 M0 7.15 C0.15 4.66, 0.12 2.27, 0 0 M0 7.15 C0.06 5.72, 0.01 4.11, 0 0" stroke="#000000" stroke-width="1" fill="none"></path></g><g stroke-linecap="round" transform="translate(56.64442999660605 84.14005418002489) rotate(86.93351449887406 2.5545147779926083 3.5763206891897426)"><path d="M-0.07 0.47 L5.22 -0.15 L5.75 7.78 L0.64 7.57" stroke="none" stroke-width="0" fill="#000"></path><path d="M0 0 C1.65 0.03, 3.19 0.1, 5.11 0 M0 0 C1.83 0.05, 3.51 0.09, 5.11 0 M5.11 0 C5.2 1.93, 5.27 3.63, 5.11 7.15 M5.11 0 C5.17 1.74, 5.06 3.59, 5.11 7.15 M5.11 7.15 C2.99 7.13, 1.06 7.29, 0 7.15 M5.11 7.15 C3.93 7.16, 2.79 7.18, 0 7.15 M0 7.15 C0.11 5.68, -0.22 4.34, 0 0 M0 7.15 C0.02 4.73, 0.03 2.2, 0 0" stroke="#000000" stroke-width="1" fill="none"></path></g><g stroke-linecap="round" transform="translate(56.25086919449677 76.793585873962) rotate(86.93351449887406 2.5545147779926083 3.5763206891897426)"><path d="M0.11 -0.15 L5.75 0.63 L5.74 7.57 L-0.37 7.59" stroke="none" stroke-width="0" fill="#000"></path><path d="M0 0 C1.27 0.09, 2.47 -0.16, 5.11 0 M0 0 C1.06 0.07, 2.06 -0.05, 5.11 0 M5.11 0 C5.3 1.55, 4.99 3.13, 5.11 7.15 M5.11 0 C5.07 1.75, 5.23 3.44, 5.11 7.15 M5.11 7.15 C3.09 7.27, 1.04 7.03, 0 7.15 M5.11 7.15 C3.4 7.18, 1.55 7.21, 0 7.15 M0 7.15 C-0.21 5.31, 0.1 3.24, 0 0 M0 7.15 C0.04 4.35, -0.02 1.65, 0 0" stroke="#000000" stroke-width="1" fill="none"></path></g><g stroke-linecap="round" transform="translate(36.48457812745073 69.30744311127819) rotate(0 2.5545147779926083 3.5763206891897426)"><path d="M0.64 0.63 L5.74 0.41 L4.74 7.59 L0.65 7.29" stroke="none" stroke-width="0" fill="#000"></path><path d="M0 0 C1.66 -0.17, 3.02 0.15, 5.11 0 M0 0 C1.67 -0.06, 3.35 0.02, 5.11 0 M5.11 0 C5 2.47, 4.98 5.07, 5.11 7.15 M5.11 0 C5.21 2.02, 5.2 3.91, 5.11 7.15 M5.11 7.15 C3.58 7.04, 2.36 7.18, 0 7.15 M5.11 7.15 C3.5 7.21, 2.04 7.2, 0 7.15 M0 7.15 C0.13 5.07, 0.24 2.72, 0 0 M0 7.15 C-0.02 4.83, 0.01 2.3, 0 0" stroke="#000000" stroke-width="1" fill="none"></path></g><g stroke-linecap="round" transform="translate(57.07572897240243 60.724273457224626) rotate(0 2.5545147779926083 3.5763206891897426)"><path d="M0.64 0.41 L4.74 0.44 L5.76 7.29 L-0.66 7.5" stroke="none" stroke-width="0" fill="#000"></path><path d="M0 0 C1.65 0.18, 3.67 0.03, 5.11 0 M0 0 C1.91 0.04, 3.99 0.07, 5.11 0 M5.11 0 C4.95 2.21, 5.05 4.06, 5.11 7.15 M5.11 0 C5.23 2.36, 5.1 4.85, 5.11 7.15 M5.11 7.15 C3.28 7.15, 1.32 7.21, 0 7.15 M5.11 7.15 C3.42 7.21, 1.77 7.09, 0 7.15 M0 7.15 C0.21 4.49, 0.08 1.8, 0 0 M0 7.15 C0.02 5.04, 0.12 3.09, 0 0" stroke="#000000" stroke-width="1" fill="none"></path></g><g stroke-linecap="round" transform="translate(50.944893505218715 69.30744311127819) rotate(0 2.5545147779926083 3.5763206891897426)"><path d="M-0.37 0.44 L5.76 0.14 L4.45 7.5 L0.39 7.71" stroke="none" stroke-width="0" fill="#000"></path><path d="M0 0 C1.11 0, 2.24 -0.09, 5.11 0 M0 0 C1.33 0.06, 2.57 -0.05, 5.11 0 M5.11 0 C5.04 2.02, 5.19 4.47, 5.11 7.15 M5.11 0 C5.1 2.28, 5.21 4.54, 5.11 7.15 M5.11 7.15 C3.94 7.23, 2.83 7, 0 7.15 M5.11 7.15 C3.25 7.09, 1.44 7.2, 0 7.15 M0 7.15 C0.07 4.61, -0.04 1.85, 0 0 M0 7.15 C0.11 4.62, 0.11 1.93, 0 0" stroke="#000000" stroke-width="1" fill="none"></path></g><g stroke-linecap="round" transform="translate(40.01509372406872 84.46540528359037) rotate(86.93351449887406 2.5545147779926083 3.5763206891897426)"><path d="M0.65 0.14 L4.45 0.35 L5.5 7.71 L-0.02 6.64" stroke="none" stroke-width="0" fill="#000"></path><path d="M0 0 C2.17 -0.08, 3.96 -0.14, 5.11 0 M0 0 C1.75 -0.06, 3.5 -0.07, 5.11 0 M5.11 0 C5.2 2.73, 5.16 5.23, 5.11 7.15 M5.11 0 C5.19 1.6, 5.02 3.4, 5.11 7.15 M5.11 7.15 C3.59 7.01, 2.08 7.13, 0 7.15 M5.11 7.15 C3.37 7.18, 1.56 7.22, 0 7.15 M0 7.15 C-0.03 4.78, 0.16 2.5, 0 0 M0 7.15 C0.09 5.24, -0.09 3.27, 0 0" stroke="#000000" stroke-width="1" fill="none"></path></g><g stroke-linecap="round" transform="translate(40.43790996318603 91.23046510944732) rotate(86.93351449887406 2.5545147779926083 3.5763206891897426)"><path d="M-0.66 0.35 L5.5 0.56 L5.09 6.64 L-0.46 7.43" stroke="none" stroke-width="0" fill="#000"></path><path d="M0 0 C1.5 -0.13, 3.24 0.09, 5.11 0 M0 0 C1.91 -0.04, 3.86 -0.01, 5.11 0 M5.11 0 C5.17 2.04, 4.96 3.6, 5.11 7.15 M5.11 0 C5.04 2.03, 5.13 3.96, 5.11 7.15 M5.11 7.15 C3.47 7.11, 1.69 7.16, 0 7.15 M5.11 7.15 C4.07 7.24, 2.93 7.19, 0 7.15 M0 7.15 C0.17 4.75, -0.05 2.5, 0 0 M0 7.15 C-0.09 4.41, 0.09 1.54, 0 0" stroke="#000000" stroke-width="1" fill="none"></path></g><g stroke-linecap="round" transform="translate(102.16908087412958 91.23046510944732) rotate(0 2.5545147779926083 3.5763206891897426)"><path d="M0.39 0.56 L5.09 -0.51 L4.65 7.43 L0.21 7.57" stroke="none" stroke-width="0" fill="#000"></path><path d="M0 0 C1.38 0.09, 2.73 0, 5.11 0 M0 0 C1.31 -0.01, 2.49 0.05, 5.11 0 M5.11 0 C4.96 2.75, 5.06 5.79, 5.11 7.15 M5.11 0 C5.1 1.65, 5.14 3.34, 5.11 7.15 M5.11 7.15 C4.12 7.17, 2.81 7.29, 0 7.15 M5.11 7.15 C3.37 7.2, 1.61 7.16, 0 7.15 M0 7.15 C-0.07 5.31, 0.21 3.24, 0 0 M0 7.15 C0.13 4.59, -0.11 2.03, 0 0" stroke="#000000" stroke-width="1" fill="none"></path></g><g stroke-linecap="round" transform="translate(21.32661595513946 59.51924717574366) rotate(0 2.5545147779926083 3.5763206891897426)"><path d="M-0.02 -0.51 L4.65 0.28 L5.32 7.57 L0.58 6.76" stroke="none" stroke-width="0" fill="#000"></path><path d="M0 0 C1.25 -0.02, 2.15 -0.01, 5.11 0 M0 0 C1.18 0.04, 2.51 0.02, 5.11 0 M5.11 0 C5.04 2.94, 4.93 5.36, 5.11 7.15 M5.11 0 C5.16 2.47, 5 4.96, 5.11 7.15 M5.11 7.15 C3.51 7.29, 2.27 7.27, 0 7.15 M5.11 7.15 C3.15 7.15, 1.11 7.22, 0 7.15 M0 7.15 C0.23 5.12, 0.15 2.49, 0 0 M0 7.15 C-0.14 4.59, 0.05 2.01, 0 0" stroke="#000000" stroke-width="1" fill="none"></path></g><g stroke-linecap="round" transform="translate(16.421947581392487 59.51924717574366) rotate(0 2.5545147779926083 3.5763206891897426)"><path d="M-0.46 0.28 L5.32 0.41 L5.69 6.76 L0.49 7.53" stroke="none" stroke-width="0" fill="#000"></path><path d="M0 0 C1.68 0, 3.43 0.09, 5.11 0 M0 0 C1.5 0.01, 2.92 -0.06, 5.11 0 M5.11 0 C4.94 1.8, 5.2 3.96, 5.11 7.15 M5.11 0 C5.01 2.22, 5.1 4.34, 5.11 7.15 M5.11 7.15 C3.58 7.28, 2.05 7.21, 0 7.15 M5.11 7.15 C3.38 7.21, 1.68 7.13, 0 7.15 M0 7.15 C0.13 4.19, 0.14 1.73, 0 0 M0 7.15 C0.09 4.96, 0.02 2.48, 0 0" stroke="#000000" stroke-width="1" fill="none"></path></g><g stroke-linecap="round" transform="translate(28.1762390288186 68.82120443629537) rotate(0 2.5545147779926083 3.5763206891897426)"><path d="M0.21 0.41 L5.69 -0.39 L5.59 7.53 L0.09 7.07" stroke="none" stroke-width="0" fill="#000"></path><path d="M0 0 C1.38 0.09, 2.94 -0.07, 5.11 0 M0 0 C1.81 -0.06, 3.46 -0.02, 5.11 0 M5.11 0 C5.19 2.67, 5.09 5.41, 5.11 7.15 M5.11 0 C5.07 2.41, 5.1 4.58, 5.11 7.15 M5.11 7.15 C3.32 7.21, 1.28 7.24, 0 7.15 M5.11 7.15 C3.63 7.15, 2.21 7.24, 0 7.15 M0 7.15 C0.14 4.56, 0.03 1.26, 0 0 M0 7.15 C-0.02 4.55, -0.1 2.17, 0 0" stroke="#000000" stroke-width="1" fill="none"></path></g><g stroke-linecap="round" transform="translate(56.50492704959561 91.653281348561) rotate(86.93351449887406 2.5545147779926083 3.5763206891897426)"><path d="M0.58 -0.39 L5.59 0.38 L5.2 7.07 L-0.31 7.17" stroke="none" stroke-width="0" fill="#000"></path><path d="M0 0 C1.48 -0.08, 3.1 0.15, 5.11 0 M0 0 C1.63 -0.01, 3.36 -0.05, 5.11 0 M5.11 0 C5.12 1.73, 5.18 3.04, 5.11 7.15 M5.11 0 C5.12 2.52, 5.2 5.29, 5.11 7.15 M5.11 7.15 C3.29 7.23, 1.32 7.14, 0 7.15 M5.11 7.15 C3.3 7.23, 1.41 7.2, 0 7.15 M0 7.15 C0.03 5.17, 0.11 3.8, 0 0 M0 7.15 C-0.08 4.46, 0.04 1.73, 0 0" stroke="#000000" stroke-width="1" fill="none"></path></g><g stroke-linecap="round" transform="translate(48.471418506390364 97.57270869618696) rotate(86.93351449887406 2.5545147779926083 3.5763206891897426)"><path d="M0.49 0.38 L5.2 -0.08 L4.8 7.17 L0.1 7.44" stroke="none" stroke-width="0" fill="#000"></path><path d="M0 0 C1.86 0.17, 3.63 0.16, 5.11 0 M0 0 C1.26 -0.05, 2.33 0.04, 5.11 0 M5.11 0 C5.17 1.98, 5.27 4.36, 5.11 7.15 M5.11 0 C5.21 2.58, 5.19 5.17, 5.11 7.15 M5.11 7.15 C3.42 7.14, 1.87 7.19, 0 7.15 M5.11 7.15 C3.77 7.22, 2.23 7.23, 0 7.15 M0 7.15 C0.12 4.45, 0.2 1.46, 0 0 M0 7.15 C0.05 5.63, 0.12 3.89, 0 0" stroke="#000000" stroke-width="1" fill="none"></path></g><g stroke-linecap="round" transform="translate(73.84039285335348 97.14989245707147) rotate(0 2.5545147779926083 3.5763206891897426)"><path d="M0.09 -0.08 L4.8 0.02 L5.21 7.44 L-0.18 7.19" stroke="none" stroke-width="0" fill="#000"></path><path d="M0 0 C1.35 0.13, 2.5 -0.06, 5.11 0 M0 0 C1.35 0.05, 2.83 0.01, 5.11 0 M5.11 0 C5.27 2.42, 5.24 4.95, 5.11 7.15 M5.11 0 C5.21 1.65, 5.16 3.13, 5.11 7.15 M5.11 7.15 C3.48 7.18, 1.58 7.31, 0 7.15 M5.11 7.15 C3.05 7.22, 1.17 7.18, 0 7.15 M0 7.15 C0.19 5.71, -0.19 4.12, 0 0 M0 7.15 C0.1 4.64, 0.08 2.33, 0 0" stroke="#000000" stroke-width="1" fill="none"></path></g><g stroke-linecap="round" transform="translate(95.82683728738812 97.14989245707147) rotate(0 2.5545147779926083 3.5763206891897426)"><path d="M-0.31 0.02 L5.21 0.28 L4.93 7.19 L-0.58 6.67" stroke="none" stroke-width="0" fill="#000"></path><path d="M0 0 C1.89 -0.06, 3.97 0.11, 5.11 0 M0 0 C1.19 -0.01, 2.4 0.02, 5.11 0 M5.11 0 C5.25 1.54, 4.92 3.2, 5.11 7.15 M5.11 0 C5.16 2.51, 5.17 4.93, 5.11 7.15 M5.11 7.15 C3.59 7.32, 2.31 7.32, 0 7.15 M5.11 7.15 C3.34 7.18, 1.32 7.21, 0 7.15 M0 7.15 C-0.2 4.43, 0.08 2.1, 0 0 M0 7.15 C0.07 4.63, 0 1.96, 0 0" stroke="#000000" stroke-width="1" fill="none"></path></g></svg>