<svg version="1.1" xmlns="http://www.w3.org/2000/svg" viewBox="0 0 121.03628645753543 121.03628645753543" width="121.03628645753543" height="121.03628645753543">
  <!-- svg-source:excalidraw -->
  
  <defs>
    <style class="style-fonts">
      @font-face {
        font-family: "Virgil";
        src: url("https://excalidraw.com/Virgil.woff2");
      }
      @font-face {
        font-family: "Cascadia";
        src: url("https://excalidraw.com/Cascadia.woff2");
      }
      @font-face {
        font-family: "Assistant";
        src: url("https://excalidraw.com/Assistant-Regular.woff2");
      }
    </style>
    
  </defs>
  <g stroke-linecap="round" transform="translate(10 10) rotate(0 50.51814322876771 50.51814322876771)"><path d="M0 0 C30.53 0, 61.07 0, 101.04 0 M0 0 C26.43 0, 52.86 0, 101.04 0 M101.04 0 C101.04 32.34, 101.04 64.68, 101.04 101.04 M101.04 0 C101.04 34.19, 101.04 68.38, 101.04 101.04 M101.04 101.04 C62.38 101.04, 23.72 101.04, 0 101.04 M101.04 101.04 C69.83 101.04, 38.62 101.04, 0 101.04 M0 101.04 C0 68.24, 0 35.44, 0 0 M0 101.04 C0 78.2, 0 55.37, 0 0" stroke="transparent" stroke-width="1" fill="none"></path></g><g stroke-linecap="round"><g transform="translate(13.058945973976734 45.75769879468862) rotate(0 0 19.333019698283806)"><path d="M-0.45 -0.5 C-0.52 5.92, -0.03 31.88, -0.02 38.45 M0.32 0.43 C0.14 6.93, -0.53 32.79, -0.46 39.05" stroke="#000000" stroke-width="1" fill="none"></path></g></g><mask></mask><g stroke-linecap="round"><g transform="translate(50.8175979275311 62.61468731124114) rotate(0 0 19.333019698283806)"><path d="M-0.02 -0.21 C-0.01 6.36, -0.46 32.4, -0.41 38.92 M-0.7 -0.8 C-0.48 5.66, 0.48 31.63, 0.62 38.09" stroke="#000000" stroke-width="1" fill="none"></path></g></g><mask></mask><g stroke-linecap="round"><g transform="translate(107.20299319734659 41.59495638525732) rotate(0 0 19.333019698283806)"><path d="M-0.41 0.26 C-0.35 6.78, 0.29 32.43, 0.33 38.92 M0.39 -0.09 C0.4 6.29, 0.23 31.68, 0.06 38.08" stroke="#000000" stroke-width="1" fill="none"></path></g></g><mask></mask><g stroke-linecap="round"><g transform="translate(13.645144915222772 45.66752386894041) rotate(0 18.03663645320944 9.243776182269812)"><path d="M0.71 0.55 C6.81 3.72, 29.73 16.73, 35.67 19.59 M-0.37 -0.2 C5.6 2.61, 28.5 14.91, 34.5 18.04" stroke="#000000" stroke-width="1" fill="none"></path></g></g><mask></mask><g stroke-linecap="round"><g transform="translate(12.90464369842266 82.72564680222422) rotate(0 18.03663645320944 9.243776182269812)"><path d="M-0.41 1.1 C5.53 3.95, 30.07 14.77, 36.31 17.67 M1.58 0.63 C7.31 3.57, 29.62 15.59, 35.49 18.78" stroke="#000000" stroke-width="1" fill="none"></path></g></g><mask></mask><g stroke-linecap="round"><g transform="translate(72.42554399401342 21.851998772643128) rotate(0 18.03663645320944 9.243776182269812)"><path d="M0.24 -0.82 C6.49 2.08, 30.92 15.31, 37.08 18.46 M-1.09 1.37 C5.12 4.98, 30.31 17.01, 36.65 19.99" stroke="#000000" stroke-width="1" fill="none"></path></g></g><mask></mask><g stroke-linecap="round"><g transform="translate(14.546976737882687 43.86386022362058) rotate(0 27.28041263547925 -12.174729605916582)"><path d="M1 -0.02 C10.24 -4.01, 46.86 -20.74, 55.65 -24.72 M0.07 -1.08 C9.22 -4.82, 45.91 -19.22, 55.27 -23.37" stroke="#000000" stroke-width="1" fill="none"></path></g></g><mask></mask><g stroke-linecap="round"><g transform="translate(52.440011319737096 63.33379509738006) rotate(0 27.28041263547925 -12.174729605916582)"><path d="M1.09 -0.37 C9.88 -4.35, 44.76 -20.05, 53.75 -23.89 M0.2 -1.61 C9.29 -5.95, 46.98 -21.82, 56.04 -25.77" stroke="#000000" stroke-width="1" fill="none"></path></g></g><mask></mask><g stroke-linecap="round"><g transform="translate(52.76496490810314 101.39682101373546) rotate(0 27.28041263547925 -12.174729605916582)"><path d="M-0.81 0.46 C8.19 -3.38, 45.68 -19.09, 55.06 -23.43 M0.97 -0.34 C9.76 -4.48, 45.34 -20.98, 54.38 -25.06" stroke="#000000" stroke-width="1" fill="none"></path></g></g><mask></mask><g stroke-linecap="round"><g transform="translate(67.90090314157806 24.752818773326) rotate(0 14.429309162567506 7.214654581283867)"><path d="M0.23 0.42 C5.17 2.7, 24.59 11.52, 29.28 13.89 M-0.31 0.17 C4.62 2.47, 24.11 12.06, 29.06 14.31" stroke="#000000" stroke-width="1" fill="none"></path></g></g><mask></mask><g stroke-linecap="round"><g transform="translate(90.12912564225007 38.45896650546638) rotate(0 -7.882118086570927 0.06646082368433781)"><path d="M0.42 -0.54 C-1.96 -1.35, -11.05 -3.86, -14.06 -4.45 C-17.07 -5.05, -17.21 -4.75, -17.64 -4.1 C-18.08 -3.45, -19.13 -1.96, -16.67 -0.53 C-14.2 0.9, -6.01 3.9, -2.88 4.48 C0.24 5.06, 1.59 3.62, 2.07 2.95 C2.56 2.28, 0.39 0.91, 0.03 0.44 M-0.03 0.37 C-2.27 -0.64, -10.15 -4.66, -13.1 -5.31 C-16.06 -5.95, -17.21 -4.4, -17.76 -3.52 C-18.31 -2.63, -18.77 -1.33, -16.39 0 C-14.01 1.34, -6.63 4.07, -3.47 4.49 C-0.3 4.9, 1.95 3.24, 2.58 2.5 C3.21 1.76, 0.86 0.47, 0.34 0.05" stroke="#000000" stroke-width="1" fill="none"></path></g></g><mask></mask><g stroke-linecap="round"><g transform="translate(20.633193511484933 43.87947355392498) rotate(0 14.429309162567506 7.214654581283867)"><path d="M-0.54 0.22 C4.28 2.71, 24.36 12.02, 29.31 14.4 M0.19 -0.14 C4.93 2.48, 24.31 12.54, 29.12 15.08" stroke="#000000" stroke-width="1" fill="none"></path></g></g><mask></mask><g stroke-linecap="round"><g transform="translate(20.85979949650573 45.216607957609085) rotate(0 24.12400125616773 -10.371065960595388)"><path d="M0.99 -0.06 C9.34 -3.58, 41 -17.05, 48.94 -20.61 M0.05 -1.14 C8.41 -4.49, 40.36 -15.78, 48.35 -19.01" stroke="#000000" stroke-width="1" fill="none"></path></g></g><mask></mask><g stroke-linecap="round"><g transform="translate(49.38052709933072 59.86830489064414) rotate(0 24.12400125616773 -10.371065960595388)"><path d="M0.69 0.13 C8.63 -3.44, 40.78 -18, 48.62 -21.46 M-0.4 -0.85 C7.32 -4.27, 40.02 -17.23, 47.86 -20.3" stroke="#000000" stroke-width="1" fill="none"></path></g></g><mask></mask><g stroke-linecap="round"><g transform="translate(68.87514073427701 24.00923584337943) rotate(0 0 13.696570806655927)"><path d="M0.17 -0.33 C0.07 4.24, -0.24 22.75, -0.26 27.44 M-0.41 0.69 C-0.63 5.35, -0.85 23.78, -0.83 28.17" stroke="#000000" stroke-width="1" fill="none"></path></g></g><mask></mask><g stroke-linecap="round"><g transform="translate(39.27087747263977 62.273672079852986) rotate(0 -8.02639654232189 -0.6018313344129638)"><path d="M-0.26 0.05 C-2.58 -0.74, -10.7 -4.26, -13.74 -5.04 C-16.78 -5.82, -17.9 -5.13, -18.5 -4.66 C-19.09 -4.18, -20.01 -3.61, -17.29 -2.21 C-14.58 -0.81, -5.48 2.72, -2.19 3.74 C1.11 4.75, 2.03 4.45, 2.46 3.89 C2.9 3.34, 0.88 1.12, 0.44 0.4 M0.6 -0.4 C-1.8 -1.31, -10.91 -5.18, -14.16 -5.78 C-17.4 -6.38, -18.37 -4.66, -18.88 -4 C-19.38 -3.33, -19.86 -3.06, -17.18 -1.79 C-14.5 -0.51, -6.17 2.73, -2.79 3.64 C0.6 4.55, 2.8 4.28, 3.15 3.67 C3.49 3.06, -0.06 0.73, -0.71 -0.01" stroke="#000000" stroke-width="1" fill="none"></path></g></g><mask></mask></svg>