<svg version="1.1" xmlns="http://www.w3.org/2000/svg" viewBox="0 0 120.84622522966356 120.14200431020163" width="120.84622522966356" height="120.14200431020163">
  <!-- svg-source:excalidraw -->
  
  <defs>
    <style class="style-fonts">
      @font-face {
        font-family: "Virgil";
        src: url("https://excalidraw.com/Virgil.woff2");
      }
      @font-face {
        font-family: "Cascadia";
        src: url("https://excalidraw.com/Cascadia.woff2");
      }
      @font-face {
        font-family: "Assistant";
        src: url("https://excalidraw.com/Assistant-Regular.woff2");
      }
    </style>
    
  </defs>
  <g stroke-linecap="round" transform="translate(10 10) rotate(0 50.42311261483178 50.071002155100814)"><path d="M0 0 C27.51 -0.76, 54.08 -0.75, 100.85 0 M0 0 C32.38 0.95, 62.93 1.39, 100.85 0 M100.85 0 C100.46 39.26, 100.31 73.85, 100.85 100.14 M100.85 0 C100.91 36.71, 101.73 74.01, 100.85 100.14 M100.85 100.14 C78.72 98.46, 58.05 101.23, 0 100.14 M100.85 100.14 C79.9 99.86, 59.76 99.84, 0 100.14 M0 100.14 C-0.79 58.84, 0.28 19.93, 0 0 M0 100.14 C0 61.65, -0.32 23.02, 0 0" stroke="transparent" stroke-width="1" fill="none"></path></g><g stroke-linecap="round" transform="translate(26.678414172594785 27.725020038023104) rotate(0 13.575453396300873 11.636102911114904)"><path d="M0 0 C8.73 -0.27, 17.08 0.65, 27.15 0 M0 0 C6.4 0.37, 13.71 -0.01, 27.15 0 M27.15 0 C26.81 6.27, 27.79 13.83, 27.15 23.27 M27.15 0 C27.52 8.09, 26.74 15.25, 27.15 23.27 M27.15 23.27 C21.96 24.18, 14.46 22.37, 0 23.27 M27.15 23.27 C18.36 22.85, 9.41 23.1, 0 23.27 M0 23.27 C0.11 14.88, 0.95 8.17, 0 0 M0 23.27 C0.21 18.67, -0.2 12.92, 0 0" stroke="#000" stroke-width="1" fill="none"></path></g><g stroke-linecap="round" transform="translate(70.50773513779677 27.725020038023104) rotate(0 13.575453396300873 11.636102911114904)"><path d="M0 0 C7.42 0.65, 14 0.69, 27.15 0 M0 0 C9.62 -0.07, 18.47 -0.23, 27.15 0 M27.15 0 C27.78 9.16, 27.45 17.98, 27.15 23.27 M27.15 0 C26.83 6.82, 26.82 14.14, 27.15 23.27 M27.15 23.27 C19.22 22.56, 13.5 23.32, 0 23.27 M27.15 23.27 C21.23 23.1, 14.57 22.94, 0 23.27 M0 23.27 C0.89 19.06, -0.84 13.9, 0 0 M0 23.27 C-0.16 14.85, -0.13 7.19, 0 0" stroke="#000" stroke-width="1" fill="none"></path></g><g stroke-linecap="round" transform="translate(25.320868832966426 62.633328771368724) rotate(0 13.575453396300873 11.636102911114904)"><path d="M0 0 C6.75 0.57, 14.99 -0.62, 27.15 0 M0 0 C10.4 -0.13, 21.3 -0.17, 27.15 0 M27.15 0 C27.56 5.56, 27.27 12.01, 27.15 23.27 M27.15 0 C26.64 8.54, 26.85 17.45, 27.15 23.27 M27.15 23.27 C16.74 23.08, 4.97 23.8, 0 23.27 M27.15 23.27 C21.04 23.01, 14.08 23.28, 0 23.27 M0 23.27 C-0.93 18.09, 0.41 11.62, 0 0 M0 23.27 C-0.04 14.47, -0.32 5.16, 0 0" stroke="#000" stroke-width="1" fill="none"></path></g><g stroke-linecap="round" transform="translate(69.15018979816614 62.633328771368724) rotate(0 13.575453396300873 11.636102911114904)"><path d="M0 0 C10.19 -0.63, 20.41 0.66, 27.15 0 M0 0 C8.81 -0.12, 16.44 0.36, 27.15 0 M27.15 0 C27.23 8.04, 27.86 13.76, 27.15 23.27 M27.15 0 C26.84 6.14, 27.54 11.14, 27.15 23.27 M27.15 23.27 C20.66 23.91, 14.79 24.23, 0 23.27 M27.15 23.27 C19.07 23.23, 11.6 23.66, 0 23.27 M0 23.27 C0.61 14.7, 1 4.68, 0 0 M0 23.27 C-0.33 17.48, 0.26 11.58, 0 0" stroke="#000" stroke-width="1" fill="none"></path></g></svg>