<svg version="1.1" xmlns="http://www.w3.org/2000/svg" viewBox="0 0 119.73437741734824 117.81640862086078" width="119.73437741734824" height="117.81640862086078">
  <!-- svg-source:excalidraw -->
  
  <defs>
    <style class="style-fonts">
      @font-face {
        font-family: "Virgil";
        src: url("https://excalidraw.com/Virgil.woff2");
      }
      @font-face {
        font-family: "Cascadia";
        src: url("https://excalidraw.com/Cascadia.woff2");
      }
      @font-face {
        font-family: "Assistant";
        src: url("https://excalidraw.com/Assistant-Regular.woff2");
      }
    </style>
    
  </defs>
  <g stroke-linecap="round" transform="translate(10 10) rotate(0 49.86718870867412 48.90820431043039)"><path d="M0 0 C24.37 -2.47, 48.06 -0.7, 99.73 0 M0 0 C29.92 0.38, 60.71 0.3, 99.73 0 M99.73 0 C98.46 23.63, 100.08 48.83, 99.73 97.82 M99.73 0 C100.63 36.32, 100.66 72.06, 99.73 97.82 M99.73 97.82 C70 99.12, 40.83 96.93, 0 97.82 M99.73 97.82 C75.87 97.22, 52.47 96.62, 0 97.82 M0 97.82 C0.49 69.44, -0.12 42.27, 0 0 M0 97.82 C-0.52 74.89, -0.16 51.9, 0 0" stroke="transparent" stroke-width="1" fill="none"></path></g><g stroke-linecap="round"><g transform="translate(93.96720976155166 69.38645153815378) rotate(0 -33.767719163885886 -10.76722980585373)"><path d="M0 0 C-1.92 8.87, -5.93 15.99, -8.27 23.66 M0 0 C-2.9 4.59, -4.33 9.81, -8.27 23.66 M-8.27 23.66 C-13.75 24.95, -19.38 26.74, -33.91 27.38 M-8.27 23.66 C-18.1 24.83, -28.58 26.86, -33.91 27.38 M-33.91 27.38 C-40.7 24.05, -46.8 23.74, -49.89 21.8 M-33.91 27.38 C-38.31 25.64, -41.55 25.29, -49.89 21.8 M-49.89 21.8 C-55.36 10.25, -62.98 2.23, -68.09 -8.24 M-49.89 21.8 C-55.34 12.12, -61.29 3.58, -68.09 -8.24 M-68.09 -8.24 C-68.07 -11.2, -68.15 -14.9, -66.71 -20.47 M-68.09 -8.24 C-68.13 -10.63, -67.99 -13.97, -66.71 -20.47 M-66.71 -20.47 C-62.89 -19.3, -57.44 -16.04, -55.41 -15.69 M-66.71 -20.47 C-62.89 -18.52, -59.38 -17.66, -55.41 -15.69 M-55.41 -15.69 C-53.98 -12.29, -49.05 -7.06, -45.93 -0.28 M-55.41 -15.69 C-52.6 -9.94, -48.68 -4.61, -45.93 -0.28 M-45.93 -0.28 C-44.13 -1.35, -43.57 -3.53, -41.07 -7.98 M-45.93 -0.28 C-44.36 -2.4, -42.93 -4.84, -41.07 -7.98 M-41.07 -7.98 C-39.68 -18.27, -39.85 -32.98, -40.25 -38.82 M-41.07 -7.98 C-40.4 -16.83, -41.43 -27.46, -40.25 -38.82 M-40.25 -38.82 C-38.93 -40.86, -35.51 -43.15, -34.46 -45.73 M-40.25 -38.82 C-38.59 -40.58, -36.85 -42.91, -34.46 -45.73 M-34.46 -45.73 C-32.8 -43.27, -30.6 -42.58, -29.22 -40.94 M-34.46 -45.73 C-33.38 -44.53, -32.21 -43.31, -29.22 -40.94 M-29.22 -40.94 C-28.51 -33.04, -29.04 -23.53, -29.22 -9.57 M-29.22 -40.94 C-29.68 -29.62, -29.43 -16.66, -29.22 -9.57 M-29.22 -9.57 C-29.22 -18.58, -27.98 -31.42, -27.01 -44.4 M-29.22 -9.57 C-28.87 -19.8, -28.07 -28.77, -27.01 -44.4 M-27.01 -44.4 C-25.29 -45.72, -23.84 -46.74, -22.33 -48.92 M-27.01 -44.4 C-25.92 -45.26, -25.08 -46.65, -22.33 -48.92 M-22.33 -48.92 C-21.33 -46.97, -20.03 -46.44, -18.74 -43.33 M-22.33 -48.92 C-21.43 -47.7, -21.1 -46.46, -18.74 -43.33 M-18.74 -43.33 C-17.24 -29.62, -20.72 -18.94, -19.02 -10.37 M-18.74 -43.33 C-18.14 -30.94, -19.48 -18.79, -19.02 -10.37 M-19.02 -10.37 C-17.54 -22.93, -18.01 -32.98, -16.26 -43.87 M-19.02 -10.37 C-19.01 -21.67, -17.17 -33.36, -16.26 -43.87 M-16.26 -43.87 C-14.21 -44.95, -12.87 -45.45, -11.03 -46.26 M-16.26 -43.87 C-14.45 -44.5, -12.85 -45.67, -11.03 -46.26 M-11.03 -46.26 C-10.4 -44.32, -8.96 -42.77, -6.34 -40.41 M-11.03 -46.26 C-9.61 -44.87, -8.1 -43.08, -6.34 -40.41 M-6.34 -40.41 C-8.13 -29.53, -6.48 -19.1, -8.82 -10.9 M-6.34 -40.41 C-7.29 -31.05, -7.6 -24.05, -8.82 -10.9 M-8.82 -10.9 C-6.18 -16.68, -7.08 -23.2, -6.06 -29.78 M-8.82 -10.9 C-7.76 -18.48, -6.97 -25.96, -6.06 -29.78 M-6.06 -29.78 C-3.9 -31.47, -2.86 -31.93, -1.65 -32.97 M-6.06 -29.78 C-4.68 -30.53, -3.71 -31.56, -1.65 -32.97 M-1.65 -32.97 C-0.74 -30.48, 0.08 -28.36, 0.55 -26.85 M-1.65 -32.97 C-0.87 -31.62, -0.46 -29.96, 0.55 -26.85 M0.55 -26.85 C-1.55 -17.83, 0.04 -9.01, 0 0 M0.55 -26.85 C0.16 -16.43, -0.06 -5.78, 0 0" stroke="#000" stroke-width="1" fill="none"></path></g></g><mask></mask></svg>