<svg version="1.1" xmlns="http://www.w3.org/2000/svg" viewBox="0 0 121.03628645753543 121.03628645753543" width="121.03628645753543" height="121.03628645753543">
  <!-- svg-source:excalidraw -->
  
  <defs>
    <style class="style-fonts">
      @font-face {
        font-family: "Virgil";
        src: url("https://excalidraw.com/Virgil.woff2");
      }
      @font-face {
        font-family: "Cascadia";
        src: url("https://excalidraw.com/Cascadia.woff2");
      }
      @font-face {
        font-family: "Assistant";
        src: url("https://excalidraw.com/Assistant-Regular.woff2");
      }
    </style>
    
  </defs>
  <g stroke-linecap="round" transform="translate(10 10) rotate(0 50.51814322876771 50.51814322876771)"><path d="M0 0 C36.83 0, 73.66 0, 101.04 0 M0 0 C38.38 0, 76.76 0, 101.04 0 M101.04 0 C101.04 28.04, 101.04 56.08, 101.04 101.04 M101.04 0 C101.04 35.54, 101.04 71.08, 101.04 101.04 M101.04 101.04 C70.08 101.04, 39.11 101.04, 0 101.04 M101.04 101.04 C61.96 101.04, 22.88 101.04, 0 101.04 M0 101.04 C0 79.96, 0 58.89, 0 0 M0 101.04 C0 75.29, 0 49.53, 0 0" stroke="transparent" stroke-width="1" fill="none"></path></g><g stroke-linecap="round" transform="translate(28.76452258482277 13.769757280741032) rotate(0 31.75362064394494 31.31259813500128)"><path d="M33.7 -0.25 C39.91 -0.26, 48.06 3.18, 52.89 7.7 C57.72 12.22, 61.89 19.92, 62.67 26.86 C63.45 33.81, 61.14 43.59, 57.57 49.38 C53.99 55.17, 47.8 59.95, 41.24 61.59 C34.68 63.24, 24.44 61.86, 18.22 59.26 C12.01 56.66, 6.84 51.93, 3.94 46 C1.03 40.07, -0.65 30.21, 0.79 23.67 C2.23 17.14, 5.83 10.38, 12.56 6.81 C19.29 3.24, 35.14 2.37, 41.16 2.25 C47.19 2.13, 48.58 5.61, 48.71 6.09 M20.9 0.96 C27.33 -1.41, 38.53 -0.65, 45.22 2.04 C51.91 4.74, 58.18 11.15, 61.03 17.15 C63.89 23.14, 63.93 31.75, 62.36 38.02 C60.79 44.28, 56.88 50.8, 51.62 54.75 C46.37 58.7, 37.43 61.63, 30.81 61.72 C24.18 61.81, 17.05 59.5, 11.88 55.31 C6.7 51.12, 1.09 43.24, -0.24 36.58 C-1.57 29.91, 0.44 21.23, 3.91 15.31 C7.38 9.39, 17.52 3.43, 20.59 1.08 C23.66 -1.26, 21.94 0.56, 22.33 1.25" stroke="none" stroke-width="0" fill="#000000"></path><path d="M34.89 -0.31 C41.34 -0.04, 50.55 5.53, 55.43 10.44 C60.3 15.35, 63.64 22.43, 64.12 29.14 C64.6 35.86, 62.51 45.2, 58.29 50.73 C54.06 56.26, 45.58 60.71, 38.77 62.31 C31.97 63.91, 23.4 63.24, 17.47 60.33 C11.53 57.41, 5.79 51.28, 3.16 44.81 C0.54 38.34, -0.19 27.95, 1.7 21.5 C3.59 15.05, 8.57 9.59, 14.51 6.1 C20.46 2.61, 33.3 1.38, 37.36 0.58 C41.41 -0.22, 38.81 0.95, 38.83 1.32 M42.88 2.5 C49.39 3.93, 56.35 9.37, 59.65 15.04 C62.96 20.7, 64.04 29.86, 62.71 36.5 C61.38 43.14, 56.83 50.77, 51.67 54.9 C46.51 59.03, 38.53 61.24, 31.75 61.29 C24.97 61.35, 16.3 59.23, 10.99 55.22 C5.68 51.2, 1.16 43.47, -0.12 37.2 C-1.4 30.93, 0.12 23.24, 3.3 17.6 C6.47 11.96, 12.74 6.19, 18.95 3.38 C25.16 0.57, 36.71 0.95, 40.53 0.76 C44.36 0.56, 42.11 1.63, 41.9 2.23" stroke="#000000" stroke-width="1" fill="none"></path></g><g stroke-linecap="round" transform="translate(30.528612620598324 12.887712262850982) rotate(0 30.43055311711396 47.630430965917185)"><path d="M32.49 1.3 L61.1 49.71 L29.14 95.3 L-0.62 46.59" stroke="none" stroke-width="0" fill="#000000" fill-rule="evenodd"></path><path d="M31 0 C38.54 11.69, 42.22 18.61, 60.86 48 M31 0 C42.05 18.36, 54.02 34.53, 60.86 48 M60.86 48 C51.21 67.07, 40.36 80.01, 31 95.26 M60.86 48 C51.44 62.98, 41.22 79.85, 31 95.26 M31 95.26 C25.54 86.48, 18.22 75.46, 0 48 M31 95.26 C20.18 80.35, 10.26 63.9, 0 48 M0 48 C6.05 37.28, 14.89 26.31, 31 0 M0 48 C12.24 30.38, 22.56 12.37, 31 0" stroke="#000000" stroke-width="1" fill="none"></path></g><g stroke-linecap="round" transform="translate(50.81564803200763 31.410657638487464) rotate(0 9.702495196760992 10.584540214648314)"><path d="M8.64 -0.41 C10.6 -0.57, 13.23 0.96, 15.01 2.38 C16.79 3.79, 18.83 6.01, 19.33 8.08 C19.83 10.15, 18.9 12.68, 18.01 14.77 C17.13 16.85, 15.84 19.6, 14.01 20.57 C12.18 21.55, 9.13 21.22, 7.05 20.61 C4.98 20, 2.8 18.69, 1.55 16.9 C0.31 15.1, -0.6 12.13, -0.43 9.82 C-0.26 7.51, 0.87 4.63, 2.55 3.04 C4.24 1.44, 8.57 0.77, 9.67 0.25 C10.78 -0.28, 9.25 -0.17, 9.18 -0.09 M9.43 0.26 C11.23 -0.04, 13.39 0.79, 15.03 1.94 C16.67 3.09, 18.67 5.06, 19.27 7.17 C19.88 9.28, 19.43 12.36, 18.64 14.59 C17.86 16.83, 16.5 19.44, 14.55 20.57 C12.6 21.69, 9.16 21.92, 6.95 21.32 C4.74 20.73, 2.55 18.99, 1.28 17.02 C0.01 15.05, -0.96 11.87, -0.69 9.48 C-0.43 7.09, 1.29 4.21, 2.87 2.7 C4.45 1.18, 7.68 0.87, 8.79 0.41 C9.9 -0.05, 9.56 -0.18, 9.53 -0.06" stroke="none" stroke-width="0" fill="#ffffffff"></path><path d="M8.81 -0.03 C10.78 -0.43, 13.78 0.8, 15.44 2.09 C17.1 3.38, 18.23 5.54, 18.75 7.72 C19.28 9.89, 19.3 13.03, 18.58 15.16 C17.86 17.29, 16.21 19.6, 14.41 20.48 C12.61 21.36, 9.82 20.94, 7.77 20.43 C5.73 19.93, 3.45 19.16, 2.14 17.44 C0.84 15.72, -0.07 12.48, -0.05 10.12 C-0.03 7.76, 0.72 5.02, 2.25 3.27 C3.78 1.53, 7.9 0.19, 9.11 -0.34 C10.32 -0.88, 9.47 -0.23, 9.51 0.09 M11.05 0.59 C12.82 0.81, 15.09 2.34, 16.39 3.88 C17.68 5.42, 18.79 7.66, 18.82 9.83 C18.85 12, 17.86 15.1, 16.56 16.91 C15.27 18.71, 13.04 20.09, 11.07 20.65 C9.1 21.21, 6.55 21.24, 4.74 20.27 C2.92 19.3, 0.97 17.11, 0.19 14.84 C-0.59 12.58, -0.75 8.9, 0.07 6.68 C0.88 4.46, 3.29 2.63, 5.06 1.53 C6.83 0.43, 9.56 0.2, 10.69 0.09 C11.81 -0.03, 11.73 0.55, 11.82 0.84" stroke="#000000" stroke-width="1" fill="none"></path></g></svg>