<svg version="1.1" xmlns="http://www.w3.org/2000/svg" viewBox="0 0 121.72640443294904 118.81993573486488" width="121.72640443294904" height="118.81993573486488">
  <!-- svg-source:excalidraw -->
  
  <defs>
    <style class="style-fonts">
      @font-face {
        font-family: "Virgil";
        src: url("https://excalidraw.com/Virgil.woff2");
      }
      @font-face {
        font-family: "Cascadia";
        src: url("https://excalidraw.com/Cascadia.woff2");
      }
      @font-face {
        font-family: "Assistant";
        src: url("https://excalidraw.com/Assistant-Regular.woff2");
      }
    </style>
    
  </defs>
  <g stroke-linecap="round" transform="translate(10 10) rotate(0 50.86320221647452 49.40996786743244)"><path d="M0 0 C37.48 0.97, 71.16 0.92, 101.73 0 M0 0 C38.49 0.23, 75.63 0.62, 101.73 0 M101.73 0 C104.09 36.14, 101.39 73.6, 101.73 98.82 M101.73 0 C103.06 22.88, 103.43 45.15, 101.73 98.82 M101.73 98.82 C69.36 98.83, 38.37 99.11, 0 98.82 M101.73 98.82 C70.78 97.47, 42.31 98.85, 0 98.82 M0 98.82 C1.24 62.8, 2.11 24.51, 0 0 M0 98.82 C1.11 75.79, 1.01 50.44, 0 0" stroke="transparent" stroke-width="1" fill="none"></path></g><g stroke-linecap="round" transform="translate(23.079109141381196 35.286277673332734) rotate(0 37.05747590057422 5.812937396168309)"><path d="M2.91 0 C21.29 3.05, 43.04 -1.6, 71.21 0 C71.18 -0.85, 71.97 -0.17, 74.11 2.91 C74.51 3.69, 74.64 5.19, 74.11 8.72 C76.04 8.63, 72.11 10.08, 71.21 11.63 C46.65 13.13, 25.45 11.86, 2.91 11.63 C2.67 12.48, -1.48 12.56, 0 8.72 C0.15 6.93, 0.13 6.98, 0 2.91 C1.51 1.17, -0.9 0.29, 2.91 0" stroke="none" stroke-width="0" fill="#000"></path><path d="M2.91 0 C23.79 0.32, 45.55 0.5, 71.21 0 M2.91 0 C25.5 0.29, 48.9 0.1, 71.21 0 M71.21 0 C72.39 0.89, 74.16 0.51, 74.11 2.91 M71.21 0 C74.02 -0.83, 74.96 0.69, 74.11 2.91 M74.11 2.91 C74.17 5.01, 74.27 7.16, 74.11 8.72 M74.11 2.91 C74.12 4.18, 74.08 5.39, 74.11 8.72 M74.11 8.72 C73.37 9.77, 74.14 12.12, 71.21 11.63 M74.11 8.72 C75.05 10.49, 72.42 12.26, 71.21 11.63 M71.21 11.63 C44.44 11.43, 18.69 12.54, 2.91 11.63 M71.21 11.63 C44.47 11.39, 17.6 11.14, 2.91 11.63 M2.91 11.63 C1.61 10.9, -0.89 11.28, 0 8.72 M2.91 11.63 C0.08 10.62, 0.42 11.73, 0 8.72 M0 8.72 C-0.11 6.45, -0.08 4.72, 0 2.91 M0 8.72 C-0.08 6.87, -0.02 4.69, 0 2.91 M0 2.91 C-0.14 1.78, 1.5 -0.41, 2.91 0 M0 2.91 C0.33 0.97, 0.51 -1.03, 2.91 0" stroke="#000" stroke-width="1" fill="none"></path></g><g stroke-linecap="round" transform="translate(22.061845097049172 56.79414603915484) rotate(0 37.05747590057422 5.812937396168309)"><path d="M2.91 0 C18.68 -3.08, 31.64 -1.67, 71.21 0 C71 -1.13, 72.2 0.21, 74.11 2.91 C74.7 3.99, 74.72 5.2, 74.11 8.72 C73.08 9.11, 74.41 11.66, 71.21 11.63 C56.75 13.11, 40.3 13.18, 2.91 11.63 C-0.51 13.53, -2.53 11.87, 0 8.72 C0.15 7.37, 0.42 4.85, 0 2.91 C-1.87 1.25, 2.64 0.55, 2.91 0" stroke="none" stroke-width="0" fill="#000"></path><path d="M2.91 0 C27.68 0.51, 51.31 0.27, 71.21 0 M2.91 0 C27.65 -0.04, 51.36 0.11, 71.21 0 M71.21 0 C73.19 -0.46, 74.88 0.25, 74.11 2.91 M71.21 0 C73.99 -0.28, 74.82 1.4, 74.11 2.91 M74.11 2.91 C74.27 5.28, 73.88 7.5, 74.11 8.72 M74.11 2.91 C74.09 4.04, 74.01 5.18, 74.11 8.72 M74.11 8.72 C75.11 11.15, 73.96 11.48, 71.21 11.63 M74.11 8.72 C73.39 11.29, 74.11 12.75, 71.21 11.63 M71.21 11.63 C46.96 12.23, 23.86 12.13, 2.91 11.63 M71.21 11.63 C53.93 11.27, 37.44 11.22, 2.91 11.63 M2.91 11.63 C0.08 12.25, -0.77 9.78, 0 8.72 M2.91 11.63 C1.39 12.7, 0.71 10.12, 0 8.72 M0 8.72 C-0.08 7.5, 0.12 6.13, 0 2.91 M0 8.72 C0.02 6.39, -0.01 4.37, 0 2.91 M0 2.91 C0.53 0.56, 1.25 0, 2.91 0 M0 2.91 C-0.46 -0.06, 0.86 0.63, 2.91 0" stroke="#000" stroke-width="1" fill="none"></path></g><g stroke-linecap="round" transform="translate(25.549607534750976 75.97683944651362) rotate(0 37.05747590057422 5.812937396168309)"><path d="M2.91 0 C27.69 -0.08, 54.26 -0.36, 71.21 0 C71.23 -0.76, 72.75 2.39, 74.11 2.91 C74.73 3.65, 73.87 5.12, 74.11 8.72 C75.38 10.69, 71.55 10.87, 71.21 11.63 C47.04 12.75, 17.99 13.8, 2.91 11.63 C-1.56 12.84, 0.97 11.3, 0 8.72 C0.42 7.51, -0.56 6.26, 0 2.91 C1.67 1.52, -1.55 1.79, 2.91 0" stroke="none" stroke-width="0" fill="#000"></path><path d="M2.91 0 C27.11 0.21, 51.21 -0.72, 71.21 0 M2.91 0 C29.63 0.24, 57.13 -0.43, 71.21 0 M71.21 0 C73.91 -0.72, 74.85 0.72, 74.11 2.91 M71.21 0 C73.85 0.43, 75.24 1.13, 74.11 2.91 M74.11 2.91 C73.9 4.63, 73.86 6.43, 74.11 8.72 M74.11 2.91 C74 4.5, 74.25 6.43, 74.11 8.72 M74.11 8.72 C74.93 10.51, 72.52 12.17, 71.21 11.63 M74.11 8.72 C75.08 11.78, 73.76 10.96, 71.21 11.63 M71.21 11.63 C54.22 12.51, 34.92 11.78, 2.91 11.63 M71.21 11.63 C51.9 11.05, 31.5 11.72, 2.91 11.63 M2.91 11.63 C0.2 10.75, 0.37 11.59, 0 8.72 M2.91 11.63 C1.67 11.09, -0.63 10.16, 0 8.72 M0 8.72 C0.12 7.58, 0.25 5.81, 0 2.91 M0 8.72 C-0.02 6.63, 0.08 4.25, 0 2.91 M0 2.91 C0.28 0.97, 0.57 -0.9, 2.91 0 M0 2.91 C-0.11 1.59, 0.1 -0.65, 2.91 0" stroke="#000" stroke-width="1" fill="none"></path></g></svg>