<svg version="1.1" xmlns="http://www.w3.org/2000/svg" viewBox="0 0 121.03628645753543 121.03628645753543" width="121.03628645753543" height="121.03628645753543">
  <!-- svg-source:excalidraw -->
  
  <defs>
    <style class="style-fonts">
      @font-face {
        font-family: "Virgil";
        src: url("https://excalidraw.com/Virgil.woff2");
      }
      @font-face {
        font-family: "Cascadia";
        src: url("https://excalidraw.com/Cascadia.woff2");
      }
      @font-face {
        font-family: "Assistant";
        src: url("https://excalidraw.com/Assistant-Regular.woff2");
      }
    </style>
    
  </defs>
  <g stroke-linecap="round" transform="translate(10 10) rotate(0 50.51814322876771 50.51814322876771)"><path d="M0 0 C29.45 0, 58.89 0, 101.04 0 M0 0 C25.51 0, 51.03 0, 101.04 0 M101.04 0 C101.04 33.04, 101.04 66.09, 101.04 101.04 M101.04 0 C101.04 37.53, 101.04 75.06, 101.04 101.04 M101.04 101.04 C71.21 101.04, 41.39 101.04, 0 101.04 M101.04 101.04 C79.05 101.04, 57.07 101.04, 0 101.04 M0 101.04 C0 77.41, 0 53.78, 0 0 M0 101.04 C0 79.74, 0 58.44, 0 0" stroke="transparent" stroke-width="1" fill="none"></path></g><g stroke-linecap="round"><g transform="translate(62.275178267058436 20.538628919523035) rotate(0 11.842024840026397 5.663577097403959)"><path d="M-0.2 0.23 C3.71 2, 19.44 9.15, 23.42 11.07 M0.7 -0.13 C4.52 1.67, 19.08 9.79, 22.86 11.63" stroke="#000000" stroke-width="1" fill="none"></path></g></g><mask></mask><g stroke-linecap="round"><g transform="translate(61.80608367814693 19.383040136985073) rotate(0 9.725334409683455 -1.716235484061599)"><path d="M-0.26 -0.26 C3.02 -0.8, 16.16 -2.56, 19.48 -3.01 M0.61 0.79 C3.84 0.09, 15.93 -2.99, 19.07 -3.76" stroke="#000000" stroke-width="1" fill="none"></path></g></g><mask></mask><g stroke-linecap="round"><g transform="translate(83.71741318544991 32.27106117874064) rotate(0 9.725334409683455 -1.716235484061599)"><path d="M0.03 0.42 C3.35 -0.04, 16.4 -2.35, 19.64 -3 M-0.62 0.16 C2.67 -0.42, 16.01 -3.23, 19.31 -3.75" stroke="#000000" stroke-width="1" fill="none"></path></g></g><mask></mask><g stroke-linecap="round"><g transform="translate(81.46052710628919 13.24532866426307) rotate(0 11.842024840026397 5.663577097403959)"><path d="M0.19 0.43 C4.14 2.24, 19.78 9.39, 23.72 11.27 M-0.37 0.18 C3.51 2.04, 19.33 10.16, 23.31 11.94" stroke="#000000" stroke-width="1" fill="none"></path></g></g><mask></mask><g stroke-linecap="round"><g transform="translate(61.408737152331014 94.38426814054401) rotate(0 11.842024840026397 5.663577097403959)"><path d="M0.04 -0.06 C3.98 1.83, 19.97 9.84, 23.83 11.74 M-0.6 -0.56 C3.26 1.14, 19.32 8.91, 23.48 10.98" stroke="#000000" stroke-width="1" fill="none"></path></g></g><mask></mask><g stroke-linecap="round"><g transform="translate(60.93964256342042 93.22867935800605) rotate(0 9.725334409683455 -1.716235484061599)"><path d="M0.15 0.41 C3.31 -0.16, 15.87 -2.89, 19.01 -3.46 M-0.44 0.14 C2.89 -0.33, 16.6 -2.11, 20.02 -2.78" stroke="#000000" stroke-width="1" fill="none"></path></g></g><mask></mask><g stroke-linecap="round"><g transform="translate(82.85097207072431 106.11670039976525) rotate(0 9.725334409683455 -1.716235484061599)"><path d="M-0.44 -0.03 C2.71 -0.6, 15.65 -2.52, 19.01 -3.02 M0.34 -0.52 C3.64 -1.28, 16.82 -3.21, 20.02 -3.77" stroke="#000000" stroke-width="1" fill="none"></path></g></g><mask></mask><g stroke-linecap="round"><g transform="translate(84.10192217822987 33.29367116753201) rotate(0 -0.8581177420307995 37.471141402015746)"><path d="M-0.95 0.9 C-0.97 13.55, -0.99 63.39, -1.09 75.8 M0.75 0.33 C0.71 12.65, -1.21 61.98, -1.71 74.13" stroke="#000000" stroke-width="1" fill="none"></path></g></g><mask></mask><g stroke-linecap="round"><g transform="translate(59.72154430817136 41.84925339862457) rotate(0 11.842024840026397 5.663577097403959)"><path d="M0.29 0.39 C4.32 2.24, 19.9 9.62, 23.77 11.51 M-0.23 0.12 C3.78 1.76, 19.5 8.85, 23.38 10.63" stroke="#000000" stroke-width="1" fill="none"></path></g></g><mask></mask><g stroke-linecap="round"><g transform="translate(62.60609871225097 41.829317189105495) rotate(0 9.725334409683455 -1.716235484061599)"><path d="M0.08 0.18 C3.25 -0.4, 16.04 -2.47, 19.28 -3.06 M-0.54 -0.21 C2.52 -0.97, 15.47 -3.41, 18.76 -3.83" stroke="#000000" stroke-width="1" fill="none"></path></g></g><mask></mask><g stroke-linecap="round"><g transform="translate(61.41530917819182 59.928763926480315) rotate(0 11.842024840026397 5.663577097403959)"><path d="M-0.17 0.38 C3.78 2.25, 19.81 9.58, 23.79 11.41 M0.75 0.09 C4.63 2.05, 19.65 10.18, 23.41 12.15" stroke="#000000" stroke-width="1" fill="none"></path></g></g><mask></mask><g stroke-linecap="round"><g transform="translate(64.29986358226961 59.9088277169576) rotate(0 9.725334409683455 -1.716235484061599)"><path d="M0.1 0.08 C3.37 -0.55, 16.25 -2.76, 19.42 -3.43 M-0.51 -0.35 C2.7 -0.92, 15.79 -2.19, 18.98 -2.73" stroke="#000000" stroke-width="1" fill="none"></path></g></g><mask></mask><g stroke-linecap="round"><g transform="translate(59.33979966339575 80.0526694983455) rotate(0 11.842024840026397 5.663577097403959)"><path d="M-0.03 0 C3.85 1.79, 19.51 8.99, 23.38 10.83 M-0.7 -0.47 C3.35 1.36, 20.3 9.27, 24.46 11.27" stroke="#000000" stroke-width="1" fill="none"></path></g></g><mask></mask><g stroke-linecap="round"><g transform="translate(62.22435406747445 80.03273328882278) rotate(0 9.725334409683455 -1.716235484061599)"><path d="M-0.3 -0.5 C2.86 -1.12, 15.65 -3.15, 18.96 -3.71 M0.54 0.43 C3.87 -0.12, 16.83 -2.5, 19.94 -3.16" stroke="#000000" stroke-width="1" fill="none"></path></g></g><mask></mask><g stroke-linecap="round"><g transform="translate(105.64262390656222 27.797042582817085) rotate(0 -0.8581177420307995 37.471141402015746)"><path d="M-1.07 -0.61 C-1.21 11.9, -1.51 61.43, -1.5 73.95 M0.57 1.69 C0.35 14.41, -2 62.65, -2.34 74.97" stroke="#000000" stroke-width="1" fill="none"></path></g></g><mask></mask><g stroke-linecap="round"><g transform="translate(62.89857845595907 20.706977823203488) rotate(0 -0.8581177420307995 37.471141402015746)"><path d="M0.22 -0.99 C0.22 11.53, -0.65 61.74, -1.04 74.52 M-1.13 1.11 C-1.13 13.85, -1.31 63.73, -1.63 75.83" stroke="#000000" stroke-width="1" fill="none"></path></g></g><mask></mask><g stroke-linecap="round"><g transform="translate(48.03515309018894 43.07232498901067) rotate(0 -16.97739300246576 -0.15035183283498554)"><path d="M0.31 -0.19 C-5.39 -0.11, -28.45 0.09, -34.13 0.04 M-0.19 -0.77 C-5.99 -0.8, -29.01 -0.88, -34.65 -0.76" stroke="#000000" stroke-width="1" fill="none"></path></g><g transform="translate(48.03515309018894 43.07232498901067) rotate(0 -16.97739300246576 -0.15035183283498554)"><path d="M-18.74 -6.68 C-24.12 -5.02, -28.36 -2.62, -34.65 -0.76 M-18.74 -6.68 C-23.02 -4.94, -27.3 -3.84, -34.65 -0.76" stroke="#000000" stroke-width="1" fill="none"></path></g><g transform="translate(48.03515309018894 43.07232498901067) rotate(0 -16.97739300246576 -0.15035183283498554)"><path d="M-18.66 4.93 C-24.02 2.9, -28.29 1.6, -34.65 -0.76 M-18.66 4.93 C-22.92 3.62, -27.22 1.67, -34.65 -0.76" stroke="#000000" stroke-width="1" fill="none"></path></g></g><mask></mask><g stroke-linecap="round"><g transform="translate(14.456592510731753 73.45019910823976) rotate(0 16.54581896158652 0.281277505757771)"><path d="M-0.28 0.35 C5.19 0.34, 27.6 0.32, 33.09 0.3 M0.58 0.05 C5.96 0.08, 27.13 0.76, 32.65 0.86" stroke="#000000" stroke-width="1" fill="none"></path></g><g transform="translate(14.456592510731753 73.45019910823976) rotate(0 16.54581896158652 0.281277505757771)"><path d="M16.96 6.12 C22.87 4.34, 27.34 1.85, 32.65 0.86 M16.96 6.12 C21.05 4.86, 24.38 3.61, 32.65 0.86" stroke="#000000" stroke-width="1" fill="none"></path></g><g transform="translate(14.456592510731753 73.45019910823976) rotate(0 16.54581896158652 0.281277505757771)"><path d="M17.25 -5.19 C23.09 -3.08, 27.47 -1.68, 32.65 0.86 M17.25 -5.19 C21.26 -3.78, 24.51 -2.36, 32.65 0.86" stroke="#000000" stroke-width="1" fill="none"></path></g></g><mask></mask></svg>