<svg version="1.1" xmlns="http://www.w3.org/2000/svg" viewBox="0 0 121.03628645753543 121.03628645753543" width="121.03628645753543" height="121.03628645753543">
  <!-- svg-source:excalidraw -->
  
  <defs>
    <style class="style-fonts">
      @font-face {
        font-family: "Virgil";
        src: url("https://excalidraw.com/Virgil.woff2");
      }
      @font-face {
        font-family: "Cascadia";
        src: url("https://excalidraw.com/Cascadia.woff2");
      }
      @font-face {
        font-family: "Assistant";
        src: url("https://excalidraw.com/Assistant-Regular.woff2");
      }
    </style>
    
  </defs>
  <g stroke-linecap="round" transform="translate(10 10) rotate(0 50.51814322876771 50.51814322876771)"><path d="M0 0 C37.17 0, 74.33 0, 101.04 0 M0 0 C33.02 0, 66.04 0, 101.04 0 M101.04 0 C101.04 30.91, 101.04 61.81, 101.04 101.04 M101.04 0 C101.04 22.73, 101.04 45.47, 101.04 101.04 M101.04 101.04 C65.46 101.04, 29.89 101.04, 0 101.04 M101.04 101.04 C68.04 101.04, 35.05 101.04, 0 101.04 M0 101.04 C0 60.66, 0 20.28, 0 0 M0 101.04 C0 66.52, 0 32.01, 0 0" stroke="transparent" stroke-width="1" fill="none"></path></g><g stroke-linecap="round"><g transform="translate(12.060672971200802 43.65240360218013) rotate(0 0.6255811330022425 18.767433990065456)"><path d="M0.13 0.22 C0.25 6.42, 1.04 31.51, 1.2 37.68 M-0.47 -0.15 C-0.47 6.11, 0.55 30.48, 0.74 36.79" stroke="#000000" stroke-width="1" fill="none"></path></g></g><mask></mask><g stroke-linecap="round"><g transform="translate(12.686254104203726 41.4628696366708) rotate(0 14.70115662555122 -0.31279056650100756)"><path d="M-0.05 0.15 C4.8 -0.04, 24.33 -0.84, 29.24 -0.91 M-0.74 -0.25 C4.01 -0.39, 23.76 -0.21, 28.72 -0.36" stroke="#000000" stroke-width="1" fill="none"></path></g></g><mask></mask><g stroke-linecap="round"><g transform="translate(40.83740508930168 40.524497937165506) rotate(0 -0.7819764162527463 19.549410406318202)"><path d="M-0.16 -0.29 C-0.42 6.26, -1.39 32.82, -1.58 39.45 M0.75 0.75 C0.43 7.14, -1.64 32.35, -2.02 38.67" stroke="#000000" stroke-width="1" fill="none"></path></g></g><mask></mask><g stroke-linecap="round"><g transform="translate(10.809510705197681 82.7512244148129) rotate(0 14.388366059050213 0.4691858497517387)"><path d="M-0.02 0.35 C4.85 0.62, 24.21 1.18, 29.02 1.33 M-0.69 0.06 C4.14 0.2, 23.85 0.51, 28.71 0.57" stroke="#000000" stroke-width="1" fill="none"></path></g></g><mask></mask><g stroke-linecap="round"><g transform="translate(40.83740508930168 40.8372885036697) rotate(0 4.848253780766981 -4.066277364514008)"><path d="M0.16 0.26 C1.78 -1.1, 8.14 -6.51, 9.72 -7.9 M-0.19 0.08 C1.38 -1.4, 7.85 -7.1, 9.45 -8.41" stroke="#000000" stroke-width="1" fill="none"></path></g></g><mask></mask><g stroke-linecap="round"><g transform="translate(13.423063549039398 38.60240027902728) rotate(0 4.848253780766981 -4.066277364514008)"><path d="M0.02 0.23 C1.6 -1.17, 7.99 -6.78, 9.64 -8.14 M-0.4 0.04 C1.12 -1.33, 7.63 -6.27, 9.34 -7.7" stroke="#000000" stroke-width="1" fill="none"></path></g></g><mask></mask><g stroke-linecap="round"><g transform="translate(43.01262075688919 82.33581495416729) rotate(0 4.848253780766981 -4.066277364514008)"><path d="M-0.05 -0.01 C1.61 -1.37, 8.31 -6.53, 9.96 -7.93 M-0.51 -0.32 C1.13 -1.8, 8.12 -7.14, 9.82 -8.45" stroke="#000000" stroke-width="1" fill="none"></path></g></g><mask></mask><g stroke-linecap="round"><g transform="translate(52.902456274911856 33.72028226137627) rotate(0 -0.7819764162527463 19.549410406318202)"><path d="M0.41 0.32 C0.21 6.77, -0.92 32.28, -1.32 38.69 M-0.04 0 C-0.29 6.51, -1.48 32.64, -1.62 39.17" stroke="#000000" stroke-width="1" fill="none"></path></g></g><mask></mask><g stroke-linecap="round"><g transform="translate(24.013541529217946 30.541132052563626) rotate(0 14.70115662555122 -0.31279056650100756)"><path d="M0.24 -0.41 C5 -0.62, 24.04 -0.89, 28.97 -0.95 M-0.29 0.57 C4.6 0.39, 24.98 -0.28, 29.98 -0.41" stroke="#000000" stroke-width="1" fill="none"></path></g></g><mask></mask><g stroke-linecap="round" transform="translate(38.02228999079125 47.71868096669277) rotate(0 24.241268903834452 24.012577687760768)"><path d="M48.48 24.01 C48.48 25.4, 48.36 26.81, 48.11 28.18 C47.87 29.55, 47.5 30.92, 47.02 32.23 C46.54 33.53, 45.94 34.82, 45.23 36.02 C44.53 37.22, 43.71 38.38, 42.81 39.45 C41.91 40.51, 40.9 41.51, 39.82 42.41 C38.75 43.3, 37.58 44.11, 36.36 44.81 C35.15 45.5, 33.85 46.1, 32.53 46.58 C31.21 47.05, 29.83 47.42, 28.45 47.66 C27.07 47.9, 25.64 48.03, 24.24 48.03 C22.84 48.03, 21.41 47.9, 20.03 47.66 C18.65 47.42, 17.27 47.05, 15.95 46.58 C14.63 46.1, 13.34 45.5, 12.12 44.81 C10.91 44.11, 9.73 43.3, 8.66 42.41 C7.58 41.51, 6.57 40.51, 5.67 39.45 C4.77 38.38, 3.95 37.22, 3.25 36.02 C2.55 34.82, 1.94 33.53, 1.46 32.23 C0.98 30.92, 0.61 29.55, 0.37 28.18 C0.12 26.81, 0 25.4, 0 24.01 C0 22.62, 0.12 21.21, 0.37 19.84 C0.61 18.47, 0.98 17.11, 1.46 15.8 C1.94 14.49, 2.55 13.21, 3.25 12.01 C3.95 10.8, 4.77 9.64, 5.67 8.58 C6.57 7.51, 7.58 6.51, 8.66 5.62 C9.73 4.72, 10.91 3.91, 12.12 3.22 C13.34 2.52, 14.63 1.92, 15.95 1.45 C17.27 0.97, 18.65 0.61, 20.03 0.36 C21.41 0.12, 22.84 0, 24.24 0 C25.64 0, 27.07 0.12, 28.45 0.36 C29.83 0.61, 31.21 0.97, 32.53 1.45 C33.85 1.92, 35.15 2.52, 36.36 3.22 C37.58 3.91, 38.75 4.72, 39.82 5.62 C40.9 6.51, 41.91 7.51, 42.81 8.58 C43.71 9.64, 44.53 10.8, 45.23 12.01 C45.94 13.21, 46.54 14.49, 47.02 15.8 C47.5 17.11, 47.87 18.47, 48.11 19.84 C48.36 21.21, 48.42 23.32, 48.48 24.01 C48.54 24.71, 48.54 23.32, 48.48 24.01" stroke="none" stroke-width="0" fill="#000"></path><path d="M48.48 24.01 C48.48 25.4, 48.36 26.81, 48.11 28.18 C47.87 29.55, 47.5 30.92, 47.02 32.23 C46.54 33.53, 45.94 34.82, 45.23 36.02 C44.53 37.22, 43.71 38.38, 42.81 39.45 C41.91 40.51, 40.9 41.51, 39.82 42.41 C38.75 43.3, 37.58 44.11, 36.36 44.81 C35.15 45.5, 33.85 46.1, 32.53 46.58 C31.21 47.05, 29.83 47.42, 28.45 47.66 C27.07 47.9, 25.64 48.03, 24.24 48.03 C22.84 48.03, 21.41 47.9, 20.03 47.66 C18.65 47.42, 17.27 47.05, 15.95 46.58 C14.63 46.1, 13.34 45.5, 12.12 44.81 C10.91 44.11, 9.73 43.3, 8.66 42.41 C7.58 41.51, 6.57 40.51, 5.67 39.45 C4.77 38.38, 3.95 37.22, 3.25 36.02 C2.55 34.82, 1.94 33.53, 1.46 32.23 C0.98 30.92, 0.61 29.55, 0.37 28.18 C0.12 26.81, 0 25.4, 0 24.01 C0 22.62, 0.12 21.21, 0.37 19.84 C0.61 18.47, 0.98 17.11, 1.46 15.8 C1.94 14.49, 2.55 13.21, 3.25 12.01 C3.95 10.8, 4.77 9.64, 5.67 8.58 C6.57 7.51, 7.58 6.51, 8.66 5.62 C9.73 4.72, 10.91 3.91, 12.12 3.22 C13.34 2.52, 14.63 1.92, 15.95 1.45 C17.27 0.97, 18.65 0.61, 20.03 0.36 C21.41 0.12, 22.84 0, 24.24 0 C25.64 0, 27.07 0.12, 28.45 0.36 C29.83 0.61, 31.21 0.97, 32.53 1.45 C33.85 1.92, 35.15 2.52, 36.36 3.22 C37.58 3.91, 38.75 4.72, 39.82 5.62 C40.9 6.51, 41.91 7.51, 42.81 8.58 C43.71 9.64, 44.53 10.8, 45.23 12.01 C45.94 13.21, 46.54 14.49, 47.02 15.8 C47.5 17.11, 47.87 18.47, 48.11 19.84 C48.36 21.21, 48.42 23.32, 48.48 24.01 C48.54 24.71, 48.54 23.32, 48.48 24.01" stroke="#000000" stroke-width="1" fill="none"></path></g><g stroke-linecap="round" transform="translate(49.91423322663559 54.579417448909226) rotate(0 4.573824321478014 5.717280401847802)"><path d="M9.15 5.72 C9.15 6.05, 9.12 6.38, 9.08 6.71 C9.03 7.04, 8.96 7.36, 8.87 7.67 C8.78 7.98, 8.67 8.29, 8.53 8.58 C8.4 8.86, 8.25 9.14, 8.08 9.39 C7.91 9.65, 7.72 9.88, 7.51 10.1 C7.31 10.31, 7.09 10.5, 6.86 10.67 C6.63 10.83, 6.39 10.98, 6.14 11.09 C5.89 11.2, 5.63 11.29, 5.37 11.35 C5.11 11.41, 4.84 11.43, 4.57 11.43 C4.31 11.43, 4.04 11.41, 3.78 11.35 C3.52 11.29, 3.26 11.2, 3.01 11.09 C2.76 10.98, 2.52 10.83, 2.29 10.67 C2.06 10.5, 1.84 10.31, 1.63 10.1 C1.43 9.88, 1.24 9.65, 1.07 9.39 C0.9 9.14, 0.75 8.86, 0.61 8.58 C0.48 8.29, 0.37 7.98, 0.28 7.67 C0.19 7.36, 0.12 7.04, 0.07 6.71 C0.02 6.38, 0 6.05, 0 5.72 C0 5.39, 0.02 5.05, 0.07 4.72 C0.12 4.4, 0.19 4.07, 0.28 3.76 C0.37 3.45, 0.48 3.15, 0.61 2.86 C0.75 2.57, 0.9 2.3, 1.07 2.04 C1.24 1.79, 1.43 1.55, 1.63 1.34 C1.84 1.12, 2.06 0.93, 2.29 0.77 C2.52 0.6, 2.76 0.46, 3.01 0.34 C3.26 0.23, 3.52 0.14, 3.78 0.09 C4.04 0.03, 4.31 0, 4.57 0 C4.84 0, 5.11 0.03, 5.37 0.09 C5.63 0.14, 5.89 0.23, 6.14 0.34 C6.39 0.46, 6.63 0.6, 6.86 0.77 C7.09 0.93, 7.31 1.12, 7.51 1.34 C7.72 1.55, 7.91 1.79, 8.08 2.04 C8.25 2.3, 8.4 2.57, 8.53 2.86 C8.67 3.15, 8.78 3.45, 8.87 3.76 C8.96 4.07, 9.03 4.4, 9.08 4.72 C9.12 5.05, 9.14 5.55, 9.15 5.72 C9.16 5.88, 9.16 5.55, 9.15 5.72" stroke="none" stroke-width="0" fill="#fff"></path><path d="M9.15 5.72 C9.15 6.05, 9.12 6.38, 9.08 6.71 C9.03 7.04, 8.96 7.36, 8.87 7.67 C8.78 7.98, 8.67 8.29, 8.53 8.58 C8.4 8.86, 8.25 9.14, 8.08 9.39 C7.91 9.65, 7.72 9.88, 7.51 10.1 C7.31 10.31, 7.09 10.5, 6.86 10.67 C6.63 10.83, 6.39 10.98, 6.14 11.09 C5.89 11.2, 5.63 11.29, 5.37 11.35 C5.11 11.41, 4.84 11.43, 4.57 11.43 C4.31 11.43, 4.04 11.41, 3.78 11.35 C3.52 11.29, 3.26 11.2, 3.01 11.09 C2.76 10.98, 2.52 10.83, 2.29 10.67 C2.06 10.5, 1.84 10.31, 1.63 10.1 C1.43 9.88, 1.24 9.65, 1.07 9.39 C0.9 9.14, 0.75 8.86, 0.61 8.58 C0.48 8.29, 0.37 7.98, 0.28 7.67 C0.19 7.36, 0.12 7.04, 0.07 6.71 C0.02 6.38, 0 6.05, 0 5.72 C0 5.39, 0.02 5.05, 0.07 4.72 C0.12 4.4, 0.19 4.07, 0.28 3.76 C0.37 3.45, 0.48 3.15, 0.61 2.86 C0.75 2.57, 0.9 2.3, 1.07 2.04 C1.24 1.79, 1.43 1.55, 1.63 1.34 C1.84 1.12, 2.06 0.93, 2.29 0.77 C2.52 0.6, 2.76 0.46, 3.01 0.34 C3.26 0.23, 3.52 0.14, 3.78 0.09 C4.04 0.03, 4.31 0, 4.57 0 C4.84 0, 5.11 0.03, 5.37 0.09 C5.63 0.14, 5.89 0.23, 6.14 0.34 C6.39 0.46, 6.63 0.6, 6.86 0.77 C7.09 0.93, 7.31 1.12, 7.51 1.34 C7.72 1.55, 7.91 1.79, 8.08 2.04 C8.25 2.3, 8.4 2.57, 8.53 2.86 C8.67 3.15, 8.78 3.45, 8.87 3.76 C8.96 4.07, 9.03 4.4, 9.08 4.72 C9.12 5.05, 9.14 5.55, 9.15 5.72 C9.16 5.88, 9.16 5.55, 9.15 5.72" stroke="#000000" stroke-width="1" fill="none"></path></g><g stroke-linecap="round"><g transform="translate(66.74652234146652 60.26435506867165) rotate(0 10.398642333924045 -16.567328464218008)"><path d="M0.21 -0.22 C3.62 -5.53, 17.8 -26.5, 21.42 -32.16 M-1.14 -1.38 C2.08 -6.98, 16.98 -28.43, 20.8 -33.78" stroke="#000000" stroke-width="1" fill="none"></path></g></g><mask></mask><g stroke-linecap="round"><g transform="translate(89.30628876082665 25.719712739026363) rotate(0 9.693649633318955 20.444788317545772)"><path d="M0.63 0.97 C4.01 7.64, 17.52 32.97, 20.52 39.82 M-0.51 0.44 C2.8 7.24, 16.56 34.14, 20.17 40.79" stroke="#000000" stroke-width="1" fill="none"></path></g></g><mask></mask><g stroke-linecap="round"><g transform="translate(106.93110627595252 65.90429667351054) rotate(0 -20.973532842999475 3.8774598533273092)"><path d="M1.14 -1.07 C-0.15 0.49, -3.45 8.12, -7.08 10.35 C-10.71 12.57, -16.03 12.6, -20.63 12.3 C-25.23 12.01, -31.14 11.13, -34.67 8.57 C-38.2 6, -40.58 -1.07, -41.83 -3.07 M0.28 0.98 C-0.68 2.15, -1.19 6.71, -4.76 8.84 C-8.32 10.98, -16.2 14.16, -21.12 13.79 C-26.05 13.42, -30.62 9.87, -34.31 6.62 C-37.99 3.37, -42.14 -3.94, -43.24 -5.73" stroke="#000000" stroke-width="1" fill="none"></path></g></g><mask></mask><g stroke-linecap="round"><g transform="translate(87.89630335961647 26.07220908932686) rotate(0 -6.873678830899053 23.264759119965674)"><path d="M-0.34 0.54 C-2.68 8.4, -11.29 38.92, -13.51 46.68 M0.49 0.34 C-1.94 8.07, -11.41 38.13, -13.82 45.79" stroke="#000000" stroke-width="1" fill="none"></path></g></g><mask></mask><g stroke-linecap="round"><g transform="translate(89.30959389691725 27.061137424370827) rotate(0 -1.0574890509074066 24.145999995721922)"><path d="M0.24 0.15 C-0.04 8.19, -1.63 40.71, -2.01 48.83 M-0.3 -0.25 C-0.62 7.89, -2.04 40.09, -2.39 48.13" stroke="#000000" stroke-width="1" fill="none"></path></g></g><mask></mask><g stroke-linecap="round"><g transform="translate(88.67171552718446 26.222895518363657) rotate(0 5.111197079386329 23.088510944814516)"><path d="M0.1 0.53 C1.78 8.29, 8.61 39.04, 10.28 46.71 M-0.51 0.33 C1.08 7.94, 8.17 38.46, 9.87 46.02" stroke="#000000" stroke-width="1" fill="none"></path></g></g><mask></mask></svg>