<svg version="1.1" xmlns="http://www.w3.org/2000/svg" viewBox="0 0 121.03628645753543 121.03628645753543" width="121.03628645753543" height="121.03628645753543">
  <!-- svg-source:excalidraw -->
  
  <defs>
    <style class="style-fonts">
      @font-face {
        font-family: "Virgil";
        src: url("https://excalidraw.com/Virgil.woff2");
      }
      @font-face {
        font-family: "Cascadia";
        src: url("https://excalidraw.com/Cascadia.woff2");
      }
      @font-face {
        font-family: "Assistant";
        src: url("https://excalidraw.com/Assistant-Regular.woff2");
      }
    </style>
    
  </defs>
  <g stroke-linecap="round" transform="translate(10 10) rotate(0 50.51814322876771 50.51814322876771)"><path d="M0 0 C23.76 0, 47.52 0, 101.04 0 M0 0 C31.3 0, 62.6 0, 101.04 0 M101.04 0 C101.04 29.05, 101.04 58.1, 101.04 101.04 M101.04 0 C101.04 39.49, 101.04 78.98, 101.04 101.04 M101.04 101.04 C64.29 101.04, 27.54 101.04, 0 101.04 M101.04 101.04 C68.96 101.04, 36.88 101.04, 0 101.04 M0 101.04 C0 67.35, 0 33.67, 0 0 M0 101.04 C0 73.38, 0 45.72, 0 0" stroke="transparent" stroke-width="1" fill="none"></path></g><g stroke-linecap="round"><g transform="translate(62.275178267058436 20.538628919523035) rotate(0 11.842024840026397 5.663577097403959)"><path d="M-0.08 0.26 C3.96 2.22, 19.86 9.56, 23.86 11.38 M-0.78 -0.08 C3.24 2.01, 19.44 10.14, 23.53 12.11" stroke="#000000" stroke-width="1" fill="none"></path></g></g><mask></mask><g stroke-linecap="round"><g transform="translate(61.80608367814693 19.383040136985073) rotate(0 9.725334409683455 -1.716235484061599)"><path d="M0.18 0.05 C3.48 -0.58, 16.57 -2.93, 19.72 -3.55 M-0.39 -0.39 C2.87 -0.97, 15.99 -2.44, 19.42 -2.91" stroke="#000000" stroke-width="1" fill="none"></path></g></g><mask></mask><g stroke-linecap="round"><g transform="translate(83.71741318544991 32.27106117874246) rotate(0 9.725334409683455 -1.716235484061599)"><path d="M0.27 -0.12 C3.42 -0.74, 15.82 -3.19, 19.08 -3.7 M-0.26 -0.66 C3.05 -1.22, 16.8 -2.56, 20.12 -3.14" stroke="#000000" stroke-width="1" fill="none"></path></g></g><mask></mask><g stroke-linecap="round"><g transform="translate(81.46052710628919 13.24532866426307) rotate(0 11.842024840026397 5.663577097403959)"><path d="M-0.37 -0.27 C3.59 1.68, 20.05 9.57, 24.05 11.58 M0.43 0.79 C4.33 2.58, 20.01 9.05, 23.81 10.75" stroke="#000000" stroke-width="1" fill="none"></path></g></g><mask></mask><g stroke-linecap="round"><g transform="translate(61.408737152331014 94.38426814054583) rotate(0 11.842024840026397 5.663577097403959)"><path d="M0.37 0.26 C4.36 2.27, 19.78 9.88, 23.62 11.79 M-0.11 -0.09 C3.84 1.8, 19.31 9.24, 23.15 11.07" stroke="#000000" stroke-width="1" fill="none"></path></g></g><mask></mask><g stroke-linecap="round"><g transform="translate(60.93964256342042 93.22867935800605) rotate(0 9.725334409683455 -1.716235484061599)"><path d="M-0.07 0.47 C3.06 -0.08, 15.93 -2.37, 19.16 -3.02 M-0.77 0.23 C2.51 -0.49, 16.96 -3.26, 20.24 -3.78" stroke="#000000" stroke-width="1" fill="none"></path></g></g><mask></mask><g stroke-linecap="round"><g transform="translate(82.85097207072431 106.11670039976525) rotate(0 9.725334409683455 -1.716235484061599)"><path d="M-0.29 0.41 C2.94 -0.24, 15.99 -2.89, 19.34 -3.45 M0.56 0.15 C3.72 -0.18, 15.67 -2.11, 18.85 -2.76" stroke="#000000" stroke-width="1" fill="none"></path></g></g><mask></mask><g stroke-linecap="round"><g transform="translate(84.10192217822987 33.29367116753201) rotate(0 -0.8581177420307995 37.471141402015746)"><path d="M-0.24 -0.03 C-0.29 12.49, -0.68 63.47, -0.91 76.03 M1.83 -1.1 C1.75 11.04, -0.73 62.09, -1.44 74.48" stroke="#000000" stroke-width="1" fill="none"></path></g></g><mask></mask><g stroke-linecap="round"><g transform="translate(59.72154430817136 41.84925339862457) rotate(0 11.842024840026397 5.663577097403959)"><path d="M0.37 0.5 C4.34 2.42, 19.86 9.68, 23.71 11.52 M-0.1 0.28 C3.81 2.04, 19.43 8.94, 23.3 10.65" stroke="#000000" stroke-width="1" fill="none"></path></g></g><mask></mask><g stroke-linecap="round"><g transform="translate(62.60609871225097 41.829317189105495) rotate(0 9.725334409683455 -1.716235484061599)"><path d="M0.03 0.19 C3.18 -0.44, 16.06 -2.65, 19.28 -3.25 M-0.62 -0.19 C2.41 -0.75, 15.51 -3.69, 18.76 -4.13" stroke="#000000" stroke-width="1" fill="none"></path></g></g><mask></mask><g stroke-linecap="round"><g transform="translate(61.41530917819182 59.928763926480315) rotate(0 11.842024840026397 5.663577097403959)"><path d="M-0.17 0.18 C3.75 2.04, 19.53 9.43, 23.57 11.33 M0.74 -0.2 C4.58 1.73, 19.22 10.22, 23.07 12.02" stroke="#000000" stroke-width="1" fill="none"></path></g></g><mask></mask><g stroke-linecap="round"><g transform="translate(64.29986358226961 59.90882771695942) rotate(0 9.725334409683455 -1.716235484061599)"><path d="M-0.12 0 C3.21 -0.56, 16.6 -2.67, 19.8 -3.19 M0.82 -0.48 C4.12 -1.22, 16.32 -3.43, 19.55 -4.03" stroke="#000000" stroke-width="1" fill="none"></path></g></g><mask></mask><g stroke-linecap="round"><g transform="translate(59.33979966339575 80.0526694983455) rotate(0 11.842024840026397 5.663577097403959)"><path d="M0.35 0.25 C4.25 2.18, 19.48 9.8, 23.3 11.63 M-0.13 -0.1 C3.95 1.67, 20.25 8.84, 24.34 10.81" stroke="#000000" stroke-width="1" fill="none"></path></g></g><mask></mask><g stroke-linecap="round"><g transform="translate(62.22435406747445 80.03273328882278) rotate(0 9.725334409683455 -1.716235484061599)"><path d="M-0.38 0.3 C2.74 -0.33, 15.83 -2.94, 19.06 -3.55 M0.43 -0.02 C3.68 -0.59, 16.82 -2.46, 20.09 -2.9" stroke="#000000" stroke-width="1" fill="none"></path></g></g><mask></mask><g stroke-linecap="round"><g transform="translate(105.64262390656222 27.797042582817085) rotate(0 -0.8581177420307995 37.471141402015746)"><path d="M-0.86 -0.25 C-1.19 12.17, -2.66 62.43, -2.79 75.15 M0.89 -1.42 C0.99 10.55, -0.1 60.5, -0.64 73.14" stroke="#000000" stroke-width="1" fill="none"></path></g></g><mask></mask><g stroke-linecap="round"><g transform="translate(62.89857845595907 20.706977823203488) rotate(0 -0.8581177420307995 37.471141402015746)"><path d="M-1.07 0.21 C-1.2 12.94, -1.69 63.53, -1.63 76.12 M0.57 -0.73 C0.36 11.72, -2.28 62.19, -2.53 74.61" stroke="#000000" stroke-width="1" fill="none"></path></g></g><mask></mask><g stroke-linecap="round"><g transform="translate(48.03515309018894 57.07232498901067) rotate(0 -16.97739300246576 -0.15035183283498554)"><path d="M0.04 0.54 C-5.46 0.53, -27.75 0.23, -33.49 0.06 M-0.6 0.34 C-6.1 0.17, -28.23 -0.67, -33.69 -0.72" stroke="#000000" stroke-width="1" fill="none"></path></g><g transform="translate(48.03515309018894 57.07232498901067) rotate(0 -16.97739300246576 -0.15035183283498554)"><path d="M-17.59 -6.11 C-20.15 -4.26, -23.81 -4.58, -33.69 -0.72 M-17.59 -6.11 C-22.21 -4.79, -25.94 -3.56, -33.69 -0.72" stroke="#000000" stroke-width="1" fill="none"></path></g><g transform="translate(48.03515309018894 57.07232498901067) rotate(0 -16.97739300246576 -0.15035183283498554)"><path d="M-17.89 5.5 C-20.39 4.91, -23.99 2.14, -33.69 -0.72 M-17.89 5.5 C-22.45 3.71, -26.1 1.83, -33.69 -0.72" stroke="#000000" stroke-width="1" fill="none"></path></g></g><mask></mask></svg>