<svg version="1.1" xmlns="http://www.w3.org/2000/svg" viewBox="0 0 121.03628645753543 121.03628645753543" width="121.03628645753543" height="121.03628645753543">
  <!-- svg-source:excalidraw -->
  
  <defs>
    <style class="style-fonts">
      @font-face {
        font-family: "Virgil";
        src: url("https://excalidraw.com/Virgil.woff2");
      }
      @font-face {
        font-family: "Cascadia";
        src: url("https://excalidraw.com/Cascadia.woff2");
      }
      @font-face {
        font-family: "Assistant";
        src: url("https://excalidraw.com/Assistant-Regular.woff2");
      }
    </style>
    
  </defs>
  <g stroke-linecap="round" transform="translate(10 10) rotate(0 50.51814322876771 50.51814322876771)"><path d="M0 0 C33.77 0, 67.54 0, 101.04 0 M0 0 C31.3 0, 62.59 0, 101.04 0 M101.04 0 C101.04 27.66, 101.04 55.33, 101.04 101.04 M101.04 0 C101.04 30.7, 101.04 61.4, 101.04 101.04 M101.04 101.04 C67.38 101.04, 33.73 101.04, 0 101.04 M101.04 101.04 C78.88 101.04, 56.72 101.04, 0 101.04 M0 101.04 C0 62.82, 0 24.6, 0 0 M0 101.04 C0 68.04, 0 35.05, 0 0" stroke="transparent" stroke-width="1" fill="none"></path></g><g stroke-linecap="round"><g transform="translate(83.74069711357197 44.852415952312185) rotate(0 6.247687448212673 2.988024431753729)"><path d="M0.15 0.23 C2.22 1.22, 10.37 5, 12.34 6.03 M-0.44 -0.13 C1.55 0.96, 9.59 5.8, 11.83 6.76" stroke="#000000" stroke-width="1" fill="none"></path></g></g><mask></mask><g stroke-linecap="round"><g transform="translate(83.4932093389084 44.24274339804015) rotate(0 5.130951044425956 -0.9054619490161713)"><path d="M-0.15 0.05 C1.45 -0.21, 8.06 -1.15, 9.74 -1.37 M0.77 -0.39 C2.52 -0.83, 8.99 -1.83, 10.7 -2.11" stroke="#000000" stroke-width="1" fill="none"></path></g></g><mask></mask><g stroke-linecap="round"><g transform="translate(95.05332175091144 51.04228388057072) rotate(0 5.130951044425956 -0.9054619490161713)"><path d="M-0.52 0.44 C1.15 0.22, 8.04 -0.87, 9.91 -1.28 M0.21 0.19 C2.07 -0.17, 9.24 -1.68, 10.96 -1.97" stroke="#000000" stroke-width="1" fill="none"></path></g></g><mask></mask><g stroke-linecap="round"><g transform="translate(93.86262007452524 41.004572270475364) rotate(0 6.247687448212673 2.988024431753729)"><path d="M-0.36 0.53 C1.88 1.42, 10.76 4.93, 12.88 5.77 M0.46 0.33 C2.7 1.25, 10.73 5.42, 12.64 6.36" stroke="#000000" stroke-width="1" fill="none"></path></g></g><mask></mask><g stroke-linecap="round"><g transform="translate(83.28357484350227 83.81234717175994) rotate(0 6.247687448212673 2.988024431753729)"><path d="M0.38 -0.21 C2.5 0.63, 10.3 4.57, 12.35 5.56 M-0.08 -0.79 C1.98 0.34, 9.75 4.87, 11.85 6.04" stroke="#000000" stroke-width="1" fill="none"></path></g></g><mask></mask><g stroke-linecap="round"><g transform="translate(83.0360870688387 83.20267461748972) rotate(0 5.130951044425956 -0.9054619490161713)"><path d="M-0.14 -0.42 C1.54 -0.72, 8.79 -1.85, 10.48 -2.03 M0.78 0.56 C2.38 0.34, 8.71 -0.96, 10.17 -1.45" stroke="#000000" stroke-width="1" fill="none"></path></g></g><mask></mask><g stroke-linecap="round"><g transform="translate(94.59619948084173 90.0022151000203) rotate(0 5.130951044425956 -0.9054619490161713)"><path d="M0.22 -0.22 C1.91 -0.4, 8.37 -1.24, 10 -1.5 M-0.33 -0.81 C1.28 -1.12, 7.8 -2.24, 9.44 -2.3" stroke="#000000" stroke-width="1" fill="none"></path></g></g><mask></mask><g stroke-linecap="round"><g transform="translate(95.25618334260389 51.58179867451054) rotate(0 -0.45273097450808564 19.769252553523074)"><path d="M-0.26 0.31 C-0.49 6.94, -1.06 32.96, -1.17 39.56 M0.61 0 C0.26 6.74, -1.43 33.76, -1.73 40.27" stroke="#000000" stroke-width="1" fill="none"></path></g></g><mask></mask><g stroke-linecap="round"><g transform="translate(82.39343538698495 56.09560475408125) rotate(0 6.247687448212673 2.988024431753729)"><path d="M-0.26 0.02 C1.87 1.03, 10.34 5.37, 12.52 6.35 M0.61 -0.44 C2.69 0.38, 10.09 4.43, 12.1 5.58" stroke="#000000" stroke-width="1" fill="none"></path></g></g><mask></mask><g stroke-linecap="round"><g transform="translate(83.91528613358378 56.085086687479816) rotate(0 5.130951044425956 -0.9054619490161713)"><path d="M0.02 0.38 C1.83 0.06, 8.86 -1.56, 10.59 -1.89 M-0.63 0.09 C1.16 -0.14, 8.54 -0.8, 10.33 -1.24" stroke="#000000" stroke-width="1" fill="none"></path></g></g><mask></mask><g stroke-linecap="round"><g transform="translate(83.28704215285461 65.63410281675078) rotate(0 6.247687448212673 2.988024431753729)"><path d="M0.33 -0.08 C2.43 0.89, 10.59 5.13, 12.65 6.19 M-0.16 -0.6 C1.88 0.17, 10.2 4.35, 12.29 5.33" stroke="#000000" stroke-width="1" fill="none"></path></g></g><mask></mask><g stroke-linecap="round"><g transform="translate(84.80889289945435 65.62358475015117) rotate(0 5.130951044425956 -0.9054619490161713)"><path d="M0.15 0.21 C1.84 -0.03, 8.77 -1.25, 10.44 -1.54 M-0.44 -0.15 C1.17 -0.55, 8.4 -1.99, 10.11 -2.36" stroke="#000000" stroke-width="1" fill="none"></path></g></g><mask></mask><g stroke-linecap="round"><g transform="translate(82.19203222681563 76.25119524383535) rotate(0 6.247687448212673 2.988024431753729)"><path d="M0.18 0.27 C2.23 1.29, 10.33 5.43, 12.44 6.29 M-0.39 -0.06 C1.57 0.78, 9.8 4.51, 11.97 5.49" stroke="#000000" stroke-width="1" fill="none"></path></g></g><mask></mask><g stroke-linecap="round"><g transform="translate(83.71388297341446 76.2406771772321) rotate(0 5.130951044425956 -0.9054619490161713)"><path d="M-0.06 0.31 C1.68 -0.12, 8.85 -1.91, 10.59 -2.34 M-0.75 0 C0.92 -0.41, 8.51 -1.6, 10.32 -1.92" stroke="#000000" stroke-width="1" fill="none"></path></g></g><mask></mask><g stroke-linecap="round"><g transform="translate(106.6207576980737 48.68185395389719) rotate(0 -0.45273097450808564 19.769252553523074)"><path d="M0.33 -0.53 C0.21 5.93, -0.52 32.5, -0.78 39.09 M-0.17 0.38 C-0.35 6.88, -0.88 33.07, -1.14 39.57" stroke="#000000" stroke-width="1" fill="none"></path></g></g><mask></mask><g stroke-linecap="round"><g transform="translate(84.06959437464184 44.941234490243914) rotate(0 -0.45273097450808564 19.769252553523074)"><path d="M0.13 -0.44 C-0.13 6.15, -0.98 32.34, -1.22 39.03 M-0.47 0.52 C-0.58 7.21, -0.19 33.11, -0.14 39.47" stroke="#000000" stroke-width="1" fill="none"></path></g></g><mask></mask><g stroke-linecap="round"><g transform="translate(69.77270674477904 37.980038653765405) rotate(0 6.247687448212673 2.988024431753729)"><path d="M-0.31 -0.5 C1.69 0.59, 9.97 5.07, 12.11 6.14 M0.53 0.43 C2.69 1.39, 11.2 4.25, 13.15 5.26" stroke="#000000" stroke-width="1" fill="none"></path></g></g><mask></mask><g stroke-linecap="round"><g transform="translate(69.52521897011457 37.37036609949337) rotate(0 5.130951044425956 -0.9054619490161713)"><path d="M-0.38 0.16 C1.38 -0.07, 8.46 -1.47, 10.3 -1.89 M0.42 -0.23 C2.15 -0.33, 8.2 -0.93, 9.89 -1.23" stroke="#000000" stroke-width="1" fill="none"></path></g></g><mask></mask><g stroke-linecap="round"><g transform="translate(79.89462970573322 34.132194971928584) rotate(0 6.247687448212673 2.988024431753729)"><path d="M0.04 -0.08 C2.26 0.8, 10.86 4.5, 12.93 5.43 M-0.6 -0.6 C1.61 0.31, 10.6 4.77, 12.72 5.85" stroke="#000000" stroke-width="1" fill="none"></path></g></g><mask></mask><g stroke-linecap="round"><g transform="translate(69.31558447470934 76.93996987321134) rotate(0 6.247687448212673 2.988024431753729)"><path d="M0.43 -0.55 C2.5 0.38, 10.52 4.36, 12.44 5.5 M-0.01 0.36 C1.98 1.35, 9.82 5.12, 11.99 5.95" stroke="#000000" stroke-width="1" fill="none"></path></g></g><mask></mask><g stroke-linecap="round"><g transform="translate(69.06809670004577 76.33029731894112) rotate(0 5.130951044425956 -0.9054619490161713)"><path d="M-0.05 -0.48 C1.5 -0.64, 8.05 -1.33, 9.73 -1.53 M-0.74 0.46 C0.93 0.18, 8.98 -2.11, 10.69 -2.35" stroke="#000000" stroke-width="1" fill="none"></path></g></g><mask></mask><g stroke-linecap="round"><g transform="translate(68.42544501819202 49.22322745553447) rotate(0 6.247687448212673 2.988024431753729)"><path d="M-0.53 0.28 C1.51 1.38, 10.04 5.26, 12.22 6.12 M0.19 -0.05 C2.42 0.92, 11.31 4.25, 13.31 5.23" stroke="#000000" stroke-width="1" fill="none"></path></g></g><mask></mask><g stroke-linecap="round"><g transform="translate(69.94729576479085 49.2127093889294) rotate(0 5.130951044425956 -0.9054619490161713)"><path d="M-0.28 0.15 C1.53 -0.29, 8.58 -1.91, 10.3 -2.31 M0.58 -0.25 C2.36 -0.66, 8.39 -1.59, 9.88 -1.86" stroke="#000000" stroke-width="1" fill="none"></path></g></g><mask></mask><g stroke-linecap="round"><g transform="translate(69.31905178406078 58.761725518204) rotate(0 6.247687448212673 2.988024431753729)"><path d="M0.03 -0.5 C2.12 0.4, 10.13 4.55, 12.26 5.54 M-0.61 0.44 C1.41 1.38, 9.5 5.12, 11.71 6.02" stroke="#000000" stroke-width="1" fill="none"></path></g></g><mask></mask><g stroke-linecap="round"><g transform="translate(70.84090253066051 58.75120745160075) rotate(0 5.130951044425956 -0.9054619490161713)"><path d="M-0.24 -0.43 C1.52 -0.73, 8.83 -2.02, 10.58 -2.3 M0.64 0.53 C2.35 0.33, 8.76 -1.49, 10.32 -1.85" stroke="#000000" stroke-width="1" fill="none"></path></g></g><mask></mask><g stroke-linecap="round"><g transform="translate(68.22404185802179 69.37881794528857) rotate(0 6.247687448212673 2.988024431753729)"><path d="M0.32 -0.49 C2.45 0.53, 10.4 4.62, 12.52 5.69 M-0.18 0.45 C1.9 1.58, 9.92 5.23, 12.1 6.25" stroke="#000000" stroke-width="1" fill="none"></path></g></g><mask></mask><g stroke-linecap="round"><g transform="translate(69.74589260462153 69.36829987868532) rotate(0 5.130951044425956 -0.9054619490161713)"><path d="M0.03 -0.28 C1.77 -0.51, 8.99 -1.48, 10.79 -1.81 M-0.63 0.76 C1.06 0.67, 8.73 -0.67, 10.63 -1.12" stroke="#000000" stroke-width="1" fill="none"></path></g></g><mask></mask><g stroke-linecap="round"><g transform="translate(70.10160400584891 38.068857191697134) rotate(0 -0.45273097450808564 19.769252553523074)"><path d="M0.53 0 C0.46 6.56, -0.14 32.56, -0.36 39.08 M0.13 -0.48 C0.04 6.16, -0.3 32.89, -0.5 39.55" stroke="#000000" stroke-width="1" fill="none"></path></g></g><mask></mask><g stroke-linecap="round"><g transform="translate(56.947301343897834 31.26438554204924) rotate(0 6.247687448212673 2.988024431753729)"><path d="M0.55 -0.45 C2.57 0.47, 10.66 4.49, 12.62 5.56 M0.17 0.5 C2.08 1.49, 10.3 5.04, 12.25 6.05" stroke="#000000" stroke-width="1" fill="none"></path></g></g><mask></mask><g stroke-linecap="round"><g transform="translate(56.699813569234266 30.654712987777202) rotate(0 5.130951044425956 -0.9054619490161713)"><path d="M0.12 -0.41 C1.71 -0.64, 8.48 -1.55, 10.09 -1.83 M-0.48 0.56 C0.98 0.46, 7.68 -0.77, 9.57 -1.14" stroke="#000000" stroke-width="1" fill="none"></path></g></g><mask></mask><g stroke-linecap="round"><g transform="translate(67.0692243048511 27.41654186021242) rotate(0 6.247687448212673 2.988024431753729)"><path d="M-0.18 -0.02 C1.8 1, 9.93 4.67, 12 5.68 M0.74 -0.51 C2.87 0.61, 11.14 5.03, 12.98 6.23" stroke="#000000" stroke-width="1" fill="none"></path></g></g><mask></mask><g stroke-linecap="round"><g transform="translate(56.49017907382722 70.22431676149517) rotate(0 6.247687448212673 2.988024431753729)"><path d="M-0.5 -0.3 C1.57 0.71, 9.98 5.05, 12.23 6.03 M0.25 0.74 C2.51 1.85, 11.21 5.88, 13.33 6.76" stroke="#000000" stroke-width="1" fill="none"></path></g></g><mask></mask><g stroke-linecap="round"><g transform="translate(56.24269129916456 69.61464420722677) rotate(0 5.130951044425956 -0.9054619490161713)"><path d="M-0.27 0.05 C1.61 -0.26, 9.12 -1.83, 10.79 -2.19 M0.6 -0.39 C2.49 -0.62, 8.93 -1.47, 10.63 -1.69" stroke="#000000" stroke-width="1" fill="none"></path></g></g><mask></mask><g stroke-linecap="round"><g transform="translate(55.60003961731172 42.507574343816486) rotate(0 6.247687448212673 2.988024431753729)"><path d="M0.53 -0.38 C2.57 0.55, 9.92 4.55, 12 5.65 M0.14 0.61 C2.37 1.6, 10.85 5.4, 12.98 6.19" stroke="#000000" stroke-width="1" fill="none"></path></g></g><mask></mask><g stroke-linecap="round"><g transform="translate(57.12189036391055 42.49705627721323) rotate(0 5.130951044425956 -0.9054619490161713)"><path d="M-0.5 -0.32 C1.2 -0.51, 9.02 -1.3, 10.74 -1.52 M0.25 0.7 C1.87 0.39, 8.78 -1.79, 10.56 -2.34" stroke="#000000" stroke-width="1" fill="none"></path></g></g><mask></mask><g stroke-linecap="round"><g transform="translate(56.493646383179566 52.04607240648784) rotate(0 6.247687448212673 2.988024431753729)"><path d="M0.48 0.29 C2.57 1.37, 10 5.12, 12.05 6.15 M0.06 -0.04 C2.36 0.9, 10.96 4.32, 13.05 5.28" stroke="#000000" stroke-width="1" fill="none"></path></g></g><mask></mask><g stroke-linecap="round"><g transform="translate(58.015497129779305 52.0355543398864) rotate(0 5.130951044425956 -0.9054619490161713)"><path d="M-0.45 0.18 C1.24 -0.09, 8.81 -1.04, 10.57 -1.3 M0.33 -0.21 C1.92 -0.64, 8.73 -1.66, 10.29 -2" stroke="#000000" stroke-width="1" fill="none"></path></g></g><mask></mask><g stroke-linecap="round"><g transform="translate(55.39863645714058 62.66316483357241) rotate(0 6.247687448212673 2.988024431753729)"><path d="M0.31 0.52 C2.44 1.56, 10.37 5.56, 12.35 6.42 M-0.2 0.31 C1.88 1.18, 9.59 4.71, 11.84 5.68" stroke="#000000" stroke-width="1" fill="none"></path></g></g><mask></mask><g stroke-linecap="round"><g transform="translate(56.92048720374032 62.652646766969156) rotate(0 5.130951044425956 -0.9054619490161713)"><path d="M-0.15 0.44 C1.46 0, 8.13 -1.68, 9.94 -2.11 M0.78 0.19 C2.54 0.05, 9.37 -1.25, 11.01 -1.57" stroke="#000000" stroke-width="1" fill="none"></path></g></g><mask></mask><g stroke-linecap="round"><g transform="translate(57.2761986049677 31.35320407997915) rotate(0 -0.45273097450808564 19.769252553523074)"><path d="M-0.32 -0.3 C-0.37 6.16, -0.3 32.67, -0.44 39.22 M0.51 0.73 C0.44 7.22, -0.27 33.32, -0.63 39.75" stroke="#000000" stroke-width="1" fill="none"></path></g></g><mask></mask><g stroke-linecap="round"><g transform="translate(106.17995612139521 87.49272297335938) rotate(0 -27.3313127880283 9.198037957509769)"><path d="M1.01 -0.7 C-8.08 2.29, -45.92 14, -55.24 17.24 M0.09 1.55 C-8.54 4.69, -43.52 15.66, -52.84 18.18" stroke="#000000" stroke-width="1" fill="none"></path></g></g><mask></mask><g stroke-linecap="round"><g transform="translate(108.15045015287569 34.45691178924881) rotate(0 -27.3313127880283 9.198037957509769)"><path d="M-0.58 -1.15 C-9.9 2.1, -46.01 15.57, -54.9 18.78" stroke="#000000" stroke-width="1.5" fill="none" stroke-dasharray="1.5 7"></path></g></g><mask></mask><g stroke-linecap="round"><g transform="translate(67.36273192584349 14.845117437279441) rotate(0 -27.3313127880283 9.198037957509769)"><path d="M-0.24 0.38 C-9.13 3.6, -44.87 15.07, -53.93 18.11 M-1.83 -0.46 C-10.76 3.03, -45.58 16.07, -54.5 19.5" stroke="#000000" stroke-width="1" fill="none"></path></g></g><mask></mask><g stroke-linecap="round"><g transform="translate(14.19957654629934 32.304495228302585) rotate(0 -0.5256021690004218 25.754506281026806)"><path d="M0.73 -0.28 C0.6 8.28, -0.51 43.2, -0.99 51.78 M-0.35 -1.48 C-0.6 6.68, -1.99 40.83, -1.9 49.81" stroke="#000000" stroke-width="1" fill="none"></path></g></g><mask></mask><g stroke-linecap="round"><g transform="translate(54.94287276262412 55.757475435030756) rotate(0 -0.5256021690004218 25.754506281026806)"><path d="M0.06 0.27 C-0.41 8.86, -1.99 42.79, -2.13 51.22" stroke="#000000" stroke-width="1.5" fill="none" stroke-dasharray="1.5 7"></path></g></g><mask></mask><g stroke-linecap="round"><g transform="translate(12.097167870296744 83.28790562135418) rotate(0 19.972882422020803 11.563247718012008)"><path d="M-1.08 -0.29 C5.62 3.41, 33.57 18.51, 40.23 22.46 M0.56 -1.48 C7.11 2.33, 32.66 19.25, 39.43 23.64" stroke="#000000" stroke-width="1" fill="none"></path></g></g><mask></mask><g stroke-linecap="round"><g transform="translate(14.887374188504964 30.926731297832703) rotate(0 19.972882422020803 11.563247718012008)"><path d="M0.28 -0.67 C6.94 3.28, 32.41 19.28, 38.85 23.41" stroke="#000000" stroke-width="1.5" fill="none" stroke-dasharray="1.5 7"></path></g></g><mask></mask><g stroke-linecap="round"><g transform="translate(66.37100792156389 16.137855339987254) rotate(0 20.498484591021224 9.986441211010515)"><path d="M-1.09 0.29 C5.52 3.89, 33.08 17.6, 39.96 20.98 M0.53 -0.61 C7.49 2.74, 35.11 16.19, 42.13 19.38" stroke="#000000" stroke-width="1" fill="none"></path></g></g><mask></mask><g stroke-linecap="round"><g transform="translate(65.21330372765397 15.840716242896633) rotate(0 -0.2628010845003246 6.307226028006426)"><path d="M-0.47 0.46 C-0.54 2.59, -0.96 10.78, -0.9 12.89 M0.28 0.22 C0.43 2.17, 0.24 10.05, 0.15 12.06" stroke="#000000" stroke-width="1" fill="none"></path></g></g><mask></mask><g stroke-linecap="round"><g transform="translate(109.00211915821956 38.456824968651745) rotate(0 -0.5256021690004218 25.754506281026806)"><path d="M-0.81 0.59 C-0.66 9.18, -0.18 43.89, -0.17 52.55 M0.97 -0.14 C1.12 8.66, -0.26 42.49, -0.65 50.98" stroke="#000000" stroke-width="1" fill="none"></path></g></g><mask></mask><g stroke-linecap="round"><g transform="translate(55.86224255421803 69.88605588590144) rotate(0 -20.831162196519244 6.7878697606583955)"><path d="M0.51 0.22 C-6.42 2.55, -34.68 11.51, -41.76 13.69 M0.1 -0.14 C-6.89 2.04, -35.14 10.47, -42.24 12.79" stroke="#000000" stroke-width="1" fill="none"></path></g></g><mask></mask></svg>