<svg version="1.1" xmlns="http://www.w3.org/2000/svg" viewBox="0 0 121.03628645753543 121.03628645753543" width="121.03628645753543" height="121.03628645753543">
  <!-- svg-source:excalidraw -->
  
  <defs>
    <style class="style-fonts">
      @font-face {
        font-family: "Virgil";
        src: url("https://excalidraw.com/Virgil.woff2");
      }
      @font-face {
        font-family: "Cascadia";
        src: url("https://excalidraw.com/Cascadia.woff2");
      }
      @font-face {
        font-family: "Assistant";
        src: url("https://excalidraw.com/Assistant-Regular.woff2");
      }
    </style>
    
  </defs>
  <g stroke-linecap="round" transform="translate(10 10) rotate(0 50.51814322876771 50.51814322876771)"><path d="M0 0 C40.2 0, 80.4 0, 101.04 0 M0 0 C31.75 0, 63.5 0, 101.04 0 M101.04 0 C101.04 32.84, 101.04 65.68, 101.04 101.04 M101.04 0 C101.04 37.27, 101.04 74.54, 101.04 101.04 M101.04 101.04 C78.12 101.04, 55.2 101.04, 0 101.04 M101.04 101.04 C67.02 101.04, 33 101.04, 0 101.04 M0 101.04 C0 60.77, 0 20.51, 0 0 M0 101.04 C0 66.55, 0 32.06, 0 0" stroke="transparent" stroke-width="1" fill="none"></path></g><g stroke-linecap="round" transform="translate(19.45294841521718 12.951500451687025) rotate(0 29.308504582256546 26.7599389664083)"><path d="M31.87 0.72 C37.92 0.42, 45.82 2.58, 50.19 6.48 C54.56 10.39, 57.67 18.32, 58.09 24.16 C58.52 30.01, 56.07 36.76, 52.75 41.55 C49.43 46.34, 44 51.22, 38.18 52.91 C32.36 54.61, 23.58 54.07, 17.83 51.73 C12.08 49.39, 6.4 43.96, 3.68 38.89 C0.96 33.81, 0.06 26.95, 1.53 21.27 C3 15.59, 6.57 8.34, 12.5 4.8 C18.43 1.26, 32.38 0.43, 37.12 0.02 C41.86 -0.39, 41.25 1.66, 40.93 2.33 M34.54 0.64 C40.6 1.02, 48.05 4.78, 52.29 8.94 C56.53 13.11, 59.76 19.94, 59.98 25.66 C60.19 31.37, 57.65 38.85, 53.59 43.24 C49.53 47.64, 41.82 50.99, 35.64 52.02 C29.46 53.04, 21.95 51.91, 16.49 49.41 C11.03 46.9, 5.24 42, 2.89 37.01 C0.53 32.02, 0.23 25.23, 2.34 19.46 C4.46 13.69, 10.44 5.65, 15.58 2.4 C20.71 -0.86, 30.1 0.3, 33.15 -0.07 C36.2 -0.43, 33.76 -0.38, 33.87 0.2" stroke="#000000" stroke-width="1" fill="none"></path></g><g stroke-linecap="round"><g transform="translate(60.41364488550971 65.70682908243907) rotate(22.57861255859006 20.65216964566821 16.477794930054188)"><path d="M0.16 0.17 C6.33 3.09, 29.99 12.61, 38.08 17.38 C46.17 22.16, 49.15 26.28, 48.69 28.8 C48.22 31.32, 44.44 35.82, 35.28 32.53 C26.12 29.23, 0.71 12.63, -6.29 9.04 M-1.21 -0.79 C4.81 1.8, 29.49 11.02, 37.74 15.62 C46 20.22, 48.81 23.85, 48.34 26.81 C47.86 29.78, 44.23 36.39, 34.9 33.4 C25.58 30.41, -0.88 12.71, -7.6 8.88" stroke="#000000" stroke-width="1" fill="none"></path></g></g><mask></mask><g stroke-linecap="round" transform="translate(26.57923929579738 21.326634737491986) rotate(0 22.190097172473088 18.455130321660818)"><path d="M25.65 0.38 C30.03 0.83, 35.42 3.37, 38.61 6.39 C41.79 9.41, 44.6 14.49, 44.75 18.5 C44.9 22.5, 42.55 27.38, 39.52 30.43 C36.5 33.48, 31.25 36.01, 26.6 36.77 C21.95 37.53, 15.78 36.99, 11.62 34.99 C7.46 32.99, 3.3 28.61, 1.65 24.77 C0 20.93, 0.16 15.68, 1.72 11.95 C3.28 8.22, 6.77 4.23, 11.02 2.39 C15.28 0.54, 24.26 1.04, 27.24 0.86 C30.23 0.68, 28.98 1.02, 28.95 1.3 M24.04 -0.27 C28.62 -0.32, 34.65 2.14, 38.07 4.8 C41.49 7.47, 44 11.83, 44.56 15.71 C45.13 19.6, 44.04 24.67, 41.47 28.12 C38.9 31.57, 33.73 35.08, 29.13 36.42 C24.53 37.75, 18.23 37.85, 13.89 36.13 C9.56 34.41, 5.39 29.77, 3.12 26.1 C0.84 22.43, -0.74 17.89, 0.22 14.1 C1.19 10.31, 5.01 5.7, 8.9 3.38 C12.8 1.07, 21.09 0.79, 23.59 0.23 C26.09 -0.33, 23.88 -0.3, 23.91 0.04" stroke="#000000" stroke-width="1" fill="none"></path></g><g stroke-linecap="round"><g transform="translate(37.12502805103213 38.46354146474914) rotate(0 13.401939876444203 -3.2955589860107466)"><path d="M0.36 0.31 C2.16 -0.87, 6.89 -6.44, 11.32 -6.79 C15.75 -7.14, 24.37 -2.79, 26.94 -1.81 M-0.12 -0.01 C1.8 -1.14, 7.81 -5.95, 12.27 -6.19 C16.74 -6.43, 24.24 -2.18, 26.66 -1.46" stroke="#000000" stroke-width="1" fill="none"></path></g></g><mask></mask><g stroke-linecap="round"><g transform="translate(37.73211002512653 47.82628395197207) rotate(176.96961764207137 13.401939876444203 -3.2955589860107466)"><path d="M-0.55 -0.2 C1.39 -1.43, 7.46 -6.96, 12 -7.08 C16.55 -7.2, 24.22 -1.91, 26.73 -0.91 M0.18 -0.77 C2.02 -1.98, 7.28 -6.46, 11.64 -6.63 C16 -6.79, 23.74 -2.79, 26.35 -1.77" stroke="#000000" stroke-width="1" fill="none"></path></g></g><mask></mask><g stroke-linecap="round" transform="translate(49.42844826547298 37.145317870343206) rotate(0 2.6364471888086882 2.8561511212092228)"><path d="M2.28 0.12 C2.79 0.07, 3.46 0.08, 3.99 0.45 C4.53 0.82, 5.29 1.73, 5.49 2.33 C5.69 2.94, 5.47 3.55, 5.18 4.08 C4.88 4.61, 4.21 5.25, 3.72 5.52 C3.22 5.78, 2.75 5.81, 2.2 5.67 C1.66 5.53, 0.79 5.21, 0.44 4.67 C0.09 4.12, 0.02 3.09, 0.1 2.41 C0.19 1.73, 0.57 0.96, 0.95 0.59 C1.32 0.22, 2.05 0.24, 2.35 0.2 C2.66 0.15, 2.79 0.27, 2.8 0.3 M2.62 0.28 C3.26 0.41, 4.28 0.59, 4.8 1.01 C5.32 1.44, 5.74 2.21, 5.73 2.84 C5.72 3.48, 5.17 4.36, 4.75 4.82 C4.33 5.28, 3.7 5.54, 3.21 5.62 C2.72 5.69, 2.32 5.49, 1.81 5.25 C1.31 5.01, 0.5 4.62, 0.18 4.16 C-0.15 3.69, -0.28 3.07, -0.13 2.46 C0.03 1.85, 0.57 0.95, 1.09 0.48 C1.62 0.01, 2.63 -0.3, 3.02 -0.38 C3.42 -0.45, 3.41 -0.13, 3.44 0.05" stroke="none" stroke-width="0" fill="#000"></path><path d="M2.71 0.17 C3.24 0.11, 4.06 0.34, 4.52 0.75 C4.97 1.15, 5.35 2.05, 5.45 2.61 C5.54 3.17, 5.36 3.67, 5.1 4.12 C4.84 4.56, 4.43 5.05, 3.89 5.27 C3.35 5.5, 2.47 5.56, 1.87 5.44 C1.26 5.32, 0.57 5.06, 0.29 4.57 C0 4.07, 0.01 3.09, 0.13 2.47 C0.26 1.85, 0.6 1.24, 1.02 0.86 C1.44 0.48, 2.42 0.28, 2.68 0.2 C2.94 0.11, 2.63 0.29, 2.59 0.36 M2.99 -0.26 C3.54 -0.23, 4.15 0.31, 4.56 0.81 C4.98 1.31, 5.32 2.23, 5.47 2.72 C5.61 3.2, 5.78 3.27, 5.43 3.71 C5.09 4.16, 3.99 5.1, 3.39 5.37 C2.8 5.65, 2.34 5.5, 1.86 5.36 C1.39 5.21, 0.79 5.03, 0.55 4.51 C0.31 3.99, 0.3 2.81, 0.41 2.22 C0.52 1.64, 0.8 1.31, 1.22 0.99 C1.64 0.67, 2.8 0.54, 2.95 0.32 C3.1 0.09, 2.2 -0.36, 2.14 -0.38" stroke="#000000" stroke-width="1" fill="none"></path></g></svg>