<svg version="1.1" xmlns="http://www.w3.org/2000/svg" viewBox="0 0 121.03628645753543 121.03628645753543" width="121.03628645753543" height="121.03628645753543">
  <!-- svg-source:excalidraw -->
  
  <defs>
    <style class="style-fonts">
      @font-face {
        font-family: "Virgil";
        src: url("https://excalidraw.com/Virgil.woff2");
      }
      @font-face {
        font-family: "Cascadia";
        src: url("https://excalidraw.com/Cascadia.woff2");
      }
      @font-face {
        font-family: "Assistant";
        src: url("https://excalidraw.com/Assistant-Regular.woff2");
      }
    </style>
    
  </defs>
  <g stroke-linecap="round" transform="translate(10 10) rotate(0 50.51814322876771 50.51814322876771)"><path d="M0 0 C35.14 0, 70.27 0, 101.04 0 M0 0 C23.46 0, 46.91 0, 101.04 0 M101.04 0 C101.04 21.17, 101.04 42.33, 101.04 101.04 M101.04 0 C101.04 24.09, 101.04 48.17, 101.04 101.04 M101.04 101.04 C71.25 101.04, 41.47 101.04, 0 101.04 M101.04 101.04 C80.03 101.04, 59.02 101.04, 0 101.04 M0 101.04 C0 65.97, 0 30.91, 0 0 M0 101.04 C0 71.1, 0 41.16, 0 0" stroke="transparent" stroke-width="1" fill="none"></path></g><g stroke-linecap="round"><g transform="translate(52.83280291004394 34.785368860488234) rotate(0 7.154905113176028 25.54029420146344)" fill-rule="evenodd"><path d="M-0.01 3.12 C0.89 -0.06, -0.92 -12.7, 1.68 -16.2 C4.28 -19.71, 13.66 -21.01, 15.59 -17.92 C17.51 -14.82, 11.61 -2.24, 13.21 2.38 C14.82 7, 21.39 11.33, 25.21 9.79 C29.03 8.26, 32.67 -7.11, 36.12 -6.83 C39.57 -6.55, 45.13 6.92, 45.92 11.48 C46.71 16.04, 42.41 18.01, 40.84 20.52 C39.28 23.03, 35.3 24.04, 36.51 26.52 C37.72 29.01, 46.98 30.87, 48.1 35.41 C49.23 39.95, 47.8 52.07, 43.26 53.75 C38.72 55.44, 25.64 46.49, 20.85 45.51 C16.07 44.53, 14.24 43.93, 14.55 47.86 C14.86 51.79, 25.42 65.76, 22.71 69.11 C20.01 72.45, 2.86 70.84, -1.71 67.93 C-6.27 65.02, -3.34 54.66, -4.68 51.64 C-6.03 48.62, -7.72 48.77, -9.8 49.79 C-11.87 50.81, -13.71 58.23, -17.13 57.77 C-20.55 57.31, -30.18 50.69, -30.31 47.03 C-30.43 43.38, -20.7 39.64, -17.89 35.84 C-15.09 32.04, -10.84 28.41, -13.49 24.22 C-16.14 20.02, -32.23 16.35, -33.78 10.68 C-35.34 5.01, -26.94 -8.65, -22.82 -9.82 C-18.7 -10.99, -13.16 2.07, -9.08 3.66 C-5 5.25, 0.37 0.75, 1.65 -0.29" stroke="none" stroke-width="0" fill="#000" fill-rule="evenodd"></path><path d="M-2.33 -1.05 C-3.12 -4.8, -6.58 -17.38, -3.23 -20.56 C0.13 -23.73, 14.81 -23.63, 17.78 -20.1 C20.75 -16.57, 13.39 -3.36, 14.61 0.61 C15.83 4.58, 21.47 4.88, 25.1 3.74 C28.74 2.61, 32.51 -7.45, 36.41 -6.2 C40.31 -4.95, 48.42 6.94, 48.51 11.24 C48.6 15.54, 39.44 16.68, 36.96 19.59 C34.47 22.5, 31.14 25.88, 33.62 28.71 C36.1 31.53, 50.64 32.33, 51.83 36.55 C53.02 40.77, 45.51 52.12, 40.78 54.02 C36.06 55.93, 27.46 48.17, 23.48 47.97 C19.49 47.78, 17.59 49.42, 16.88 52.86 C16.17 56.3, 22.03 65.65, 19.2 68.62 C16.38 71.59, 3.32 73.65, -0.06 70.69 C-3.44 67.73, 0.22 54.36, -1.1 50.86 C-2.41 47.36, -5.22 48.03, -7.95 49.7 C-10.69 51.36, -13.1 61.6, -17.5 60.84 C-21.9 60.09, -34.47 50.18, -34.35 45.19 C-34.23 40.19, -19.98 33.96, -16.8 30.86 C-13.62 27.77, -11.82 29.08, -15.27 26.61 C-18.72 24.13, -35.97 21.38, -37.51 15.99 C-39.04 10.61, -29.08 -4.16, -24.47 -5.72 C-19.87 -7.28, -13.57 5.67, -9.88 6.65 C-6.19 7.62, -3.67 1.53, -2.33 0.14 M1.6 -4.09 C1.59 -7.7, -0.04 -15.66, 2.31 -17.96 C4.66 -20.26, 13.58 -21.29, 15.69 -17.87 C17.8 -14.45, 13.78 -1.01, 14.96 2.56 C16.14 6.13, 18.87 5.24, 22.77 3.55 C26.67 1.86, 33.96 -8.5, 38.37 -7.6 C42.78 -6.69, 49.83 3.36, 49.23 8.96 C48.62 14.55, 36.64 21.93, 34.73 25.97 C32.83 30, 35.93 30.37, 37.79 33.14 C39.65 35.92, 45.24 38.95, 45.9 42.62 C46.56 46.3, 46.1 54.44, 41.75 55.19 C37.4 55.95, 23.88 47.79, 19.81 47.15 C15.74 46.52, 17.8 47.91, 17.34 51.39 C16.88 54.87, 20.01 64.96, 17.05 68.05 C14.09 71.13, 2.24 72.49, -0.4 69.89 C-3.03 67.28, 2.88 55.58, 1.24 52.41 C-0.39 49.25, -6.81 49.28, -10.22 50.91 C-13.63 52.54, -15.85 63.02, -19.22 62.19 C-22.59 61.36, -31.14 50.56, -30.42 45.93 C-29.71 41.31, -17.23 38.09, -14.93 34.45 C-12.64 30.81, -12.88 27.61, -16.68 24.09 C-20.48 20.57, -36.53 18.64, -37.72 13.32 C-38.92 8, -29.14 -6.35, -23.84 -7.82 C-18.55 -9.29, -10 3.07, -5.97 4.52 C-1.95 5.98, -0.67 2.15, 0.3 0.9" stroke="#000000" stroke-width="2" fill="none"></path></g></g><mask></mask><g stroke-linecap="round" transform="translate(50.47802401203717 48.370631733609116) rotate(0 11.411620813419859 11.411620813420086)"><path d="M9.97 -0.4 C12.24 -1.26, 15.01 -1.01, 17.08 0.41 C19.16 1.83, 21.63 5.63, 22.43 8.12 C23.22 10.62, 22.84 13.3, 21.86 15.39 C20.88 17.47, 18.71 19.29, 16.55 20.62 C14.4 21.95, 11.28 23.75, 8.92 23.37 C6.56 22.98, 3.94 20.32, 2.37 18.3 C0.81 16.27, -0.33 13.45, -0.48 11.23 C-0.63 9.01, -0.34 6.98, 1.48 4.97 C3.3 2.97, 8.8 0.14, 10.43 -0.8 C12.06 -1.73, 11.33 -0.94, 11.27 -0.63 M10.68 0.79 C12.83 0.72, 15.68 1.98, 17.85 3.12 C20.03 4.25, 22.93 5.71, 23.72 7.61 C24.5 9.51, 23.61 12.44, 22.56 14.54 C21.51 16.64, 19.69 19.07, 17.43 20.22 C15.16 21.37, 11.41 21.81, 8.97 21.44 C6.52 21.08, 4.33 19.98, 2.76 18.03 C1.18 16.08, -0.39 12.32, -0.45 9.74 C-0.52 7.17, 0.45 4.05, 2.36 2.59 C4.27 1.13, 9.45 1.45, 11.01 0.98 C12.56 0.51, 11.64 -0.48, 11.67 -0.25" stroke="none" stroke-width="0" fill="#ffffff"></path><path d="M9.93 0.8 C12.21 0.31, 14.98 -0.05, 17.18 1.13 C19.38 2.31, 22.25 5.35, 23.12 7.88 C23.98 10.41, 23.66 14.07, 22.36 16.32 C21.06 18.57, 17.73 20.26, 15.32 21.38 C12.91 22.5, 10.26 23.58, 7.89 23.04 C5.52 22.5, 2.55 20.27, 1.11 18.14 C-0.33 16.01, -1.11 12.72, -0.72 10.25 C-0.34 7.78, 1.41 5.09, 3.42 3.33 C5.44 1.57, 9.98 0.32, 11.35 -0.32 C12.72 -0.95, 11.62 -0.73, 11.63 -0.5 M7.64 1.66 C9.3 0.62, 10.4 0.1, 12.68 0.46 C14.96 0.82, 19.43 1.82, 21.3 3.81 C23.18 5.8, 24.36 9.75, 23.94 12.41 C23.52 15.08, 20.56 18.08, 18.79 19.8 C17.03 21.51, 15.62 22.52, 13.35 22.7 C11.07 22.88, 7.49 22.22, 5.14 20.88 C2.78 19.55, 0.08 17.2, -0.79 14.71 C-1.65 12.21, -1.02 8.02, -0.05 5.94 C0.93 3.85, 3.97 2.75, 5.05 2.17 C6.13 1.59, 5.95 2.32, 6.44 2.46" stroke="#000000" stroke-width="2" fill="none"></path></g></svg>