<svg version="1.1" xmlns="http://www.w3.org/2000/svg" viewBox="0 0 121.03628645753543 121.03628645753543" width="121.03628645753543" height="121.03628645753543">
  <!-- svg-source:excalidraw -->
  
  <defs>
    <style class="style-fonts">
      @font-face {
        font-family: "Virgil";
        src: url("https://excalidraw.com/Virgil.woff2");
      }
      @font-face {
        font-family: "Cascadia";
        src: url("https://excalidraw.com/Cascadia.woff2");
      }
      @font-face {
        font-family: "Assistant";
        src: url("https://excalidraw.com/Assistant-Regular.woff2");
      }
    </style>
    
  </defs>
  <g stroke-linecap="round" transform="translate(10 10) rotate(0 50.51814322876771 50.51814322876771)"><path d="M0 0 C28.13 0, 56.26 0, 101.04 0 M0 0 C26.68 0, 53.36 0, 101.04 0 M101.04 0 C101.04 21.8, 101.04 43.61, 101.04 101.04 M101.04 0 C101.04 31.39, 101.04 62.78, 101.04 101.04 M101.04 101.04 C76.12 101.04, 51.21 101.04, 0 101.04 M101.04 101.04 C72.85 101.04, 44.66 101.04, 0 101.04 M0 101.04 C0 72.63, 0 44.23, 0 0 M0 101.04 C0 67.12, 0 33.2, 0 0" stroke="transparent" stroke-width="1" fill="none"></path></g><g stroke-linecap="round"><g transform="translate(40.319682192840446 19.134533908094454) rotate(0 11.994716834039991 5.736603703236597)"><path d="M-0.35 0.02 C3.66 1.96, 19.43 9.31, 23.53 11.28 M0.48 -0.44 C4.69 1.6, 20.6 9.98, 24.53 11.87" stroke="#000000" stroke-width="1" fill="none"></path></g></g><mask></mask><g stroke-linecap="round"><g transform="translate(39.84453906162889 17.964044873460807) rotate(0 9.850733631820276 -1.7383647585565996)"><path d="M-0.46 -0.2 C2.93 -0.72, 16.58 -2.63, 19.97 -3.13 M0.31 -0.77 C3.67 -1.46, 16.46 -3.36, 19.68 -3.92" stroke="#000000" stroke-width="1" fill="none"></path></g></g><mask></mask><g stroke-linecap="round"><g transform="translate(62.03839496447472 31.018245066026793) rotate(0 9.850733631820276 -1.7383647585565996)"><path d="M0.27 0.34 C3.66 -0.16, 16.71 -2.54, 19.88 -3.21 M-0.25 0.04 C3.12 -0.6, 16.1 -3.5, 19.54 -4.04" stroke="#000000" stroke-width="1" fill="none"></path></g></g><mask></mask><g stroke-linecap="round"><g transform="translate(59.752408419779385 11.747193269202398) rotate(0 11.994716834039991 5.736603703236597)"><path d="M0.18 0.27 C4.06 2.09, 19.68 9.38, 23.58 11.27 M-0.4 -0.07 C3.64 1.8, 20.43 9.81, 24.6 11.86" stroke="#000000" stroke-width="1" fill="none"></path></g></g><mask></mask><g stroke-linecap="round"><g transform="translate(39.44206911864785 93.93234457396466) rotate(0 11.994716834039991 5.736603703236597)"><path d="M-0.41 -0.21 C3.48 1.68, 19.47 9.64, 23.53 11.58 M0.37 -0.79 C4.42 0.9, 20.66 8.54, 24.52 10.67" stroke="#000000" stroke-width="1" fill="none"></path></g></g><mask></mask><g stroke-linecap="round"><g transform="translate(38.96692598743539 92.76185553933101) rotate(0 9.850733631820276 -1.7383647585565996)"><path d="M-0.46 0.11 C2.88 -0.44, 16.2 -2.82, 19.64 -3.5 M0.3 -0.31 C3.6 -0.75, 15.88 -2.26, 19.18 -2.81" stroke="#000000" stroke-width="1" fill="none"></path></g></g><mask></mask><g stroke-linecap="round"><g transform="translate(61.160781890281214 105.81605573189881) rotate(0 9.850733631820276 -1.7383647585565996)"><path d="M-0.06 -0.02 C3.39 -0.7, 16.91 -3.41, 20.2 -3.97 M-0.75 -0.51 C2.7 -1.15, 16.69 -3.15, 20.02 -3.53" stroke="#000000" stroke-width="1" fill="none"></path></g></g><mask></mask><g stroke-linecap="round"><g transform="translate(62.42786184626493 32.054040667950176) rotate(0 -0.8691823792782998 37.95429722848394)"><path d="M1.08 -1.08 C0.79 11.6, -1.5 63.09, -1.88 76.04 M0.19 0.97 C-0.26 13.87, -2.6 65.36, -2.91 77.64" stroke="#000000" stroke-width="1" fill="none"></path></g></g><mask></mask><g stroke-linecap="round"><g transform="translate(37.73312147806428 40.719939245143905) rotate(0 11.994716834039991 5.736603703236597)"><path d="M-0.07 0.06 C3.89 2.11, 20.15 9.97, 24.24 11.8 M-0.76 -0.39 C3.1 1.55, 19.75 9.04, 23.93 11" stroke="#000000" stroke-width="1" fill="none"></path></g></g><mask></mask><g stroke-linecap="round"><g transform="translate(40.65486955212327 40.69974597658074) rotate(0 9.850733631820276 -1.7383647585565996)"><path d="M0.25 0.33 C3.62 -0.34, 16.96 -3.33, 20.15 -3.95 M-0.29 0.02 C3.05 -0.6, 16.48 -3.03, 19.94 -3.49" stroke="#000000" stroke-width="1" fill="none"></path></g></g><mask></mask><g stroke-linecap="round"><g transform="translate(39.4487258847239 59.03256839507594) rotate(0 11.994716834039991 5.736603703236597)"><path d="M0.44 -0.47 C4.34 1.4, 19.77 9.59, 23.65 11.56 M0.01 0.47 C4.06 2.42, 20.84 10.41, 24.7 12.3" stroke="#000000" stroke-width="1" fill="none"></path></g></g><mask></mask><g stroke-linecap="round"><g transform="translate(42.370473958781076 59.01237512650914) rotate(0 9.850733631820276 -1.7383647585565996)"><path d="M-0.34 0.08 C2.82 -0.44, 15.98 -3.08, 19.41 -3.64 M0.48 -0.35 C3.79 -0.76, 17.22 -2.38, 20.49 -3.03" stroke="#000000" stroke-width="1" fill="none"></path></g></g><mask></mask><g stroke-linecap="round"><g transform="translate(37.34645458799605 79.41595317852989) rotate(0 11.994716834039991 5.736603703236597)"><path d="M-0.29 -0.17 C3.85 1.76, 20.38 9.81, 24.5 11.66 M0.56 -0.73 C4.7 1.03, 20.37 8.8, 24.33 10.79" stroke="#000000" stroke-width="1" fill="none"></path></g></g><mask></mask><g stroke-linecap="round"><g transform="translate(40.26820266205323 79.39575990996491) rotate(0 9.850733631820276 -1.7383647585565996)"><path d="M0.51 0.19 C3.92 -0.46, 17.04 -3.4, 20.14 -4.03 M0.11 -0.19 C3.5 -0.78, 16.59 -3.13, 19.94 -3.61" stroke="#000000" stroke-width="1" fill="none"></path></g></g><mask></mask><g stroke-linecap="round"><g transform="translate(84.24631106658217 26.486538124576327) rotate(0 -0.8691823792782998 37.95429722848394)"><path d="M0.97 -1.2 C0.29 11.34, -2.67 62.83, -2.93 75.66 M0.02 0.79 C-0.41 13.47, -0.71 64.37, -0.84 77.06" stroke="#000000" stroke-width="1" fill="none"></path></g></g><mask></mask><g stroke-linecap="round"><g transform="translate(40.951120552510474 19.30505351569991) rotate(0 -0.8691823792782998 37.95429722848394)"><path d="M-1.19 -0.25 C-1.45 12.57, -0.34 63, -0.59 75.73 M0.39 -1.43 C-0.01 11.69, -0.83 64, -0.94 77.18" stroke="#000000" stroke-width="1" fill="none"></path></g></g><mask></mask></svg>