<svg version="1.1" xmlns="http://www.w3.org/2000/svg" viewBox="0 0 121.03628645753543 124.96499805758594" width="121.03628645753543" height="124.96499805758594">
  <!-- svg-source:excalidraw -->
  
  <defs>
    <style class="style-fonts">
      @font-face {
        font-family: "Virgil";
        src: url("https://excalidraw.com/Virgil.woff2");
      }
      @font-face {
        font-family: "Cascadia";
        src: url("https://excalidraw.com/Cascadia.woff2");
      }
      @font-face {
        font-family: "Assistant";
        src: url("https://excalidraw.com/Assistant-Regular.woff2");
      }
    </style>
    
  </defs>
  <g stroke-linecap="round" transform="translate(10 11.902857636758199) rotate(0 50.51814322876771 50.51814322876771)"><path d="M0 0 C39.34 0, 78.68 0, 101.04 0 M0 0 C29.81 0, 59.63 0, 101.04 0 M101.04 0 C101.04 29.8, 101.04 59.6, 101.04 101.04 M101.04 0 C101.04 22.55, 101.04 45.1, 101.04 101.04 M101.04 101.04 C68.21 101.04, 35.39 101.04, 0 101.04 M101.04 101.04 C79.33 101.04, 57.61 101.04, 0 101.04 M0 101.04 C0 76.02, 0 51.01, 0 0 M0 101.04 C0 60.76, 0 20.48, 0 0" stroke="transparent" stroke-width="1" fill="none"></path></g><g stroke-linecap="round"><g transform="translate(22.784824423136342 14.45245864543358) rotate(0 24.60895601321249 0)"><path d="M1.97 1.06 C11.99 0.74, 24.98 0.67, 47.5 -1.88 M0.97 -0.18 C14.77 0.24, 31.01 -0.89, 49.32 -0.76" stroke="#000000" stroke-width="2" fill="none"></path></g></g><mask></mask><g stroke-linecap="round"><g transform="translate(22.101242311658098 14.794249701173612) rotate(0 0 41.86940432803476)"><path d="M-0.2 0.61 C3.28 18.21, -1.79 31.7, 0.56 83.54 M-1.36 0.73 C1.81 25.66, 1.83 52.89, 1.46 82.45" stroke="#000000" stroke-width="2" fill="none"></path></g></g><mask></mask><g stroke-linecap="round"><g transform="translate(63.45796005608372 99.21664046872138) rotate(0 4.1014926688687865 0)"><path d="M0.22 0.07 C2.42 -0.52, 5.87 -0.04, 8.34 0.53 M0.03 -0.21 C2.34 -0.23, 4.82 -0.2, 8.14 0.09" stroke="#000000" stroke-width="2" fill="none"></path></g></g><mask></mask><g stroke-linecap="round"><g transform="translate(71.31915433808172 13.768876533955336) rotate(0 0 42.72388196738257)"><path d="M-3.44 -3.77 C1.25 26.74, 1.69 57.75, -0.73 82.72 M0.21 -1.51 C1.62 27.45, -0.31 58.12, 0.5 84.12" stroke="#000000" stroke-width="2" fill="none"></path></g></g><mask></mask><g stroke-linecap="round"><g transform="translate(22.101242311658098 15.136040756913644) rotate(0 20.16216438779429 5.402435665373105)"><path d="M0.28 -0.1 C12.98 5.68, 24.69 5.76, 41.05 10.99 M0.73 -0.64 C8.78 3.04, 18.26 4.46, 40.65 10.5" stroke="#000000" stroke-width="2" fill="none"></path></g></g><mask></mask><g stroke-linecap="round"><g transform="translate(21.845284744350465 100.47034030222312) rotate(0 20.16216438779429 5.402435665373105)"><path d="M0.5 1.93 C7.95 0.88, 17.34 4.66, 38.79 11.02 M-0.24 0.32 C9.38 2.02, 18.51 4.81, 40.42 10.28" stroke="#000000" stroke-width="2" fill="none"></path></g></g><mask></mask><g stroke-linecap="round"><g transform="translate(63.492355183091604 26.591141241111472) rotate(0 0 42.72388196738257)"><path d="M-0.73 -2.72 C1.88 25.58, -2.65 50.83, -3.02 88.37 M0.5 -1.33 C0.26 19.54, -0.22 39.24, -1.17 83.75" stroke="#000000" stroke-width="2" fill="none"></path></g></g><mask></mask><g stroke-linecap="round" transform="translate(53.54601943965008 68.79723650794404) rotate(0 1.7089552786953845 2.2216418623038408)"><path d="M1.26 0.49 C1.62 0.44, 2.03 0.14, 2.42 0.41 C2.81 0.67, 3.57 1.54, 3.61 2.07 C3.66 2.6, 2.98 3.22, 2.72 3.61 C2.46 4, 2.37 4.35, 2.04 4.39 C1.71 4.44, 1.13 3.99, 0.73 3.89 C0.32 3.79, -0.28 4.24, -0.36 3.8 C-0.45 3.36, 0.14 1.69, 0.22 1.24 C0.29 0.79, -0.14 1.37, 0.07 1.11 C0.27 0.85, 1.16 -0.19, 1.44 -0.34 C1.73 -0.49, 1.65 0.08, 1.78 0.23 M1.99 -0.29 C2.32 -0.57, 2.94 -0.35, 3.09 0.09 C3.23 0.53, 2.68 1.97, 2.87 2.33 C3.06 2.68, 4.31 1.98, 4.23 2.2 C4.14 2.43, 2.8 3.41, 2.34 3.69 C1.88 3.97, 1.76 4.02, 1.47 3.9 C1.19 3.79, 0.85 3.18, 0.64 3.02 C0.43 2.86, 0.06 3.31, 0.2 2.93 C0.34 2.55, 1.26 1.38, 1.5 0.73 C1.73 0.08, 1.49 -1, 1.62 -0.96 C1.74 -0.92, 2.09 0.64, 2.25 0.98" stroke="#000000" stroke-width="2" fill="none"></path></g><g stroke-linecap="round"><g transform="translate(101.05497618738082 60.252460114468704) rotate(0 -10.082836144302291 -0.1708955278695612)"><path d="M-1.54 0.21 C-6.19 1.4, -10.64 -0.61, -19.52 0.16 M0.09 -0.52 C-5.29 -0.99, -8.62 0.05, -20.96 -1.22" stroke="#000000" stroke-width="4" fill="none"></path></g><g transform="translate(101.05497618738082 60.252460114468704) rotate(0 -10.082836144302291 -0.1708955278695612)"><path d="M-12.04 -3.9 C-14.27 -2.61, -16.4 -2.94, -20.64 -0.97 M-11.22 -4.27 C-13.82 -3.81, -15.38 -2.6, -21.36 -1.67" stroke="#000000" stroke-width="4" fill="none"></path></g><g transform="translate(101.05497618738082 60.252460114468704) rotate(0 -10.082836144302291 -0.1708955278695612)"><path d="M-12.52 2.98 C-14.66 2.67, -16.68 0.75, -20.64 -0.97 M-11.7 2.61 C-14.21 1.46, -15.66 1.07, -21.36 -1.67" stroke="#000000" stroke-width="4" fill="none"></path></g></g><mask></mask></svg>