<svg version="1.1" xmlns="http://www.w3.org/2000/svg" viewBox="0 0 121.03628645753543 121.03628645753543" width="121.03628645753543" height="121.03628645753543">
  <!-- svg-source:excalidraw -->
  
  <defs>
    <style class="style-fonts">
      @font-face {
        font-family: "Virgil";
        src: url("https://excalidraw.com/Virgil.woff2");
      }
      @font-face {
        font-family: "Cascadia";
        src: url("https://excalidraw.com/Cascadia.woff2");
      }
      @font-face {
        font-family: "Assistant";
        src: url("https://excalidraw.com/Assistant-Regular.woff2");
      }
    </style>
    
  </defs>
  <g stroke-linecap="round" transform="translate(10 10) rotate(0 50.51814322876771 50.51814322876771)"><path d="M0 0 C30.67 0, 61.33 0, 101.04 0 M0 0 C27.14 0, 54.28 0, 101.04 0 M101.04 0 C101.04 30.67, 101.04 61.34, 101.04 101.04 M101.04 0 C101.04 32.15, 101.04 64.3, 101.04 101.04 M101.04 101.04 C60.78 101.04, 20.52 101.04, 0 101.04 M101.04 101.04 C61.88 101.04, 22.73 101.04, 0 101.04 M0 101.04 C0 67.45, 0 33.87, 0 0 M0 101.04 C0 78.93, 0 56.82, 0 0" stroke="transparent" stroke-width="1" fill="none"></path></g><g stroke-linecap="round"><g transform="translate(28.417078834861968 14.233227061407888) rotate(0 23.11563301214437 0)"><path d="M-0.03 -1.47 C17.31 -0.87, 37.31 1.14, 45.32 1.59 M0.85 -0.46 C14.53 1.19, 28.96 0.5, 46.59 0.21" stroke="#000000" stroke-width="2" fill="none"></path></g></g><mask></mask><g stroke-linecap="round"><g transform="translate(27.77497791785754 14.554277519908283) rotate(0 0 39.328681166495244)"><path d="M-1.25 -1.05 C2.85 32.37, -1.84 62, 0.95 78.8 M-0.89 1.73 C-0.62 18.49, 2.06 36.67, -0.84 77.28" stroke="#000000" stroke-width="2" fill="none"></path></g></g><mask></mask><g stroke-linecap="round"><g transform="translate(66.62208339659992 93.85374076990593) rotate(0 3.852605502024062 0)"><path d="M0.37 0.38 C1.51 0.42, 3.61 0.03, 7.35 0.44 M-0.25 0.05 C2.05 0.01, 3.8 -0.22, 7.5 0.1" stroke="#000000" stroke-width="2" fill="none"></path></g></g><mask></mask><g stroke-linecap="round"><g transform="translate(74.00624394214537 13.59112614440346) rotate(0 0 40.13130731275032)"><path d="M-1.82 3.18 C2.11 22.11, -1.63 47.34, -1.85 78.47 M0.72 0.41 C-2.42 29.65, -3.16 62.81, 1.97 81.57" stroke="#000000" stroke-width="2" fill="none"></path></g></g><mask></mask><g stroke-linecap="round"><g transform="translate(27.77497791785754 14.875327978412315) rotate(0 18.93868201757732 5.07460455231967)"><path d="M0.48 0.07 C12.73 5.2, 27.35 6.39, 39.61 8.19 M-0.42 -0.69 C11.3 3.54, 25.13 7.03, 37.38 10.69" stroke="#000000" stroke-width="2" fill="none"></path></g></g><mask></mask><g stroke-linecap="round"><g transform="translate(27.53455239190771 95.03136347129475) rotate(0 18.93868201757732 5.07460455231967)"><path d="M-1.39 1.7 C13.48 2.94, 30.5 5.73, 38.24 10.87 M-0.79 0.38 C13.08 4.17, 23.75 7.3, 38.74 9.65" stroke="#000000" stroke-width="2" fill="none"></path></g></g><mask></mask><g stroke-linecap="round"><g transform="translate(66.65439135524957 25.63530896939119) rotate(0 0 40.13130731275032)"><path d="M-1.85 -1.79 C2.34 20.44, -0.39 50.18, 0.82 78.58 M1.97 1.3 C-2.27 19.63, 0.45 36.12, 0.67 82.01" stroke="#000000" stroke-width="2" fill="none"></path></g></g><mask></mask><g stroke-linecap="round" transform="translate(57.31162010004118 65.28024996322529) rotate(0 1.605252292509931 2.086827980263024)"><path d="M1.23 -0.17 C1.43 -0.46, 1.39 -0.71, 1.73 -0.39 C2.07 -0.07, 2.96 1.31, 3.27 1.74 C3.58 2.16, 3.66 1.74, 3.61 2.16 C3.56 2.59, 3.36 3.92, 2.97 4.29 C2.57 4.66, 1.54 4.61, 1.24 4.4 C0.93 4.18, 1.36 3.39, 1.13 3 C0.9 2.61, 0.02 2.34, -0.16 2.05 C-0.35 1.76, -0.29 1.57, 0.03 1.27 C0.35 0.98, 1.49 0.46, 1.75 0.28 C2.01 0.1, 1.59 0.3, 1.59 0.19 M1.08 0.12 C1.35 0.32, 2.76 0.58, 3.06 0.94 C3.36 1.3, 2.75 1.89, 2.86 2.26 C2.96 2.64, 3.81 2.76, 3.69 3.18 C3.57 3.59, 2.63 4.59, 2.16 4.75 C1.68 4.92, 1.24 4.34, 0.85 4.17 C0.45 4.01, -0.22 4.33, -0.22 3.76 C-0.22 3.2, 0.6 1.4, 0.84 0.79 C1.09 0.17, 1.02 0.29, 1.25 0.08 C1.49 -0.12, 2.14 -0.46, 2.23 -0.42 C2.32 -0.38, 1.97 0.34, 1.77 0.31" stroke="#000000" stroke-width="2" fill="none"></path></g><g stroke-linecap="round"><g transform="translate(78.17989990267142 55.96978666666837) rotate(0 9.631513755060041 0.48157568775286563)"><path d="M0.35 0.7 C5.32 -0.38, 8.52 -0.85, 20 2.86 M0.83 -0.48 C7.35 1.09, 13.11 0.34, 18.75 0.67" stroke="#000000" stroke-width="4" fill="none"></path></g><g transform="translate(78.17989990267142 55.96978666666837) rotate(0 9.631513755060041 0.48157568775286563)"><path d="M9.8 4.15 C12.13 2.68, 13.59 1.52, 19.12 1.62 M10.04 3.55 C13.13 3.03, 15.83 1.33, 18.49 0.52" stroke="#000000" stroke-width="4" fill="none"></path></g><g transform="translate(78.17989990267142 55.96978666666837) rotate(0 9.631513755060041 0.48157568775286563)"><path d="M9.92 -2.45 C12.27 -2.23, 13.71 -1.71, 19.12 1.62 M10.16 -3.04 C13.18 -1.16, 15.83 -0.45, 18.49 0.52" stroke="#000000" stroke-width="4" fill="none"></path></g></g><mask></mask></svg>