<svg version="1.1" xmlns="http://www.w3.org/2000/svg" viewBox="0 0 121.03628645753543 121.03628645753543" width="121.03628645753543" height="121.03628645753543">
  <!-- svg-source:excalidraw -->
  
  <defs>
    <style class="style-fonts">
      @font-face {
        font-family: "Virgil";
        src: url("https://excalidraw.com/Virgil.woff2");
      }
      @font-face {
        font-family: "Cascadia";
        src: url("https://excalidraw.com/Cascadia.woff2");
      }
      @font-face {
        font-family: "Assistant";
        src: url("https://excalidraw.com/Assistant-Regular.woff2");
      }
    </style>
    
  </defs>
  <g stroke-linecap="round" transform="translate(10 10) rotate(0 50.51814322876771 50.51814322876771)"><path d="M0 0 C27.35 0, 54.7 0, 101.04 0 M0 0 C36.46 0, 72.92 0, 101.04 0 M101.04 0 C101.04 33.31, 101.04 66.63, 101.04 101.04 M101.04 0 C101.04 35.09, 101.04 70.19, 101.04 101.04 M101.04 101.04 C71.27 101.04, 41.51 101.04, 0 101.04 M101.04 101.04 C62.15 101.04, 23.26 101.04, 0 101.04 M0 101.04 C0 74.76, 0 48.49, 0 0 M0 101.04 C0 77.54, 0 54.05, 0 0" stroke="transparent" stroke-width="1" fill="none"></path></g><g stroke-linecap="round"><g transform="translate(62.27517826705753 20.538628919523035) rotate(0 11.842024840026397 5.663577097403959)"><path d="M0 -0.24 C3.99 1.67, 20.11 9.79, 23.98 11.66 M-0.66 0.82 C3.28 2.56, 19.54 9.1, 23.7 10.87" stroke="#000000" stroke-width="1" fill="none"></path></g></g><mask></mask><g stroke-linecap="round"><g transform="translate(61.806083678146024 19.383040136985073) rotate(0 9.725334409683455 -1.716235484061599)"><path d="M0.3 0.33 C3.47 -0.25, 15.75 -3.15, 19.02 -3.76 M-0.21 0.03 C3.12 -0.47, 16.7 -2.78, 20.03 -3.23" stroke="#000000" stroke-width="1" fill="none"></path></g></g><mask></mask><g stroke-linecap="round"><g transform="translate(83.71741318544991 32.27106117874246) rotate(0 9.725334409683455 -1.716235484061599)"><path d="M-0.44 -0.33 C2.83 -0.94, 16.48 -2.85, 19.86 -3.33 M0.34 0.69 C3.54 -0.12, 16.41 -3.43, 19.64 -4.25" stroke="#000000" stroke-width="1" fill="none"></path></g></g><mask></mask><g stroke-linecap="round"><g transform="translate(81.46052710628828 13.24532866426307) rotate(0 11.842024840026397 5.663577097403959)"><path d="M0.41 0.1 C4.5 2.07, 20.18 9.61, 24.09 11.52 M-0.04 -0.33 C4.04 1.51, 19.93 8.84, 23.87 10.65" stroke="#000000" stroke-width="1" fill="none"></path></g></g><mask></mask><g stroke-linecap="round"><g transform="translate(61.408737152331014 94.38426814054583) rotate(0 11.842024840026397 5.663577097403959)"><path d="M0.41 0.19 C4.31 2.1, 20 9.63, 23.85 11.54 M-0.05 -0.18 C3.77 1.55, 19.65 8.86, 23.5 10.68" stroke="#000000" stroke-width="1" fill="none"></path></g></g><mask></mask><g stroke-linecap="round"><g transform="translate(60.93964256342042 93.22867935800605) rotate(0 9.725334409683455 -1.716235484061599)"><path d="M0.16 0.21 C3.31 -0.34, 15.97 -2.41, 19.28 -3.1 M-0.42 -0.16 C2.61 -0.88, 15.37 -3.32, 18.76 -3.89" stroke="#000000" stroke-width="1" fill="none"></path></g></g><mask></mask><g stroke-linecap="round"><g transform="translate(82.8509720707234 106.11670039976525) rotate(0 9.725334409683455 -1.716235484061599)"><path d="M-0.17 0.34 C3.13 -0.35, 16.75 -3.34, 20 -3.93 M0.74 0.03 C4.01 -0.62, 16.82 -2.79, 19.85 -3.48" stroke="#000000" stroke-width="1" fill="none"></path></g></g><mask></mask><g stroke-linecap="round"><g transform="translate(84.10192217822987 33.29367116753201) rotate(0 -0.8581177420307995 37.471141402015746)"><path d="M1.19 -1.08 C0.93 11.38, -1.43 62.88, -1.95 75.51 M0.36 0.96 C-0.05 13.01, -2.5 61.2, -3.03 73.69" stroke="#000000" stroke-width="1" fill="none"></path></g></g><mask></mask><g stroke-linecap="round"><g transform="translate(59.72154430817136 41.84925339862457) rotate(0 11.842024840026397 5.663577097403959)"><path d="M-0.11 0.26 C3.73 2.21, 19.57 9.42, 23.58 11.21 M-0.83 -0.08 C2.88 1.99, 18.99 9.94, 23.09 11.84" stroke="#000000" stroke-width="1" fill="none"></path></g></g><mask></mask><g stroke-linecap="round"><g transform="translate(62.60609871225097 41.829317189105495) rotate(0 9.725334409683455 -1.716235484061599)"><path d="M-0.1 -0.12 C3.2 -0.8, 16.49 -3.3, 19.74 -3.81 M-0.82 -0.66 C2.45 -1.3, 16.15 -2.73, 19.45 -3.31" stroke="#000000" stroke-width="1" fill="none"></path></g></g><mask></mask><g stroke-linecap="round"><g transform="translate(61.41530917819182 59.928763926480315) rotate(0 11.842024840026397 5.663577097403959)"><path d="M0.29 -0.38 C4.24 1.57, 19.72 9.58, 23.62 11.58 M-0.23 0.61 C3.66 2.41, 19.23 9.06, 23.15 10.74" stroke="#000000" stroke-width="1" fill="none"></path></g></g><mask></mask><g stroke-linecap="round"><g transform="translate(64.29986358226961 59.90882771695942) rotate(0 9.725334409683455 -1.716235484061599)"><path d="M-0.06 0.25 C3.12 -0.2, 16.21 -2.58, 19.42 -3.12 M-0.76 -0.09 C2.33 -0.68, 15.73 -3.3, 18.97 -3.93" stroke="#000000" stroke-width="1" fill="none"></path></g></g><mask></mask><g stroke-linecap="round"><g transform="translate(59.33979966339484 80.0526694983455) rotate(0 11.842024840026397 5.663577097403959)"><path d="M-0.03 0.31 C3.88 2.23, 19.48 9.83, 23.42 11.74 M-0.71 0 C3.12 1.74, 18.87 9.17, 22.86 10.99" stroke="#000000" stroke-width="1" fill="none"></path></g></g><mask></mask><g stroke-linecap="round"><g transform="translate(62.22435406747354 80.03273328882278) rotate(0 9.725334409683455 -1.716235484061599)"><path d="M-0.26 0.41 C2.97 -0.14, 16.15 -2.44, 19.37 -3.01 M0.61 0.15 C3.76 -0.58, 15.64 -3.1, 18.9 -3.76" stroke="#000000" stroke-width="1" fill="none"></path></g></g><mask></mask><g stroke-linecap="round"><g transform="translate(105.64262390656222 27.797042582817085) rotate(0 -0.8581177420307995 37.471141402015746)"><path d="M-0.18 0.93 C-0.52 13.44, -2.53 63.52, -2.64 75.96 M-1.73 0.37 C-1.66 12.48, -0.5 62.17, -0.42 74.37" stroke="#000000" stroke-width="1" fill="none"></path></g></g><mask></mask><g stroke-linecap="round"><g transform="translate(62.89857845595907 20.706977823203488) rotate(0 -0.8581177420307995 37.471141402015746)"><path d="M-0.93 1.02 C-1.05 13.46, -0.89 63.15, -0.9 75.58 M0.78 0.51 C0.59 12.52, -1.06 61.61, -1.41 73.79" stroke="#000000" stroke-width="1" fill="none"></path></g></g><mask></mask><g stroke-linecap="round"><g transform="translate(14.890950130069541 57.80721112616811) rotate(0 16.16680995765273 0.8642666251280389)"><path d="M0.38 0.29 C5.89 0.55, 27.31 1.82, 32.69 2.01 M-0.09 -0.04 C5.42 0.3, 27.01 0.87, 32.44 1.19" stroke="#000000" stroke-width="1" fill="none"></path></g><g transform="translate(14.890950130069541 57.80721112616811) rotate(0 16.16680995765273 0.8642666251280389)"><path d="M17.01 6.1 C20.85 5.47, 24.27 4.31, 32.44 1.19 M17.01 6.1 C21.02 4.65, 24.43 3.43, 32.44 1.19" stroke="#000000" stroke-width="1" fill="none"></path></g><g transform="translate(14.890950130069541 57.80721112616811) rotate(0 16.16680995765273 0.8642666251280389)"><path d="M17.46 -4.97 C21.25 -3.13, 24.57 -1.82, 32.44 1.19 M17.46 -4.97 C21.34 -3.62, 24.64 -2.06, 32.44 1.19" stroke="#000000" stroke-width="1" fill="none"></path></g></g><mask></mask></svg>