<svg version="1.1" xmlns="http://www.w3.org/2000/svg" viewBox="0 0 120.25891857525448 118.33086244880724" width="120.25891857525448" height="118.33086244880724">
  <!-- svg-source:excalidraw -->
  
  <defs>
    <style class="style-fonts">
      @font-face {
        font-family: "Virgil";
        src: url("https://excalidraw.com/Virgil.woff2");
      }
      @font-face {
        font-family: "Cascadia";
        src: url("https://excalidraw.com/Cascadia.woff2");
      }
      @font-face {
        font-family: "Assistant";
        src: url("https://excalidraw.com/Assistant-Regular.woff2");
      }
    </style>
    
  </defs>
  <g stroke-linecap="round" transform="translate(10 10) rotate(0 50.12945928762724 49.16543122440362)"><path d="M0 0 C33.32 -1.14, 66.35 2.13, 100.26 0 M0 0 C36.86 0.83, 71.81 1.23, 100.26 0 M100.26 0 C102.03 33.46, 99.96 65.02, 100.26 98.33 M100.26 0 C101.66 38.02, 100.57 74.6, 100.26 98.33 M100.26 98.33 C61.77 99.54, 20.12 99.85, 0 98.33 M100.26 98.33 C69.3 98.76, 36.07 96.96, 0 98.33 M0 98.33 C-1.11 72.94, -1.91 45.41, 0 0 M0 98.33 C0.44 79.14, -0.71 58.51, 0 0" stroke="transparent" stroke-width="1" fill="none"></path></g><g stroke-linecap="round"><g transform="translate(63.985571540521505 78.44599248887607) rotate(0 -4.820140316117886 -20.244589327695394)"><path d="M0 0 C3.55 -1.08, 11.61 -3.7, 21.21 -11.57 M0 0 C4.27 -2.08, 8.96 -4.45, 21.21 -11.57 M21.21 -11.57 C16.99 -18.48, 15.83 -25.41, 9.64 -38.56 M21.21 -11.57 C17.16 -19.4, 15.45 -26.1, 9.64 -38.56 M9.64 -38.56 C-7.34 -38.66, -21.72 -39.07, -30.85 -40.49 M9.64 -38.56 C-0.87 -39.47, -10.64 -38.94, -30.85 -40.49" stroke="#000" stroke-width="2" fill="none"></path></g><g transform="translate(63.985571540521505 78.44599248887607) rotate(0 -4.820140316117886 -20.244589327695394)"><path d="M-11.43 -46.28 C-17.91 -43.45, -19.81 -41.81, -30.85 -40.49 M-11.43 -46.28 C-15.42 -44.8, -19.18 -43.56, -30.85 -40.49" stroke="#000" stroke-width="2" fill="none"></path></g><g transform="translate(63.985571540521505 78.44599248887607) rotate(0 -4.820140316117886 -20.244589327695394)"><path d="M-12.25 -32.45 C-18.48 -33, -20.18 -34.75, -30.85 -40.49 M-12.25 -32.45 C-16.2 -33.83, -19.79 -35.47, -30.85 -40.49" stroke="#000" stroke-width="2" fill="none"></path></g></g><mask></mask></svg>