<svg version="1.1" xmlns="http://www.w3.org/2000/svg" viewBox="0 0 121.03628645753543 121.03628645753543" width="121.03628645753543" height="121.03628645753543">
  <!-- svg-source:excalidraw -->
  
  <defs>
    <style class="style-fonts">
      @font-face {
        font-family: "Virgil";
        src: url("https://excalidraw.com/Virgil.woff2");
      }
      @font-face {
        font-family: "Cascadia";
        src: url("https://excalidraw.com/Cascadia.woff2");
      }
      @font-face {
        font-family: "Assistant";
        src: url("https://excalidraw.com/Assistant-Regular.woff2");
      }
    </style>
    
  </defs>
  <g stroke-linecap="round" transform="translate(10 10) rotate(0 50.51814322876771 50.51814322876771)"><path d="M0 0 C31.16 0, 62.33 0, 101.04 0 M0 0 C36.04 0, 72.08 0, 101.04 0 M101.04 0 C101.04 36.19, 101.04 72.37, 101.04 101.04 M101.04 0 C101.04 34.09, 101.04 68.18, 101.04 101.04 M101.04 101.04 C67.79 101.04, 34.54 101.04, 0 101.04 M101.04 101.04 C75.57 101.04, 50.1 101.04, 0 101.04 M0 101.04 C0 71.71, 0 42.38, 0 0 M0 101.04 C0 71.13, 0 41.22, 0 0" stroke="transparent" stroke-width="1" fill="none"></path></g><g stroke-linecap="round" transform="translate(21.77952792796168 53.82673125723886) rotate(0 39.289456791932935 26.788265994499852)"><path d="M0 0 C30.01 -1.22, 63.13 0.66, 78.58 0 M0 0 C28.3 -0.88, 58.33 0.5, 78.58 0 M78.58 0 C76.7 21.48, 79.02 41.59, 78.58 53.58 M78.58 0 C79.88 13.38, 79.37 27.63, 78.58 53.58 M78.58 53.58 C52.84 54.28, 26.42 54.9, 0 53.58 M78.58 53.58 C48.83 55.09, 18.43 53.25, 0 53.58 M0 53.58 C0.25 44.07, -0.05 30.44, 0 0 M0 53.58 C0.33 36.76, 0.21 20.13, 0 0" stroke="#000000" stroke-width="1" fill="none"></path></g><g stroke-linecap="round" transform="translate(40.8289615240501 81.21029205161722) rotate(0 7.143537598533385 13.09648559731113)"><path d="M0 0 C3.4 0.05, 6.47 0.57, 14.29 0 M0 0 C4.32 0.22, 8.49 -0.14, 14.29 0 M14.29 0 C14.56 7, 13.72 13.29, 14.29 26.19 M14.29 0 C14.54 5.68, 14.52 11.19, 14.29 26.19 M14.29 26.19 C9.06 26.56, 5.1 26.69, 0 26.19 M14.29 26.19 C8.98 25.95, 3.41 26.24, 0 26.19 M0 26.19 C-0.05 20.29, 0.05 14.19, 0 0 M0 26.19 C-0.14 15.62, 0.11 5.89, 0 0" stroke="#000000" stroke-width="1" fill="none"></path></g><g stroke-linecap="round" transform="translate(69.40311191818364 68.11380645430654) rotate(0 7.7388323984109775 8.334127198289025)"><path d="M0 0 C3.67 0.55, 6.2 -0.44, 15.48 0 M0 0 C3.42 -0.26, 6.03 -0.33, 15.48 0 M15.48 0 C15.12 7.03, 14.75 13.18, 15.48 16.67 M15.48 0 C15.61 4.85, 15.68 9.24, 15.48 16.67 M15.48 16.67 C11.18 17.23, 6.15 16.92, 0 16.67 M15.48 16.67 C8.98 16.58, 2.84 16.64, 0 16.67 M0 16.67 C0.06 9.45, 0.77 3.72, 0 0 M0 16.67 C0.1 12.54, 0.23 7.84, 0 0" stroke="#000000" stroke-width="1" fill="none"></path></g><g stroke-linecap="round"><g transform="translate(20.588938328206495 50.85025725785272) rotate(0 24.407086794988572 -17.858843996333235)"><path d="M0.85 -0.14 C8.87 -6.43, 40.01 -31.04, 48.12 -36.88 M-0.17 -1.26 C8.25 -7.51, 42.26 -29.95, 50.47 -35.96" stroke="#000000" stroke-width="1" fill="none"></path></g></g><mask></mask><g stroke-linecap="round"><g transform="translate(100.35844151182937 53.23143645736127) rotate(0 -17.263549196455415 -19.34708099602767)"><path d="M-0.69 -1.17 C-6.47 -7.51, -28.34 -31.83, -33.83 -38.2 M1.15 0.84 C-4.8 -5.86, -28.56 -33.52, -34.41 -40.07" stroke="#000000" stroke-width="1" fill="none"></path></g></g><mask></mask></svg>