<svg version="1.1" xmlns="http://www.w3.org/2000/svg" viewBox="0 0 413.1492529628317 422.1252633044496" width="413.1492529628317" height="422.1252633044496">
  <!-- svg-source:excalidraw -->
  
  <defs>
    <style class="style-fonts">
      @font-face {
        font-family: "Virgil";
        src: url("https://excalidraw.com/Virgil.woff2");
      }
      @font-face {
        font-family: "Cascadia";
        src: url("https://excalidraw.com/Cascadia.woff2");
      }
    </style>
  </defs>
  <g stroke-linecap="round" transform="translate(10 10) rotate(0 196.57462648141586 201.0626316522248)"><path d="M-0.13 -0.14 C112.91 0.75, 223.19 1.29, 392.56 -0.74 M392.31 -0.06 C392.31 148.03, 391.19 293.86, 392.45 402.43 M392.9 401.41 C245.18 405.15, 98.89 404.48, -0.13 402.35 M-0.68 401.03 C0.03 299.61, 1.35 196.85, -0.59 0.07" stroke="transparent" stroke-width="1.5" fill="none" stroke-dasharray="1.5 7"></path></g><g stroke-linecap="round"><g transform="translate(257.0680739714146 78.52177559019856) rotate(0 39.2072533930791 18.431431997013988)"><path d="M1.1 0.08 C13.98 6.39, 65.3 31.42, 78.19 37.79 M0.22 -0.93 C12.9 5.03, 64.5 29.73, 77.47 35.98" stroke="#000000" stroke-width="1" fill="none"></path></g></g><g stroke-linecap="round"><g transform="translate(255.52789788609812 74.72763630700956) rotate(0 31.560613525788085 -5.953479304182565)"><path d="M0.08 0.43 C10.83 -1.52, 53.64 -8.52, 64.46 -10.58 M-1.34 -0.39 C9.31 -2.17, 52.8 -10.58, 63.83 -12.34" stroke="#000000" stroke-width="1" fill="none"></path></g></g><g stroke-linecap="round"><g transform="translate(327.46926430211784 117.04281594197255) rotate(0 31.87494745908191 -5.529026573467036)"><path d="M0.43 0.6 C11 -1.1, 54.09 -7.99, 64.56 -10.13 M-0.81 -0.13 C9.58 -2.14, 53.48 -9.77, 63.97 -11.66" stroke="#000000" stroke-width="1" fill="none"></path></g></g><g stroke-linecap="round"><g transform="translate(320.0592407192944 54.57571673189614) rotate(0 39.17796134516129 18.887929486484154)"><path d="M0.6 0.69 C13.74 6.71, 66.2 30.41, 78.9 36.56 M-0.54 0.01 C12.53 6.14, 65.26 31.85, 78.55 37.76" stroke="#000000" stroke-width="1" fill="none"></path></g></g><g stroke-linecap="round"><g transform="translate(254.22329188314984 320.9788199084842) rotate(0 39.554095517955716 18.95764191374292)"><path d="M0.69 1.14 C13.48 7.07, 64.22 30.18, 77.13 36.21 M-0.4 0.69 C12.74 6.69, 66.51 30.9, 79.51 37.23" stroke="#000000" stroke-width="1" fill="none"></path></g></g><g stroke-linecap="round"><g transform="translate(252.68311579783312 317.1846806252861) rotate(0 32.67408808509231 -5.553886268794486)"><path d="M1.14 -0.63 C11.52 -2.56, 52.41 -9.26, 62.88 -10.85 M0.27 1.65 C10.97 -0.7, 54.58 -10.49, 65.07 -12.76" stroke="#000000" stroke-width="1" fill="none"></path></g></g><g stroke-linecap="round"><g transform="translate(324.62448221385284 359.4998602602491) rotate(0 31.823021416676966 -5.034044270235427)"><path d="M-0.63 -0.98 C9.97 -3.04, 53.35 -9.59, 64.28 -11.18 M1.24 1.11 C11.65 -0.22, 52.96 -7.32, 63.55 -9.6" stroke="#000000" stroke-width="1" fill="none"></path></g></g><g stroke-linecap="round"><g transform="translate(328.7317208924667 120.40034656919761) rotate(0 -2.87444336158876 123.36288862358015)"><path d="M-0.98 0.42 C-2.1 41.71, -4.89 206.15, -5.55 247.14 M0.7 -0.41 C-0.66 40.63, -5.45 204.21, -6.45 245.58" stroke="#000000" stroke-width="1" fill="none"></path></g></g><g stroke-linecap="round"><g transform="translate(248.68373945317467 148.49084997677164) rotate(0 39.00816184415942 18.4932740952504)"><path d="M0.42 0.09 C13.66 6.57, 65.9 31.56, 78.84 37.9 M-0.83 -0.91 C12.41 5.31, 65.42 29.95, 78.46 36.15" stroke="#000000" stroke-width="1" fill="none"></path></g></g><g stroke-linecap="round"><g transform="translate(258.15458353233566 148.42539351265168) rotate(0 31.622455624024155 -5.928065237867486)"><path d="M0.09 1.08 C11.01 -0.82, 53.78 -8.89, 64.57 -10.97 M-1.33 0.6 C9.59 -1.71, 53.02 -11.15, 63.99 -12.94" stroke="#000000" stroke-width="1" fill="none"></path></g></g><g stroke-linecap="round"><g transform="translate(254.24486978513846 207.85122293238055) rotate(0 39.124591273213696 19.08824397344688)"><path d="M1.08 0.71 C14.02 7.05, 65.3 31.89, 78.06 38.14 M0.19 0.03 C12.96 6.05, 64.5 30.46, 77.27 36.52" stroke="#000000" stroke-width="1" fill="none"></path></g></g><g stroke-linecap="round"><g transform="translate(263.7157138642947 207.7857664682515) rotate(0 32.21742550222086 -5.539078710502054)"><path d="M0.71 0.3 C11.5 -1.78, 54.12 -9.61, 64.81 -11.38 M-0.38 -0.59 C10.33 -1.96, 53.53 -7.97, 64.36 -9.9" stroke="#000000" stroke-width="1" fill="none"></path></g></g><g stroke-linecap="round"><g transform="translate(247.43035903378586 273.9239486418983) rotate(0 38.32558170690663 19.297468764973473)"><path d="M0.3 0.95 C13.06 7.2, 64.58 32.16, 77.65 38.19 M-1 0.41 C11.5 6.27, 63.4 30.25, 76.65 36.59" stroke="#000000" stroke-width="1" fill="none"></path></g></g><g stroke-linecap="round"><g transform="translate(256.90120311294663 273.8584921777683) rotate(0 32.426650293747684 -6.008724598753361)"><path d="M0.95 -0.11 C11.64 -1.87, 54.38 -8.49, 64.86 -10.3 M-0.01 -1.21 C10.55 -3.32, 53.93 -10.54, 64.44 -11.91" stroke="#000000" stroke-width="1" fill="none"></path></g></g><g stroke-linecap="round"><g transform="translate(399.4562068429716 102.3532914631287) rotate(0 -2.604005958831067 123.99866562611169)"><path d="M-0.11 1 C-0.93 41.84, -3.8 205.26, -4.66 246.01 M-1.62 0.48 C-2.55 41.44, -4.39 206.52, -5.1 247.52" stroke="#000000" stroke-width="1" fill="none"></path></g></g><g stroke-linecap="round"><g transform="translate(259.11488091659044 79.07451476384722) rotate(0 -2.8299221665618006 123.41388252387924)"><path d="M1 0.97 C-0.11 42.05, -4.48 205.73, -5.69 246.39 M0.07 0.44 C-1.29 41.15, -5.43 203.58, -6.66 244.44" stroke="#000000" stroke-width="1" fill="none"></path></g></g><g stroke-linecap="round"><g transform="translate(210.31386543828899 198.47269023416902) rotate(0 -97.77084190256176 2.5186542019632725)"><path d="M0.97 -0.05 C-31.63 0.61, -162.71 4.02, -195.74 4.93 M0.02 -1.12 C-32.7 0.21, -164.02 4.86, -196.51 6.16" stroke="#000000" stroke-width="1" fill="none"></path></g><g transform="translate(210.31386543828899 198.47269023416902) rotate(0 -97.77084190256176 2.5186542019632725)"><path d="M-168.81 -4.59 C-177.7 -3.53, -184.97 2.21, -197.07 7.16 M-169.55 -6 C-177.71 -0.48, -188.68 3.47, -196.23 5.25" stroke="#000000" stroke-width="1" fill="none"></path></g><g transform="translate(210.31386543828899 198.47269023416902) rotate(0 -97.77084190256176 2.5186542019632725)"><path d="M-168.04 15.91 C-177.33 11.02, -184.82 10.79, -197.07 7.16 M-168.78 14.5 C-177.35 12.79, -188.6 9.49, -196.23 5.25" stroke="#000000" stroke-width="1" fill="none"></path></g></g></svg>