<svg version="1.1" xmlns="http://www.w3.org/2000/svg" viewBox="0 0 413.1492529628317 422.1252633044496" width="413.1492529628317" height="422.1252633044496">
  <!-- svg-source:excalidraw -->
  
  <defs>
    <style class="style-fonts">
      @font-face {
        font-family: "Virgil";
        src: url("https://excalidraw.com/Virgil.woff2");
      }
      @font-face {
        font-family: "Cascadia";
        src: url("https://excalidraw.com/Cascadia.woff2");
      }
    </style>
  </defs>
  <g stroke-linecap="round" transform="translate(10 10) rotate(0 196.57462648141586 201.0626316522248)"><path d="M-0.13 -0.14 C112.91 0.75, 223.19 1.29, 392.56 -0.74 M392.31 -0.06 C392.31 148.03, 391.19 293.86, 392.45 402.43 M392.9 401.41 C245.18 405.15, 98.89 404.48, -0.13 402.35 M-0.68 401.03 C0.03 299.61, 1.35 196.85, -0.59 0.07" stroke="transparent" stroke-width="1.5" fill="none" stroke-dasharray="1.5 7"></path></g><g stroke-linecap="round"><g transform="translate(17.866520943814066 211.0521227054478) rotate(0 106.95241209043797 3.2704929205751796)"><path d="M0.6 1 C36.15 1.66, 178.83 4.4, 214.45 5.14 M-0.55 0.47 C34.82 1.75, 178.22 5.1, 213.96 6.07" stroke="#000000" stroke-width="1" fill="none"></path></g><g transform="translate(17.866520943814066 211.0521227054478) rotate(0 106.95241209043797 3.2704929205751796)"><path d="M187.19 17.08 C194.75 12.91, 206.48 8.9, 214.73 4.35 M185.4 15.88 C192.32 13.26, 197.22 10.9, 213.33 5.99" stroke="#000000" stroke-width="1" fill="none"></path></g><g transform="translate(17.866520943814066 211.0521227054478) rotate(0 106.95241209043797 3.2704929205751796)"><path d="M187.7 -3.44 C195.26 0.51, 206.79 4.61, 214.73 4.35 M185.92 -4.64 C192.87 -2.68, 197.66 -0.48, 213.33 5.99" stroke="#000000" stroke-width="1" fill="none"></path></g></g><g stroke-linecap="round"><g transform="translate(258.5324990621705 84.50952187560779) rotate(0 37.73069727501968 18.313536244722854)"><path d="M1 0.88 C13.02 6.83, 61.2 30.45, 73.3 36.33 M0.06 0.29 C12.34 5.85, 62.74 28.95, 75.4 34.59" stroke="#000000" stroke-width="1" fill="none"></path></g></g><g stroke-linecap="round"><g transform="translate(257.0579113503295 80.87695595191053) rotate(0 30.87480660620588 -5.3973379783165)"><path d="M0.88 -1.15 C11.09 -3.26, 51.73 -10.12, 61.87 -11.65 M-0.12 0.85 C9.94 -0.6, 51.07 -8.35, 61.31 -10.56" stroke="#000000" stroke-width="1" fill="none"></path></g></g><g stroke-linecap="round"><g transform="translate(325.9356558508373 121.39014435225363) rotate(0 30.69550374943276 -5.645537274463095)"><path d="M-1.15 0.73 C8.73 -1.12, 49.83 -8.11, 60.28 -10.2 M0.44 0.07 C10.61 -2.21, 52.44 -10.17, 62.55 -12.02" stroke="#000000" stroke-width="1" fill="none"></path></g></g><g stroke-linecap="round"><g transform="translate(318.8411880014321 61.583205543237455) rotate(0 37.343687491218134 17.60227570025654)"><path d="M0.73 -0.86 C13.09 5.34, 62.92 30.14, 75.04 36.06 M-0.35 1.31 C11.83 7.24, 61.71 28.48, 74.4 34.18" stroke="#000000" stroke-width="1" fill="none"></path></g></g><g stroke-linecap="round"><g transform="translate(255.808861972738 316.64153691589854) rotate(0 37.0240796069628 17.711664275577277)"><path d="M-0.86 0.59 C11.82 6.23, 62.51 28.59, 74.91 34.58 M0.89 -0.15 C13.55 5.54, 61.69 29.78, 74.2 35.58" stroke="#000000" stroke-width="1" fill="none"></path></g></g><g stroke-linecap="round"><g transform="translate(254.33427426089338 313.0089709922013) rotate(0 30.860199279635935 -5.630069438160717)"><path d="M0.59 0.46 C10.48 -1.35, 49.87 -9.81, 60.11 -11.72 M-0.57 -0.35 C9.63 -1.96, 51.9 -9.09, 62.29 -10.67" stroke="#000000" stroke-width="1" fill="none"></path></g></g><g stroke-linecap="round"><g transform="translate(323.21201876140503 353.5221593925444) rotate(0 30.83920194432119 -5.249971815521803)"><path d="M0.46 -1.03 C10.64 -2.77, 50.14 -8.24, 60.22 -9.89 M-0.76 1.05 C9.86 -1.08, 52.31 -9.76, 62.44 -11.55" stroke="#000000" stroke-width="1" fill="none"></path></g></g><g stroke-linecap="round"><g transform="translate(327.1443507478748 124.60469459247815) rotate(0 -2.1720018001259405 117.93460222340491)"><path d="M-1.03 -0.93 C-1.88 38.23, -3.75 195.9, -4.5 235.37 M0.63 1.2 C-0.35 40.5, -3.81 197.43, -4.98 236.8" stroke="#000000" stroke-width="1" fill="none"></path></g></g><g stroke-linecap="round"><g transform="translate(250.50521129265576 151.49896437059124) rotate(0 36.65661668582027 18.62259790365988)"><path d="M-0.93 0.9 C11.37 6.98, 61.62 29.57, 74.24 35.46 M0.79 0.32 C12.87 6.68, 60.95 31.27, 73.18 36.92" stroke="#000000" stroke-width="1" fill="none"></path></g></g><g stroke-linecap="round"><g transform="translate(259.5727396311627 151.4362953689024) rotate(0 30.45296359244253 -6.322388707680602)"><path d="M0.9 -0.21 C11.23 -1.8, 50.85 -8.66, 61 -10.48 M-0.09 -1.37 C10.16 -3.26, 49.73 -11, 59.98 -12.43" stroke="#000000" stroke-width="1" fill="none"></path></g></g><g stroke-linecap="round"><g transform="translate(255.82952098012584 208.3314768119908) rotate(0 36.49184693942459 17.48887034067775)"><path d="M-0.21 -0.14 C12.4 5.75, 62.38 30.47, 74.76 36.24 M-1.78 -1.27 C10.79 4.2, 61.49 28.37, 73.98 34.45" stroke="#000000" stroke-width="1" fill="none"></path></g></g><g stroke-linecap="round"><g transform="translate(264.8970493186291 208.2688078103174) rotate(0 30.05014070216089 -5.404695216358959)"><path d="M-0.14 0.31 C10 -1.51, 51.75 -9.17, 61.78 -11.12 M-1.68 -0.57 C8.29 -2.19, 50.49 -8.12, 61.17 -9.76" stroke="#000000" stroke-width="1" fill="none"></path></g></g><g stroke-linecap="round"><g transform="translate(249.30520605797983 271.590496574775) rotate(0 36.56811015258222 17.70286136572622)"><path d="M0.31 0.64 C12.7 6.41, 61.86 28.82, 74.12 34.52 M-0.98 -0.08 C11.24 5.82, 60.71 29.51, 72.99 35.48" stroke="#000000" stroke-width="1" fill="none"></path></g></g><g stroke-linecap="round"><g transform="translate(258.3727343964888 271.5278275730934) rotate(0 30.85139636978488 -5.86958512419551)"><path d="M0.64 -0.33 C10.67 -2.29, 50.1 -9.65, 60.05 -11.41 M-0.49 -1.55 C9.91 -3.38, 51.63 -8.85, 62.19 -10.19" stroke="#000000" stroke-width="1" fill="none"></path></g></g><g stroke-linecap="round"><g transform="translate(394.85703561764217 107.32617303376173) rotate(0 -2.302122292852573 117.49136232934325)"><path d="M-0.33 -1.09 C-0.94 18.31, -2.46 77.67, -3.31 117.02 C-4.17 156.38, -5.04 215.43, -5.48 235.04 M1.69 0.95 C1.46 20.43, 0.41 78.97, -0.93 118.16 C-2.26 157.35, -5.44 216.54, -6.3 236.07" stroke="#000000" stroke-width="1" fill="none"></path></g></g><g stroke-linecap="round"><g transform="translate(260.49214276697194 85.03872266056987) rotate(0 -2.8111948227914354 118.18195213414174)"><path d="M-1.09 -0.62 C-2.22 38.69, -5.35 196.22, -6.16 235.49 M0.54 1.67 C-0.27 41.2, -2.6 197.93, -3.85 236.98" stroke="#000000" stroke-width="1" fill="none"></path></g></g></svg>