<svg version="1.1" xmlns="http://www.w3.org/2000/svg" viewBox="0 0 413.1492529628317 422.1252633044496" width="413.1492529628317" height="422.1252633044496">
  <!-- svg-source:excalidraw -->
  
  <defs>
    <style class="style-fonts">
      @font-face {
        font-family: "Virgil";
        src: url("https://excalidraw.com/Virgil.woff2");
      }
      @font-face {
        font-family: "Cascadia";
        src: url("https://excalidraw.com/Cascadia.woff2");
      }
    </style>
  </defs>
  <g stroke-linecap="round" transform="translate(10 10) rotate(0 196.57462648141586 201.0626316522248)"><path d="M-0.13 -0.14 C112.91 0.75, 223.19 1.29, 392.56 -0.74 M392.31 -0.06 C392.31 148.03, 391.19 293.86, 392.45 402.43 M392.9 401.41 C245.18 405.15, 98.89 404.48, -0.13 402.35 M-0.68 401.03 C0.03 299.61, 1.35 196.85, -0.59 0.07" stroke="transparent" stroke-width="1.5" fill="none" stroke-dasharray="1.5 7"></path></g><g stroke-linecap="round"><g transform="translate(23.01566084477554 153.77500525687992) rotate(0 0.3757518935008193 74.91801399447968)"><path d="M0.86 0.14 C0.98 25, 0.76 124.65, 0.59 149.5 M-0.14 -0.83 C-0.12 24.14, 0.1 125.52, -0.05 150.66" stroke="#000000" stroke-width="1" fill="none"></path></g></g><g stroke-linecap="round"><g transform="translate(169.7076765119666 219.26425065190688) rotate(0 0.18990747489965543 75.66232465186204)"><path d="M0.14 0.59 C-0.04 25.45, -0.53 124.93, -0.72 150.04 M-1.24 -0.15 C-1.06 24.82, 1.18 126.55, 1.62 151.48" stroke="#000000" stroke-width="1" fill="none"></path></g></g><g stroke-linecap="round"><g transform="translate(388.7644186990183 137.60278927061518) rotate(0 -0.34955939757526266 74.77290038970796)"><path d="M0.59 -0.72 C0.41 24.13, -0.25 124.17, -0.18 149.24 M-0.57 1.52 C-0.99 26.48, -1.45 125.39, -1.23 150.26" stroke="#000000" stroke-width="1" fill="none"></path></g></g><g stroke-linecap="round"><g transform="translate(25.293038341705596 153.42467649945866) rotate(0 70.32372804478052 35.75915896107881)"><path d="M-0.72 -0.18 C22.45 11.86, 115.77 60.85, 139.17 72.84 M1.11 -1.32 C24.63 10.35, 118.45 58.86, 141.36 71.25" stroke="#000000" stroke-width="1" fill="none"></path></g></g><g stroke-linecap="round"><g transform="translate(22.41619792297979 297.3951433639231) rotate(0 69.71257287562139 35.81250121091898)"><path d="M-0.18 -0.98 C23.25 11.03, 117.79 59.03, 141.16 71.33 M-1.74 1.12 C21.57 13.35, 117.25 60.96, 140.75 72.6" stroke="#000000" stroke-width="1" fill="none"></path></g></g><g stroke-linecap="round"><g transform="translate(253.65434830573213 60.901580472468595) rotate(0 69.33439204100307 36.882951021054396)"><path d="M-0.98 1.02 C22.42 13.01, 115.96 59.76, 139.65 71.76 M0.71 0.51 C23.96 12.71, 115.08 61.46, 138.44 73.26" stroke="#000000" stroke-width="1" fill="none"></path></g></g><g stroke-linecap="round"><g transform="translate(28.796646680836602 146.41745982118937) rotate(0 105.99719948122458 -47.85488590083105)"><path d="M1.02 -0.5 C36.37 -15.94, 176.54 -77.97, 211.9 -93.61 M0.09 -1.8 C35.29 -17.48, 175.43 -80.03, 210.92 -95.21" stroke="#000000" stroke-width="1" fill="none"></path></g></g><g stroke-linecap="round"><g transform="translate(176.01073762338729 222.05797778920896) rotate(0 106.22985186708809 -47.47960316649642)"><path d="M-0.5 -0.07 C35.16 -15.8, 177.5 -77.7, 212.96 -93.4 M1.44 -1.15 C37.11 -16.66, 177.5 -79.01, 212.53 -94.89" stroke="#000000" stroke-width="1" fill="none"></path></g></g><g stroke-linecap="round"><g transform="translate(177.27317932640153 369.9324835033058) rotate(0 105.80281470129455 -47.67673410735142)"><path d="M-0.07 0.99 C35.29 -14.65, 177.77 -78.25, 213.17 -94.35 M-1.56 0.46 C33.65 -15.52, 177.3 -80.46, 212.85 -96.34" stroke="#000000" stroke-width="1" fill="none"></path></g></g><g stroke-linecap="round"><g transform="translate(236.07616019588522 72.17123950349378) rotate(0 56.20572951405791 28.58802745980256)"><path d="M0.99 1.2 C19.8 10.61, 94.01 47.36, 112.36 56.39 M0.05 0.78 C18.77 9.82, 92.65 45.18, 111.55 54.45" stroke="#000000" stroke-width="1" fill="none"></path></g></g><g stroke-linecap="round"><g transform="translate(322.43260023334415 125.41949742152701) rotate(0 -31.920322008213816 -0.6967381340837164)"><path d="M1.2 0.25 C-7.49 -3.11, -40.17 -16.53, -52.19 -19.19 C-64.22 -21.84, -68.79 -18.44, -70.96 -15.67 C-73.13 -12.91, -74.92 -8.26, -65.22 -2.6 C-55.52 3.06, -24.97 16.02, -12.74 18.27 C-0.51 20.52, 6.08 13.83, 8.19 10.92 C10.3 8.02, 1.09 2.74, -0.09 0.85 M0.37 -0.67 C-8.44 -4, -40.89 -15.92, -52.97 -18.19 C-65.04 -20.46, -70.13 -17.04, -72.06 -14.28 C-74 -11.53, -74.75 -7.12, -64.58 -1.67 C-54.4 3.79, -23.3 16.56, -11.01 18.45 C1.27 20.35, 7.22 12.78, 9.14 9.7 C11.06 6.61, 1.91 1.73, 0.51 -0.04" stroke="#000000" stroke-width="1" fill="none"></path></g></g><g stroke-linecap="round"><g transform="translate(52.441542886492016 146.47811746587377) rotate(0 56.08529492896071 28.040170230647163)"><path d="M0.25 0.34 C18.6 9.37, 92.41 46, 111.08 55.41 M-1.08 -0.53 C17.54 9.16, 94.48 47.38, 113.25 56.61" stroke="#000000" stroke-width="1" fill="none"></path></g></g><g stroke-linecap="round"><g transform="translate(53.32190505476592 151.67287232989202) rotate(0 94.11332383995921 -39.7021504822992)"><path d="M0.34 -1.03 C31.27 -14.48, 155.49 -67.13, 186.8 -80.44 M-0.95 1.04 C30.28 -12.22, 157.71 -65.37, 189.17 -78.83" stroke="#000000" stroke-width="1" fill="none"></path></g></g><g stroke-linecap="round"><g transform="translate(164.12466955757327 208.59458019952945) rotate(0 93.27494553473821 -39.960629651650834)"><path d="M-1.03 -0.64 C30.19 -14, 156.22 -66.36, 187.58 -79.83 M0.62 1.63 C31.68 -12.1, 155.78 -67.85, 186.71 -81.55" stroke="#000000" stroke-width="1" fill="none"></path></g></g><g stroke-linecap="round"><g transform="translate(239.8610642858796 69.28242665752987) rotate(0 0.2874921649367934 53.31850948423016)"><path d="M-0.64 0.14 C-0.57 18, 0.79 88.45, 0.76 106.1 M1.22 -0.83 C1.17 17.29, 0.15 89.47, 0.2 107.47" stroke="#000000" stroke-width="1" fill="none"></path></g></g><g stroke-linecap="round"><g transform="translate(124.84877371117 217.93940961342105) rotate(0 -32.37943410619346 -2.3444447149531698)" fill-rule="evenodd"><path d="M0.37 -1.74 L-54.67 -21.65 L-66.54 -22.61 L-71.77 -20.22 L-75.47 -15.98 L-72.98 -10.81 L-61.96 -6.53 L-10.64 17.21 L2.33 16.71 L8.56 12.52 L9.33 11.28 L0.65 0.08" stroke="none" stroke-width="0" fill="#fff" fill-rule="evenodd"></path><path d="M0.14 0.76 C-8.66 -2.83, -41.79 -18.8, -53.81 -22.17 C-65.84 -25.53, -69.71 -21.78, -72 -19.42 C-74.29 -17.07, -78.18 -14.24, -67.54 -8.04 C-56.9 -1.84, -20.89 14.32, -8.16 17.76 C4.56 21.2, 7.35 15.36, 8.83 12.6 C10.31 9.83, 2.25 3.2, 0.72 1.19 M-1.25 0.11 C-10.14 -3.3, -42.98 -17.98, -54.93 -21.09 C-66.89 -24.2, -70.88 -20.92, -72.98 -18.57 C-75.07 -16.22, -78.11 -12.59, -67.48 -6.98 C-56.85 -1.37, -22.1 11.45, -9.19 15.1 C3.73 18.74, 8.2 17.32, 10.02 14.89 C11.84 12.45, 3.68 2.87, 1.74 0.47" stroke="#000000" stroke-width="1" fill="none"></path></g></g></svg>