<svg version="1.1" xmlns="http://www.w3.org/2000/svg" viewBox="0 0 413.1492529628317 422.1252633044496" width="413.1492529628317" height="422.1252633044496">
  <!-- svg-source:excalidraw -->
  
  <defs>
    <style class="style-fonts">
      @font-face {
        font-family: "Virgil";
        src: url("https://excalidraw.com/Virgil.woff2");
      }
      @font-face {
        font-family: "Cascadia";
        src: url("https://excalidraw.com/Cascadia.woff2");
      }
    </style>
  </defs>
  <g stroke-linecap="round" transform="translate(10 10) rotate(0 196.57462648141586 201.0626316522248)"><path d="M-0.13 -0.14 C112.91 0.75, 223.19 1.29, 392.56 -0.74 M392.31 -0.06 C392.31 148.03, 391.19 293.86, 392.45 402.43 M392.9 401.41 C245.18 405.15, 98.89 404.48, -0.13 402.35 M-0.68 401.03 C0.03 299.61, 1.35 196.85, -0.59 0.07" stroke="transparent" stroke-width="1.5" fill="none" stroke-dasharray="1.5 7"></path></g><g stroke-linecap="round" transform="translate(74.44636668952717 16.540471403055562) rotate(0 132.1282597918888 130.2931450725573)"><path d="M70.69 15.59 C81.74 7.78, 98.63 4.04, 113 1.74 C127.36 -0.57, 142.88 -0.82, 156.89 1.76 C170.9 4.35, 184.62 10.44, 197.07 17.27 C209.52 24.1, 222.21 32.17, 231.59 42.75 C240.98 53.34, 248.05 67.69, 253.38 80.79 C258.72 93.89, 262.68 107.29, 263.61 121.36 C264.53 135.42, 262.76 151.53, 258.96 165.21 C255.15 178.89, 248.6 191.82, 240.77 203.45 C232.93 215.07, 223.11 226.54, 211.96 234.94 C200.81 243.34, 187.39 249.52, 173.85 253.85 C160.32 258.18, 145.31 261.11, 130.77 260.95 C116.23 260.78, 100.19 257.83, 86.62 252.87 C73.06 247.91, 60.56 240.11, 49.39 231.19 C38.22 222.27, 27.35 211.31, 19.61 199.33 C11.87 187.35, 6.08 172.8, 2.95 159.31 C-0.17 145.82, -0.54 132.34, 0.86 118.37 C2.27 104.4, 5.51 88.57, 11.37 75.51 C17.24 62.44, 24.65 50.94, 36.07 39.98 C47.48 29.02, 70.86 14.64, 79.87 9.75 C88.88 4.86, 89.41 8.33, 90.13 10.64 M79.48 10.19 C91.22 3, 106.95 1.93, 121.08 0.94 C135.21 -0.04, 150.39 0.72, 164.27 4.28 C178.15 7.84, 192.38 14.98, 204.37 22.32 C216.36 29.66, 227.59 37.65, 236.2 48.34 C244.81 59.04, 251.48 72.95, 256.01 86.48 C260.55 100.02, 263.23 115.13, 263.4 129.56 C263.57 143.99, 261.56 159.47, 257.03 173.04 C252.5 186.62, 244.83 200.16, 236.22 211.02 C227.61 221.89, 217.04 230.91, 205.38 238.23 C193.72 245.55, 180.14 251.34, 166.26 254.95 C152.37 258.56, 136.68 260.91, 122.05 259.9 C107.42 258.9, 91.86 254.66, 78.47 248.93 C65.08 243.2, 52.05 234.81, 41.72 225.52 C31.39 216.24, 23.27 205.18, 16.48 193.24 C9.7 181.3, 3.71 167.99, 1.02 153.9 C-1.68 139.8, -2.09 122.97, 0.33 108.69 C2.74 94.41, 8.52 80.41, 15.5 68.21 C22.48 56, 31.73 45.18, 42.2 35.46 C52.67 25.73, 72.23 13.51, 78.33 9.84 C84.43 6.17, 78.1 11.44, 78.81 13.44" stroke="none" stroke-width="0" fill="#000000"></path><path d="M182.79 10.84 C196.13 13.87, 208.73 23.11, 219.42 32.21 C230.11 41.31, 239.95 52.95, 246.91 65.42 C253.88 77.9, 258.58 93.07, 261.2 107.05 C263.83 121.03, 264.65 135.56, 262.66 149.3 C260.68 163.04, 255.79 177.12, 249.3 189.52 C242.81 201.91, 233.94 213.95, 223.74 223.67 C213.53 233.39, 200.93 241.84, 188.07 247.83 C175.21 253.82, 160.88 258.01, 146.58 259.59 C132.28 261.17, 116.46 260.37, 102.27 257.33 C88.07 254.3, 73.45 248.78, 61.4 241.37 C49.35 233.97, 38.83 224, 29.98 212.92 C21.12 201.83, 13.37 188.27, 8.28 174.87 C3.2 161.48, -0.2 146.66, -0.52 132.53 C-0.84 118.4, 1.9 103.31, 6.37 90.09 C10.83 76.87, 17.65 64.31, 26.29 53.21 C34.93 42.1, 46.26 31.51, 58.2 23.47 C70.14 15.42, 84.38 8.72, 97.93 4.95 C111.48 1.18, 124.7 -0.33, 139.49 0.87 C154.27 2.06, 178.19 9.47, 186.63 12.1 C195.07 14.73, 190.88 14.72, 190.12 16.66 M78.52 9.23 C90.22 1.91, 107.32 1.73, 121.65 0.71 C135.98 -0.31, 150.42 -0.22, 164.5 3.13 C178.59 6.47, 194.21 12.62, 206.16 20.8 C218.11 28.97, 227.62 40.89, 236.2 52.2 C244.79 63.52, 252.88 75.5, 257.67 88.69 C262.47 101.87, 264.99 117.46, 264.96 131.31 C264.94 145.16, 262.44 158.75, 257.53 171.77 C252.62 184.79, 244.41 198.34, 235.5 209.42 C226.59 220.5, 216.19 230.18, 204.07 238.26 C191.95 246.33, 176.52 254.2, 162.77 257.87 C149.02 261.54, 135.72 261.64, 121.58 260.26 C107.44 258.88, 91.25 255.35, 77.96 249.57 C64.67 243.8, 52.23 235.33, 41.84 225.6 C31.46 215.87, 22.39 203.72, 15.64 191.19 C8.89 178.66, 3.67 164.5, 1.33 150.44 C-1.01 136.37, -0.72 120.69, 1.6 106.8 C3.92 92.92, 8.58 79.33, 15.25 67.14 C21.93 54.95, 30.96 43.02, 41.65 33.66 C52.34 24.31, 72.83 14.29, 79.39 11.02 C85.95 7.75, 79.84 11.88, 81 14.05" stroke="#000000" stroke-width="1" fill="none"></path></g><g stroke-linecap="round" transform="translate(81.7868255668509 12.870241964391425) rotate(0 126.62291563389351 198.19238968783338)"><path d="M126.26 -2 L252.83 198.62 L127.41 396.75 L1.26 200.91" stroke="none" stroke-width="0" fill="#000000" fill-rule="evenodd"></path><path d="M128.32 -0.44 C155.26 43.17, 182.43 85.3, 252.37 198.72 M126.84 0.06 C155.38 45.96, 185.7 92.95, 253.68 198.38 M253.47 197.93 C203.64 278.33, 153.45 356.3, 126.79 395.46 M253.24 199.77 C219.74 252.45, 186 305.08, 126.18 396.9 M128.28 397.59 C91.48 340.83, 55.26 288.63, -1.3 197.34 M126.42 397.05 C90.22 339.6, 55.47 284.22, 0.04 199.4 M-0.53 197.4 C40.54 134.15, 79.99 72.81, 128.17 0.2 M-0.05 199.02 C33.57 145.54, 67.63 92.11, 126.23 -0.56" stroke="#000000" stroke-width="1" fill="none"></path></g><g stroke-linecap="round" transform="translate(166.2021026561158 89.94506017632284) rotate(0 40.37252382529937 44.04275326396328)"><path d="M33.01 -0.2 C40.03 -1.91, 50.45 1.14, 57.3 4.39 C64.15 7.65, 70.17 12.88, 74.11 19.34 C78.04 25.79, 80.81 35.15, 80.9 43.15 C80.98 51.14, 78.54 60.56, 74.62 67.29 C70.7 74.03, 64.01 80.2, 57.38 83.57 C50.75 86.94, 42.15 88.6, 34.84 87.52 C27.52 86.45, 19.06 82.35, 13.5 77.11 C7.94 71.88, 3.49 63.62, 1.45 56.12 C-0.59 48.62, -0.79 39.57, 1.25 32.11 C3.29 24.66, 7.89 16.53, 13.66 11.4 C19.43 6.27, 31.89 2.97, 35.86 1.31 C39.82 -0.35, 37.47 1.03, 37.44 1.44 M57.81 4.54 C64.68 7.33, 70.67 14.57, 74.4 21.09 C78.13 27.62, 80 35.78, 80.19 43.69 C80.38 51.6, 79.5 62, 75.55 68.55 C71.61 75.09, 63 79.85, 56.52 82.96 C50.05 86.07, 43.79 88.25, 36.72 87.2 C29.65 86.16, 19.69 81.91, 14.11 76.69 C8.53 71.47, 5.32 63.2, 3.26 55.89 C1.2 48.58, -0.11 40.05, 1.74 32.81 C3.58 25.56, 9.03 17.61, 14.32 12.41 C19.62 7.22, 26.36 3.24, 33.49 1.63 C40.62 0.01, 53.32 2.23, 57.11 2.72 C60.9 3.21, 56.78 3.92, 56.25 4.56" stroke="none" stroke-width="0" fill="#ffffffff"></path><path d="M54.97 2.58 C61.59 4.54, 68.86 11.09, 73.01 17.75 C77.17 24.4, 79.52 34.46, 79.89 42.51 C80.26 50.55, 78.73 59.33, 75.21 66.01 C71.69 72.69, 65.14 79.06, 58.75 82.58 C52.37 86.11, 44.03 87.92, 36.91 87.16 C29.79 86.39, 21.65 82.83, 16.04 78.01 C10.43 73.2, 5.71 65.62, 3.24 58.27 C0.76 50.92, -0.25 41.5, 1.17 33.94 C2.6 26.37, 6.45 18.32, 11.78 12.9 C17.1 7.48, 25.11 2.72, 33.11 1.43 C41.11 0.13, 54.88 3.98, 59.77 5.14 C64.67 6.3, 62.86 7.75, 62.5 8.36 M41.47 1.1 C48.23 0.08, 56.45 1.41, 62.53 5.43 C68.61 9.45, 74.87 17.67, 77.94 25.24 C81.01 32.81, 81.92 42.74, 80.95 50.84 C79.98 58.94, 76.93 68.12, 72.13 73.82 C67.34 79.52, 59.46 82.77, 52.19 85.03 C44.92 87.28, 35.76 89.59, 28.53 87.34 C21.29 85.09, 13.53 77.63, 8.81 71.54 C4.08 65.45, 1.18 58.58, 0.18 50.81 C-0.81 43.03, -0.38 32.3, 2.86 24.88 C6.09 17.46, 13.48 10.21, 19.6 6.3 C25.72 2.38, 36.1 2.3, 39.6 1.4 C43.09 0.51, 40.35 0.39, 40.57 0.94" stroke="#000000" stroke-width="1" fill="none"></path></g></svg>