<svg version="1.1" xmlns="http://www.w3.org/2000/svg" viewBox="0 0 408.3947476994524 414.0827193694722" width="408.3947476994524" height="414.0827193694722">
  <!-- svg-source:excalidraw -->
  
  <defs>
    <style class="style-fonts">
      @font-face {
        font-family: "Virgil";
        src: url("https://excalidraw.com/Virgil.woff2");
      }
      @font-face {
        font-family: "Cascadia";
        src: url("https://excalidraw.com/Cascadia.woff2");
      }
    </style>
  </defs>
  <g stroke-linecap="round"><g transform="translate(226.6762378224471 113.11445716823073) rotate(0 85.71933684362921 -21.72868904660845)" fill-rule="evenodd"><path d="M1.6 -1.82 L24.35 -29.98 L52.92 -48.26 L73.78 -74.16 L86.11 -93.73 L90.2 -99.7 L104.82 -102.18 L128.86 -101.91 L134.53 -96.78 L147.75 -87.29 L163.84 -89.95 L172.45 -87.39 L169.76 -85.59 L166.33 -83.08 L148.25 -73.7 L145.09 -70.32 L137.11 -53.9 L136.88 -40.85 L140.52 -2.8 L137.79 13.55 L125.05 42.3 L119.16 48.09 L104.45 57.31 L99.23 59.25 L93.05 59.51 L85.85 54.28 L80.43 43.62 L69.17 26.56 L69.99 14.13 L68.34 -9.76 L65.94 -16.75 L61.56 -22 L58.15 -24.34 L42.61 -19.95 L0.89 0.57" stroke="none" stroke-width="0" fill="#000000" fill-rule="evenodd"></path><path d="M-0.28 -0.77 C3.84 -5.5, 16.86 -21.56, 25.62 -29.43 C34.38 -37.3, 44.46 -40.29, 52.27 -48 C60.09 -55.71, 66.37 -67.18, 72.5 -75.69 C78.63 -84.19, 81.27 -94.64, 89.06 -99.05 C96.84 -103.45, 111.51 -102.17, 119.21 -102.12 C126.92 -102.07, 130.26 -100.85, 135.26 -98.75 C140.27 -96.66, 144.38 -90.99, 149.23 -89.57 C154.07 -88.14, 160.7 -91.1, 164.34 -90.2 C167.98 -89.3, 173.67 -86.56, 171.05 -84.18 C168.44 -81.8, 153.58 -79.56, 148.64 -75.9 C143.7 -72.25, 143.15 -67.78, 141.41 -62.27 C139.67 -56.75, 138.48 -50.22, 138.19 -42.84 C137.9 -35.46, 139.34 -27.19, 139.66 -17.96 C139.98 -8.74, 143.44 1.36, 140.1 12.52 C136.77 23.68, 127.53 41.44, 119.63 49 C111.73 56.57, 100.93 61.85, 92.69 57.92 C84.46 53.99, 74.56 37.98, 70.24 25.41 C65.93 12.84, 71.78 -10.06, 66.81 -17.5 C61.84 -24.93, 51.38 -22, 40.42 -19.19 C29.47 -16.38, 7.96 -4.01, 1.07 -0.61 M1.77 1.44 C5.75 -3.53, 16.95 -23.03, 25.23 -31.1 C33.51 -39.16, 43.63 -39.74, 51.44 -46.95 C59.26 -54.16, 66.12 -65.8, 72.13 -74.35 C78.14 -82.89, 79.98 -93.43, 87.5 -98.22 C95.01 -103, 109.15 -103.3, 117.23 -103.05 C125.32 -102.8, 130.75 -98.87, 136 -96.71 C141.26 -94.55, 143.72 -91, 148.75 -90.08 C153.79 -89.17, 162.91 -92.15, 166.22 -91.23 C169.52 -90.31, 171.4 -87.23, 168.57 -84.56 C165.73 -81.89, 153.91 -78.87, 149.2 -75.23 C144.49 -71.59, 142.13 -67.95, 140.32 -62.71 C138.51 -57.48, 138.58 -51.17, 138.33 -43.81 C138.07 -36.45, 138.36 -27.88, 138.79 -18.56 C139.22 -9.25, 143.93 0.63, 140.92 12.09 C137.91 23.55, 128.95 42.52, 120.72 50.2 C112.49 57.87, 100.18 62.12, 91.54 58.13 C82.9 54.13, 72.67 38.73, 68.87 26.22 C65.08 13.71, 73.46 -9.13, 68.78 -16.95 C64.1 -24.78, 52.17 -23.82, 40.8 -20.74 C29.43 -17.66, 7.53 -1.99, 0.55 1.54" stroke="#000000" stroke-width="1" fill="none"></path></g></g><g stroke-linecap="round"><g transform="translate(226.6762378224471 109.02117363533762) rotate(0 23.451952866383863 6.317586588281301)" fill-rule="evenodd"><path d="M0.77 -0.98 L-15.97 20.34 L-19.93 25.75 L-18.8 28.43 L-12.72 32.43 L-0.64 32.55 L9.46 28.98 L43.94 19.42 L50.81 14.12 L62.1 3.24 L67.28 -3.48 L65.51 -10.42 L67.05 -18.32 L62.01 -18.52 L57.29 -19.53 L0.1 1.98" stroke="none" stroke-width="0" fill="#ffffff" fill-rule="evenodd"></path><path d="M1.06 0.86 C-2.19 5.27, -19.26 20.29, -19.77 25.68 C-20.28 31.07, -12.63 34.34, -2 33.2 C8.64 32.06, 32.7 24.75, 44.03 18.84 C55.37 12.93, 62.94 4.12, 66 -2.25 C69.06 -8.61, 67.77 -17.75, 62.4 -19.34 C57.04 -20.94, 44.23 -15.13, 33.8 -11.8 C23.36 -8.46, 5.29 -1.32, -0.21 0.67 M0.16 0.27 C-3.23 4.91, -20.8 21.81, -20.78 26.95 C-20.76 32.09, -10.55 32.79, 0.28 31.09 C11.11 29.39, 33.43 22.19, 44.19 16.72 C54.94 11.25, 61.51 4.48, 64.8 -1.74 C68.09 -7.97, 69.49 -19.33, 63.91 -20.65 C58.33 -21.97, 42.21 -13.21, 31.33 -9.66 C20.45 -6.1, 3.96 -0.73, -1.35 0.68" stroke="#000000" stroke-width="1" fill="none"></path></g></g><g stroke-linecap="round"><g transform="translate(242.95914724520912 208.48324694295115) rotate(0 31.18562785662607 28.182987000836874)" fill-rule="evenodd"><path d="M-0.96 0.91 L4.43 18.18 L16.7 18.67 L24.71 31.28 L36.78 38.42 L34.35 44.81 L26.98 52.13 L34.38 46.26 L39.6 44.59 L55.56 55.05 L46.77 44.56 L59.76 55.1 L50.66 47.9 L63.45 56.82 L44.32 37.5 L19.41 13 L16.59 9.13 L20.81 4.51 L20.61 4.99 L1.83 -0.88" stroke="none" stroke-width="0" fill="#000000" fill-rule="evenodd"></path><path d="M-0.12 -0.52 C0.3 2.32, 1.13 14.39, 3.61 17.9 C6.08 21.4, 9.39 16.77, 14.74 20.53 C20.09 24.29, 33.7 35.14, 35.69 40.45 C37.67 45.76, 26.08 52.06, 26.64 52.39 C27.2 52.72, 34.42 41.91, 39.04 42.44 C43.66 42.97, 53.12 55.28, 54.38 55.55 C55.65 55.81, 45.83 44.06, 46.64 44.04 C47.46 44.02, 58.41 55.02, 59.28 55.41 C60.14 55.81, 51.08 46.52, 51.82 46.39 C52.56 46.25, 64.9 56.37, 63.71 54.6 C62.53 52.84, 52.16 42.53, 44.7 35.81 C37.24 29.1, 22.95 19.74, 18.94 14.31 C14.94 8.89, 23.78 5.82, 20.65 3.26 C17.53 0.71, 3.66 -0.62, 0.19 -1.03 M-1.64 1.83 C-0.96 4.23, 3.11 13.21, 5.7 16.01 C8.29 18.81, 8.8 14.35, 13.88 18.62 C18.97 22.9, 34.3 36.02, 36.2 41.67 C38.1 47.31, 25.07 52.59, 25.26 52.51 C25.46 52.44, 32.4 40.88, 37.34 41.23 C42.29 41.57, 53.47 54.13, 54.91 54.56 C56.36 54.98, 45.53 43.3, 46.02 43.77 C46.51 44.24, 56.7 57.03, 57.85 57.38 C58.99 57.74, 51.89 46.23, 52.91 45.91 C53.92 45.59, 64.97 57.27, 63.95 55.45 C62.93 53.63, 54.16 41.95, 46.78 34.98 C39.39 28.01, 24.12 18.94, 19.66 13.62 C15.2 8.29, 23.18 5.02, 20 3.01 C16.83 1, 3.82 2.23, 0.61 1.54" stroke="#000000" stroke-width="1" fill="none"></path></g></g><g stroke-linecap="round"><g transform="translate(292.1687743487171 122.11968094059102) rotate(0 -19.444173731987235 49.22635958673072)" fill-rule="evenodd"><path d="M-0.27 1.41 L-19.32 25.51 L-27.37 33.48 L-48.61 44 L-85.45 60.67 L-83.69 65.1 L-79.62 75.63 L-63.99 87.49 L-54.58 96.54 L-42.6 100.06 L-31.44 98.79 L-18.28 97.42 L5.86 88.33 L13.16 85.23 L20.65 78.8 L45.14 50.86 L37.42 50.51 L25.88 47.96 L16.34 41.82 L8.87 27.86 L1.83 -0.88" stroke="none" stroke-width="0" fill="#ffffff" fill-rule="evenodd"></path><path d="M-1.18 0.45 C-5.69 6.13, -15.46 24.61, -27.19 33.58 C-38.92 42.54, -61.9 49.83, -71.53 54.24 C-81.16 58.66, -83.82 56.61, -84.95 60.07 C-86.09 63.52, -85.12 68.51, -78.36 74.98 C-71.6 81.46, -58.43 96.51, -44.42 98.91 C-30.41 101.31, -7.25 95.31, 5.68 89.37 C18.62 83.43, 26.41 69.85, 33.21 63.27 C40 56.69, 46.01 51.88, 46.45 49.89 C46.89 47.9, 40.92 52.65, 35.85 51.3 C30.79 49.96, 21.32 48.67, 16.05 41.8 C10.77 34.92, 6.86 17.05, 4.21 10.07 C1.55 3.08, 0.78 1.73, 0.11 -0.12 M0.41 -0.36 C-4.27 5.03, -16.16 22.55, -28.23 31.89 C-40.3 41.23, -62.63 50.83, -72.03 55.67 C-81.43 60.5, -83.4 57.65, -84.61 60.9 C-85.82 64.15, -86.19 68.98, -79.28 75.2 C-72.36 81.42, -57.45 96.07, -43.12 98.22 C-28.78 100.38, -5.86 94.03, 6.73 88.1 C19.32 82.17, 26.03 69.22, 32.42 62.62 C38.82 56.02, 44.41 50.47, 45.09 48.48 C45.78 46.5, 41.35 51.73, 36.54 50.71 C31.72 49.69, 21.74 49.2, 16.2 42.38 C10.65 35.55, 5.92 17, 3.28 9.77 C0.65 2.54, 1.01 0.92, 0.4 -1" stroke="#000000" stroke-width="1" fill="none"></path></g></g><g stroke-linecap="round"><g transform="translate(292.1687743487171 110.65848704849395) rotate(0 -76.23166880642066 51.002727618720655)" fill-rule="evenodd"><path d="M-0.27 1.41 L1.3 13.23 L0.47 17.92 L-7.12 26.04 L-36.1 46.99 L-100.53 77.45 L-138.75 95.88 L-154.2 101.2 L-155.41 102.99 L-119.45 66.9 L-81.42 29.83 L-79.74 30.19 L-77.65 31.84 L-67.92 38.05 L-53.34 34.96 L-23.63 18.93 L1.4 -1.07" stroke="none" stroke-width="0" fill="#000000" fill-rule="evenodd"></path><path d="M-0.17 0.83 C0.24 3.66, 4.95 11.49, 1.33 17.4 C-2.3 23.32, -13.69 30.41, -21.92 36.33 C-30.15 42.24, -36.95 46.68, -48.07 52.88 C-59.19 59.08, -72.89 66.09, -88.63 73.53 C-104.36 80.98, -132.1 93.95, -142.49 97.56 C-152.89 101.17, -160.1 105.73, -150.99 95.2 C-141.88 84.66, -99.85 44.79, -87.81 34.34 C-75.77 23.88, -83.1 32.32, -78.76 32.48 C-74.41 32.63, -71.19 37.62, -61.73 35.25 C-52.26 32.88, -32.3 24.15, -21.99 18.25 C-11.68 12.36, -3.59 3.1, 0.11 -0.12 M-1.73 0.22 C-1.32 2.62, 4.12 9.2, 0.65 15.39 C-2.83 21.58, -13.99 30.97, -22.59 37.37 C-31.18 43.78, -39.66 47.66, -50.93 53.81 C-62.2 59.96, -74.64 67.15, -90.21 74.28 C-105.78 81.41, -134.35 92.77, -144.34 96.59 C-154.32 100.41, -159.41 107.64, -150.1 97.2 C-140.8 86.77, -100.73 45.01, -88.52 33.97 C-76.31 22.93, -81.42 30.88, -76.86 30.95 C-72.29 31.02, -70.41 36.32, -61.13 34.39 C-51.85 32.46, -31.16 25.2, -21.18 19.37 C-11.2 13.53, -4.86 2.42, -1.25 -0.6" stroke="#000000" stroke-width="1" fill="none"></path></g></g><g stroke-linecap="round"><g transform="translate(184.92474578695078 192.5241577063316) rotate(0 -66.7715557766395 99.42661437340576)" fill-rule="evenodd"><path d="M-1.51 1.96 L-149.6 176.46 L-171.92 204.82 L-173.4 209.79 L-154.63 200.91 L-144.72 201.83 L-137.38 198.29 L-130.9 179.13 L-101.71 153.12 L-90.81 143.01 L12.67 28.14 L18.68 21.63 L21.58 25.01 L25.23 23.27 L36.63 18.79 L41.14 16.8 L39.34 9.02 L28.77 4.39 L23.02 -8.8 L20.85 -12.83 L14.88 -10.54 L-0.34 0.66" stroke="none" stroke-width="0" fill="#000000" fill-rule="evenodd"></path><path d="M0.51 0.21 C-26.86 32.46, -138.67 161.26, -164.36 194.33 C-190.06 227.39, -157.98 197.86, -153.68 198.6 C-149.38 199.34, -142.34 202.12, -138.56 198.79 C-134.79 195.46, -135.51 184.96, -131.03 178.61 C-126.55 172.26, -117.4 165.63, -111.69 160.69 C-105.99 155.75, -105.58 157.9, -96.82 148.95 C-88.05 140, -77.37 127.56, -59.11 106.97 C-40.85 86.39, -0.78 38.85, 12.77 25.42 C26.33 12, 17.64 27.83, 22.22 26.44 C26.79 25.05, 37.64 20, 40.22 17.08 C42.8 14.15, 39.32 10.72, 37.7 8.87 C36.08 7.02, 33.36 9.56, 30.52 5.97 C27.68 2.39, 25.78 -11.73, 20.66 -12.65 C15.54 -13.58, 3.06 -1.57, -0.21 0.44 M-0.68 -0.73 C-28.17 31.61, -139.68 162.18, -165.22 195.59 C-190.75 229, -158.35 199.58, -153.89 199.74 C-149.43 199.91, -142.06 200.03, -138.43 196.58 C-134.8 193.14, -136.22 184.67, -132.1 179.07 C-127.98 173.47, -119.74 168.25, -113.7 163 C-107.66 157.75, -104.77 157, -95.86 147.58 C-86.94 138.16, -78.63 126.54, -60.22 106.49 C-41.82 86.44, 1.25 40.69, 14.59 27.29 C27.93 13.9, 15.48 27.66, 19.82 26.11 C24.15 24.57, 37.84 20.42, 40.6 18 C43.36 15.58, 38.04 13.64, 36.39 11.57 C34.73 9.5, 33.45 9.62, 30.66 5.6 C27.87 1.57, 24.76 -11.64, 19.66 -12.56 C14.55 -13.47, 3.45 -2.04, 0.01 0.11" stroke="#000000" stroke-width="1" fill="none"></path></g></g><g stroke-linecap="round"><g transform="translate(226.10346053910735 211.87247577468588) rotate(0 31.45300008932668 27.38431557353215)" fill-rule="evenodd"><path d="M1.6 -1.82 L4.57 17.76 L15.44 18.92 L26.32 31.3 L36.79 42.06 L35.53 44.67 L27.36 53.57 L35.22 43.37 L37.44 44.24 L54.17 56.82 L45.16 44.82 L60.21 54.93 L50.7 45.17 L63.85 54.13 L45.09 38.2 L19.84 13.19 L15.2 9.65 L19.37 6.98 L20.15 3.75 L-1.38 1.27" stroke="none" stroke-width="0" fill="#000000" fill-rule="evenodd"></path><path d="M0.19 -0.51 C1.07 2.3, 3.41 13.63, 5.83 17.11 C8.25 20.59, 9.68 16.49, 14.7 20.37 C19.72 24.25, 33.91 35.06, 35.95 40.38 C37.98 45.71, 26.47 51.93, 26.91 52.32 C27.36 52.71, 34.01 42.35, 38.59 42.73 C43.18 43.11, 53.27 54.54, 54.43 54.6 C55.59 54.67, 44.66 42.85, 45.54 43.13 C46.43 43.4, 58.78 55.71, 59.75 56.24 C60.71 56.78, 50.61 46.72, 51.33 46.32 C52.05 45.92, 65.14 55.33, 64.07 53.85 C62.99 52.37, 52.64 43.97, 44.86 37.43 C37.09 30.89, 21.52 20.22, 17.43 14.62 C13.35 9.02, 23.06 6.35, 20.33 3.81 C17.61 1.28, 4.61 -0.18, 1.07 -0.61 M-1.18 1.83 C-0.4 4.8, 2.94 15.72, 5.44 18.48 C7.94 21.23, 8.63 14.53, 13.83 18.38 C19.02 22.23, 34.62 35.89, 36.6 41.56 C38.58 47.23, 25.68 52.38, 25.69 52.4 C25.7 52.42, 31.78 41.54, 36.66 41.66 C41.55 41.78, 53.7 53, 54.98 53.12 C56.26 53.24, 43.75 42.07, 44.35 42.38 C44.94 42.69, 57.26 54.42, 58.57 54.99 C59.87 55.56, 51.16 45.92, 52.15 45.8 C53.14 45.69, 65.95 55.69, 64.49 54.3 C63.02 52.91, 51.22 44.15, 43.37 37.45 C35.51 30.75, 21.34 19.68, 17.36 14.08 C13.39 8.48, 22.7 6.45, 19.52 3.85 C16.34 1.26, 1.62 -0.75, -1.7 -1.5" stroke="#000000" stroke-width="1" fill="none"></path></g></g><g stroke-linecap="round"><g transform="translate(332.7117360164427 27.82307950430277) rotate(0 8.97549743411173 -1.831219899039752)" fill-rule="evenodd"><path d="M0.18 -0.19 L7.19 -8.61 L11.01 -4.99 L16 -1.25 L16.7 1.02 L12.49 3 L-1.51 1.96" stroke="none" stroke-width="0" fill="#000000" fill-rule="evenodd"></path><path d="M1.05 -0.33 C2.13 -1.29, 4.21 -5.56, 6.67 -6.23 C9.13 -6.89, 14.03 -5.31, 15.83 -4.32 C17.64 -3.33, 18.27 -1.68, 17.51 -0.3 C16.76 1.08, 13.6 3.59, 11.31 3.98 C9.01 4.37, 5.67 2.82, 3.73 2.03 C1.79 1.24, 0.14 -0.48, -0.33 -0.77 M0.14 -1.55 C1.03 -2.81, 3.05 -7.77, 5.61 -8 C8.17 -8.23, 13.41 -4.34, 15.47 -2.93 C17.54 -1.51, 18.89 -0.72, 18 0.5 C17.11 1.71, 12.31 4.29, 10.15 4.34 C8 4.4, 6.73 1.38, 5.06 0.85 C3.39 0.31, 0.92 1.27, 0.14 1.14" stroke="#f0f0f0" stroke-width="1" fill="none"></path></g></g></svg>