<svg version="1.1" xmlns="http://www.w3.org/2000/svg" viewBox="0 0 124.52489407025928 102.92493600902651" width="124.52489407025928" height="102.92493600902651">
  <!-- svg-source:excalidraw -->
  
  <defs>
    <style class="style-fonts">
      @font-face {
        font-family: "Virgil";
        src: url("https://excalidraw.com/Virgil.woff2");
      }
      @font-face {
        font-family: "Cascadia";
        src: url("https://excalidraw.com/Cascadia.woff2");
      }
    </style>
  </defs>
  <g stroke-linecap="round"><g transform="translate(75.75502763686154 16.321189313078435) rotate(0 10.110054231439165 5.713583399808442)"><path d="M-0.19 0.67 C3 2.24, 16.32 8.38, 19.73 9.9 M-1.75 -0.03 C1.76 1.72, 18.46 9.6, 21.97 11.46" stroke="#000000" stroke-width="1" fill="none"></path></g></g><mask></mask><g stroke-linecap="round"><g transform="translate(75.34650733069793 15.314821952634816) rotate(0 7.840724631818432 -1.507307888510013)"><path d="M-0.89 0.04 C1.9 -0.58, 13.73 -2.66, 16.58 -3.05 M0.84 -0.99 C3.46 -1.47, 12.47 -1, 15.44 -1.55" stroke="#000000" stroke-width="1" fill="none"></path></g></g><mask></mask><g stroke-linecap="round"><g transform="translate(94.42842225867071 26.538610131565974) rotate(0 9.049695209027675 -2.0485754204851787)"><path d="M-0.36 -0.06 C2.48 -0.45, 13.19 -1.7, 16.16 -2.28 M1.65 -1.14 C4.95 -1.87, 15.91 -3.8, 18.46 -4.04" stroke="#000000" stroke-width="1" fill="none"></path></g></g><mask></mask><g stroke-linecap="round"><g transform="translate(92.46296835272051 9.969674450932075) rotate(0 10.183046066886163 5.285255800640584)"><path d="M-0.78 0.71 C2.81 2.27, 17.58 7.8, 21.15 9.3 M1.01 0.03 C4.52 1.75, 17.32 8.73, 20.47 10.54" stroke="#000000" stroke-width="1" fill="none"></path></g></g><mask></mask><g stroke-linecap="round"><g transform="translate(75.00047024517971 80.63112563837399) rotate(0 9.98830357975271 5.280099678506531)"><path d="M0.52 -0.57 C4.09 0.93, 17.13 7.88, 20.64 9.68 M-0.67 1.75 C2.82 3.38, 16.03 10.07, 19.7 11.13" stroke="#000000" stroke-width="1" fill="none"></path></g></g><mask></mask><g stroke-linecap="round"><g transform="translate(74.5919499390161 79.62475827793037) rotate(0 8.24872766903178 -2.367467801974442)"><path d="M0.02 -0.18 C2.92 -0.52, 15.1 -2.06, 17.93 -2.62 M-1.43 -1.32 C1.35 -1.99, 14.55 -4.35, 17.5 -4.55" stroke="#000000" stroke-width="1" fill="none"></path></g></g><mask></mask><g stroke-linecap="round"><g transform="translate(93.67386486698865 90.84854645686141) rotate(0 8.539511771412094 -1.5965878977797274)"><path d="M0.99 0.37 C3.83 -0.2, 14.32 -3.04, 17.03 -3.56 M0.05 -0.49 C2.74 -0.88, 13.36 -2.18, 16.12 -2.32" stroke="#000000" stroke-width="1" fill="none"></path></g></g><mask></mask><g stroke-linecap="round"><g transform="translate(94.76327952448878 27.429170277816183) rotate(0 -0.9493214200010129 32.46287011639515)"><path d="M0.09 -0.57 C-0.28 10.28, -0.92 54.68, -1.2 65.5 M-1.33 1.75 C-1.91 12.18, -1.81 52.92, -1.99 63.49" stroke="#000000" stroke-width="1" fill="none"></path></g></g><mask></mask><g stroke-linecap="round"><g transform="translate(73.53114496719627 34.87996837925334) rotate(0 9.779551504318931 4.654193164861226)"><path d="M0.3 0.23 C3.71 1.82, 17.04 7.34, 20.56 8.95 M-1 -0.69 C2.24 1.07, 15.9 8.02, 19.58 10" stroke="#000000" stroke-width="1" fill="none"></path></g></g><mask></mask><g stroke-linecap="round"><g transform="translate(76.04321625549369 34.862606536654084) rotate(0 8.093755386383634 -0.8797542687815394)"><path d="M-0.06 -0.92 C2.84 -1.45, 14.98 -2.73, 17.74 -2.97 M-1.56 1.21 C1.24 0.87, 14.37 -0.49, 17.22 -1.43" stroke="#000000" stroke-width="1" fill="none"></path></g></g><mask></mask><g stroke-linecap="round"><g transform="translate(75.00619362396105 50.624867917042366) rotate(0 9.986899538104808 4.723381456752691)"><path d="M0.8 0.02 C4.18 1.91, 16.77 8.93, 20.21 10.47 M-0.23 -1.02 C2.96 0.6, 15.49 6.78, 19.04 8.66" stroke="#000000" stroke-width="1" fill="none"></path></g></g><mask></mask><g stroke-linecap="round"><g transform="translate(77.51826491225847 50.60750607444311) rotate(0 8.650055524381287 -1.495792986395088)"><path d="M-0.42 0.6 C2.4 0, 14.67 -3.15, 17.72 -3.6 M1.56 -0.12 C4.22 -0.58, 14.51 -1.74, 17.18 -2.38" stroke="#000000" stroke-width="1" fill="none"></path></g></g><mask></mask><g stroke-linecap="round"><g transform="translate(73.19869508854231 68.15016933760967) rotate(0 10.653010885184074 5.0863696870547415)"><path d="M0.78 -0.61 C4.45 1.09, 18.4 9.18, 21.57 10.78 M-0.27 1.69 C3.36 3.01, 17.36 7.78, 21.12 9.14" stroke="#000000" stroke-width="1" fill="none"></path></g></g><mask></mask><g stroke-linecap="round"><g transform="translate(75.71076637683973 68.13280749501041) rotate(0 9.219611944258645 -1.4743829503080974)"><path d="M0.95 0.92 C3.51 0.37, 13.37 -3.08, 16.15 -3.86 M-0.01 0.35 C2.86 -0.01, 15.58 -2.25, 18.45 -2.79" stroke="#000000" stroke-width="1" fill="none"></path></g></g><mask></mask><g stroke-linecap="round"><g transform="translate(113.52242591639697 22.642322496204656) rotate(0 -0.19944067435255874 32.36808898001743)"><path d="M-0.79 -0.87 C-1.08 9.72, -0.79 53.28, -0.81 64.48 M1 1.28 C0.53 11.93, -1.01 55.07, -1.4 65.61" stroke="#000000" stroke-width="1" fill="none"></path></g></g><mask></mask><g stroke-linecap="round"><g transform="translate(76.29792802849397 16.467799287485036) rotate(0 -0.4209883211126453 32.7721003486339)"><path d="M0.68 -0.78 C0.67 10.42, -0.49 55.42, -0.89 66.33 M-0.42 1.42 C-0.47 12.39, -1.15 54.05, -1.52 64.76" stroke="#000000" stroke-width="1" fill="none"></path></g></g><mask></mask><g stroke-linecap="round"><g transform="translate(63.353819900624785 31.13728153924717) rotate(0 -26.37597294406237 1.3347273702776192)"><path d="M0.6 1.06 C-8.22 1.34, -43.59 0.65, -52.27 0.87 M-0.54 0.57 C-9.61 1.07, -44.79 2.1, -53.35 2.1" stroke="#000000" stroke-width="1" fill="none"></path></g><g transform="translate(63.353819900624785 31.13728153924717) rotate(0 -26.37597294406237 1.3347273702776192)"><path d="M-27.3 -7.66 C-38.78 -2.85, -44.91 1.19, -52.59 2.43 M-29.93 -7.49 C-37.25 -3.94, -45.68 -1.06, -52.69 1.54" stroke="#000000" stroke-width="1" fill="none"></path></g><g transform="translate(63.353819900624785 31.13728153924717) rotate(0 -26.37597294406237 1.3347273702776192)"><path d="M-26.99 10.13 C-38.47 8.59, -44.7 6.28, -52.59 2.43 M-29.62 10.31 C-36.98 7.96, -45.51 4.95, -52.69 1.54" stroke="#000000" stroke-width="1" fill="none"></path></g></g><mask></mask><g stroke-linecap="round"><g transform="translate(11.679147300217892 61.52417241776641) rotate(0 27.19298339284387 0.08784041491338712)"><path d="M-1.1 -0.89 C8.04 -0.73, 46.15 0.37, 55.49 0.68 M0.52 1.26 C9.52 1.09, 46.03 -0.73, 54.99 -1.08" stroke="#000000" stroke-width="1" fill="none"></path></g><g transform="translate(11.679147300217892 61.52417241776641) rotate(0 27.19298339284387 0.08784041491338712)"><path d="M28.29 10.84 C39.86 6.43, 49.25 3.52, 55.47 -1.37 M29.95 9.53 C38.04 4.8, 46.64 1.13, 55.42 -1.62" stroke="#000000" stroke-width="1" fill="none"></path></g><g transform="translate(11.679147300217892 61.52417241776641) rotate(0 27.19298339284387 0.08784041491338712)"><path d="M27.45 -7.82 C39.27 -5.62, 48.97 -1.93, 55.47 -1.37 M29.11 -9.13 C37.42 -7.32, 46.32 -4.43, 55.42 -1.62" stroke="#000000" stroke-width="1" fill="none"></path></g></g><mask></mask></svg>