<svg version="1.1" xmlns="http://www.w3.org/2000/svg" viewBox="0 0 413.1492529628317 422.1252633044496" width="413.1492529628317" height="422.1252633044496">
  <!-- svg-source:excalidraw -->
  
  <defs>
    <style class="style-fonts">
      @font-face {
        font-family: "Virgil";
        src: url("https://excalidraw.com/Virgil.woff2");
      }
      @font-face {
        font-family: "Cascadia";
        src: url("https://excalidraw.com/Cascadia.woff2");
      }
    </style>
  </defs>
  <g stroke-linecap="round" transform="translate(10 10) rotate(0 196.57462648141586 201.0626316522248)"><path d="M-0.13 -0.14 C112.91 0.75, 223.19 1.29, 392.56 -0.74 M392.31 -0.06 C392.31 148.03, 391.19 293.86, 392.45 402.43 M392.9 401.41 C245.18 405.15, 98.89 404.48, -0.13 402.35 M-0.68 401.03 C0.03 299.61, 1.35 196.85, -0.59 0.07" stroke="transparent" stroke-width="1.5" fill="none" stroke-dasharray="1.5 7"></path></g><g stroke-linecap="round"><g transform="translate(17.934252194914052 144.42659177281075) rotate(0 2.886944780835506 72.88236382292143)"><path d="M-0.88 -0.24 C0 24.43, 3.44 122.77, 4.26 147.18 M0.86 -1.41 C2.23 23, 5.71 120.73, 6.65 145.55" stroke="#000000" stroke-width="1" fill="none"></path></g></g><g stroke-linecap="round"><g transform="translate(20.371296505556302 135.896936685559) rotate(0 56.834808411753784 -0.7907739575985033)"><path d="M-0.24 -0.61 C19.15 -1.01, 96.37 -3.08, 115.49 -3.26 M-1.82 1.68 C17.56 1.49, 95.78 -1.27, 115.05 -2.16" stroke="#000000" stroke-width="1" fill="none"></path></g></g><g stroke-linecap="round"><g transform="translate(130.03829048440775 132.24137021959268) rotate(0 -2.8253245825793556 77.11589098593777)"><path d="M-0.61 0.95 C-1.62 26.38, -6.13 127.24, -6.92 152.3 M1.27 0.41 C0.72 26.05, -3.48 128.55, -4.64 153.82" stroke="#000000" stroke-width="1" fill="none"></path></g></g><g stroke-linecap="round"><g transform="translate(13.06016357363319 296.7418611878784) rotate(0 56.03972476255967 1.785610503011867)"><path d="M0.95 -0.83 C19.67 0.01, 93.73 3.51, 112.09 4.4 M-0.01 1.35 C18.58 1.9, 92.22 2.45, 111.13 2.67" stroke="#000000" stroke-width="1" fill="none"></path></g></g><g stroke-linecap="round"><g transform="translate(130.03829048440775 133.4598923749245) rotate(0 18.844920677500113 -16.360636353957034)"><path d="M-0.83 -0.02 C5.69 -5.63, 31.94 -27.26, 38.52 -32.7 M0.94 -1.07 C7.42 -6.65, 31.73 -26.56, 37.96 -31.7" stroke="#000000" stroke-width="1" fill="none"></path></g></g><g stroke-linecap="round"><g transform="translate(23.241647241594137 124.75355302826756) rotate(0 18.720732600432143 -15.87550971737437)"><path d="M-0.02 0.74 C5.95 -4.26, 30.62 -25.28, 36.75 -30.82 M-1.49 0.09 C4.76 -5.17, 32.16 -27.21, 38.93 -32.49" stroke="#000000" stroke-width="1" fill="none"></path></g></g><g stroke-linecap="round"><g transform="translate(138.5121665133613 295.1235718737498) rotate(0 19.153562618418846 -15.815506264924352)"><path d="M0.74 -1.02 C7.32 -6.47, 32.6 -27.78, 38.63 -32.69 M-0.33 1.06 C6.24 -4.27, 31.52 -26.13, 38.14 -31.68" stroke="#000000" stroke-width="1" fill="none"></path></g></g><g stroke-linecap="round"><g transform="translate(177.03949112544933 105.73453645132213) rotate(0 -3.227791026058526 76.42496782145099)"><path d="M-1.02 0.86 C-2.2 25.98, -6.45 126.34, -7.1 151.48 M0.64 0.26 C-0.17 25.45, -3.97 127.17, -4.92 152.59" stroke="#000000" stroke-width="1" fill="none"></path></g></g><g stroke-linecap="round"><g transform="translate(64.49842873163652 93.3496841590495) rotate(0 57.91837166455764 -0.8389978620116381)"><path d="M0.86 -1.01 C19.69 -1.05, 94.86 -1.15, 113.71 -1.25 M-0.15 1.08 C18.99 0.83, 97.15 -1.99, 115.99 -2.76" stroke="#000000" stroke-width="1" fill="none"></path></g></g><g stroke-linecap="round" transform="translate(119.0715910865215 160.26737979197424) rotate(0 94.43546703734592 93.54456640491799)"><path d="M188.87 93.54 C188.87 96.6, 188.72 99.67, 188.42 102.71 C188.11 105.76, 187.66 108.8, 187.06 111.79 C186.45 114.79, 185.7 117.77, 184.8 120.7 C183.91 123.62, 182.86 126.52, 181.68 129.34 C180.5 132.17, 179.17 134.95, 177.72 137.64 C176.27 140.34, 174.67 142.97, 172.96 145.52 C171.24 148.06, 169.39 150.53, 167.44 152.89 C165.48 155.25, 163.39 157.53, 161.21 159.69 C159.03 161.85, 156.73 163.92, 154.34 165.86 C151.96 167.79, 149.47 169.63, 146.9 171.32 C144.34 173.02, 141.67 174.6, 138.95 176.04 C136.23 177.48, 133.42 178.8, 130.57 179.97 C127.72 181.14, 124.8 182.17, 121.85 183.06 C118.9 183.95, 115.89 184.7, 112.86 185.29 C109.83 185.89, 106.76 186.34, 103.69 186.64 C100.62 186.94, 97.52 187.09, 94.44 187.09 C91.35 187.09, 88.25 186.94, 85.18 186.64 C82.11 186.34, 79.04 185.89, 76.01 185.29 C72.99 184.7, 69.97 183.95, 67.02 183.06 C64.07 182.17, 61.15 181.14, 58.3 179.97 C55.45 178.8, 52.64 177.48, 49.92 176.04 C47.2 174.6, 44.54 173.02, 41.97 171.32 C39.4 169.63, 36.91 167.79, 34.53 165.86 C32.14 163.92, 29.84 161.85, 27.66 159.69 C25.48 157.53, 23.39 155.25, 21.44 152.89 C19.48 150.53, 17.63 148.06, 15.92 145.52 C14.2 142.97, 12.61 140.34, 11.15 137.64 C9.7 134.95, 8.37 132.17, 7.19 129.34 C6.01 126.52, 4.96 123.62, 4.07 120.7 C3.17 117.77, 2.42 114.79, 1.81 111.79 C1.21 108.8, 0.76 105.76, 0.45 102.71 C0.15 99.67, 0 96.6, 0 93.54 C0 90.49, 0.15 87.42, 0.45 84.38 C0.76 81.33, 1.21 78.29, 1.81 75.29 C2.42 72.3, 3.17 69.31, 4.07 66.39 C4.96 63.47, 6.01 60.57, 7.19 57.75 C8.37 54.92, 9.7 52.14, 11.15 49.45 C12.61 46.75, 14.2 44.12, 15.92 41.57 C17.63 39.03, 19.48 36.56, 21.44 34.2 C23.39 31.84, 25.48 29.56, 27.66 27.4 C29.84 25.24, 32.14 23.17, 34.53 21.23 C36.91 19.29, 39.4 17.46, 41.97 15.77 C44.54 14.07, 47.2 12.49, 49.92 11.05 C52.64 9.6, 55.45 8.29, 58.3 7.12 C61.15 5.95, 64.07 4.92, 67.02 4.03 C69.97 3.14, 72.99 2.39, 76.01 1.8 C79.04 1.2, 82.11 0.75, 85.18 0.45 C88.25 0.15, 91.35 0, 94.44 0 C97.52 0, 100.62 0.15, 103.69 0.45 C106.76 0.75, 109.83 1.2, 112.86 1.8 C115.89 2.39, 118.9 3.14, 121.85 4.03 C124.8 4.92, 127.72 5.95, 130.57 7.12 C133.42 8.29, 136.23 9.6, 138.95 11.05 C141.67 12.49, 144.34 14.07, 146.9 15.77 C149.47 17.46, 151.96 19.29, 154.34 21.23 C156.73 23.17, 159.03 25.24, 161.21 27.4 C163.39 29.56, 165.48 31.84, 167.44 34.2 C169.39 36.56, 171.24 39.03, 172.96 41.57 C174.67 44.12, 176.27 46.75, 177.72 49.45 C179.17 52.14, 180.5 54.92, 181.68 57.75 C182.86 60.57, 183.91 63.47, 184.8 66.39 C185.7 69.31, 186.45 72.3, 187.06 75.29 C187.66 78.29, 188.11 81.33, 188.42 84.38 C188.72 87.42, 188.8 92.02, 188.87 93.54 C188.95 95.07, 188.95 92.02, 188.87 93.54" stroke="none" stroke-width="0" fill="#000"></path><path d="M188.87 93.54 C188.87 96.6, 188.72 99.67, 188.42 102.71 C188.11 105.76, 187.66 108.8, 187.06 111.79 C186.45 114.79, 185.7 117.77, 184.8 120.7 C183.91 123.62, 182.86 126.52, 181.68 129.34 C180.5 132.17, 179.17 134.95, 177.72 137.64 C176.27 140.34, 174.67 142.97, 172.96 145.52 C171.24 148.06, 169.39 150.53, 167.44 152.89 C165.48 155.25, 163.39 157.53, 161.21 159.69 C159.03 161.85, 156.73 163.92, 154.34 165.86 C151.96 167.79, 149.47 169.63, 146.9 171.32 C144.34 173.02, 141.67 174.6, 138.95 176.04 C136.23 177.48, 133.42 178.8, 130.57 179.97 C127.72 181.14, 124.8 182.17, 121.85 183.06 C118.9 183.95, 115.89 184.7, 112.86 185.29 C109.83 185.89, 106.76 186.34, 103.69 186.64 C100.62 186.94, 97.52 187.09, 94.44 187.09 C91.35 187.09, 88.25 186.94, 85.18 186.64 C82.11 186.34, 79.04 185.89, 76.01 185.29 C72.99 184.7, 69.97 183.95, 67.02 183.06 C64.07 182.17, 61.15 181.14, 58.3 179.97 C55.45 178.8, 52.64 177.48, 49.92 176.04 C47.2 174.6, 44.54 173.02, 41.97 171.32 C39.4 169.63, 36.91 167.79, 34.53 165.86 C32.14 163.92, 29.84 161.85, 27.66 159.69 C25.48 157.53, 23.39 155.25, 21.44 152.89 C19.48 150.53, 17.63 148.06, 15.92 145.52 C14.2 142.97, 12.61 140.34, 11.15 137.64 C9.7 134.95, 8.37 132.17, 7.19 129.34 C6.01 126.52, 4.96 123.62, 4.07 120.7 C3.17 117.77, 2.42 114.79, 1.81 111.79 C1.21 108.8, 0.76 105.76, 0.45 102.71 C0.15 99.67, 0 96.6, 0 93.54 C0 90.49, 0.15 87.42, 0.45 84.38 C0.76 81.33, 1.21 78.29, 1.81 75.29 C2.42 72.3, 3.17 69.31, 4.07 66.39 C4.96 63.47, 6.01 60.57, 7.19 57.75 C8.37 54.92, 9.7 52.14, 11.15 49.45 C12.61 46.75, 14.2 44.12, 15.92 41.57 C17.63 39.03, 19.48 36.56, 21.44 34.2 C23.39 31.84, 25.48 29.56, 27.66 27.4 C29.84 25.24, 32.14 23.17, 34.53 21.23 C36.91 19.29, 39.4 17.46, 41.97 15.77 C44.54 14.07, 47.2 12.49, 49.92 11.05 C52.64 9.6, 55.45 8.29, 58.3 7.12 C61.15 5.95, 64.07 4.92, 67.02 4.03 C69.97 3.14, 72.99 2.39, 76.01 1.8 C79.04 1.2, 82.11 0.75, 85.18 0.45 C88.25 0.15, 91.35 0, 94.44 0 C97.52 0, 100.62 0.15, 103.69 0.45 C106.76 0.75, 109.83 1.2, 112.86 1.8 C115.89 2.39, 118.9 3.14, 121.85 4.03 C124.8 4.92, 127.72 5.95, 130.57 7.12 C133.42 8.29, 136.23 9.6, 138.95 11.05 C141.67 12.49, 144.34 14.07, 146.9 15.77 C149.47 17.46, 151.96 19.29, 154.34 21.23 C156.73 23.17, 159.03 25.24, 161.21 27.4 C163.39 29.56, 165.48 31.84, 167.44 34.2 C169.39 36.56, 171.24 39.03, 172.96 41.57 C174.67 44.12, 176.27 46.75, 177.72 49.45 C179.17 52.14, 180.5 54.92, 181.68 57.75 C182.86 60.57, 183.91 63.47, 184.8 66.39 C185.7 69.31, 186.45 72.3, 187.06 75.29 C187.66 78.29, 188.11 81.33, 188.42 84.38 C188.72 87.42, 188.8 92.02, 188.87 93.54 C188.95 95.07, 188.95 92.02, 188.87 93.54" stroke="#000000" stroke-width="1" fill="none"></path></g><g stroke-linecap="round" transform="translate(165.39842397276925 186.99439876480665) rotate(0 17.818012648555282 22.27251581069413)"><path d="M35.64 22.27 C35.64 23.56, 35.54 24.87, 35.37 26.14 C35.19 27.41, 34.91 28.68, 34.56 29.89 C34.21 31.1, 33.76 32.29, 33.25 33.41 C32.73 34.53, 32.13 35.6, 31.47 36.59 C30.8 37.58, 30.06 38.51, 29.27 39.33 C28.48 40.16, 27.62 40.92, 26.73 41.56 C25.83 42.21, 24.88 42.76, 23.91 43.2 C22.94 43.64, 21.93 43.98, 20.91 44.21 C19.9 44.43, 18.85 44.55, 17.82 44.55 C16.79 44.55, 15.74 44.43, 14.72 44.21 C13.71 43.98, 12.69 43.64, 11.72 43.2 C10.75 42.76, 9.8 42.21, 8.91 41.56 C8.02 40.92, 7.15 40.16, 6.36 39.33 C5.57 38.51, 4.83 37.58, 4.17 36.59 C3.51 35.6, 2.9 34.53, 2.39 33.41 C1.87 32.29, 1.43 31.1, 1.07 29.89 C0.72 28.68, 0.45 27.41, 0.27 26.14 C0.09 24.87, 0 23.56, 0 22.27 C0 20.98, 0.09 19.67, 0.27 18.4 C0.45 17.14, 0.72 15.87, 1.07 14.65 C1.43 13.44, 1.87 12.25, 2.39 11.14 C2.9 10.02, 3.51 8.94, 4.17 7.96 C4.83 6.97, 5.57 6.04, 6.36 5.21 C7.15 4.38, 8.02 3.63, 8.91 2.98 C9.8 2.34, 10.75 1.78, 11.72 1.34 C12.69 0.9, 13.71 0.56, 14.72 0.34 C15.74 0.11, 16.79 0, 17.82 0 C18.85 0, 19.9 0.11, 20.91 0.34 C21.93 0.56, 22.94 0.9, 23.91 1.34 C24.88 1.78, 25.83 2.34, 26.73 2.98 C27.62 3.63, 28.48 4.38, 29.27 5.21 C30.06 6.04, 30.8 6.97, 31.47 7.96 C32.13 8.94, 32.73 10.02, 33.25 11.14 C33.76 12.25, 34.21 13.44, 34.56 14.65 C34.91 15.87, 35.19 17.14, 35.37 18.4 C35.54 19.67, 35.59 21.63, 35.64 22.27 C35.68 22.92, 35.68 21.63, 35.64 22.27" stroke="none" stroke-width="0" fill="#fff"></path><path d="M35.64 22.27 C35.64 23.56, 35.54 24.87, 35.37 26.14 C35.19 27.41, 34.91 28.68, 34.56 29.89 C34.21 31.1, 33.76 32.29, 33.25 33.41 C32.73 34.53, 32.13 35.6, 31.47 36.59 C30.8 37.58, 30.06 38.51, 29.27 39.33 C28.48 40.16, 27.62 40.92, 26.73 41.56 C25.83 42.21, 24.88 42.76, 23.91 43.2 C22.94 43.64, 21.93 43.98, 20.91 44.21 C19.9 44.43, 18.85 44.55, 17.82 44.55 C16.79 44.55, 15.74 44.43, 14.72 44.21 C13.71 43.98, 12.69 43.64, 11.72 43.2 C10.75 42.76, 9.8 42.21, 8.91 41.56 C8.02 40.92, 7.15 40.16, 6.36 39.33 C5.57 38.51, 4.83 37.58, 4.17 36.59 C3.51 35.6, 2.9 34.53, 2.39 33.41 C1.87 32.29, 1.43 31.1, 1.07 29.89 C0.72 28.68, 0.45 27.41, 0.27 26.14 C0.09 24.87, 0 23.56, 0 22.27 C0 20.98, 0.09 19.67, 0.27 18.4 C0.45 17.14, 0.72 15.87, 1.07 14.65 C1.43 13.44, 1.87 12.25, 2.39 11.14 C2.9 10.02, 3.51 8.94, 4.17 7.96 C4.83 6.97, 5.57 6.04, 6.36 5.21 C7.15 4.38, 8.02 3.63, 8.91 2.98 C9.8 2.34, 10.75 1.78, 11.72 1.34 C12.69 0.9, 13.71 0.56, 14.72 0.34 C15.74 0.11, 16.79 0, 17.82 0 C18.85 0, 19.9 0.11, 20.91 0.34 C21.93 0.56, 22.94 0.9, 23.91 1.34 C24.88 1.78, 25.83 2.34, 26.73 2.98 C27.62 3.63, 28.48 4.38, 29.27 5.21 C30.06 6.04, 30.8 6.97, 31.47 7.96 C32.13 8.94, 32.73 10.02, 33.25 11.14 C33.76 12.25, 34.21 13.44, 34.56 14.65 C34.91 15.87, 35.19 17.14, 35.37 18.4 C35.54 19.67, 35.59 21.63, 35.64 22.27 C35.68 22.92, 35.68 21.63, 35.64 22.27" stroke="#000000" stroke-width="1" fill="none"></path></g><g stroke-linecap="round"><g transform="translate(230.9711087267126 209.14091845938583) rotate(0 41.090214031769506 -63.987936074906884)"><path d="M1.18 -0.59 C14.99 -21.8, 68.45 -106.71, 81.84 -128.09 M0.34 1.71 C14.15 -19.75, 67.88 -108.17, 81.32 -129.69" stroke="#000000" stroke-width="1" fill="none"></path></g></g><g stroke-linecap="round"><g transform="translate(318.85603284174954 74.56712840823639) rotate(0 37.964131638309595 79.98858453215007)"><path d="M-0.59 0.82 C12.3 27.25, 63.79 133.48, 76.52 159.78 M1.3 0.2 C14.19 26.78, 63.79 131.36, 76.1 157.91" stroke="#000000" stroke-width="1" fill="none"></path></g></g><g stroke-linecap="round"><g transform="translate(387.5161298066264 231.11214948814268) rotate(0 -81.499717322538 15.748165494236673)"><path d="M0.82 1 C-3.42 7.09, -10.24 28.14, -24.23 35.95 C-38.22 43.75, -64.3 49.06, -83.11 47.84 C-101.93 46.62, -123.69 39.36, -137.14 28.64 C-150.59 17.91, -159.42 -8.98, -163.82 -16.52 M-0.21 0.47 C-4.67 6.23, -11.53 26.35, -24.93 33.95 C-38.33 41.56, -61.83 46.82, -80.6 46.1 C-99.37 45.38, -123.98 40.01, -137.52 29.63 C-151.06 19.26, -157.73 -8.26, -161.84 -16.15" stroke="#000000" stroke-width="1" fill="none"></path></g></g><g stroke-linecap="round"><g transform="translate(313.3632250845585 75.94033034752829) rotate(0 -26.567797456008066 90.69543969882352)"><path d="M1 0.48 C-7.79 30.44, -44.41 150.61, -53.31 180.54 M0.06 -0.31 C-8.81 29.72, -45.36 151.52, -54.13 181.7" stroke="#000000" stroke-width="1" fill="none"></path></g></g><g stroke-linecap="round"><g transform="translate(318.86890849077554 79.79284770364666) rotate(0 -4.238818242647312 94.30261438673006)"><path d="M0.48 0.24 C-1.15 31.62, -7.31 158, -8.96 189.28 M-0.72 -0.67 C-2.03 30.31, -5.56 156.12, -6.63 187.76" stroke="#000000" stroke-width="1" fill="none"></path></g></g><g stroke-linecap="round"><g transform="translate(316.38395846618187 76.52735173484689) rotate(0 19.94294227266562 89.4423758945909)"><path d="M0.24 -0.72 C6.91 28.98, 34.41 148.66, 40.97 178.7 M-1.09 1.51 C5.43 31.27, 33.99 149.76, 40.63 179.61" stroke="#000000" stroke-width="1" fill="none"></path></g></g></svg>