<svg version="1.1" xmlns="http://www.w3.org/2000/svg" viewBox="0 0 413.1492529628317 422.1252633044496" width="413.1492529628317" height="422.1252633044496">
  <!-- svg-source:excalidraw -->
  
  <defs>
    <style class="style-fonts">
      @font-face {
        font-family: "Virgil";
        src: url("https://excalidraw.com/Virgil.woff2");
      }
      @font-face {
        font-family: "Cascadia";
        src: url("https://excalidraw.com/Cascadia.woff2");
      }
    </style>
  </defs>
  <g stroke-linecap="round" transform="translate(10 10) rotate(0 196.57462648141586 201.0626316522248)"><path d="M-0.13 -0.14 C112.91 0.75, 223.19 1.29, 392.56 -0.74 M392.31 -0.06 C392.31 148.03, 391.19 293.86, 392.45 402.43 M392.9 401.41 C245.18 405.15, 98.89 404.48, -0.13 402.35 M-0.68 401.03 C0.03 299.61, 1.35 196.85, -0.59 0.07" stroke="transparent" stroke-width="1.5" fill="none" stroke-dasharray="1.5 7"></path></g><g stroke-linecap="round" transform="translate(37.440493034400106 56.20368232525743) rotate(0 43.36772652487491 41.56073791967219)"><path d="M-1.3 -1.42 L86.31 0.44 L88.4 82.99 L-0.78 82.71" stroke="none" stroke-width="0" fill="#fff"></path><path d="M-1.21 0.47 C22.33 2.44, 43.1 0.52, 87.25 1.31 M-0.54 0.98 C26.99 -1.72, 54.42 -1.58, 86.78 -0.49 M84.9 -1.26 C87.72 19.27, 87.69 34.01, 85.62 84.47 M86.77 0.99 C86.93 26.58, 86.5 52.24, 85.81 82.77 M85.18 84.44 C58.71 84.4, 30.44 84.19, 0.85 82.5 M87.47 83.45 C53.08 83.61, 20.86 84.8, -0.47 82.13 M-1.3 82.89 C0.71 55.26, -2.39 27.14, -1.99 -1.63 M-0.76 82.86 C0.74 54.98, 0.86 25.72, -0.02 0" stroke="#000000" stroke-width="1" fill="none"></path></g><g stroke-linecap="round" transform="translate(293.3100795311641 63.070239025032606) rotate(0 43.36772652487491 41.56073791967219)"><path d="M-1.42 -0.42 L87.17 1.67 L86.61 82.34 L-0.41 82.68" stroke="none" stroke-width="0" fill="#fff"></path><path d="M0.47 0.92 C33.16 0.82, 62.78 1.04, 88.05 0.32 M0.98 -0.4 C22.22 0.1, 45.56 0.51, 86.25 -0.88 M85.48 0.87 C88.36 26.97, 85.49 51.17, 88.08 83.47 M87.73 0.42 C86.58 22.66, 85.85 44.4, 86.38 83.28 M88.06 82.45 C59.72 80.86, 31.92 83.3, -0.63 84.79 M87.06 82.74 C61.05 84.43, 36.88 83.28, -0.99 83.41 M-0.23 84.31 C-0.94 51.53, -1.75 21.78, -1.63 0.82 M-0.26 83.81 C-0.52 59.43, -1.43 34.09, 0 -0.65" stroke="#000000" stroke-width="1" fill="none"></path></g><g stroke-linecap="round" transform="translate(33.10372038191804 279.9088716493943) rotate(0 43.36772652487491 41.56073791967219)"><path d="M-0.42 0.44 L88.4 -0.13 L85.96 82.71 L-0.44 81.9" stroke="none" stroke-width="0" fill="#fff"></path><path d="M0.92 1.62 C18.09 -0.5, 36.1 1.11, 87.05 -0.65 M-0.4 -0.99 C32.96 -1.7, 66.7 -1.34, 85.85 0.14 M87.6 1.66 C86.81 23.38, 84.86 50.51, 87.08 82.57 M87.16 0.2 C86.76 20.88, 85.84 42.47, 86.89 83.3 M86.06 83.69 C52.09 84.06, 21.48 83.07, 1.67 82.97 M86.35 82.79 C53.18 84.26, 17.81 82.41, 0.28 83.69 M1.18 82.56 C-1.37 53.05, -1.45 24.1, 0.82 -0.1 M0.69 83.32 C1.44 50.27, 0.61 18.82, -0.65 -0.71" stroke="#000000" stroke-width="1" fill="none"></path></g><g stroke-linecap="round" transform="translate(60.56994718099941 75.71915926145084) rotate(0 18.069886052031052 21.683863262437626)"><path d="M0.44 1.67 L36.01 -0.78 L35.73 42.93 L-1.22 44.32" stroke="none" stroke-width="0" fill="#000"></path><path d="M1.62 0.29 C8.35 0.35, 18.61 0.15, 35.49 1.68 M-0.99 -0.36 C8.05 0.19, 17.31 -0.74, 36.28 -0.04 M37.8 0.83 C34.66 7.93, 37.21 18.42, 35.59 42.52 M36.34 -0.01 C36.04 12.24, 36.21 26.48, 36.32 44.18 M36.71 41.78 C28.47 44.1, 19.45 44.92, -0.15 45.26 M35.81 44.04 C23.5 42.76, 8.17 43.51, 0.57 43.82 M-0.56 41.45 C-1.32 31.19, -1.58 23.81, -0.1 1.74 M0.2 44.18 C-0.6 33.62, 0.11 23.25, -0.71 -0.21" stroke="#000000" stroke-width="1" fill="none"></path></g><g stroke-linecap="round" transform="translate(316.4395336777593 77.16475014561183) rotate(0 18.069886052031052 21.683863262437626)"><path d="M1.67 -0.13 L35.36 -0.41 L35.7 42.15 L0.95 44.62" stroke="none" stroke-width="0" fill="#000"></path><path d="M0.29 -0.3 C12.2 1.02, 23.7 -0.94, 37.82 -1.07 M-0.36 -0.85 C14.44 -0.13, 27.92 0.5, 36.1 -0.92 M36.97 -1.21 C35.22 11.63, 36.68 20.02, 35.29 43.44 M36.13 -0.53 C35.4 16.96, 36.48 34.8, 36.95 42.59 M34.55 43.73 C23.77 42.85, 11.36 43.32, 1.89 44.83 M36.81 44.22 C23.65 42.26, 12.39 43.82, 0.45 42.72 M-1.91 42 C-2.24 29.23, 0.56 18.24, 1.74 -1.51 M0.82 42.66 C-0.32 31.48, -0.95 18.89, -0.21 0.22" stroke="#000000" stroke-width="1" fill="none"></path></g><g stroke-linecap="round" transform="translate(57.67876541267401 299.06295086455884) rotate(0 18.069886052031052 21.683863262437626)"><path d="M-0.13 -0.78 L35.73 -0.44 L34.92 44.32 L1.25 41.84" stroke="none" stroke-width="0" fill="#000"></path><path d="M-0.3 0.51 C13.82 0.26, 24.37 1.63, 35.06 1.97 M-0.85 0.04 C8.91 -0.75, 18.93 0.09, 35.22 -0.63 M34.93 -1.11 C37.85 15.24, 35.95 28.93, 36.21 45.35 M35.61 -0.93 C35.87 14.99, 36.41 30.48, 35.36 44.03 M36.5 44.22 C25.89 44.75, 16.73 44.97, 1.46 44.02 M36.99 42.9 C25.69 43.9, 17.8 44.06, -0.65 43.25 M-1.37 41.38 C-1.5 28.61, 0.02 13.95, -1.51 -0.52 M-0.71 43.35 C-0.09 26.7, -0.79 11.13, 0.22 0.83" stroke="#000000" stroke-width="1" fill="none"></path></g><g stroke-linecap="round" transform="translate(146.58260478866896 65.60002307231025) rotate(0 9.034943026015299 12.648920236421873)"><path d="M-0.78 -0.41 L17.63 -1.22 L19.02 26.55 L-1.52 24.87" stroke="none" stroke-width="0" fill="#000"></path><path d="M0.46 1.18 C7.17 -0.56, 15.29 -0.94, 19.85 -0.72 M0.04 -0.44 C2.83 0.28, 7.22 -0.67, 17.5 0.39 M16.96 1.35 C18.52 9.14, 17.33 19.45, 20.05 26.14 M17.14 -0.35 C18.22 8.27, 18.88 15.4, 18.73 24.96 M18.84 24.73 C13.64 25.19, 7.9 26.65, 0.59 24.6 M17.64 24.4 C13.51 25.97, 8.83 24.86, -0.1 25.83 M-1.99 23.67 C1.06 18.32, 1.98 10.03, -0.52 1.38 M-0.02 25.29 C-0.86 16.49, -0.42 9.33, 0.83 -0.06" stroke="#000000" stroke-width="1" fill="none"></path></g><g stroke-linecap="round" transform="translate(169.3507129363545 63.967554054559514) rotate(0 9.034943026015299 12.648920236421873)"><path d="M-0.41 -0.44 L16.85 0.95 L19.32 23.77 L-0.43 27.2" stroke="none" stroke-width="0" fill="#000"></path><path d="M1.18 0.29 C5.1 1.48, 10.4 1.73, 17.34 -1.79 M-0.44 -0.8 C4.9 -0.05, 8.71 -0.58, 18.46 0.75 M19.42 0.35 C17.37 7.79, 17.99 19.27, 18.91 25.69 M17.71 0.15 C18.12 8.38, 17.16 15.8, 17.73 25.58 M17.5 26.81 C13.94 27.08, 11.42 25.96, -0.69 24.7 M17.17 25.56 C11.95 25.62, 4.21 25.11, 0.54 25.04 M-1.63 26.12 C0.07 21.86, -1.34 14.44, 1.38 0.4 M0 24.65 C-0.53 15.44, 0.4 6.83, -0.06 -0.39" stroke="#000000" stroke-width="1" fill="none"></path></g><g stroke-linecap="round" transform="translate(217.0552121137216 63.967554054559514) rotate(0 9.034943026015299 12.648920236421873)"><path d="M-0.44 -1.22 L19.02 1.25 L16.55 24.87 L1.9 24.46" stroke="none" stroke-width="0" fill="#000"></path><path d="M0.29 -0.59 C6.67 -1.09, 12.08 -0.84, 16.28 -0.65 M-0.8 0.13 C3.85 -0.74, 7.2 0.48, 18.82 0.38 M18.42 -0.55 C17.08 6.13, 19.91 12.97, 18.47 25.28 M18.22 0.18 C18.65 5.47, 18.5 12.16, 18.36 24.5 M19.58 25.16 C14.03 26.56, 7.16 24.55, -0.6 26.51 M18.33 25.81 C11.51 24.53, 4.04 25.65, -0.25 24.43 M0.82 25.19 C1.99 17.93, -0.27 14.97, 0.4 1.63 M-0.65 24.59 C-0.21 19.72, 0.84 13.64, -0.39 -0.2" stroke="#000000" stroke-width="1" fill="none"></path></g><g stroke-linecap="round" transform="translate(147.66684967392007 94.3249626219822) rotate(0 9.034943026015299 12.648920236421873)"><path d="M-1.22 0.95 L19.32 -1.52 L17.64 27.2 L-0.84 26.86" stroke="none" stroke-width="0" fill="#000"></path><path d="M-0.59 1.52 C4.91 1.75, 11.04 -1.82, 17.42 -1.54 M0.13 -0.04 C4.67 -0.41, 11.38 0.91, 18.45 -0.54 M17.52 -0.85 C18.31 8.17, 19.08 12.76, 18.05 24.24 M18.25 0.81 C17.2 5.91, 17.64 10.78, 17.28 25.48 M17.93 27.01 C13.2 26.04, 4.99 24.85, 1.21 26.84 M18.59 25.71 C12.91 25.25, 9.47 25.1, -0.86 24.68 M-0.1 27.03 C-1.3 19.7, 1.59 15.55, 1.63 -1.42 M-0.71 25.09 C0.22 18.58, -0.06 9.81, -0.2 -0.22" stroke="#000000" stroke-width="1" fill="none"></path></g><g stroke-linecap="round" transform="translate(199.70812150376923 92.82952377629954) rotate(0 9.034943026015299 12.648920236421873)"><path d="M0.95 1.25 L16.55 -0.43 L19.97 24.46 L1.57 23.75" stroke="none" stroke-width="0" fill="#000"></path><path d="M1.52 -0.97 C8.38 -0.67, 11.42 -0.6, 16.53 0.08 M-0.04 -0.83 C3.97 0.36, 9.83 0.35, 17.53 -0.5 M17.22 0.07 C20.1 10.13, 18.51 18.57, 17.01 23.45 M18.88 -0.78 C18.77 6.36, 18.39 12.59, 18.25 25.72 M19.78 26.62 C13.8 24.59, 7.76 26.5, 1.54 24.44 M18.48 24.71 C14.34 25.94, 10.56 24.54, -0.62 24.4 M1.74 23.79 C-0.62 21.15, 0.3 15.86, -1.42 -0.03 M-0.21 25.52 C1 17.65, -0.23 9.93, -0.22 -0.61" stroke="#000000" stroke-width="1" fill="none"></path></g><g stroke-linecap="round" transform="translate(173.68748558884477 123.18693234370585) rotate(0 9.034943026015299 12.648920236421873)"><path d="M1.25 -1.52 L17.64 1.9 L17.23 26.86 L-1.55 23.55" stroke="none" stroke-width="0" fill="#000"></path><path d="M-0.97 1.78 C4.98 -1.94, 10.76 -1.69, 18.15 -0.88 M-0.83 -0.57 C4.22 0.76, 8.03 -0.54, 17.57 0.61 M18.14 1.98 C18.84 8.43, 17.98 15, 16.22 24.59 M17.29 0.66 C17.78 8.26, 17.32 16.14, 18.5 24.98 M19.39 25.89 C10.44 24.87, 5.42 27.01, -0.85 23.51 M17.48 25.19 C12.67 25.13, 5.33 24.76, -0.9 24.56 M-1.51 24.78 C1.4 17.07, 1.64 6.63, -0.03 -0.01 M0.22 26.13 C0.12 18.96, -0.03 13.19, -0.61 0.48" stroke="#000000" stroke-width="1" fill="none"></path></g><g stroke-linecap="round" transform="translate(199.70812150376923 149.2075682586301) rotate(0 9.034943026015299 12.648920236421873)"><path d="M-1.52 -0.43 L19.97 -0.84 L19.64 23.75 L-1.75 26.28" stroke="none" stroke-width="0" fill="#000"></path><path d="M1.78 -0.72 C3.04 -0.56, 8.13 0.17, 17.19 -1.59 M-0.57 0.39 C6.43 0.54, 10.82 -0.34, 18.68 0.16 M20.05 0.84 C18.36 6.88, 16.9 11.94, 17.36 25.61 M18.73 -0.34 C18.56 7.25, 18.46 16.52, 17.76 26.13 M18.66 24.6 C12.19 26.64, 9.05 24.58, -1.79 25.81 M17.97 25.83 C11.36 24.32, 4.55 24.28, -0.73 25.67 M-0.52 26.68 C0.18 19.47, -1.64 10.35, -0.01 -1.3 M0.83 25.23 C-0.34 19.29, -0.17 13.09, 0.48 0.63" stroke="#000000" stroke-width="1" fill="none"></path></g><g stroke-linecap="round" transform="translate(173.68748558884477 149.2075682586301) rotate(0 9.034943026015299 12.648920236421873)"><path d="M-0.43 1.9 L17.23 1.57 L16.52 23.55 L0.98 26.35" stroke="none" stroke-width="0" fill="#000"></path><path d="M-0.72 -1.79 C6.29 -1.72, 13.96 -1.06, 16.48 0.26 M0.39 0.75 C5.72 -0.43, 10.19 0.72, 18.23 -0.25 M18.91 0.4 C18.06 5.46, 16.23 12.32, 18.38 25.66 M17.73 0.29 C17.08 9.82, 18.3 18.97, 18.91 25.22 M17.38 24.7 C12.15 26.9, 2.96 23.57, 0.51 26.33 M18.6 25.04 C10.97 24.66, 4.69 24.54, 0.37 25.25 M1.38 25.7 C1.82 14.1, 0.16 5.72, -1.3 -1.42 M-0.06 24.91 C-0.26 18.02, -0.67 11.66, 0.63 -0.76" stroke="#000000" stroke-width="1" fill="none"></path></g><g stroke-linecap="round" transform="translate(104.299123149043 149.2075682586301) rotate(0 9.034943026015299 12.648920236421873)"><path d="M1.9 -0.84 L19.64 -1.55 L16.32 26.28 L1.05 24.86" stroke="none" stroke-width="0" fill="#000"></path><path d="M-1.79 -0.65 C2.91 0.15, 8.02 -1.52, 18.33 -0.08 M0.75 0.38 C3.22 -0.58, 8.14 0.08, 17.82 -0.38 M18.47 -0.02 C17.26 5.83, 17.61 15.66, 18.43 26.92 M18.36 -0.79 C18.42 6.05, 17.92 12.08, 17.99 26.24 M17.47 26.51 C12.87 24.37, 2.79 25.74, 1.03 26.12 M17.82 24.43 C13.21 24.51, 8.84 25.78, -0.05 26.08 M0.4 26.93 C-1.35 19.59, 0.06 12.64, -1.42 -0.42 M-0.39 25.09 C-0.43 16.55, 0.27 9.64, -0.76 -0.22" stroke="#000000" stroke-width="1" fill="none"></path></g><g stroke-linecap="round" transform="translate(65.26816927665618 149.2075682586301) rotate(0 9.034943026015299 12.648920236421873)"><path d="M-0.84 1.57 L16.52 -1.75 L19.05 26.35 L-0.44 26.55" stroke="none" stroke-width="0" fill="#000"></path><path d="M-0.65 -1.54 C7.28 -0.7, 12.81 0.44, 17.99 -1.66 M0.38 -0.54 C3.78 0.46, 8.73 -0.4, 17.69 0.03 M18.05 -1.06 C16.33 9.39, 18.48 20.56, 19.69 23.74 M17.28 0.18 C18.41 8.95, 18.82 18.44, 19.02 26.03 M19.28 26.84 C11.21 23.45, 6.57 26.27, 0.82 24.12 M17.21 24.68 C11.96 24.51, 8.01 25.2, 0.78 24.62 M1.63 23.88 C-0.21 18.36, -1.48 10.02, -0.42 0.44 M-0.2 25.08 C-0.59 16.08, 0.64 5.14, -0.22 0.95" stroke="#000000" stroke-width="1" fill="none"></path></g><g stroke-linecap="round" transform="translate(47.92107866670767 149.2075682586301) rotate(0 9.034943026015299 12.648920236421873)"><path d="M1.57 -1.55 L16.32 0.98 L19.12 24.86 L1.25 25.63" stroke="none" stroke-width="0" fill="#000"></path><path d="M-1.54 0.08 C3.82 -1.53, 9.65 -0.01, 16.41 -1.14 M-0.54 -0.5 C6.81 0.08, 12.16 -0.46, 18.1 0.9 M17.01 -1.85 C17.41 8.96, 18.48 18.93, 16.52 26.62 M18.25 0.43 C17.83 7.58, 18.07 14.42, 18.8 25.62 M19.61 24.44 C11.55 25.93, 9.64 26.24, -1.18 25.09 M17.45 24.4 C10.84 25.5, 5.04 25.91, -0.68 25.06 M-1.42 25.26 C-0.06 14.66, -1.47 6.2, 0.44 1.67 M-0.22 24.69 C0.58 18.5, -0.66 10.23, 0.95 -0.42" stroke="#000000" stroke-width="1" fill="none"></path></g><g stroke-linecap="round" transform="translate(86.95203253909472 179.5649768260373) rotate(0 9.034943026015299 12.648920236421873)"><path d="M-1.55 -1.75 L19.05 1.05 L17.63 26.55 L0.34 23.51" stroke="none" stroke-width="0" fill="#000"></path><path d="M0.08 -0.88 C2.04 0.42, 7.18 -1.5, 16.93 0.78 M-0.5 0.61 C7.08 -0.14, 13.46 0.14, 18.97 0.38 M16.22 -0.71 C18.38 8.45, 19.69 14.63, 19.39 24.63 M18.5 -0.31 C18.71 8.24, 18.82 17.36, 18.4 24.91 M17.22 23.51 C13.76 26.48, 9.24 24.28, -0.21 26.37 M17.17 24.56 C13.53 25.13, 9.03 24.49, -0.23 25.92 M-0.03 25.29 C-1.51 15.79, -0.63 9.54, 1.67 -0.13 M-0.61 25.77 C0.68 17.93, -0.16 13.04, -0.42 0.78" stroke="#000000" stroke-width="1" fill="none"></path></g><g stroke-linecap="round" transform="translate(173.68748558884477 179.5649768260373) rotate(0 9.034943026015299 12.648920236421873)"><path d="M-1.75 0.98 L19.12 -0.44 L19.32 25.63 L-1.79 24.27" stroke="none" stroke-width="0" fill="#000"></path><path d="M-0.88 -1.59 C5.03 -0.08, 7.88 -1.14, 18.85 1.5 M0.61 0.16 C5.93 -0.28, 12.38 1, 18.45 0.18 M17.36 0.31 C18.3 9.19, 16.38 16.46, 17.4 25.87 M17.76 0.84 C18.04 6.53, 18.85 11.49, 17.69 24.97 M16.28 25.81 C12.47 26.03, 3.63 25, 1.07 24.79 M17.34 25.67 C14.33 25.9, 10 24.88, 0.63 25.48 M-0.01 24 C-1.24 15.23, 0.62 7.66, -0.13 -0.78 M0.48 25.92 C-0.71 18.01, 1.01 10.74, 0.78 -0.78" stroke="#000000" stroke-width="1" fill="none"></path></g><g stroke-linecap="round" transform="translate(147.66684967392007 179.5649768260373) rotate(0 9.034943026015299 12.648920236421873)"><path d="M0.98 1.05 L17.63 1.25 L18.41 23.51 L-1.02 26.51" stroke="none" stroke-width="0" fill="#000"></path><path d="M-1.59 0.26 C3.81 -1.57, 6.63 0.87, 19.57 0.75 M0.16 -0.25 C3.95 -0.09, 9.56 0.26, 18.25 -0.01 M18.38 0.36 C19.46 4.7, 19.16 11.83, 18.64 23.71 M18.91 -0.08 C19.12 8.78, 18.5 15.72, 17.74 25.97 M18.58 26.33 C11.92 23.94, 3.93 26.19, -0.51 23.57 M18.44 25.25 C14.67 24.47, 9.47 25.78, 0.18 26.03 M-1.3 23.88 C-0.42 19.94, 1.67 13.57, -0.78 -0.41 M0.63 24.54 C-0.06 19.21, -0.27 12.01, -0.78 -0.87" stroke="#000000" stroke-width="1" fill="none"></path></g><g stroke-linecap="round" transform="translate(127.6279691417351 156.68476248706156) rotate(0 9.034943026015299 12.648920236421873)"><path d="M1.05 -0.44 L19.32 0.34 L16.28 24.27 L1.21 26.06" stroke="none" stroke-width="0" fill="#000"></path><path d="M0.26 -0.08 C3.84 -0.98, 11.78 1.66, 18.82 -1.09 M-0.25 -0.38 C4.45 0.86, 9.21 0.15, 18.06 -0.48 M18.43 1.62 C16.43 6.57, 17.31 11.07, 16.48 25.66 M17.99 0.95 C18.72 8.99, 17.61 17, 18.74 26.15 M19.1 26.12 C12.33 25.14, 10.01 24.84, -1.73 24.06 M18.02 26.08 C13.76 25.14, 11.44 25.55, 0.74 24.66 M-1.42 24.88 C0.44 19.42, -0.13 9.42, -0.41 -0.44 M-0.76 25.08 C0.83 18.83, 0.66 12.43, -0.87 0.49" stroke="#000000" stroke-width="1" fill="none"></path></g><g stroke-linecap="round" transform="translate(224.13982778408945 128.78231430252163) rotate(0 9.034943026015299 12.648920236421873)"><path d="M-0.44 1.25 L18.41 -1.79 L17.05 26.51 L0.76 24.68" stroke="none" stroke-width="0" fill="#000"></path><path d="M-0.08 -1.66 C3.41 0.76, 10.58 0.73, 16.98 -1.01 M-0.38 0.03 C7.53 0.43, 13.45 0.04, 17.59 -0.84 M19.69 -1.55 C19.43 6.02, 18.68 11.79, 18.43 26.15 M19.02 0.73 C18.61 6.41, 17.95 14.27, 18.92 24.83 M18.89 24.12 C14.23 26.47, 10.3 23.67, -1.24 23.5 M18.85 24.62 C13.88 25.91, 10.35 26.02, -0.64 25.28 M-0.42 25.73 C1.83 17.59, -0.62 9.73, -0.44 -1.22 M-0.22 26.25 C-0.58 17.29, -0.93 6.83, 0.49 0.53" stroke="#000000" stroke-width="1" fill="none"></path></g><g stroke-linecap="round" transform="translate(246.907935931775 127.14984528477089) rotate(0 9.034943026015299 12.648920236421873)"><path d="M1.25 0.34 L16.28 -1.02 L19.28 26.06 L-0.62 26.02" stroke="none" stroke-width="0" fill="#000"></path><path d="M-1.66 -1.14 C4.61 1.51, 8.41 -1.08, 17.06 1.22 M0.03 0.9 C6.12 0.26, 11.46 -0.4, 17.23 -0.32 M16.52 1.32 C17.44 8.55, 16.53 16.32, 18.92 24.67 M18.8 0.33 C17.67 9.37, 18.72 20.26, 17.6 24.31 M16.89 25.09 C13.2 24.87, 4.47 24.14, -1.8 23.83 M17.39 25.06 C12.53 25.64, 6.48 24.81, -0.02 25.29 M0.44 26.96 C0.05 18.57, -0.23 12.97, -1.22 0.95 M0.95 24.88 C0.98 15.35, -0.68 7.44, 0.53 -0.22" stroke="#000000" stroke-width="1" fill="none"></path></g><g stroke-linecap="round" transform="translate(225.22407266934056 157.5072538521781) rotate(0 9.034943026015299 12.648920236421873)"><path d="M0.34 -1.79 L17.05 1.21 L18.83 24.68 L0.72 24.81" stroke="none" stroke-width="0" fill="#000"></path><path d="M-1.14 0.78 C7.18 0.92, 10.28 -0.84, 19.29 0.31 M0.9 0.38 C5.11 -0.01, 9.38 -0.84, 17.75 0.14 M19.39 -0.67 C18.85 6.46, 18.64 16.95, 17.44 26.97 M18.4 -0.38 C17.98 8.07, 19.16 14.32, 17.08 25.58 M17.86 26.37 C11.11 23.45, 3.93 23.38, -1.47 26.04 M17.84 25.92 C12.92 25.9, 6.77 25.15, 0 24.71 M1.67 25.17 C-0.73 19.09, -0.39 12.48, 0.95 1.25 M-0.42 26.08 C-0.72 18.76, 0.55 14.5, -0.22 0.63" stroke="#000000" stroke-width="1" fill="none"></path></g><g stroke-linecap="round" transform="translate(277.26534449918586 156.01181500649545) rotate(0 9.034943026015299 12.648920236421873)"><path d="M-1.79 -1.02 L19.28 0.76 L17.45 26.02 L-0.49 25.05" stroke="none" stroke-width="0" fill="#000"></path><path d="M0.78 1.5 C6.1 -0.98, 9.68 1.33, 18.38 -0.49 M0.38 0.18 C4.65 -0.66, 8.47 -0.5, 18.21 0.16 M17.4 0.57 C16.29 10, 18.73 18.66, 19.74 25.14 M17.69 -0.33 C18.93 10.84, 17.78 18.97, 18.35 25.87 M19.14 24.79 C10.1 24.04, 3.8 23.81, 0.74 25.2 M18.7 25.48 C11.82 24.61, 4.08 25.25, -0.59 24.66 M-0.13 24.52 C-0.47 17.8, -1.28 12.14, 1.25 -1.52 M0.78 24.52 C-1.11 18.74, 0.28 10.99, 0.63 0.17" stroke="#000000" stroke-width="1" fill="none"></path></g><g stroke-linecap="round" transform="translate(251.24470858426503 186.36922357390176) rotate(0 9.034943026015299 12.648920236421873)"><path d="M-1.02 1.21 L18.83 -0.62 L18.79 24.81 L-0.25 25.27" stroke="none" stroke-width="0" fill="#000"></path><path d="M1.5 0.75 C2.68 -1.08, 8.75 0.24, 17.58 -0.77 M0.18 -0.01 C5.01 -0.91, 10.65 0.06, 18.23 0.73 M18.64 -1.59 C18.6 6.48, 17.61 12.92, 17.92 27.19 M17.74 0.67 C19.01 8.97, 17.16 19.17, 18.64 25.75 M17.56 23.57 C12.59 23.61, 8.11 26.15, -0.09 26.87 M18.25 26.03 C13.37 25.41, 9.95 24.84, -0.64 25.11 M-0.78 24.89 C-0.65 15.94, 0.74 10.27, -1.52 -0.43 M-0.78 24.42 C0.6 15.83, -0.11 5.93, 0.17 -0.9" stroke="#000000" stroke-width="1" fill="none"></path></g><g stroke-linecap="round" transform="translate(277.26534449918586 212.3898594888342) rotate(0 9.034943026015299 12.648920236421873)"><path d="M1.21 0.76 L17.45 0.72 L17.58 25.05 L-0.02 26.04" stroke="none" stroke-width="0" fill="#000"></path><path d="M0.75 -1.09 C3.28 1.07, 8.89 -0.64, 17.3 0.06 M-0.01 -0.48 C6.38 -0.36, 14.56 0.13, 18.8 -0.7 M16.48 0.36 C18.84 8.63, 19.66 18.36, 19.96 26.76 M18.74 0.85 C17.5 7.42, 18.26 17.4, 18.52 24.65 M16.34 24.06 C11.06 23.78, 8.38 25.15, 1.57 23.93 M18.81 24.66 C13.1 25.33, 7.58 24.69, -0.19 25.49 M-0.41 24.86 C-1.2 16.55, 1.27 4.38, -0.43 1.9 M-0.87 25.79 C0.33 18.55, 0.43 12.41, -0.9 -0.51" stroke="#000000" stroke-width="1" fill="none"></path></g><g stroke-linecap="round" transform="translate(251.24470858426503 212.3898594888342) rotate(0 9.034943026015299 12.648920236421873)"><path d="M0.76 -0.62 L18.79 -0.49 L17.82 25.27 L0.74 25.88" stroke="none" stroke-width="0" fill="#000"></path><path d="M-1.09 -1.01 C7.42 0.24, 11.91 -0.84, 18.13 1.79 M-0.48 -0.84 C5.86 0.14, 12.53 0.73, 17.37 0.6 M18.43 0.85 C17.52 8.41, 17.99 15.37, 19.53 25.95 M18.92 -0.47 C16.99 6.9, 18.56 13.69, 17.42 25.18 M16.83 23.5 C10.11 25.87, 4.99 26.69, -1.36 24.83 M17.43 25.28 C11.39 24.86, 4.09 25.25, 0.2 26.05 M-0.44 24.08 C1.05 19.12, -1.43 10.01, 1.9 -0.84 M0.49 25.82 C-0.02 16.35, 0.36 5.26, -0.51 0.61" stroke="#000000" stroke-width="1" fill="none"></path></g><g stroke-linecap="round" transform="translate(251.24470858426503 242.74726805624869) rotate(0 9.034943026015299 12.648920236421873)"><path d="M-0.62 0.72 L17.58 -0.25 L18.05 26.04 L0.58 26.02" stroke="none" stroke-width="0" fill="#000"></path><path d="M-1.01 1.22 C7.23 -0.39, 13.07 0.17, 19.86 0.76 M-0.84 -0.32 C5.92 0.26, 12.29 -0.61, 18.67 -0.3 M18.92 -0.63 C19.54 8.16, 19.76 18.09, 18.72 24.53 M17.6 -0.99 C18.52 7.32, 18.69 12.85, 17.95 25.89 M16.27 23.83 C13.9 25.08, 9.81 23.81, -0.47 26.55 M18.05 25.29 C11.7 24.53, 6.31 25.37, 0.75 25.24 M-1.22 26.25 C1.3 17.17, -0.38 13.99, -0.84 1.57 M0.53 25.08 C0.85 19.84, -0.67 13.53, 0.61 0.38" stroke="#000000" stroke-width="1" fill="none"></path></g><g stroke-linecap="round" transform="translate(225.22407266934056 242.74726805624869) rotate(0 9.034943026015299 12.648920236421873)"><path d="M0.72 -0.49 L17.82 -0.02 L18.81 25.88 L0.72 25.76" stroke="none" stroke-width="0" fill="#000"></path><path d="M1.22 0.31 C5.68 -0.67, 12.41 1.89, 18.83 0.36 M-0.32 0.14 C5.57 0.9, 10.11 0.76, 17.77 0.26 M17.44 1.67 C17.96 7.47, 19.58 11.81, 17.3 24.64 M17.08 0.28 C18.86 9.74, 17.64 18.46, 18.66 25.02 M16.6 26.04 C14.29 26.69, 9.32 24.65, 1.25 25.66 M18.07 24.71 C10.54 25.1, 4.48 26.05, -0.06 24.95 M0.95 26.55 C-1.47 17.8, 1.96 10.32, 1.57 -1.55 M-0.22 25.92 C0.04 19.02, -0.64 15.15, 0.38 -0.31" stroke="#000000" stroke-width="1" fill="none"></path></g><g stroke-linecap="round" transform="translate(301.30447222145517 183.66491993917043) rotate(0 9.034943026015299 12.648920236421873)"><path d="M-0.49 -0.25 L18.05 0.74 L18.65 26.02 L0.46 24.24" stroke="none" stroke-width="0" fill="#000"></path><path d="M0.31 -0.49 C3.57 -0.06, 10.46 0.64, 18.43 -0.01 M0.14 0.16 C5.2 -0.64, 9.52 -0.24, 18.33 -0.72 M19.74 -0.15 C20.07 9.52, 18.83 15.33, 17.41 26.64 M18.35 0.57 C18.4 9.1, 17.84 20.09, 17.79 24.34 M18.81 25.2 C15.46 23.79, 9.24 26.4, 0.36 26.77 M17.48 24.66 C13.74 25.49, 10.54 25.24, -0.35 25.11 M1.25 23.77 C-0.28 20.16, -0.69 12.8, -1.55 -1.75 M0.63 25.47 C-1.03 15.95, 0.47 8.01, -0.31 0.36" stroke="#000000" stroke-width="1" fill="none"></path></g><g stroke-linecap="round" transform="translate(324.0725803691407 182.0324509214197) rotate(0 9.034943026015299 12.648920236421873)"><path d="M-0.25 -0.02 L18.81 0.58 L18.79 25.76 L-1.06 25.22" stroke="none" stroke-width="0" fill="#000"></path><path d="M-0.49 -0.77 C4.48 1.76, 9.59 0.33, 18.06 -0.96 M0.16 0.73 C3.05 0.57, 7.19 0.23, 17.35 0.16 M17.92 1.89 C19.46 9.32, 17.22 16.67, 19.41 27.01 M18.64 0.45 C17.17 6.28, 18.41 12.51, 17.11 24.61 M17.98 26.87 C13.08 24.9, 12.07 25.73, 1.47 24.02 M17.43 25.11 C12.88 25.93, 7.23 24.83, -0.19 25.1 M-1.52 24.87 C1.78 18.41, 1.45 11.66, -1.75 0.98 M0.17 24.4 C-0.46 16.99, 0.44 7.15, 0.36 -0.24" stroke="#000000" stroke-width="1" fill="none"></path></g><g stroke-linecap="round" transform="translate(302.3887171066983 212.3898594888342) rotate(0 9.034943026015299 12.648920236421873)"><path d="M-0.02 0.74 L18.65 0.72 L18.53 24.24 L-0.07 26.33" stroke="none" stroke-width="0" fill="#000"></path><path d="M-0.77 0.06 C8.43 0.81, 13.63 0.03, 17.11 -1.67 M0.73 -0.7 C5.38 -0.34, 9.82 -0.75, 18.23 0.39 M19.96 1.46 C18.93 6.03, 17.62 14.94, 19.78 24.35 M18.52 -0.65 C18.03 5.67, 17.86 9.21, 17.38 24.3 M19.64 23.93 C13.65 26.54, 10.53 26.76, -1.28 25.27 M17.88 25.49 C13.41 25.11, 6.89 24.98, -0.2 24.75 M-0.43 27.2 C-1 18.07, -1.71 5.96, 0.98 1.05 M-0.9 24.79 C0.45 18.65, -0.47 11.6, -0.24 -0.13" stroke="#000000" stroke-width="1" fill="none"></path></g><g stroke-linecap="round" transform="translate(358.7667615890375 206.55764799066128) rotate(0 9.034943026015299 12.648920236421873)"><path d="M0.74 0.58 L18.79 0.46 L17.01 25.22 L1.03 23.66" stroke="none" stroke-width="0" fill="#000"></path><path d="M0.06 1.79 C6.5 0.43, 11.46 -0.88, 16.4 -0.64 M-0.7 0.6 C5.39 0.11, 10.68 0.02, 18.46 -0.28 M19.53 0.65 C17.28 9.04, 19.39 21.12, 17.12 23.32 M17.42 -0.12 C18.81 8.03, 17.26 15.94, 17.08 24.48 M16.71 24.83 C13.16 25.82, 7.22 24.18, -0.03 25.29 M18.27 26.05 C13.77 24.91, 9.39 25.06, -0.55 25.73 M1.9 24.46 C1.76 14.57, -1.56 7.93, 1.05 -0.44 M-0.51 25.9 C0.34 15.82, 0.32 6.71, -0.13 -0.01" stroke="#000000" stroke-width="1" fill="none"></path></g><g stroke-linecap="round" transform="translate(332.7461256741128 236.9150565580685) rotate(0 9.034943026015299 12.648920236421873)"><path d="M0.58 0.72 L18.53 -1.06 L18 26.33 L-1.63 24.43" stroke="none" stroke-width="0" fill="#000"></path><path d="M1.79 0.76 C5.28 -0.02, 8.9 -1.68, 17.43 0.28 M0.6 -0.3 C6.01 -0.58, 11.66 0.53, 17.79 0.76 M18.72 -0.77 C17.65 8.74, 20.02 13.84, 16.09 25.87 M17.95 0.59 C17.9 8.07, 17.5 17.07, 17.26 25.71 M17.6 26.55 C13.1 26.63, 6.13 25.13, -0.01 24.12 M18.82 25.24 C13.58 25.15, 9.59 24.79, 0.43 25.86 M-0.84 26.86 C-1.5 17.89, 1.04 15.02, -0.44 1.25 M0.61 25.68 C-0.08 17.64, -0.02 9.15, -0.01 0.37" stroke="#000000" stroke-width="1" fill="none"></path></g><g stroke-linecap="round" transform="translate(358.7667615890375 262.93569247299274) rotate(0 9.034943026015299 12.648920236421873)"><path d="M0.72 0.46 L17.01 -0.07 L19.1 23.66 L-0.87 25.4" stroke="none" stroke-width="0" fill="#000"></path><path d="M0.76 0.36 C4.64 -1.14, 7.64 -0.82, 18.35 0.33 M-0.3 0.26 C6.17 0.05, 14.16 -0.4, 18.83 -0.07 M17.3 -0.66 C19.6 11.69, 17.31 17.98, 18.64 26.44 M18.66 -0.28 C16.95 8.05, 16.91 16.66, 18.48 25.25 M19.32 25.66 C12.55 23.97, 4.06 25.24, -1.17 24.02 M18.01 24.95 C12.84 25.25, 7.44 25.88, 0.57 24.61 M1.57 23.75 C-1.99 19.24, 0.81 10.77, 1.25 0.34 M0.38 24.99 C0.49 19.73, 0 14.64, 0.37 0.29" stroke="#000000" stroke-width="1" fill="none"></path></g><g stroke-linecap="round" transform="translate(332.7461256741128 262.93569247299274) rotate(0 9.034943026015299 12.648920236421873)"><path d="M0.46 -1.06 L18 1.03 L16.44 24.43 L0.1 25.29" stroke="none" stroke-width="0" fill="#000"></path><path d="M0.36 -0.01 C4.53 -1.75, 10.33 0.2, 18.4 1.46 M0.26 -0.72 C4.18 0.45, 7.75 0.82, 18 0.85 M17.41 1.34 C19.86 8.5, 16.17 19.45, 19.21 26.2 M17.79 -0.96 C17.36 4.95, 17.23 12.3, 18.02 26.17 M18.43 26.77 C12.73 25.39, 9.95 24.25, -1.28 24.92 M17.72 25.11 C12.06 24.73, 6.87 25.85, -0.69 25.1 M-1.55 23.55 C1.09 16.35, -0.34 6.56, 0.34 -1.79 M-0.31 25.66 C-0.4 18.88, -0.17 13.08, 0.29 0.36" stroke="#000000" stroke-width="1" fill="none"></path></g><g stroke-linecap="round" transform="translate(332.7461256741128 293.2931010404154) rotate(0 9.034943026015299 12.648920236421873)"><path d="M-1.06 -0.07 L19.1 -1.63 L17.2 25.4 L-0.01 25.58" stroke="none" stroke-width="0" fill="#000"></path><path d="M-0.01 -0.96 C5.54 -0.68, 14.7 0.29, 19.53 -1.4 M-0.72 0.16 C7 -0.33, 13.98 -0.12, 18.92 0.66 M19.41 1.71 C17.03 6.43, 18.54 17.97, 18.98 24 M17.11 -0.69 C17.23 6.49, 18.63 14.54, 18.94 24.54 M19.54 24.02 C13.09 25.33, 6.99 24.05, -0.38 25.69 M17.88 25.1 C10.59 25.66, 4.78 24.54, -0.19 26.16 M-1.75 26.28 C0.85 18.33, 1.05 12.58, -1.79 -1.02 M0.36 25.05 C-0.22 16.16, 0.28 7.34, 0.36 0.23" stroke="#000000" stroke-width="1" fill="none"></path></g><g stroke-linecap="round" transform="translate(306.72548975918835 293.2931010404154) rotate(0 9.034943026015299 12.648920236421873)"><path d="M-0.07 1.03 L16.44 -0.87 L18.17 25.29 L0.28 26.39" stroke="none" stroke-width="0" fill="#000"></path><path d="M-0.96 -1.67 C5.54 0.28, 12.69 1.47, 16.67 1.19 M0.16 0.39 C4.53 0.9, 9.56 1, 18.73 0.29 M19.78 -0.94 C16 7.19, 19.13 14.14, 16.77 25.07 M17.38 -0.99 C17.19 9.5, 17.95 19.04, 17.31 25.04 M16.79 25.27 C11.39 24.27, 3.45 25.06, 0.39 26.8 M17.87 24.75 C13.19 25.83, 6.77 25.07, 0.86 24.92 M0.98 26.35 C-0.25 16.98, 0.53 4.36, -1.02 1.21 M-0.24 25.17 C0.07 17.12, 0.37 8.55, 0.23 -0.53" stroke="#000000" stroke-width="1" fill="none"></path></g><g stroke-linecap="round" transform="translate(355.3833053396088 155.3388675259448) rotate(0 9.034943026015299 12.648920236421873)"><path d="M1.03 -1.63 L17.2 0.1 L18.06 25.58 L1.1 24.03" stroke="none" stroke-width="0" fill="#000"></path><path d="M-1.67 -0.64 C6.06 0.42, 13.02 -1.31, 19.26 -0.61 M0.39 -0.28 C6.69 -0.1, 12.73 0.63, 18.36 -0.35 M17.12 -1.98 C18.81 7.89, 19.15 12.2, 17.84 26.48 M17.08 -0.81 C18.24 6.83, 18.7 13, 17.81 25.99 M18.04 25.29 C11.11 23.89, 6.12 25.56, 1.51 25.18 M17.52 25.73 C13.92 24.57, 8.44 26.12, -0.38 26.01 M1.05 24.86 C1.47 20.01, -1.57 13.02, 1.21 0.76 M-0.13 25.29 C0.28 18.78, 0.27 11.92, -0.53 -0.04" stroke="#000000" stroke-width="1" fill="none"></path></g><g stroke-linecap="round" transform="translate(278.66729255595124 292.5453816175659) rotate(0 9.034943026015299 12.648920236421873)"><path d="M-1.63 -0.87 L18.17 -0.01 L18.35 26.39 L-1.26 24.12" stroke="none" stroke-width="0" fill="#000"></path><path d="M-0.64 0.28 C5.73 1.63, 9.41 1.36, 17.46 0.52 M-0.28 0.76 C3.92 0.78, 8.63 0.22, 17.72 -0.3 M16.09 0.57 C19.43 10.19, 16.98 18.35, 19.25 24.74 M17.26 0.41 C17.84 6.04, 17.14 10.08, 18.76 25.5 M18.06 24.12 C9.9 24.91, 4.68 26.8, -0.11 24.59 M18.5 25.86 C12.33 24.99, 8.83 24.81, 0.71 24.6 M-0.44 26.55 C0.21 18.13, -1.15 15.76, 0.76 -0.62 M-0.01 25.67 C0.35 17.16, 0.29 7.77, -0.04 0.52" stroke="#000000" stroke-width="1" fill="none"></path></g><g stroke-linecap="round" transform="translate(278.66729255595124 322.9027901849886) rotate(0 9.034943026015299 12.648920236421873)"><path d="M-0.87 0.1 L18.06 0.28 L19.17 24.03 L-1.18 27.17" stroke="none" stroke-width="0" fill="#000"></path><path d="M0.28 0.33 C5.93 -1.34, 10.12 -0.54, 18.59 -1.43 M0.76 -0.07 C6.6 0.72, 11.79 -0.29, 17.77 0.61 M18.64 1.14 C18.86 8.45, 17.72 20.68, 17.51 23.38 M18.48 -0.05 C18.69 5.1, 17.56 12.4, 18.27 26.11 M16.9 24.02 C13.55 25.69, 11.29 25.18, -0.7 24.93 M18.64 24.61 C12.85 26.24, 7.64 26.09, -0.7 24.51 M1.25 25.63 C-1.93 15.44, 1.08 8.39, -0.62 0.72 M0.37 25.59 C0.39 18.56, -0.5 11.32, 0.52 -0.82" stroke="#000000" stroke-width="1" fill="none"></path></g><g stroke-linecap="round" transform="translate(252.64665664103063 322.9027901849886) rotate(0 9.034943026015299 12.648920236421873)"><path d="M0.1 -0.01 L18.35 1.1 L16.81 24.12 L1.87 25.83" stroke="none" stroke-width="0" fill="#000"></path><path d="M0.33 1.46 C2.34 1.16, 6.89 0.49, 16.64 0.33 M-0.07 0.85 C6.85 0.14, 12.04 -0.45, 18.68 0.77 M19.21 0.91 C16.52 6.16, 19 12.23, 16.16 23.93 M18.02 0.87 C17.11 4.82, 18.56 10.35, 18.88 24.59 M16.79 24.92 C13.07 26.69, 7.17 24.48, -0.37 24.9 M17.38 25.1 C14.61 25.03, 10.14 24.71, -0.79 25.74 M0.34 23.51 C-0.97 17.59, 0.82 6.84, 0.72 -0.49 M0.29 25.66 C0.23 17.5, -0.03 11.27, -0.82 -0.43" stroke="#000000" stroke-width="1" fill="none"></path></g><g stroke-linecap="round" transform="translate(223.1878133377122 292.98589502552113) rotate(86.93351449887406 9.034943026015299 12.648920236421873)"><path d="M-0.01 0.28 L19.17 -1.26 L16.89 27.17 L0.53 25.81" stroke="none" stroke-width="0" fill="#000"></path><path d="M1.46 -1.4 C5.97 -0.64, 10.08 -1.47, 18.4 0.77 M0.85 0.66 C5.15 -0.33, 9.41 0.62, 18.84 -0.43 M18.98 -1.3 C17.91 6.27, 17.58 8.25, 16.7 23.31 M18.94 -0.76 C17.91 6.22, 18.37 11.88, 17.36 25.28 M17.69 25.69 C14.16 25.05, 6.54 24.8, -0.4 24.19 M17.88 26.16 C11.41 25.87, 4.8 24.37, 0.44 25.77 M-1.79 24.27 C1.06 19.03, -0.78 11.96, -0.49 -0.25 M0.36 25.53 C-0.62 17.7, 0.42 9.36, -0.43 0.05" stroke="#000000" stroke-width="1" fill="none"></path></g><g stroke-linecap="round" transform="translate(192.87387256399143 294.60985613840694) rotate(86.93351449887406 9.034943026015299 12.648920236421873)"><path d="M0.28 1.1 L16.81 -1.18 L19.94 25.83 L0.51 26" stroke="none" stroke-width="0" fill="#000"></path><path d="M-1.4 1.19 C5.09 0.37, 9.96 0.18, 18.84 -0.57 M0.66 0.29 C6.59 -0.47, 14.47 0.6, 17.64 -0.9 M16.77 -0.23 C19.4 7.75, 16.3 15.25, 16.08 23.67 M17.31 -0.26 C18.75 8.83, 18.87 16.55, 18.05 25.29 M18.46 26.8 C13.71 24.56, 9.21 24.86, -1.1 26.16 M18.93 24.92 C12.22 24.56, 4.17 25.7, 0.47 25.1 M-1.02 26.51 C0.72 15.51, 0.68 6.47, -0.25 -0.02 M0.23 24.77 C-0.11 17.28, -0.89 7.81, 0.05 -0.01" stroke="#000000" stroke-width="1" fill="none"></path></g><g stroke-linecap="round" transform="translate(191.48190589581304 268.6264783323513) rotate(86.93351449887406 9.034943026015299 12.648920236421873)"><path d="M1.1 -1.26 L16.89 1.87 L18.6 25.81 L0.7 25.14" stroke="none" stroke-width="0" fill="#000"></path><path d="M1.19 -0.61 C6.27 -1.29, 11.83 0.91, 17.5 1.51 M0.29 -0.35 C4.98 0.47, 11.34 -0.56, 17.17 0.26 M17.84 1.18 C17.62 7.12, 16.81 16.08, 16.44 26.12 M17.81 0.69 C18.49 8.27, 17.58 14.9, 18.07 24.65 M19.58 25.18 C13.22 24.97, 9.39 24.23, 0.86 26.43 M17.69 26.01 C13.32 24.68, 10.43 25.94, -0.2 25.86 M1.21 26.06 C-0.39 18, -0.26 9.02, -0.02 0.74 M-0.53 25.26 C0.43 16.15, -0.52 8.69, -0.01 0.14" stroke="#000000" stroke-width="1" fill="none"></path></g><g stroke-linecap="round" transform="translate(121.5714418167081 242.14909251796598) rotate(0 9.034943026015299 12.648920236421873)"><path d="M-1.26 -1.18 L19.94 0.53 L18.58 26 L-0.16 26.37" stroke="none" stroke-width="0" fill="#000"></path><path d="M-0.61 0.52 C5.45 0.21, 14.54 -0.68, 19.58 -0.14 M-0.35 -0.3 C7.74 0.71, 13.83 -0.95, 18.33 0.52 M19.25 -0.56 C15.99 7.36, 15.92 15.84, 18.89 25.19 M18.76 0.2 C18.69 9.08, 17.86 19.56, 17.42 24.59 M17.95 24.59 C12.66 25.05, 6.89 26.31, 1.13 23.92 M18.78 24.6 C12.25 25.67, 8.48 25.02, 0.57 25.45 M0.76 24.68 C0.85 19.49, -0.12 14.63, 0.74 0.58 M-0.04 25.81 C-0.88 16.37, -0.01 8.29, 0.14 0.55" stroke="#000000" stroke-width="1" fill="none"></path></g><g stroke-linecap="round" transform="translate(194.39931360158357 211.79168395055967) rotate(0 9.034943026015299 12.648920236421873)"><path d="M-1.18 1.87 L18.6 0.51 L18.77 25.14 L1.08 26.48" stroke="none" stroke-width="0" fill="#000"></path><path d="M0.52 -1.43 C4.35 0.83, 7.47 1.57, 17.93 1.71 M-0.3 0.61 C7.52 -0.36, 12.59 0.33, 18.59 0.41 M17.51 -1.91 C16.67 3.96, 16.41 12.71, 17.97 27.03 M18.27 0.82 C17.3 5.66, 18 10.71, 17.36 25.09 M17.37 24.93 C11.86 24.18, 7.3 26.42, -1.38 24.91 M17.37 24.51 C11.38 25.91, 3.59 26, 0.15 24.49 M-0.62 26.02 C-0.64 18.75, -0.18 13.45, 0.58 0.72 M0.52 24.48 C-0.3 17.18, 0.13 9.09, 0.55 -0.63" stroke="#000000" stroke-width="1" fill="none"></path></g><g stroke-linecap="round" transform="translate(172.71545033914526 242.14909251796598) rotate(0 9.034943026015299 12.648920236421873)"><path d="M1.87 0.53 L18.58 0.7 L17.91 26.37 L1.18 24.05" stroke="none" stroke-width="0" fill="#000"></path><path d="M-1.43 0.33 C7.38 -0.62, 14.74 -0.19, 19.78 1.32 M0.61 0.77 C5.58 -0.84, 12.28 0.58, 18.48 -0.59 M16.16 -1.37 C16.23 5.67, 19.04 14.49, 19.8 23.79 M18.88 -0.71 C18.23 6.93, 17.59 13.16, 17.86 25.52 M17.7 24.9 C10.04 26.09, 5.35 23.85, -0.39 27.02 M17.28 25.74 C13.88 24.96, 9.31 25.31, -0.81 24.84 M0.72 24.81 C-0.35 16.15, 0.65 7.63, 0.72 0.46 M-0.82 24.86 C0.06 19.05, 0.15 13.35, -0.63 -0.59" stroke="#000000" stroke-width="1" fill="none"></path></g><g stroke-linecap="round" transform="translate(134.05835617818298 295.7605751357978) rotate(86.93351449887406 9.034943026015299 12.648920236421873)"><path d="M0.53 0.51 L18.77 -0.16 L19.15 26.48 L-1.25 25.27" stroke="none" stroke-width="0" fill="#000"></path><path d="M0.33 0.77 C4.25 1.65, 9.49 1.85, 19.39 0.59 M0.77 -0.43 C3.83 0.14, 9.97 0.29, 17.48 -0.1 M16.7 -1.99 C16.37 9.91, 17.9 19.91, 16.56 24.78 M17.36 -0.02 C18.12 8.69, 17.41 18.47, 18.29 26.13 M17.67 24.19 C13.63 26.39, 6.08 24.87, 1.72 24.54 M18.51 25.77 C11.03 25.71, 4.55 24.33, -0.46 25.85 M-0.49 25.05 C0.05 17.49, 0.66 8.91, 0.46 -1.06 M-0.43 25.35 C-0.14 17.94, 0.42 9.67, -0.59 0.93" stroke="#000000" stroke-width="1" fill="none"></path></g><g stroke-linecap="round" transform="translate(135.55379502386586 319.6875966667567) rotate(86.93351449887406 9.034943026015299 12.648920236421873)"><path d="M0.51 0.7 L17.91 1.08 L19.25 24.05 L-0.03 23.61" stroke="none" stroke-width="0" fill="#000"></path><path d="M0.77 -0.57 C7.45 -0.17, 13.59 1.29, 18.66 -0.69 M-0.43 -0.9 C5.08 0.36, 10.05 -0.74, 17.97 0.54 M16.08 -1.63 C18.65 6.78, 19.56 12.25, 17.55 26.68 M18.05 0 C17.63 7.39, 18.07 16.41, 18.9 25.23 M16.97 26.16 C14.49 23.88, 8.25 26.98, -0.76 26.71 M18.54 25.1 C14.62 25.54, 9.22 24.92, 0.55 25.64 M-0.25 25.27 C0.65 19.08, 0.63 12.15, -1.06 -0.07 M0.05 25.29 C0.35 16.95, -0.42 6.92, 0.93 0.27" stroke="#000000" stroke-width="1" fill="none"></path></g><g stroke-linecap="round" transform="translate(353.8878664939259 319.6875966667567) rotate(0 9.034943026015299 12.648920236421873)"><path d="M0.7 -0.16 L19.15 1.18 L16.82 25.27 L-1.69 24.86" stroke="none" stroke-width="0" fill="#000"></path><path d="M-0.57 1.51 C3.85 1.63, 9.3 0.51, 17.38 -0.6 M-0.9 0.26 C7.15 0.49, 12.68 -0.02, 18.6 -0.25 M16.44 0.82 C17.79 6.9, 16.39 9.82, 19.45 25.7 M18.07 -0.65 C17.18 9.44, 18.11 20.14, 18.01 24.91 M18.93 26.43 C11.64 24.8, 9.69 24.43, 1.42 23.9 M17.87 25.86 C14.38 24.58, 9.93 25.94, 0.34 25.02 M-0.02 26.04 C0.65 17.52, 0.52 7.24, -0.07 1.03 M-0.01 25.44 C0.66 19.14, -0.48 15.19, 0.27 0.26" stroke="#000000" stroke-width="1" fill="none"></path></g><g stroke-linecap="round" transform="translate(67.95995919888855 207.529683240361) rotate(0 9.034943026015299 12.648920236421873)"><path d="M-0.16 1.08 L19.25 -1.25 L18.04 23.61 L-0.44 25.3" stroke="none" stroke-width="0" fill="#000"></path><path d="M1.51 -0.14 C7.46 1.38, 12.09 -0.64, 17.47 1.21 M0.26 0.52 C7.37 -0.41, 13.82 0.71, 17.82 -0.86 M18.89 -0.1 C19.55 4.35, 17.3 13.1, 18.47 26.93 M17.42 -0.71 C17.85 6.02, 18.9 11.53, 17.68 25.09 M19.2 23.92 C12.66 27.1, 7.26 26.8, -1.4 23.72 M18.64 25.45 C10.95 24.8, 6 25.6, -0.28 25.62 M0.74 25.88 C0.75 18.79, -1.03 11.28, 1.03 -1.63 M0.14 25.85 C-0.64 18.22, 0.92 12.58, 0.26 0.35" stroke="#000000" stroke-width="1" fill="none"></path></g><g stroke-linecap="round" transform="translate(50.61286858893618 207.529683240361) rotate(0 9.034943026015299 12.648920236421873)"><path d="M1.08 1.18 L16.82 -0.03 L16.38 24.86 L0 26.42" stroke="none" stroke-width="0" fill="#000"></path><path d="M-0.14 1.71 C7.52 0.44, 11.69 -0.75, 19.28 1.54 M0.52 0.41 C3.98 -0.16, 9.67 -0.3, 17.21 -0.62 M17.97 1.74 C16.35 4.56, 19.25 10.55, 19.7 23.88 M17.36 -0.21 C18.29 8.38, 18.01 14.7, 17.86 25.08 M16.69 24.91 C15.47 24.65, 10.85 24.01, -1.58 26.19 M18.22 24.49 C11.24 25.96, 5.67 25.13, 0.33 25.08 M0.58 26.02 C0.46 16.96, -0.07 11.79, -1.63 -0.87 M0.55 24.67 C-0.59 18.51, 0.27 10.11, 0.35 -0.08" stroke="#000000" stroke-width="1" fill="none"></path></g><g stroke-linecap="round" transform="translate(92.18606849898902 240.4293378454331) rotate(0 9.034943026015299 12.648920236421873)"><path d="M1.18 -1.25 L18.04 -1.69 L17.63 25.3 L1.12 25.06" stroke="none" stroke-width="0" fill="#000"></path><path d="M1.71 1.32 C5.44 -0.68, 9.11 1.23, 19.61 -0.85 M0.41 -0.59 C3.53 0.43, 7.01 -0.97, 17.45 -0.9 M19.8 -1.51 C17.65 6.92, 18.57 12.69, 16.65 25.26 M17.86 0.22 C18.74 7.52, 17.52 14.96, 17.85 24.69 M17.68 27.02 C11.03 26.58, 4.1 23.58, 0.89 26.25 M17.26 24.84 C13.6 25.67, 7.75 25.65, -0.22 25.18 M0.72 25.76 C-1.16 17.67, 0.94 8.54, -0.87 0.1 M-0.63 24.71 C0.9 17.99, 0.22 10.5, -0.08 0.54" stroke="#000000" stroke-width="1" fill="none"></path></g><g stroke-linecap="round" transform="translate(192.38047115990935 321.18303551243935) rotate(86.93351449887406 9.034943026015299 12.648920236421873)"><path d="M-1.25 -0.03 L16.38 -0.44 L18.07 26.42 L-0.24 26.81" stroke="none" stroke-width="0" fill="#000"></path><path d="M1.32 0.59 C6.24 -0.77, 15.08 1.37, 17.22 -1.79 M-0.59 -0.1 C6.47 -0.34, 11.01 -0.7, 17.17 -0.73 M16.56 -0.52 C19.44 9.03, 19.69 15.84, 18.04 25.29 M18.29 0.83 C17.83 5.56, 17.69 11.67, 17.46 25.77 M19.79 24.54 C12.93 23.86, 3.38 26.15, 0.95 24.9 M17.61 25.85 C11.86 24.86, 5.29 24.92, -0.11 25.29 M0.46 24.24 C-0.15 17.8, -1.71 7.37, 0.1 -0.01 M-0.59 26.23 C0.13 17.61, 0.21 9.32, 0.54 0.59" stroke="#000000" stroke-width="1" fill="none"></path></g><g stroke-linecap="round" transform="translate(163.96713309188954 342.1191793520329) rotate(86.93351449887406 9.034943026015299 12.648920236421873)"><path d="M-0.03 -1.69 L17.63 0 L19.19 25.06 L1.51 26.74" stroke="none" stroke-width="0" fill="#000"></path><path d="M0.59 -0.69 C4.68 1.08, 12.11 -0.99, 16.28 0.51 M-0.1 0.54 C6.2 -0.75, 12.28 -0.78, 17.34 0.37 M17.55 1.38 C18.69 9.09, 16.87 14.88, 18.06 24 M18.9 -0.06 C17.63 5.59, 17.8 10.99, 18.55 25.92 M17.31 26.71 C12.62 23.89, 10.87 26.42, -0.4 26.43 M18.62 25.64 C12.07 25.53, 6.4 25.09, -0.01 25.63 M-1.06 25.22 C0.94 15.34, -0.96 8.75, -0.01 0.28 M0.93 25.56 C0.42 16.67, 0.08 7.88, 0.59 -0.63" stroke="#000000" stroke-width="1" fill="none"></path></g><g stroke-linecap="round" transform="translate(253.69346383300945 340.62374050634935) rotate(0 9.034943026015299 12.648920236421873)"><path d="M-1.69 -0.44 L18.07 1.12 L17.83 26.81 L1.44 24.47" stroke="none" stroke-width="0" fill="#000"></path><path d="M-0.69 -0.6 C8.34 1.48, 13.41 -1.85, 18.58 1.03 M0.54 -0.25 C5.37 -0.6, 11.58 -0.71, 18.44 -0.05 M19.45 0.4 C19.51 8.37, 17.85 19.56, 16.77 23.88 M18.01 -0.39 C17.92 6.84, 17.51 14.59, 18.7 24.54 M19.49 23.9 C11.46 26.11, 8.95 24.82, 1.13 25.6 M18.41 25.02 C14.59 25.19, 10.35 25.4, 0.34 25.56 M-0.07 26.33 C-1.69 15.93, 0.05 8.29, 0.28 1.1 M0.27 25.56 C0.5 19.22, 0.69 13.91, -0.63 -0.01" stroke="#000000" stroke-width="1" fill="none"></path></g><g stroke-linecap="round" transform="translate(331.4562838086499 340.62374050634935) rotate(0 9.034943026015299 12.648920236421873)"><path d="M-0.44 0 L19.19 -0.24 L19.58 26.74 L-0.82 26.17" stroke="none" stroke-width="0" fill="#000"></path><path d="M-0.6 1.21 C8.29 -0.78, 11.7 0.58, 19.1 0.82 M-0.25 -0.86 C3.63 -1, 7.76 0.26, 18.02 0.78 M18.47 1.63 C16.59 5.65, 18 10.06, 16.65 24.88 M17.68 -0.2 C18.06 7.53, 18.76 16.91, 17.31 25.08 M16.67 23.72 C11.82 26.39, 3.39 26.57, 0.3 23.68 M17.79 25.62 C13.35 25.25, 9.07 25.7, 0.26 25.62 M1.03 23.66 C-0.73 17.23, 0.12 9.23, 1.1 -1.26 M0.26 25.65 C-0.32 19.74, 0.36 12.47, -0.01 -0.84" stroke="#000000" stroke-width="1" fill="none"></path></g></svg>