<svg version="1.1" xmlns="http://www.w3.org/2000/svg" viewBox="0 0 413.1492529628317 422.1252633044496" width="413.1492529628317" height="422.1252633044496">
  <!-- svg-source:excalidraw -->
  
  <defs>
    <style class="style-fonts">
      @font-face {
        font-family: "Virgil";
        src: url("https://excalidraw.com/Virgil.woff2");
      }
      @font-face {
        font-family: "Cascadia";
        src: url("https://excalidraw.com/Cascadia.woff2");
      }
    </style>
  </defs>
  <g stroke-linecap="round" transform="translate(10 10) rotate(0 196.57462648141586 201.0626316522248)"><path d="M-0.13 -0.14 C112.91 0.75, 223.19 1.29, 392.56 -0.74 M392.31 -0.06 C392.31 148.03, 391.19 293.86, 392.45 402.43 M392.9 401.41 C245.18 405.15, 98.89 404.48, -0.13 402.35 M-0.68 401.03 C0.03 299.61, 1.35 196.85, -0.59 0.07" stroke="transparent" stroke-width="1.5" fill="none" stroke-dasharray="1.5 7"></path></g><g stroke-linecap="round" transform="translate(33.99213817862437 14.9012894150801) rotate(0 122.12169764031307 111.50241958463357)"><path d="M75.15 8.64 C86.9 2.38, 103.32 1.33, 117.09 0.89 C130.87 0.44, 144.49 2.35, 157.79 5.99 C171.09 9.63, 185.58 15.26, 196.88 22.72 C208.19 30.17, 218.37 39.88, 225.63 50.71 C232.9 61.55, 237.67 75.34, 240.47 87.72 C243.26 100.1, 244.1 112.48, 242.4 125.01 C240.71 137.54, 236.38 151.35, 230.29 162.9 C224.19 174.45, 215.8 185.75, 205.81 194.33 C195.83 202.91, 183.4 209.48, 170.36 214.38 C157.33 219.28, 141.66 223.14, 127.6 223.73 C113.54 224.33, 99.06 221.8, 85.99 217.96 C72.92 214.11, 60.11 208.25, 49.16 200.66 C38.22 193.07, 28.06 183.28, 20.32 172.42 C12.57 161.55, 6.05 147.81, 2.67 135.47 C-0.7 123.14, -1.77 110.89, 0.06 98.38 C1.89 85.88, 7.17 71.81, 13.65 60.45 C20.14 49.08, 27.73 39.32, 38.96 30.18 C50.2 21.04, 72.99 9.6, 81.04 5.62 C89.08 1.64, 86.7 4.4, 87.22 6.29 M150.32 3.18 C163.52 4.46, 176.8 12.58, 188.49 19.43 C200.19 26.28, 212.14 34.38, 220.47 44.28 C228.8 54.18, 234.76 66.65, 238.47 78.84 C242.18 91.02, 243.42 104.63, 242.73 117.39 C242.04 130.14, 239.67 143.53, 234.32 155.38 C228.98 167.23, 220.41 179.11, 210.69 188.49 C200.97 197.88, 188.39 206.24, 176.01 211.69 C163.62 217.14, 149.91 219.92, 136.37 221.19 C122.83 222.45, 108.33 222.14, 94.78 219.28 C81.23 216.41, 66.57 210.61, 55.06 204.01 C43.56 197.41, 33.93 189.83, 25.75 179.66 C17.57 169.49, 10.01 155.37, 5.99 142.99 C1.98 130.61, 1.24 118.07, 1.66 105.38 C2.08 92.69, 3.51 78.58, 8.5 66.83 C13.5 55.08, 22.03 44.25, 31.63 34.87 C41.23 25.5, 53.4 16.13, 66.1 10.57 C78.8 5, 93.92 2.93, 107.82 1.49 C121.71 0.04, 142.59 1.31, 149.46 1.9 C156.34 2.49, 149.29 2.85, 149.09 5.05" stroke="#000000" stroke-width="1" fill="none"></path></g><g stroke-linecap="round"><g transform="translate(204.66579965604888 234.72043009754816) rotate(22.57861255859006 85.92664702578838 70.44696537743584)"><path d="M-0.16 -0.95 C25.49 10.85, 119.41 50.64, 152.76 70.32 C186.1 90, 199.88 105.81, 199.92 117.12 C199.96 128.44, 191.01 150.53, 153.01 138.23 C115.02 125.92, 1.84 59.31, -28.07 43.29 M-1.71 1.16 C24.4 12.67, 121.41 49.05, 154.92 68.59 C188.43 88.13, 200.13 107.15, 199.34 118.41 C198.55 129.67, 187.74 149.11, 150.15 136.15 C112.56 123.19, 3.51 56.49, -26.2 40.64" stroke="#000000" stroke-width="1" fill="none"></path></g></g><g stroke-linecap="round" transform="translate(63.685728916855396 49.79851912796039) rotate(0 92.46095548479468 76.89822040319541)"><path d="M121.58 4.43 C133.22 6.52, 144.22 13.72, 153.57 20.54 C162.92 27.36, 172.3 36.08, 177.66 45.36 C183.03 54.63, 185.97 65.61, 185.75 76.18 C185.52 86.75, 181.65 99.25, 176.31 108.78 C170.97 118.3, 162.94 126.4, 153.72 133.32 C144.49 140.25, 132.57 146.81, 120.94 150.32 C109.3 153.83, 96.14 155.49, 83.9 154.38 C71.66 153.28, 58.58 148.9, 47.5 143.7 C36.43 138.51, 25 131.62, 17.44 123.19 C9.88 114.75, 4.56 103.39, 2.14 93.12 C-0.29 82.85, 0.17 71.68, 2.87 61.57 C5.58 51.47, 11.22 41.13, 18.34 32.49 C25.46 23.86, 35.05 14.96, 45.59 9.77 C56.12 4.58, 68.62 2.28, 81.54 1.36 C94.46 0.45, 115.96 3.34, 123.1 4.27 C130.23 5.21, 124.85 5.9, 124.35 6.96 M70.65 2.83 C82.08 -0.43, 97.04 -0.64, 109.46 1.17 C121.88 2.99, 134.93 7.61, 145.16 13.74 C155.39 19.86, 164.23 29.15, 170.83 37.93 C177.43 46.71, 183.11 56.36, 184.74 66.42 C186.37 76.49, 184.47 88.29, 180.6 98.31 C176.73 108.33, 169.56 118.53, 161.5 126.53 C153.45 134.52, 143.44 141.64, 132.27 146.3 C121.09 150.96, 107.18 154.09, 94.45 154.49 C81.72 154.89, 67.45 152.95, 55.9 148.67 C44.35 144.4, 33.5 136.67, 25.15 128.86 C16.8 121.06, 9.98 111.63, 5.79 101.84 C1.6 92.04, -1.11 80.15, 0.01 70.1 C1.13 60.06, 6.38 50.73, 12.52 41.57 C18.66 32.4, 26.9 21.68, 36.86 15.11 C46.81 8.54, 66.75 4.21, 72.26 2.16 C77.76 0.11, 70 1.63, 69.88 2.81" stroke="#000000" stroke-width="1" fill="none"></path></g><g stroke-linecap="round"><g transform="translate(107.6275691472515 121.20400950235762) rotate(0 55.84652622833221 -13.400713780430578)"><path d="M-1.04 0.75 C7.28 -3.68, 30.82 -26.63, 49.79 -27.52 C68.75 -28.41, 102.52 -8.45, 112.73 -4.58 M0.61 0.09 C8.83 -4.05, 30.37 -24.92, 49.02 -26.01 C67.67 -27.1, 102.19 -9.74, 112.52 -6.45" stroke="#000000" stroke-width="1" fill="none"></path></g></g><g stroke-linecap="round"><g transform="translate(110.15713803314497 160.21637207103777) rotate(176.96961764207137 56.13559101890621 -13.828355011236454)"><path d="M0.75 0.35 C9.13 -3.88, 30.74 -25.34, 49.38 -26.42 C68.02 -27.49, 102.01 -9.76, 112.59 -6.1 M-0.32 -0.51 C7.99 -4.96, 29.63 -27.22, 48.4 -27.99 C67.18 -28.75, 102.03 -8.69, 112.31 -5.1" stroke="#000000" stroke-width="1" fill="none"></path></g></g><g stroke-linecap="round" transform="translate(158.8930494160527 115.71127947355035) rotate(0 10.985460057599312 11.900915062399235)"><path d="M13.4 -0.34 C15.8 -0.07, 18.76 2.26, 20.16 4.34 C21.55 6.42, 21.83 9.35, 21.77 12.13 C21.71 14.91, 21.33 19.16, 19.82 21 C18.3 22.84, 15 23.05, 12.67 23.18 C10.35 23.32, 8.04 23.22, 5.85 21.8 C3.67 20.38, 0.52 17.16, -0.46 14.67 C-1.43 12.18, -1.01 9.26, -0.01 6.86 C1 4.46, 3.07 1.21, 5.55 0.26 C8.03 -0.69, 13.23 1.09, 14.86 1.16 C16.5 1.24, 15.47 0.6, 15.35 0.71 M14.34 0.44 C16.22 0.99, 19.05 2.7, 20.36 5.14 C21.68 7.58, 22.69 12.2, 22.23 15.07 C21.78 17.93, 19.47 20.98, 17.66 22.32 C15.84 23.66, 13.67 23.37, 11.34 23.1 C9 22.84, 5.6 22.45, 3.63 20.73 C1.66 19, -0.3 15.06, -0.49 12.73 C-0.67 10.4, 1.36 8.97, 2.52 6.74 C3.68 4.52, 4.34 0.5, 6.46 -0.6 C8.57 -1.71, 13.66 -0.38, 15.2 0.12 C16.75 0.61, 15.8 2.15, 15.72 2.37" stroke="none" stroke-width="0" fill="#000"></path><path d="M16.62 2 C18.58 3.1, 20.18 5.66, 20.94 7.7 C21.7 9.74, 21.63 12.05, 21.16 14.23 C20.69 16.41, 20.09 19.27, 18.14 20.78 C16.2 22.3, 11.92 23.28, 9.49 23.33 C7.07 23.38, 5 22.65, 3.59 21.08 C2.18 19.51, 1.27 16.64, 1.02 13.91 C0.76 11.17, 0.73 6.89, 2.06 4.65 C3.39 2.41, 6.51 0.74, 9 0.45 C11.5 0.16, 15.42 2.3, 17.02 2.91 C18.62 3.53, 18.59 4.18, 18.59 4.14 M7.53 0.61 C9.76 -0.43, 12.31 0.89, 14.52 1.56 C16.74 2.24, 19.72 2.72, 20.82 4.68 C21.91 6.63, 21.76 10.55, 21.07 13.26 C20.38 15.98, 18.27 19.18, 16.68 20.97 C15.09 22.77, 13.7 23.98, 11.54 24.04 C9.38 24.1, 5.58 23.1, 3.72 21.33 C1.87 19.55, 0.55 15.89, 0.4 13.41 C0.25 10.93, 1.72 8.66, 2.82 6.45 C3.91 4.23, 6.28 1.28, 6.99 0.13 C7.7 -1.01, 6.99 -0.7, 7.07 -0.43" stroke="#000000" stroke-width="1" fill="none"></path></g></svg>