<svg version="1.1" xmlns="http://www.w3.org/2000/svg" viewBox="0 0 413.1492529628317 422.1252633044496" width="413.1492529628317" height="422.1252633044496">
  <!-- svg-source:excalidraw -->
  
  <defs>
    <style class="style-fonts">
      @font-face {
        font-family: "Virgil";
        src: url("https://excalidraw.com/Virgil.woff2");
      }
      @font-face {
        font-family: "Cascadia";
        src: url("https://excalidraw.com/Cascadia.woff2");
      }
    </style>
  </defs>
  <g stroke-linecap="round" transform="translate(10 10) rotate(0 196.57462648141586 201.0626316522248)"><path d="M-0.13 -0.14 C112.91 0.75, 223.19 1.29, 392.56 -0.74 M392.31 -0.06 C392.31 148.03, 391.19 293.86, 392.45 402.43 M392.9 401.41 C245.18 405.15, 98.89 404.48, -0.13 402.35 M-0.68 401.03 C0.03 299.61, 1.35 196.85, -0.59 0.07" stroke="transparent" stroke-width="1.5" fill="none" stroke-dasharray="1.5 7"></path></g><g stroke-linecap="round"><g transform="translate(124.18877668956907 48.19212076945314) rotate(0 48.43090629498499 23.347917123563548)"><path d="M0.96 -1.11 C17.12 6.61, 81.09 38.36, 96.85 46.19 M0.01 0.91 C16.07 8.87, 80.5 40.11, 96.23 47.81" stroke="#000000" stroke-width="1" fill="none"></path></g></g><g stroke-linecap="round"><g transform="translate(122.28275442185941 43.49673948836789) rotate(0 39.04005524367403 -7.009966091637125)"><path d="M-1.11 0.62 C12.11 -1.98, 65.86 -12.27, 79.2 -14.64 M0.5 -0.1 C13.6 -2.64, 65.41 -10.86, 78.33 -13.47" stroke="#000000" stroke-width="1" fill="none"></path></g></g><g stroke-linecap="round"><g transform="translate(211.31273460767238 95.86326784528501) rotate(0 40.08656020828835 -6.974271182541088)"><path d="M0.62 0.16 C13.52 -2, 65.21 -11.59, 78.34 -14.11 M-0.51 -0.8 C12.69 -2.68, 67.47 -10.43, 80.69 -12.66" stroke="#000000" stroke-width="1" fill="none"></path></g></g><g stroke-linecap="round"><g transform="translate(202.14256887936563 18.558027731027323) rotate(0 47.42885671685474 22.840295172800325)"><path d="M0.16 -0.69 C16.36 6.93, 80.23 38.73, 96.07 46.37 M-1.21 1.56 C14.91 8.75, 78.57 37.02, 95.03 44.43" stroke="#000000" stroke-width="1" fill="none"></path></g></g><g stroke-linecap="round"><g transform="translate(120.66825844577352 348.24127088899604) rotate(0 47.944526293114905 22.35772932910413)"><path d="M-0.69 -0.17 C15.3 7.31, 80.57 37.31, 96.58 45.01 M1.14 -1.3 C16.96 6.28, 79.7 37.9, 95.82 46.01" stroke="#000000" stroke-width="1" fill="none"></path></g></g><g stroke-linecap="round"><g transform="translate(118.76223617805977 343.54588960791807) rotate(0 39.24193407544249 -7.222178463463024)"><path d="M-0.17 0.35 C12.81 -2, 64.82 -12.21, 78.02 -14.79 M-1.71 -0.51 C11.61 -2.67, 66.86 -11.38, 80.19 -13.7" stroke="#000000" stroke-width="1" fill="none"></path></g></g><g stroke-linecap="round"><g transform="translate(207.79221636387274 395.9124179648361) rotate(0 39.76293634125341 -6.437129584566719)"><path d="M0.35 -1.02 C13.5 -3.31, 65.27 -11.89, 78.19 -13.94 M-0.93 1.07 C12.66 -1.01, 66.94 -9.66, 80.45 -12.4" stroke="#000000" stroke-width="1" fill="none"></path></g></g><g stroke-linecap="round"><g transform="translate(212.87506919795374 100.0183305040564) rotate(0 -3.629308820344704 151.69758829212924)"><path d="M-1.02 -0.85 C-2.15 49.65, -6.08 252.54, -6.97 303.32 M0.65 1.32 C-0.62 51.89, -6.67 253.66, -7.91 304.24" stroke="#000000" stroke-width="1" fill="none"></path></g></g><g stroke-linecap="round"><g transform="translate(113.81286678937136 134.78131995470721) rotate(0 48.14878310228721 22.801625804282594)"><path d="M-0.85 0.01 C14.94 7.95, 78.98 39, 95.05 46.64 M0.91 -1.03 C17.01 6.64, 81.55 36.82, 97.14 44.84" stroke="#000000" stroke-width="1" fill="none"></path></g></g><g stroke-linecap="round"><g transform="translate(125.53337062070545 134.7003152699781) rotate(0 39.09856590804486 -6.901686246709232)"><path d="M0.01 -1.18 C13.45 -3.48, 66.5 -12.68, 79.65 -14.62 M-1.45 0.81 C11.98 -1.26, 65.78 -10.88, 79.02 -13.43" stroke="#000000" stroke-width="1" fill="none"></path></g></g><g stroke-linecap="round"><g transform="translate(120.694961861097 208.2418766738856) rotate(0 48.371031470550406 23.59140548610185)"><path d="M-1.18 0.61 C14.89 8.25, 79.13 38.42, 95.56 45.85 M0.4 -0.11 C16.94 7.72, 81.78 39.59, 97.92 47.29" stroke="#000000" stroke-width="1" fill="none"></path></g></g><g stroke-linecap="round"><g transform="translate(132.41546569242678 208.16087198917285) rotate(0 39.16589357432758 -6.355103363750459)"><path d="M0.61 -0.67 C13.75 -2.6, 65.92 -10.45, 78.86 -12.79 M-0.52 1.59 C12.44 -0.54, 64.28 -11.75, 77.82 -14.3" stroke="#000000" stroke-width="1" fill="none"></path></g></g><g stroke-linecap="round"><g transform="translate(112.2617642810012 290.00920684556877) rotate(0 48.36062889321272 22.492858532900755)"><path d="M-0.67 -0.18 C15.76 7.25, 81.36 37.65, 97.39 45.2 M1.18 -1.31 C17.65 6.19, 80.91 38.42, 97.05 46.3" stroke="#000000" stroke-width="1" fill="none"></path></g></g><g stroke-linecap="round"><g transform="translate(123.98226811233098 289.92820216084783) rotate(0 39.37706327923877 -6.7619840664906405)"><path d="M-0.18 1.16 C12.76 -1.18, 65.15 -12.35, 78.2 -14.68 M-1.73 0.72 C11.53 -1.42, 66.77 -10.97, 80.48 -13.53" stroke="#000000" stroke-width="1" fill="none"></path></g></g><g stroke-linecap="round"><g transform="translate(300.3991168566122 77.68446282054629) rotate(0 -3.2752852997799664 151.9260962129306)"><path d="M1.16 -0.83 C-0.01 49.8, -6.54 252.69, -7.71 303.61 M0.31 1.35 C-0.42 52.13, -4.32 253.89, -5.38 304.68" stroke="#000000" stroke-width="1" fill="none"></path></g></g><g stroke-linecap="round"><g transform="translate(126.7217725284213 48.8761550063582) rotate(0 -3.4639968586909617 152.43221584599178)"><path d="M-0.83 -0.74 C-2.11 50, -6.87 254.9, -7.87 305.6 M0.94 1.49 C0.05 52.43, -4.22 253.59, -5.62 304.05" stroke="#000000" stroke-width="1" fill="none"></path></g></g></svg>