<svg version="1.1" xmlns="http://www.w3.org/2000/svg" viewBox="0 0 413.1492529628317 422.1252633044496" width="413.1492529628317" height="422.1252633044496">
  <!-- svg-source:excalidraw -->
  
  <defs>
    <style class="style-fonts">
      @font-face {
        font-family: "Virgil";
        src: url("https://excalidraw.com/Virgil.woff2");
      }
      @font-face {
        font-family: "Cascadia";
        src: url("https://excalidraw.com/Cascadia.woff2");
      }
    </style>
  </defs>
  <g stroke-linecap="round" transform="translate(10 10) rotate(0 196.57462648141586 201.0626316522248)"><path d="M-0.13 -0.14 C112.91 0.75, 223.19 1.29, 392.56 -0.74 M392.31 -0.06 C392.31 148.03, 391.19 293.86, 392.45 402.43 M392.9 401.41 C245.18 405.15, 98.89 404.48, -0.13 402.35 M-0.68 401.03 C0.03 299.61, 1.35 196.85, -0.59 0.07" stroke="transparent" stroke-width="1.5" fill="none" stroke-dasharray="1.5 7"></path></g><g stroke-linecap="round"><g transform="translate(297.3487007156041 147.86073748904982) rotate(0 24.182712142848914 11.890212982994399)"><path d="M-0.25 -0.54 C7.85 3.2, 40.49 19.09, 48.61 22.97 M1.82 1.79 C9.75 5.66, 39.95 20.66, 47.58 24.32" stroke="#000000" stroke-width="1" fill="none"></path></g></g><g stroke-linecap="round"><g transform="translate(296.3826433986935 145.48090829235025) rotate(0 19.579713948362723 -3.746566647605505)"><path d="M-0.54 -0.16 C5.99 -1.34, 33.03 -6.08, 39.7 -7.33 M1.37 -1.29 C7.67 -2.27, 32.39 -5.04, 38.57 -5.93" stroke="#000000" stroke-width="1" fill="none"></path></g></g><g stroke-linecap="round"><g transform="translate(341.5070185122936 172.0226065387451) rotate(0 19.04434909816655 -3.9970518532559254)"><path d="M-0.16 -0.36 C6.51 -1.54, 33.19 -6.47, 39.79 -7.64 M-1.71 -1.59 C4.81 -2.57, 32.03 -5.62, 38.71 -6.4" stroke="#000000" stroke-width="1" fill="none"></path></g></g><g stroke-linecap="round"><g transform="translate(336.8591684587043 132.840853988846) rotate(0 23.924942772769896 11.247702907532585)"><path d="M-0.36 -0.26 C7.77 3.55, 40.07 18.72, 48.21 22.72 M1.66 -1.45 C9.62 2.53, 39.32 20.09, 46.96 23.94" stroke="#000000" stroke-width="1" fill="none"></path></g></g><g stroke-linecap="round"><g transform="translate(295.5643446425627 299.9390640735919) rotate(0 25.150708785853 11.900851439339476)"><path d="M-0.26 -0.57 C7.79 3.32, 39.92 19, 48.17 23 M1.8 1.75 C10.27 5.85, 42.75 20.52, 50.56 24.37" stroke="#000000" stroke-width="1" fill="none"></path></g></g><g stroke-linecap="round"><g transform="translate(294.5982873256487 297.5592348768787) rotate(0 19.581904347532486 -3.409571437190607)"><path d="M-0.57 -0.61 C6.11 -1.67, 32.94 -5.58, 39.73 -6.62 M1.33 1.69 C7.86 0.29, 32.25 -7.32, 38.62 -8.51" stroke="#000000" stroke-width="1" fill="none"></path></g></g><g stroke-linecap="round"><g transform="translate(339.7226624392522 324.1009331232799) rotate(0 19.94905634700615 -3.6196417275236854)"><path d="M-0.61 -0.32 C6.19 -1.38, 33.69 -5.92, 40.5 -6.92 M1.28 -1.54 C7.98 -2.33, 33.4 -4.18, 39.79 -5.3" stroke="#000000" stroke-width="1" fill="none"></path></g></g><g stroke-linecap="round"><g transform="translate(342.29887954560036 174.12857809622437) rotate(0 -1.270755288972282 77.09295046281659)"><path d="M-0.32 0.45 C-0.79 26.31, -2.97 128.88, -3.38 154.55 M1.71 -0.36 C1.14 25.16, -3.44 126.51, -4.25 152.54" stroke="#000000" stroke-width="1" fill="none"></path></g></g><g stroke-linecap="round"><g transform="translate(292.0897255984089 191.7480156471256) rotate(0 24.10536622499535 11.630096285295622)"><path d="M0.45 0.15 C8.71 4.22, 40.92 20.17, 48.99 24.07 M-0.78 -0.81 C7.4 2.94, 39.99 18.03, 48.15 22.34" stroke="#000000" stroke-width="1" fill="none"></path></g></g><g stroke-linecap="round"><g transform="translate(298.0302010461385 191.70695885061923) rotate(0 19.788145848771705 -3.3736769381330305)"><path d="M0.15 0.21 C7.01 -1.02, 34.11 -5.68, 40.8 -6.96 M-1.23 -0.72 C5.56 -1.78, 33.43 -4.43, 40.24 -5.37" stroke="#000000" stroke-width="1" fill="none"></path></g></g><g stroke-linecap="round"><g transform="translate(295.57787912754475 228.98111072961456) rotate(0 23.874925231686348 11.83290826554321)"><path d="M0.21 0.74 C8.29 4.65, 40.85 19.82, 48.88 23.58 M-1.13 0.09 C6.75 3.6, 39.9 17.5, 47.99 21.58" stroke="#000000" stroke-width="1" fill="none"></path></g></g><g stroke-linecap="round"><g transform="translate(301.5183545752741 228.94005393310817) rotate(0 19.99095782901918 -3.6686197939679914)"><path d="M0.74 0.11 C7.44 -1.17, 33.76 -6.24, 40.31 -7.44 M-0.32 -0.88 C6.22 -2.01, 32.89 -5.28, 39.49 -6.1" stroke="#000000" stroke-width="1" fill="none"></path></g></g><g stroke-linecap="round"><g transform="translate(291.3035574864839 270.42445005198533) rotate(0 23.552023758640985 12.077202093214055)"><path d="M0.11 0.25 C8.14 4.01, 40.3 19.43, 48.4 23.3 M-1.3 -0.67 C6.53 3.23, 39.05 20.57, 47.25 24.82" stroke="#000000" stroke-width="1" fill="none"></path></g></g><g stroke-linecap="round"><g transform="translate(297.24403293421324 270.3833932554862) rotate(0 19.473952456971688 -3.7480475130842024)"><path d="M0.25 -0.38 C6.8 -1.58, 33.37 -6.06, 40.03 -7.12 M-1.08 -1.62 C5.24 -2.63, 32.3 -4.4, 39.07 -5.61" stroke="#000000" stroke-width="1" fill="none"></path></g></g><g stroke-linecap="round"><g transform="translate(386.65998071362515 162.80877525020605) rotate(0 -1.4665741119522409 77.4974359328312)"><path d="M-0.38 -0.03 C-0.99 25.68, -3.12 128.57, -3.59 154.47 M1.63 -1.09 C0.84 24.81, -3.66 130.3, -4.56 156.08" stroke="#000000" stroke-width="1" fill="none"></path></g></g><g stroke-linecap="round"><g transform="translate(298.6325362747609 148.207436628285) rotate(0 -2.150680648129196 76.78308376741279)"><path d="M-0.03 -0.05 C-0.64 25.79, -2.99 129.06, -3.4 154.69 M-1.5 -1.12 C-2.28 24.38, -4.08 126.78, -4.27 152.75" stroke="#000000" stroke-width="1" fill="none"></path></g></g><g stroke-linecap="round"><g transform="translate(242.82528307736584 121.03472403092474) rotate(0 23.795499529591325 11.78484243626599)"><path d="M-0.05 0.14 C8.2 4.21, 41.09 20.6, 49.13 24.41 M-1.54 -0.84 C6.62 2.93, 40.26 18.69, 48.37 22.85" stroke="#000000" stroke-width="1" fill="none"></path></g></g><g stroke-linecap="round"><g transform="translate(241.85922576045527 118.65489483421152) rotate(0 19.942891999742187 -3.6587950411603742)"><path d="M0.14 0.35 C7 -0.92, 34.54 -6.59, 41.14 -7.67 M-1.25 -0.51 C5.55 -1.62, 34.09 -5.2, 40.75 -6.45" stroke="#000000" stroke-width="1" fill="none"></path></g></g><g stroke-linecap="round"><g transform="translate(282.33575082046605 106.01484053070635) rotate(0 24.82431568400898 12.459432327359991)"><path d="M0.35 1.08 C8.39 4.88, 39.95 19.26, 48.17 22.97 M-0.92 0.6 C7.52 4.57, 42.18 20.32, 50.57 24.32" stroke="#000000" stroke-width="1" fill="none"></path></g></g><g stroke-linecap="round"><g transform="translate(241.04092700432443 273.11305061545954) rotate(0 24.301746174147866 11.827464107716423)"><path d="M1.08 -0.6 C9.13 3.38, 40.47 20.12, 48.42 24.26 M0.19 1.7 C8.03 5.33, 39.31 19.18, 47.28 22.62" stroke="#000000" stroke-width="1" fill="none"></path></g></g><g stroke-linecap="round"><g transform="translate(240.07486968741387 270.7332214187463) rotate(0 20.192281063192695 -3.719366687850652)"><path d="M-0.6 -0.36 C6.17 -1.72, 34.06 -6.03, 40.99 -7.08 M1.28 -1.59 C7.95 -2.23, 33.97 -4.34, 40.53 -5.55" stroke="#000000" stroke-width="1" fill="none"></path></g></g><g stroke-linecap="round"><g transform="translate(237.5663079601743 164.92200218900052) rotate(0 24.20262793817517 12.291510725868193)"><path d="M-0.36 0.93 C7.59 5.07, 40.51 20.4, 48.76 24.21 M1.66 0.37 C9.35 4.23, 39.98 18.99, 47.81 22.55" stroke="#000000" stroke-width="1" fill="none"></path></g></g><g stroke-linecap="round"><g transform="translate(243.50678340790023 164.88094539249414) rotate(0 20.44956028934405 -4.3078529543267905)"><path d="M0.93 -0.01 C7.85 -1.07, 34.34 -5.38, 40.94 -6.68 M-0.04 -1.06 C6.85 -2.46, 33.78 -7.62, 40.46 -8.6" stroke="#000000" stroke-width="1" fill="none"></path></g></g><g stroke-linecap="round"><g transform="translate(241.05446148930992 202.15509727148947) rotate(0 23.841386095336134 12.055257507216993)"><path d="M-0.01 0.88 C8.24 4.7, 41.16 20.03, 49.16 23.81 M-1.48 0.3 C6.68 3.67, 39.76 17.82, 48.42 21.94" stroke="#000000" stroke-width="1" fill="none"></path></g></g><g stroke-linecap="round"><g transform="translate(246.99493693703607 202.11404047498309) rotate(0 20.21330707069319 -3.731385273055821)"><path d="M0.88 0.39 C7.48 -0.92, 33.97 -6.77, 40.54 -7.85 M-0.11 -0.46 C6.29 -1.63, 33.22 -5.48, 39.84 -6.72" stroke="#000000" stroke-width="1" fill="none"></path></g></g><g stroke-linecap="round"><g transform="translate(236.78013984824565 243.59843659386024) rotate(0 24.713615580368355 11.624722519767602)"><path d="M0.39 0.48 C8.39 4.26, 39.77 19.56, 48 23.56 M-0.87 -0.31 C7.52 3.01, 41.9 17.72, 50.3 21.56" stroke="#000000" stroke-width="1" fill="none"></path></g></g><g stroke-linecap="round"><g transform="translate(242.720615295975 243.55737979735386) rotate(0 19.782772083243458 -3.12911972160191)"><path d="M0.48 -0.78 C7.05 -1.86, 33.51 -5.15, 40.29 -6.08 M-0.72 1.43 C5.63 0, 32.51 -6.06, 39.46 -7.68" stroke="#000000" stroke-width="1" fill="none"></path></g></g><g stroke-linecap="round"><g transform="translate(244.10911863652268 121.3814231701599) rotate(0 -0.981407621278322 77.39199862909163)"><path d="M-0.78 0.23 C-1.27 26.07, -2.2 129.61, -2.55 155.47 M1.01 -0.69 C0.42 24.79, -2.27 128.23, -2.97 153.95" stroke="#000000" stroke-width="1" fill="none"></path></g></g><g stroke-linecap="round"><g transform="translate(192.7618941009339 94.82047633629918) rotate(0 24.404414391270507 12.244130546999259)"><path d="M0.23 0.99 C8.47 5.12, 41.64 20.39, 49.91 24.03 M-1.1 0.46 C7.03 4.32, 41.1 18.37, 49.56 22.27" stroke="#000000" stroke-width="1" fill="none"></path></g></g><g stroke-linecap="round"><g transform="translate(191.79583678402173 92.44064713958505) rotate(0 20.40218011047523 -3.206883035658393)"><path d="M0.99 1.14 C7.91 0.1, 34.33 -4.76, 40.76 -5.99 M0.05 0.69 C6.94 -0.68, 33.77 -6.08, 40.17 -7.55" stroke="#000000" stroke-width="1" fill="none"></path></g></g><g stroke-linecap="round"><g transform="translate(232.2723618440325 79.80059283609535) rotate(0 25.062771920910677 12.040882236570269)"><path d="M1.14 0.7 C9.41 4.33, 41.77 18.87, 49.85 22.8 M0.27 0.02 C8.46 3.73, 41.3 20.33, 49.47 24.06" stroke="#000000" stroke-width="1" fill="none"></path></g></g><g stroke-linecap="round"><g transform="translate(190.9775380278927 246.89880292084126) rotate(0 23.92762333517385 12.373061710251022)"><path d="M0.7 1.08 C8.58 4.91, 40.08 20.37, 48.25 24.15 M-0.39 0.6 C7.19 4.61, 38.72 18.95, 47.02 22.46" stroke="#000000" stroke-width="1" fill="none"></path></g></g><g stroke-linecap="round"><g transform="translate(190.01148071098032 244.51897372412714) rotate(0 20.53111127372665 -2.9694404518113515)"><path d="M1.08 -0.53 C7.7 -1.66, 34.31 -5.11, 40.88 -6.12 M0.18 1.81 C6.62 0.29, 33.73 -6, 40.36 -7.75" stroke="#000000" stroke-width="1" fill="none"></path></g></g><g stroke-linecap="round"><g transform="translate(187.50291898374076 138.70775449437497) rotate(0 24.596796791934935 11.988378163231118)"><path d="M-0.53 0.82 C7.64 4.61, 41.43 19.94, 49.72 23.77 M1.4 0.21 C9.43 4.14, 41.38 18.29, 49.27 21.87" stroke="#000000" stroke-width="1" fill="none"></path></g></g><g stroke-linecap="round"><g transform="translate(193.4433944314667 138.66669769786859) rotate(0 20.146427726706634 -3.771246728359529)"><path d="M0.82 0.95 C7.39 -0.07, 33.88 -5.39, 40.5 -6.61 M-0.2 0.4 C6.15 -0.94, 33.08 -7.03, 39.78 -8.49" stroke="#000000" stroke-width="1" fill="none"></path></g></g><g stroke-linecap="round"><g transform="translate(190.99107251287478 175.9408495768639) rotate(0 24.609455028823163 11.710745855224559)"><path d="M0.95 0.44 C9.24 4.27, 41.15 19.86, 49.24 23.8 M-0.02 -0.38 C8.2 3.02, 40.35 18.17, 48.53 21.92" stroke="#000000" stroke-width="1" fill="none"></path></g></g><g stroke-linecap="round"><g transform="translate(196.93154796060253 175.89979278035662) rotate(0 19.8687954187003 -3.845787348209342)"><path d="M0.44 0.46 C7.06 -0.76, 33.8 -5.26, 40.53 -6.39 M-0.79 -0.34 C5.64 -1.99, 32.95 -6.84, 39.83 -8.15" stroke="#000000" stroke-width="1" fill="none"></path></g></g><g stroke-linecap="round"><g transform="translate(186.7167508718137 217.3841888992347) rotate(0 24.35031525736167 11.874837637794371)"><path d="M0.46 0.47 C8.55 4.41, 41.27 20.4, 49.46 24.08 M-0.76 -0.33 C7.15 3.23, 40.54 18.39, 48.87 22.35" stroke="#000000" stroke-width="1" fill="none"></path></g></g><g stroke-linecap="round"><g transform="translate(192.65722631954145 217.3431321027274) rotate(0 20.032887201270228 -3.6642371172297317)"><path d="M0.47 0.68 C7.2 -0.44, 34.34 -5.01, 40.81 -6.29 M-0.74 -0.01 C5.86 -1.51, 33.17 -7.06, 40.25 -8.01" stroke="#000000" stroke-width="1" fill="none"></path></g></g><g stroke-linecap="round"><g transform="translate(194.04572966009096 95.16717547553435) rotate(0 -1.3097576249052736 77.3804506231113)"><path d="M0.68 0.75 C0.14 26.26, -2.06 127.9, -2.76 153.54 M-0.42 0.1 C-1.09 25.71, -2.66 128.67, -3.3 154.66" stroke="#000000" stroke-width="1" fill="none"></path></g></g><g stroke-linecap="round"><g transform="translate(384.93933172789 314.30524428979334) rotate(0 -106.70873267323464 36.7624021163997)"><path d="M0.75 0.78 C-35.02 12.63, -178.52 60.16, -214.17 71.84 M-0.31 0.14 C-35.75 12.14, -176.3 61.47, -211.87 73.39" stroke="#000000" stroke-width="1" fill="none"></path></g></g><g stroke-linecap="round"><g transform="translate(392.63106591408587 107.28235791707448) rotate(0 -106.28498921067217 35.62635795948563)"><path d="M0.78 -0.8 C-34.9 11.09, -177.49 60.09, -213.35 72.05" stroke="#000000" stroke-width="1.5" fill="none" stroke-dasharray="1.5 7"></path></g></g><g stroke-linecap="round"><g transform="translate(233.41805554634152 30.728607101451416) rotate(0 -106.48372737578813 35.43638964806223)"><path d="M-0.8 0.03 C-36.44 11.71, -177.56 58.73, -213.13 70.84 M0.99 -1 C-34.86 10.73, -178.5 59.9, -213.96 71.88" stroke="#000000" stroke-width="1" fill="none"></path></g></g><g stroke-linecap="round"><g transform="translate(25.898086875583203 98.8804973784172) rotate(0 -2.519628512108625 100.31600611561498)"><path d="M0.03 0.24 C-0.95 33.74, -4.53 166.73, -5.07 200.22 M-1.42 -0.68 C-2.09 33.02, -2.52 167.43, -2.86 201.31" stroke="#000000" stroke-width="1" fill="none"></path></g></g><g stroke-linecap="round"><g transform="translate(184.93769793690103 190.42814316785643) rotate(0 -2.3542564503791255 100.50374810593758)"><path d="M0.24 -0.96 C-0.45 32.69, -4.25 168.22, -4.95 201.97" stroke="#000000" stroke-width="1.5" fill="none" stroke-dasharray="1.5 7"></path></g></g><g stroke-linecap="round"><g transform="translate(17.69142985038775 297.8919302394024) rotate(0 77.93544128664928 45.58481021238731)"><path d="M-0.96 -0.85 C25.17 14.18, 130.61 75.11, 156.83 90.41 M0.73 1.33 C26.78 16.55, 130.51 77.42, 156.36 92.01" stroke="#000000" stroke-width="1" fill="none"></path></g></g><g stroke-linecap="round"><g transform="translate(28.582873813888682 93.50245829013875) rotate(0 77.60758901366205 45.82389153974873)"><path d="M-0.85 0.91 C25.12 16.19, 129.82 75.87, 156.06 90.74" stroke="#000000" stroke-width="1.5" fill="none" stroke-dasharray="1.5 7"></path></g></g><g stroke-linecap="round"><g transform="translate(229.54690582189505 35.774750942130595) rotate(0 80.21104972382136 38.88552307531336)"><path d="M0.91 0.13 C27.82 13.38, 134 65.66, 160.5 78.61 M-0.07 -0.84 C26.8 12.13, 133.28 63.51, 159.79 76.83" stroke="#000000" stroke-width="1" fill="none"></path></g></g><g stroke-linecap="round"><g transform="translate(225.0278599463229 34.61488193736932) rotate(0 -0.9378510896414127 25.102264629302226)"><path d="M0.13 0.47 C0.04 8.5, -1.01 40.94, -1.4 49.08 M-1.26 -0.33 C-1.38 7.81, -1.71 42.03, -2.01 50.54" stroke="#000000" stroke-width="1" fill="none"></path></g></g><g stroke-linecap="round"><g transform="translate(395.9555172948401 122.89583781210877) rotate(0 -2.4116897937925614 101.16646249645919)"><path d="M0.47 0.65 C-0.4 34.11, -3.51 167.55, -4.26 200.92 M-0.75 -0.06 C-1.86 33.59, -4.63 168.7, -5.29 202.39" stroke="#000000" stroke-width="1" fill="none"></path></g></g></svg>