<svg version="1.1" xmlns="http://www.w3.org/2000/svg" viewBox="0 0 160.00000000000023 150" width="480.0000000000007" height="450">
  <!-- svg-source:excalidraw -->
  
  <defs>
    <style class="style-fonts">
      @font-face {
        font-family: "Virgil";
        src: url("https://excalidraw.com/Virgil.woff2");
      }
      @font-face {
        font-family: "Cascadia";
        src: url("https://excalidraw.com/Cascadia.woff2");
      }
    </style>
    
  </defs>
  <g stroke-linecap="round"><g transform="translate(64.68803547058178 34.606460025458546) rotate(0 33.95618412618887 20.664098279619793)"><path d="M-1.17 0.79 C10.32 7.48, 57.3 33.38, 69.08 39.72 M0.42 0.15 C11.74 7.08, 56.71 34.6, 68.14 41.17" stroke="#000000" stroke-width="1" fill="none"></path></g></g><mask></mask><g stroke-linecap="round"><g transform="translate(37.647988527069174 79.55494679558069) rotate(0 35.11183061964243 19.739229855979374)"><path d="M-0.27 0.52 C11.27 6.83, 56.78 32.26, 68.23 38.77 M1.78 -0.25 C13.79 6.08, 59.57 32.89, 70.5 39.73" stroke="#000000" stroke-width="1" fill="none"></path></g></g><mask></mask><g stroke-linecap="round"><g transform="translate(132.37045349235268 74.75080682245243) rotate(0 -13.388908215692027 22.535135306578013)"><path d="M0.17 0.67 C-4.01 7.97, -21.54 36.79, -25.94 43.96 M-1.2 -0.03 C-5.48 7.4, -22.62 37.68, -26.95 45.1" stroke="#000000" stroke-width="1" fill="none"></path></g></g><mask></mask><g stroke-linecap="round"><g transform="translate(40.262762097320774 82.6706455259964) rotate(0 -5.323394674656129 -19.262834400002703)"><path d="M0.72 -1.12 C-1.01 -7.58, -9.71 -33.05, -11.36 -39.44 M-0.37 0.91 C-1.64 -5.35, -7.66 -31.7, -9.16 -38.25" stroke="#000000" stroke-width="1" fill="none"></path></g></g><mask></mask><g stroke-linecap="round"><g transform="translate(30.237376911597494 40.7064479622004) rotate(0 15.427891559741397 -4.182834106058635)"><path d="M0.19 1.12 C5.4 -0.16, 26.73 -6.05, 32.03 -7.69 M-1.18 0.66 C3.9 -0.97, 26.15 -8.11, 31.63 -9.49" stroke="#000000" stroke-width="1" fill="none"></path></g></g><mask></mask><g stroke-linecap="round" transform="translate(45.36820307170956 48.271861042257115) rotate(0 5.6740598100419675 6.304510900046353)"><path d="M7.97 -0.03 C9.16 0.5, 10.78 2.61, 11.38 3.74 C11.97 4.87, 11.88 5.61, 11.56 6.78 C11.24 7.95, 10.35 9.95, 9.46 10.77 C8.57 11.58, 7.46 11.67, 6.22 11.65 C4.98 11.63, 3.11 11.31, 2.02 10.62 C0.92 9.94, -0.19 8.86, -0.34 7.57 C-0.5 6.27, 0.47 4.16, 1.09 2.84 C1.71 1.52, 2.12 -0.12, 3.38 -0.36 C4.63 -0.6, 7.72 1.16, 8.61 1.38 C9.5 1.61, 8.95 1.17, 8.73 0.99 M4.65 0.53 C6.05 0.6, 8.63 1.02, 9.79 1.58 C10.95 2.14, 11.26 2.47, 11.6 3.88 C11.94 5.28, 12.52 8.75, 11.85 10.03 C11.17 11.31, 8.76 11.09, 7.56 11.55 C6.36 12.02, 5.99 13.38, 4.62 12.81 C3.26 12.24, 0.06 9.47, -0.64 8.15 C-1.34 6.83, 0.09 5.88, 0.44 4.91 C0.78 3.95, 0.43 3.39, 1.41 2.37 C2.4 1.36, 5.62 -0.61, 6.35 -1.19 C7.07 -1.78, 5.67 -1.21, 5.76 -1.12" stroke="#000000" stroke-width="1" fill="none"></path></g><g stroke-linecap="round"><g transform="translate(71.06779365060447 64.9647052685932) rotate(29.999999999999964 22.320972231922156 4.712465517121927)"><path d="M0.28 -0.15 C0.87 1.27, 0.67 7.69, 3.09 9.01 C5.51 10.32, 11.34 8.59, 14.8 7.74 C18.27 6.89, 21.71 3.41, 23.88 3.9 C26.05 4.4, 25.78 10.67, 27.81 10.7 C29.84 10.74, 33.15 4.72, 36.08 4.12 C39.01 3.51, 43.65 6.38, 45.39 7.08 M-1.04 -1.28 C0 0.24, 2.91 8.93, 5.46 10.12 C8.02 11.31, 11.16 6.71, 14.29 5.85 C17.42 5, 21.7 4.22, 24.25 5 C26.8 5.77, 27.36 10.31, 29.57 10.53 C31.77 10.75, 34.79 6.58, 37.48 6.33 C40.16 6.07, 44.31 8.68, 45.68 8.98" stroke="#000000" stroke-width="1" fill="none"></path></g></g><mask></mask><g stroke-linecap="round"><g transform="translate(66.08617094837837 76.24274886182047) rotate(29.999999999999964 22.163079408833255 5.465712302069278)"><path d="M-0.56 -0.24 C-0.03 1.65, 1.35 9.53, 3.77 10.52 C6.19 11.51, 10.59 6.71, 13.97 5.69 C17.35 4.67, 21.81 3.37, 24.06 4.4 C26.31 5.43, 25.34 11.66, 27.48 11.89 C29.61 12.12, 33.96 6.4, 36.86 5.8 C39.76 5.2, 43.45 8.04, 44.86 8.29 M1.35 -1.41 C1.67 0.21, 0.89 7.46, 2.84 8.76 C4.78 10.07, 9.41 6.9, 13.02 6.39 C16.63 5.89, 21.85 4.76, 24.52 5.75 C27.19 6.74, 27.31 12.43, 29.06 12.34 C30.81 12.25, 32.37 6.08, 35.01 5.22 C37.65 4.36, 42.77 6.93, 44.88 7.17" stroke="#000000" stroke-width="1" fill="none"></path></g></g><mask></mask><g stroke-linecap="round" transform="translate(10 10) rotate(0 70.00000000000011 65)"><path d="M32 0 M32 0 C49.98 0.13, 65.86 0.09, 108 0 M32 0 C58.39 0.05, 83.8 0.39, 108 0 M108 0 C127.62 1.94, 140.89 10.28, 140 32 M108 0 C128.05 0.67, 142.28 9, 140 32 M140 32 C138.78 52.62, 141.71 76.38, 140 98 M140 32 C140.3 57.76, 138.81 82.94, 140 98 M140 98 C139.96 119.79, 127.63 128.47, 108 130 M140 98 C138.65 121.63, 129.76 131.78, 108 130 M108 130 C91.2 131.04, 78.95 127.98, 32 130 M108 130 C91.99 130.42, 74.17 129.52, 32 130 M32 130 C10.27 129.71, -1.21 120.56, 0 98 M32 130 C12.29 130.78, 0.74 118.41, 0 98 M0 98 C0.93 78.68, 0.29 62.21, 0 32 M0 98 C-0.36 73.45, 0.23 46.96, 0 32 M0 32 C0.86 9, 11.08 0.36, 32 0 M0 32 C-2.09 11.65, 11.64 -0.67, 32 0" stroke="transparent" stroke-width="1" fill="none"></path></g></svg>