<svg version="1.1" xmlns="http://www.w3.org/2000/svg" viewBox="0 0 413.1492529628317 422.1252633044496" width="413.1492529628317" height="422.1252633044496">
  <!-- svg-source:excalidraw -->
  
  <defs>
    <style class="style-fonts">
      @font-face {
        font-family: "Virgil";
        src: url("https://excalidraw.com/Virgil.woff2");
      }
      @font-face {
        font-family: "Cascadia";
        src: url("https://excalidraw.com/Cascadia.woff2");
      }
    </style>
  </defs>
  <g stroke-linecap="round" transform="translate(10 10) rotate(0 196.57462648141586 201.0626316522248)"><path d="M-0.13 -0.14 C112.91 0.75, 223.19 1.29, 392.56 -0.74 M392.31 -0.06 C392.31 148.03, 391.19 293.86, 392.45 402.43 M392.9 401.41 C245.18 405.15, 98.89 404.48, -0.13 402.35 M-0.68 401.03 C0.03 299.61, 1.35 196.85, -0.59 0.07" stroke="transparent" stroke-width="1.5" fill="none" stroke-dasharray="1.5 7"></path></g><g stroke-linecap="round" transform="translate(57.800672204488365 182.4814040012443) rotate(0 160.82270668225783 109.65184546517594)"><path d="M1.11 1.66 L321.11 -0.34 L319.87 220.8 L-1.65 219.85" stroke="none" stroke-width="0" fill="#ffffffff"></path><path d="M-0.23 0.72 C92.38 -1.74, 183.84 -1.81, 322.26 1.11 M0.31 -0.19 C90.56 -1.18, 181.35 -1.18, 321.59 -0.04 M321.35 -0.73 C322.77 77.62, 322.05 157.01, 322.13 218.7 M320.91 0.05 C323.12 66.04, 322.45 132.91, 321.44 219.52 M322.63 219.66 C210.66 218.53, 101.76 219.4, -0.71 219.97 M322.24 218.86 C251.78 220.29, 182.46 219.96, -0.48 218.76 M1.29 220.57 C2.03 170.9, 2.16 123.13, -0.49 -0.64 M0.29 218.96 C2.15 141.48, 2.52 62.38, 0.43 0.14" stroke="#000000" stroke-width="1" fill="none"></path></g><g stroke-linecap="round" transform="translate(135.7753178686121 294.5699571434243) rotate(0 29.24049212404691 53.607568894085944)"><path d="M1.66 -0.54 L58.15 -1.78 L59.98 105.57 L0.54 108.87" stroke="none" stroke-width="0" fill="#ffffffff"></path><path d="M1.04 1.3 C15.15 1.36, 30.43 0.98, 60.07 -0.37 M-0.27 0.02 C15.34 0.1, 30.45 -0.34, 58.43 0.56 M57.64 -0.19 C58.51 38.4, 59.96 79.39, 57.79 107.29 M58.54 0.26 C57.45 38.69, 57.76 78.17, 58.74 107.65 M58.99 106.28 C36.48 108.74, 17.52 106.61, 0.96 105.53 M57.84 106.45 C40.15 106.97, 21.37 107.03, -0.78 106.42 M1.45 108.4 C0.9 82.02, 1.61 53.6, -0.74 1.17 M-0.4 107.67 C1.75 85.81, 1.17 63.13, 0.16 0.56" stroke="#000000" stroke-width="1" fill="none"></path></g><g stroke-linecap="round" transform="translate(252.7372863648052 240.9623882493297) rotate(0 31.677199801050733 34.1139074780549)"><path d="M-0.54 -0.34 L61.57 1.5 L61.71 68.77 L1.65 66.58" stroke="none" stroke-width="0" fill="#ffffffff"></path><path d="M1.3 -0.22 C24.76 -0.65, 47.86 1.26, 62.98 -0.83 M0.02 0.24 C23.17 0.41, 45.55 0.12, 63.92 0.68 M63.17 -0.57 C62.23 25.16, 63.8 47.87, 63.43 69.54 M63.61 -0.65 C62.27 17.69, 62.55 36.31, 63.78 68.68 M62.42 66.44 C44.13 67.84, 21.67 69.35, -1.69 68.49 M62.59 68.21 C40.79 67.33, 19.02 67.04, -0.79 67.7 M1.18 68.2 C0.82 54.32, -1.07 38.28, 1.17 -1.84 M0.46 69.13 C0.66 53.52, 0.27 38.34, 0.56 0.83" stroke="#000000" stroke-width="1" fill="none"></path></g><g stroke-linecap="round"><g transform="translate(52.92725685048276 170.29786561622223) rotate(0 100.1490843390535 -73.26143740287944)"><path d="M0.78 -0.13 C34.24 -24.63, 167.31 -122.21, 200.57 -146.39 M-0.27 -1.24 C33.12 -25.61, 166.67 -120.65, 200.02 -144.95" stroke="#000000" stroke-width="1" fill="none"></path></g></g><g stroke-linecap="round"><g transform="translate(379.4460855690061 180.04469632423388) rotate(0 -71.34865781698693 -79.47246026451376)"><path d="M-0.13 0.76 C-23.82 -25.68, -118.15 -131.3, -141.52 -157.86 M-1.66 0.11 C-25.58 -26.75, -119.4 -133.45, -142.57 -159.7" stroke="#000000" stroke-width="1" fill="none"></path></g></g></svg>